<?xml version="1.0" encoding="utf-8"?>
<!-- Generator: Adobe Illustrator 23.0.1, SVG Export Plug-In . SVG Version: 6.00 Build 0)  -->
<svg version="1.1" xmlns="http://www.w3.org/2000/svg" xmlns:xlink="http://www.w3.org/1999/xlink" x="0px" y="0px"
	 viewBox="0 0 425.2 354.33" style="enable-background:new 0 0 425.2 354.33;" xml:space="preserve">
<style type="text/css">
	.st0{fill:#F4C766;}
	.st1{fill:#955260;}
	.st2{fill:#77393D;}
	.st3{fill:#544A4F;}
	.st4{fill:#FBEBE8;}
	.st5{fill:#BD9DA0;}
	.st6{fill:#B18A8D;}
	.st7{fill:#3A4450;}
	.st8{fill:#8C6C6F;}
	.st9{fill:#A8ADB6;}
	.st10{fill:#BC6069;}
	.st11{fill:#A25963;}
	.st12{fill:#C7ADB0;}
	.st13{fill:#DED0C0;}
	.st14{fill:#A77E84;}
	.st15{fill:#624E52;}
	.st16{fill:#766569;}
	.st17{fill:#8C6A70;}
	.st18{fill:#AA888D;}
	.st19{fill:#745E62;}
	.st20{fill:#B79CA1;}
	.st21{fill:#5B4548;}
	.st22{fill:#74565A;}
	.st23{fill:#7A5B5F;}
	.st24{fill:#734953;}
	.st25{fill:#9F6A78;}
	.st26{fill:#704F5A;}
	.st27{fill:#875A64;}
	.st28{fill:#AA6974;}
	.st29{fill:#DABEC3;}
	.st30{fill:#E9E6E6;}
	.st31{fill:#AC5E6B;}
	.st32{fill:#6A3D44;}
	.st33{fill:#18ABA1;}
	.st34{clip-path:url(#SVGID_2_);}
	.st35{fill:#EACFAA;}
	.st36{fill:#E3C595;}
	.st37{fill:#FADEC4;}
	.st38{fill:#F0DCC0;}
	.st39{clip-path:url(#SVGID_2_);fill:#F0DCC0;}
	.st40{clip-path:url(#SVGID_2_);fill:#A18865;}
	.st41{fill:#CEA871;}
	.st42{fill:#ECD4B0;}
	.st43{clip-path:url(#SVGID_2_);fill:#85B5AC;}
	.st44{fill:#748F3E;}
	.st45{fill:#567132;}
	.st46{fill:#9A5B25;}
	.st47{fill:#40592B;}
	.st48{fill:#734521;}
	.st49{fill:#493919;}
	.st50{fill:#715927;}
	.st51{fill:#385D31;}
	.st52{fill:#9BB051;}
	.st53{fill:#2A4E28;}
	.st54{fill:#7FA340;}
	.st55{fill:#243D1E;}
	.st56{fill:#AFBA65;}
	.st57{fill:#668E3F;}
	.st58{fill:#ADB9C1;}
	.st59{fill:#8A959A;}
	.st60{fill:#616A6D;}
	.st61{fill:#75B05E;}
	.st62{fill:#BCCA45;}
	.st63{fill:#AAAF31;}
	.st64{fill:#909029;}
	.st65{fill:#DF5F45;}
	.st66{fill:none;stroke:#FFFFFF;stroke-miterlimit:10;}
	.st67{fill:#AF624C;}
	.st68{fill:#DA8A64;}
	.st69{fill:#D9A13F;}
	.st70{fill:#EDB94C;}
	.st71{fill:#8B4953;}
	.st72{fill:#CB7B58;}
	.st73{fill:none;}
	.st74{fill:#E9AC4E;}
	.st75{fill:#B29794;}
	.st76{opacity:0.5;fill:#8A6139;}
	.st77{fill:#D7D2BE;}
	.st78{fill:#CBBCB5;}
	.st79{fill:#B39A95;}
	.st80{fill:#F7F3E6;}
	.st81{fill:#F2EADC;}
	.st82{fill:#3B232B;}
	.st83{fill:#5D3C44;}
	.st84{fill:#D5D4C4;}
	.st85{fill:#F1F2DD;}
	.st86{fill:#62474D;}
	.st87{fill:#A49088;}
	.st88{fill:#E8F3E1;}
	.st89{fill:#AF9590;}
	.st90{fill:#D8C8BE;}
	.st91{fill:#F5EFDF;}
	.st92{fill:#F1EBDD;}
	.st93{fill:#F0E3DC;}
	.st94{fill:none;stroke:#F5EFDF;stroke-width:0.5;stroke-miterlimit:10;}
	.st95{fill:#E9AC4E;stroke:#FFFFFF;stroke-width:0.5;stroke-miterlimit:10;}
	.st96{fill:none;stroke:#F2EADC;stroke-miterlimit:10;}
	.st97{opacity:0.8;fill:#99D3C8;}
	.st98{fill:#FAEDD7;}
	.st99{fill:#E9D3A4;}
	.st100{fill:#887853;}
	.st101{opacity:0.6;fill:#99D3C8;}
	.st102{clip-path:url(#SVGID_2_);fill:#ADB9C1;}
	.st103{clip-path:url(#SVGID_2_);fill:#B1B85D;}
	.st104{fill:#C7AC7E;}
	.st105{fill:#F7DFB6;}
	.st106{fill:#DA8B6C;}
	.st107{fill:#EED7B6;}
	.st108{fill:#352D31;}
	.st109{fill:#E5CAA8;}
	.st110{fill:#211B27;}
	.st111{fill:#0E0205;}
	.st112{fill:#C8A57C;}
	.st113{fill:#181432;}
	.st114{fill:#192016;}
	.st115{fill:#2A222E;}
	.st116{fill:#131212;}
	.st117{fill:#383236;}
	.st118{fill:#443A38;}
	.st119{fill:#F6D9B7;}
	.st120{fill:#151313;}
	.st121{fill:#D98A73;}
	.st122{fill:#8E4329;}
	.st123{fill:#F5C620;}
	.st124{fill:#ED8916;}
	.st125{fill:#C97315;}
	.st126{fill:#891C21;}
	.st127{fill:#C8C4BE;}
	.st128{fill:#D9D3CE;}
	.st129{fill:#FFFFFF;}
	.st130{fill:#F0EFEF;}
	.st131{fill:#F1AB40;}
	.st132{fill:#DA8F2D;}
	.st133{fill:#856727;}
	.st134{clip-path:url(#SVGID_2_);fill:#8A959A;}
	.st135{clip-path:url(#SVGID_2_);fill:#9A5B25;}
	.st136{fill:#D2A671;}
	.st137{fill:#CA8F6B;}
	.st138{fill:#AB6F4C;}
	.st139{fill:#D9A086;}
	.st140{fill:#A18376;}
	.st141{clip-path:url(#SVGID_2_);fill:#929441;}
	.st142{clip-path:url(#SVGID_2_);fill:#CA8F6B;}
	.st143{clip-path:url(#SVGID_2_);fill:#FAD3A4;}
	.st144{clip-path:url(#SVGID_2_);fill:#D9A086;}
	.st145{clip-path:url(#SVGID_2_);fill:#D2A671;}
	.st146{clip-path:url(#SVGID_2_);fill:#AB6F4C;}
	.st147{clip-path:url(#SVGID_2_);fill:#616A6D;}
	.st148{clip-path:url(#SVGID_2_);fill:#734521;}
	.st149{fill:#014A63;}
	.st150{fill:#2683AD;}
	.st151{fill:#09698D;}
	.st152{fill:#0C6396;}
	.st153{fill:#0C6BB0;}
	.st154{fill:#DCE78D;}
	.st155{fill:#B1B85D;}
	.st156{fill:#70712D;}
	.st157{fill:#FAD3A4;}
	.st158{fill:#929441;}
	.st159{fill:#547D55;}
	.st160{fill:#689755;}
	.st161{fill:#999791;}
	.st162{fill:#5A5D5A;}
	.st163{fill:#727271;}
	.st164{fill:#EDBA61;}
	.st165{fill:#E3A43C;}
	.st166{fill:#E2921A;}
	.st167{fill:#A8B2DA;}
	.st168{fill:#DCDFF0;}
	.st169{fill:#3E73B9;}
	.st170{fill:#5281C2;}
	.st171{fill:#838FB2;}
	.st172{fill:#9DA8C4;}
	.st173{fill:#F8CA81;}
	.st174{fill:#540A10;}
	.st175{fill:#64231C;}
	.st176{fill:#B92E21;}
	.st177{fill:#861B20;}
	.st178{fill:#103672;}
	.st179{fill:#D8A417;}
	.st180{fill:#F5B719;}
	.st181{fill:#D8A415;}
	.st182{fill:#BB8818;}
	.st183{fill:#F1B86D;}
	.st184{fill:#D29A56;}
	.st185{fill:#219CD9;}
	.st186{fill:#F9DBC0;}
	.st187{fill:#E0B8A4;}
	.st188{fill:#BC8B76;}
	.st189{fill:#E9C8AD;}
	.st190{fill:#6D3D30;}
	.st191{fill:#B48F76;}
	.st192{fill:#76594A;}
	.st193{fill:#C8A68C;}
	.st194{fill:#A78269;}
	.st195{fill:#7E634E;}
	.st196{fill:#CFA88B;}
	.st197{fill:#493223;}
	.st198{fill:#997967;}
	.st199{fill:#E6C6AA;}
	.st200{fill:#C3A38B;}
	.st201{fill:#C3A18A;}
	.st202{fill:#6C5244;}
	.st203{fill:#74C0B3;}
	.st204{fill:#895140;}
	.st205{fill:#AB715C;}
	.st206{fill:#AE7E6C;}
	.st207{fill:#CAA392;}
	.st208{fill:#654237;}
	.st209{fill:#BE9C80;}
	.st210{fill:#7A534A;}
	.st211{fill:#884D3F;}
	.st212{fill:#85AA39;}
	.st213{fill:#6A8B32;}
	.st214{fill:#9BBA58;}
	.st215{fill:#5D7F34;}
	.st216{fill:#4C6830;}
	.st217{fill:#3C5C2D;}
	.st218{fill:#304E27;}
	.st219{fill:#557232;}
	.st220{fill:#49652F;}
	.st221{fill:#5F8434;}
	.st222{fill:#6C9F30;}
	.st223{fill:#BF9457;}
	.st224{fill:#8F6225;}
	.st225{fill:#AB7C30;}
	.st226{fill:#79583F;}
	.st227{fill:#28100B;}
	.st228{fill:#23100D;}
	.st229{opacity:0.6;fill:#219CD9;}
	.st230{fill:#CBE8F0;}
	.st231{fill:#87CFE9;}
	.st232{fill:#A7DAE9;}
	.st233{clip-path:url(#SVGID_4_);}
	.st234{clip-path:url(#SVGID_2_);fill:#70712D;}
	.st235{clip-path:url(#SVGID_2_);fill:none;}
	.st236{fill:#D4DB6E;}
	.st237{fill:#9F9F49;}
	.st238{fill:#BCBE5D;}
	.st239{fill:#D3C2A4;}
	.st240{fill:#C3BEAD;}
	.st241{fill:#E8D7C2;}
	.st242{fill:#878577;}
	.st243{fill:#DCD8CB;}
	.st244{fill:#F1EEE8;}
	.st245{fill:#1A3F61;}
	.st246{fill:#163955;}
	.st247{fill:#123048;}
	.st248{fill:#25567E;}
	.st249{fill:#D0C8B9;}
	.st250{fill:#FCEDDE;}
	.st251{fill:#FEF3EA;}
	.st252{fill:#082332;}
	.st253{fill:#F8EEE4;}
	.st254{fill:#C2AB93;}
	.st255{fill:#D2BFB3;}
	.st256{fill:#B17441;}
	.st257{fill:none;stroke:#73502D;stroke-width:0.2;stroke-miterlimit:10;}
	.st258{fill:none;stroke:#73502D;stroke-width:0.15;stroke-miterlimit:10;}
	.st259{fill:#FCECE1;}
	.st260{fill:#C2AF9A;}
	.st261{fill:#918781;}
	.st262{fill:#6D6E72;}
	.st263{fill:#FFFAEF;}
	.st264{fill:#E2DFD8;}
	.st265{fill:#53555B;}
	.st266{fill:#336D94;}
	.st267{fill:#F2F09E;}
	.st268{fill:#BEB954;}
	.st269{fill:#D4CE7A;}
	.st270{fill:#DCA570;}
	.st271{fill:#955C34;}
	.st272{fill:#BC8152;}
	.st273{fill:#72351C;}
	.st274{fill:#904B23;}
	.st275{fill:#8E694D;}
	.st276{fill:#85C35E;}
	.st277{fill:#709430;}
	.st278{fill:#5F432F;}
	.st279{fill:#B4CF4D;}
	.st280{fill:#CBDC50;}
	.st281{fill:#EFB99F;}
	.st282{fill:#BA4458;}
	.st283{fill:#4C515A;}
	.st284{fill:#075A7C;}
	.st285{fill:#3A97AE;}
	.st286{fill:#E8A78C;}
	.st287{fill:#F1BA9F;}
	.st288{fill:#9C1E2C;}
	.st289{fill:#452C25;}
	.st290{fill:#E45438;}
	.st291{fill:#C4361E;}
	.st292{fill:#E3F2F1;}
	.st293{fill:#D5ECEA;}
	.st294{fill:#BCE1DB;}
	.st295{fill:#F2F9FA;}
	.st296{fill:#62B0A0;}
	.st297{fill:#72C4B3;}
	.st298{fill:#B7DDDA;}
	.st299{fill:#E14947;}
	.st300{fill:#BDC64F;}
	.st301{fill:#EEDA98;}
	.st302{fill:#D09E23;}
	.st303{fill:#EDBB30;}
	.st304{fill:#46B9A8;}
	.st305{fill:#2AA390;}
	.st306{fill:#E8D0CC;}
	.st307{fill:#ED7016;}
	.st308{fill:#933030;}
	.st309{fill:#539835;}
	.st310{fill:#6C4D37;}
	.st311{fill:#E8AEB9;}
	.st312{fill:#D61D2B;}
	.st313{fill:#18708D;}
	.st314{fill:#67A2A1;}
	.st315{fill:#7FBFBC;}
	.st316{fill:#825D41;}
	.st317{fill:#9A6542;}
	.st318{fill:#60B1D5;}
	.st319{fill:#7CCBE7;}
	.st320{fill:#749936;}
	.st321{fill:#96BE53;}
	.st322{fill:#7FA742;}
	.st323{fill:#AAC96A;}
	.st324{fill:#B57F59;}
	.st325{fill:#AB744E;}
	.st326{fill:#DDA137;}
	.st327{fill:#E7B64E;}
	.st328{fill:#C38A63;}
	.st329{fill:#93C67D;}
	.st330{fill:#425A5F;}
	.st331{fill:#617D80;}
	.st332{fill:#73A961;}
	.st333{fill:#C12A1F;}
	.st334{fill:#D8452B;}
	.st335{fill:#4C675E;}
	.st336{fill:#89664B;}
	.st337{fill:#E15513;}
	.st338{fill:#88D0ED;}
	.st339{fill:#D2B6D7;}
	.st340{fill:#804999;}
	.st341{fill:#5A6A99;}
	.st342{fill:#4C5A89;}
	.st343{fill:#D8A641;}
	.st344{fill:#E8C127;}
	.st345{fill:#EFCA32;}
	.st346{fill-rule:evenodd;clip-rule:evenodd;fill:#2F93C7;}
	.st347{fill-rule:evenodd;clip-rule:evenodd;fill:#15323F;}
	.st348{fill-rule:evenodd;clip-rule:evenodd;fill:#092745;}
	.st349{fill-rule:evenodd;clip-rule:evenodd;fill:#0A335A;}
	.st350{fill-rule:evenodd;clip-rule:evenodd;fill:#E9BC7B;}
	.st351{fill-rule:evenodd;clip-rule:evenodd;fill:#227AA7;}
	.st352{fill-rule:evenodd;clip-rule:evenodd;fill:#1684B9;}
	.st353{fill-rule:evenodd;clip-rule:evenodd;fill:#FAD8A5;}
	.st354{fill-rule:evenodd;clip-rule:evenodd;fill:#321306;}
	.st355{fill-rule:evenodd;clip-rule:evenodd;fill:#1C95CF;}
	.st356{fill-rule:evenodd;clip-rule:evenodd;fill:#11868E;}
	.st357{fill-rule:evenodd;clip-rule:evenodd;fill:#28B4B3;}
	.st358{fill-rule:evenodd;clip-rule:evenodd;fill:#030912;}
	.st359{fill-rule:evenodd;clip-rule:evenodd;fill:#021A2F;}
	.st360{fill-rule:evenodd;clip-rule:evenodd;fill:#1D1D1F;}
	.st361{fill-rule:evenodd;clip-rule:evenodd;fill:#46BDCC;}
	.st362{fill-rule:evenodd;clip-rule:evenodd;fill:#C1A76A;}
	.st363{fill-rule:evenodd;clip-rule:evenodd;fill:#A08857;}
	.st364{fill-rule:evenodd;clip-rule:evenodd;fill:#D9BE7D;}
	.st365{fill-rule:evenodd;clip-rule:evenodd;fill:#A7905F;}
	.st366{fill-rule:evenodd;clip-rule:evenodd;fill:#CBB174;}
	.st367{fill-rule:evenodd;clip-rule:evenodd;fill:#823F34;}
	.st368{fill-rule:evenodd;clip-rule:evenodd;fill:#F5A22C;}
	.st369{fill-rule:evenodd;clip-rule:evenodd;fill:#F6B758;}
	.st370{fill-rule:evenodd;clip-rule:evenodd;fill:#7C4A36;}
	.st371{fill-rule:evenodd;clip-rule:evenodd;fill:#583424;}
	.st372{fill-rule:evenodd;clip-rule:evenodd;fill:#8F563A;}
	.st373{fill-rule:evenodd;clip-rule:evenodd;fill:#456530;}
	.st374{fill-rule:evenodd;clip-rule:evenodd;fill:#749D3D;}
	.st375{fill-rule:evenodd;clip-rule:evenodd;fill:#5F8834;}
	.st376{fill-rule:evenodd;clip-rule:evenodd;fill:#EB5A19;}
	.st377{fill-rule:evenodd;clip-rule:evenodd;fill:#ED6C1C;}
	.st378{fill-rule:evenodd;clip-rule:evenodd;fill:#34963C;}
	.st379{fill-rule:evenodd;clip-rule:evenodd;fill:#49B053;}
	.st380{fill-rule:evenodd;clip-rule:evenodd;fill:#3B3232;}
	.st381{fill-rule:evenodd;clip-rule:evenodd;fill:#A7C7E2;}
	.st382{fill-rule:evenodd;clip-rule:evenodd;fill:#C4DBEE;}
	.st383{fill-rule:evenodd;clip-rule:evenodd;fill:#1B3346;}
	.st384{fill-rule:evenodd;clip-rule:evenodd;fill:#365975;}
	.st385{fill-rule:evenodd;clip-rule:evenodd;fill:#224058;}
	.st386{fill-rule:evenodd;clip-rule:evenodd;fill:#416787;}
	.st387{fill-rule:evenodd;clip-rule:evenodd;fill:#040000;}
	.st388{fill-rule:evenodd;clip-rule:evenodd;fill:#D7EAF8;}
	.st389{fill-rule:evenodd;clip-rule:evenodd;fill:#111111;}
	.st390{fill-rule:evenodd;clip-rule:evenodd;fill:#2E2C2C;}
	.st391{fill-rule:evenodd;clip-rule:evenodd;fill:#3B3939;}
	.st392{fill:#72A1A4;}
	.st393{fill:#95BDC4;}
	.st394{fill:#C3E0E6;}
	.st395{opacity:0.53;fill:#403532;}
	.st396{fill:#E7EAF2;}
	.st397{fill:#A0AAB5;}
	.st398{fill:#B7BFC8;}
	.st399{fill:#434549;}
	.st400{fill:#AA7960;}
	.st401{fill:#CDD2DA;}
	.st402{fill:#205789;}
	.st403{fill:#BDC4CB;}
	.st404{fill:#C8CFD7;}
	.st405{fill:#AEBCCB;}
	.st406{fill:#99A2AD;}
	.st407{fill:#94A2C0;}
	.st408{fill:#B2BCD3;}
	.st409{fill:#CACFD6;}
	.st410{fill:#D3D7DF;}
	.st411{fill:#A5AFC5;}
	.st412{fill:#6A768B;}
	.st413{fill:#C78618;}
	.st414{fill:#82A92D;}
	.st415{fill:#627A31;}
	.st416{fill:#77962E;}
	.st417{fill:#BFC5C2;}
	.st418{fill:#DFDACF;}
	.st419{fill:#F8F6E8;}
	.st420{fill:#858393;}
	.st421{fill:#B9B4AB;}
	.st422{fill:#EBE8DD;}
	.st423{fill:#9C9CA9;}
	.st424{fill:#9E5C2C;}
	.st425{fill:#5F3819;}
	.st426{fill:#959E26;}
	.st427{fill:#955A25;}
	.st428{fill:#727A2E;}
	.st429{fill:#724622;}
	.st430{fill:#DF673F;}
	.st431{fill:#C65021;}
	.st432{fill:#C0411F;}
	.st433{fill:#F1C980;}
	.st434{fill:#F1C980;stroke:#F1C980;stroke-miterlimit:10;}
	.st435{fill:#C5572E;}
	.st436{fill:#73BEC4;}
	.st437{fill:#F8F5F5;}
	.st438{fill:#070001;}
	.st439{fill:#852B21;}
	.st440{fill:#ECD590;}
	.st441{fill:#E8BF6F;}
	.st442{fill:#F7E2B6;}
	.st443{fill:none;stroke:#E38C2B;stroke-miterlimit:10;}
	.st444{fill:none;stroke:#40220E;stroke-miterlimit:10;}
	.st445{fill:#F1C980;stroke:#F1C980;stroke-width:0.4;stroke-miterlimit:10;}
	.st446{fill:none;stroke:#40220E;stroke-width:0.4;stroke-miterlimit:10;}
	.st447{fill:#F1C980;stroke:#F1C980;stroke-width:0.75;stroke-miterlimit:10;}
	.st448{fill:#862821;}
	.st449{fill:#993823;}
	.st450{fill:#5D3819;}
	.st451{fill:#7AAA4A;}
	.st452{fill:#699234;}
	.st453{fill:#6FA23B;}
	.st454{fill:#ACB9C1;}
	.st455{fill:#5F696D;}
	.st456{fill:#744622;}
	.st457{fill:#A84429;}
	.st458{fill:#D6CBB6;}
	.st459{fill:#BA5742;}
	.st460{fill:#9B512C;}
	.st461{fill:#B15A3F;}
	.st462{fill:#984C35;}
	.st463{fill:#C68459;}
	.st464{fill:#A25246;}
	.st465{fill:#A15139;}
	.st466{fill:#AC574A;}
	.st467{fill:#A66842;}
	.st468{fill:#9E553C;}
	.st469{fill:none;stroke:#E4007F;stroke-miterlimit:10;}
	.st470{fill:#DA7A5F;}
	.st471{fill:#BCAFA4;}
	.st472{fill:#BF6347;}
	.st473{fill:#E9E6C4;}
	.st474{fill:#C35132;}
	.st475{fill:#A29BA5;}
	.st476{fill:#EBDBD2;}
	.st477{fill:#BEB2B8;}
	.st478{fill:#D58C54;}
	.st479{fill:#DAAA64;}
	.st480{fill:#E4D587;}
	.st481{fill:#B78E66;}
	.st482{fill:#D39152;}
	.st483{fill:#212936;}
	.st484{fill:#1C1E3A;}
	.st485{fill:#3A426D;}
	.st486{fill:#202C4B;}
	.st487{fill:#343C74;}
	.st488{fill:#1B2C57;}
	.st489{fill:#1A234B;}
	.st490{fill:#3E3F63;}
	.st491{fill:#30397F;}
	.st492{fill:#444A7F;}
	.st493{fill:#223565;}
	.st494{fill:#705828;}
	.st495{fill:#9BB151;}
	.st496{fill:#D6BEB1;}
	.st497{fill:#3D3E3D;}
	.st498{fill:#AF9A88;}
	.st499{fill:#8E8C8B;}
	.st500{fill:#3D3E3D;stroke:#898989;stroke-width:0.5;stroke-miterlimit:10;}
	.st501{fill:none;stroke:#3C3D3C;stroke-width:0.5;stroke-miterlimit:10;}
	.st502{fill:#F1E8E3;}
	.st503{fill:#AD4028;}
	.st504{fill:#8F3E2F;}
	.st505{fill:#89959A;}
	.st506{fill:#8BA92A;}
	.st507{fill:#4E6C31;}
	.st508{fill:#B24222;}
	.st509{fill:#E8D9CB;}
	.st510{fill:#BD9687;}
	.st511{fill:#E26B4F;}
	.st512{fill:#DE5836;}
	.st513{fill:#C95539;}
	.st514{fill:#237293;stroke:#A37B51;stroke-width:0.8;stroke-miterlimit:10;}
	.st515{fill:none;stroke:#A37B51;stroke-width:0.8;stroke-miterlimit:10;}
	.st516{fill:#998277;}
	.st517{fill:#256E92;}
	.st518{fill:#A37B51;stroke:#A37B51;stroke-width:0.8;stroke-miterlimit:10;}
	.st519{fill:#237293;}
	.st520{fill:#B68B7B;}
	.st521{fill:#73695D;}
	.st522{fill:#5B873B;}
	.st523{fill:#88AD3D;}
	.st524{fill:#6D9B30;}
	.st525{fill:#E6E6E8;}
	.st526{fill:#D2D3D5;}
	.st527{fill:#A8A9AD;}
	.st528{fill:#BDBEBF;}
	.st529{fill:#EFF1F0;}
	.st530{fill:#E56F69;}
	.st531{fill:#E67364;}
	.st532{fill:#983530;}
	.st533{fill:#9E2F33;}
	.st534{fill:#E4483F;}
	.st535{fill:#0A6293;}
	.st536{fill:#90D1EB;}
	.st537{fill:#41B1D8;}
	.st538{fill:#3DA3D0;}
	.st539{fill:#1D8ACC;}
	.st540{fill:#678497;}
	.st541{fill:#557186;}
	.st542{fill:#E9E9E7;}
	.st543{fill:#333333;}
	.st544{fill:#D3D4D6;}
	.st545{fill:#567387;}
	.st546{fill:#0B6491;}
	.st547{fill:#248CCD;}
	.st548{fill:#C6C7C9;}
	.st549{fill:#449EBB;}
	.st550{fill:#D1D2D4;}
	.st551{fill:#BF8652;}
	.st552{fill:#A87746;}
	.st553{fill:#91C66F;}
	.st554{fill:#79BB5B;}
	.st555{fill:#6DAE4E;}
	.st556{fill:#AEACAC;}
	.st557{fill:#AEACAC;stroke:#7F8080;stroke-width:0.75;stroke-miterlimit:10;}
	.st558{fill:#858283;stroke:#7F8080;stroke-width:0.75;stroke-miterlimit:10;}
	.st559{fill:#858283;}
	.st560{fill:#69686A;}
	.st561{fill:#CECAC3;}
	.st562{fill:#E4E3E3;}
	.st563{fill:none;stroke:#858283;stroke-width:0.75;stroke-miterlimit:10;}
	.st564{fill:#323B3D;}
	.st565{fill:#D5D2D1;}
	.st566{fill:#D3D1D2;}
	.st567{fill:#FEFEFE;}
	.st568{fill:#F6F1F8;}
	.st569{fill:#6B899F;}
	.st570{fill:#4F4341;stroke:#D6CEC3;stroke-width:0.5;stroke-miterlimit:10;}
	.st571{fill:#655C5A;}
	.st572{fill-rule:evenodd;clip-rule:evenodd;fill:#DB2626;}
	.st573{fill-rule:evenodd;clip-rule:evenodd;fill:#C51727;}
	.st574{fill-rule:evenodd;clip-rule:evenodd;fill:#69686A;}
	.st575{fill-rule:evenodd;clip-rule:evenodd;fill:#424141;}
	.st576{fill-rule:evenodd;clip-rule:evenodd;fill:#B31D26;}
	.st577{fill-rule:evenodd;clip-rule:evenodd;fill:#E4E4E5;}
	.st578{fill-rule:evenodd;clip-rule:evenodd;fill:#AE1E29;}
	.st579{fill-rule:evenodd;clip-rule:evenodd;fill:#D1D1D1;}
	.st580{fill-rule:evenodd;clip-rule:evenodd;fill:#E24B4D;}
	.st581{fill-rule:evenodd;clip-rule:evenodd;fill:#284367;}
	.st582{fill-rule:evenodd;clip-rule:evenodd;fill:#4E6281;}
	.st583{fill-rule:evenodd;clip-rule:evenodd;fill:#8F1D26;}
	.st584{fill-rule:evenodd;clip-rule:evenodd;fill:#111223;}
	.st585{fill-rule:evenodd;clip-rule:evenodd;fill:#5A5759;}
	.st586{fill-rule:evenodd;clip-rule:evenodd;fill:#C2C3C3;}
	.st587{fill-rule:evenodd;clip-rule:evenodd;fill:#929397;}
	.st588{fill:#A3A4A6;}
	.st589{fill:#F7F7F7;}
	.st590{fill:#DCDDDF;}
	.st591{fill:#29394C;}
	.st592{fill:#999A9D;}
	.st593{fill:#DBDADA;}
	.st594{fill:#C3C4C6;}
	.st595{fill:#E4E4E3;}
	.st596{fill:#E5E3E4;}
	.st597{fill:#025081;}
	.st598{fill:#02568B;}
	.st599{fill:#1266A4;}
	.st600{fill:#C0C0C2;}
	.st601{fill:#397095;}
	.st602{clip-path:url(#SVGID_2_);fill:#9B7949;}
	.st603{opacity:0.6;clip-path:url(#SVGID_2_);fill:#99D3C8;}
	.st604{clip-path:url(#SVGID_2_);fill:#EACFAA;}
	.st605{clip-path:url(#SVGID_2_);fill:#E3C595;}
	.st606{clip-path:url(#SVGID_2_);fill:#FADEC4;}
	.st607{fill:#DBCFBF;}
	.st608{fill:#FFF9F2;}
	.st609{fill:#4E4D4D;}
	.st610{fill:#3A3938;}
	.st611{fill:#424241;}
	.st612{fill:#E7DED5;}
	.st613{fill:#ECE6E1;}
	.st614{fill:#D5D0CB;}
	.st615{fill:#A18865;}
	.st616{fill:#85B5AC;}
	.st617{clip-path:url(#SVGID_6_);}
	.st618{fill:#9B7949;}
	.st619{fill:#3E3A39;}
	.st620{opacity:0.3;}
	.st621{fill:#D6D6D6;}
	.st622{fill:#ACABAB;}
	.st623{fill:#D6D6D6;stroke:#D6D6D6;stroke-width:4;stroke-miterlimit:10;}
	.st624{fill:#F1F1F1;}
	.st625{fill:none;stroke:#FFFFFF;stroke-linecap:round;stroke-miterlimit:10;}
	.st626{fill:#1B1C1B;}
	.st627{fill:none;stroke:#F1F1F1;stroke-width:2;stroke-miterlimit:10;}
	.st628{fill:#2E2E2E;}
	.st629{fill:none;stroke:#F1F1F1;stroke-width:2;stroke-linecap:round;stroke-linejoin:round;stroke-miterlimit:10;}
	.st630{fill:#161717;}
	.st631{fill:#040000;}
	.st632{fill:#492743;}
	.st633{opacity:0.05;fill:none;stroke:#FFFFFF;stroke-width:0.5;stroke-miterlimit:10;}
	.st634{fill:#30393C;}
	.st635{fill:#AAD6AB;}
	.st636{fill:url(#SVGID_7_);}
	.st637{fill:url(#SVGID_8_);}
	.st638{fill:url(#SVGID_9_);}
	.st639{fill:url(#SVGID_10_);}
	.st640{fill:url(#SVGID_11_);}
	.st641{fill:url(#SVGID_12_);}
	.st642{fill:url(#SVGID_13_);}
	.st643{fill:url(#SVGID_14_);}
	.st644{fill:url(#SVGID_15_);}
	.st645{fill:url(#SVGID_16_);}
	.st646{fill:#D8E3B8;}
	.st647{fill:#F4C324;}
	.st648{clip-path:url(#SVGID_30_);}
	.st649{fill:url(#SVGID_31_);}
	.st650{fill:url(#SVGID_32_);}
	.st651{fill:url(#SVGID_33_);}
	.st652{fill:url(#SVGID_34_);}
	.st653{fill:url(#SVGID_35_);}
	.st654{fill:url(#SVGID_36_);}
	.st655{fill:url(#SVGID_37_);}
	.st656{fill:url(#SVGID_38_);}
	.st657{fill:url(#SVGID_39_);}
	.st658{fill:url(#SVGID_40_);}
	.st659{fill:url(#SVGID_41_);}
	.st660{fill:url(#SVGID_42_);}
	.st661{fill:url(#SVGID_43_);}
	.st662{fill:url(#SVGID_44_);}
	.st663{fill:url(#SVGID_45_);}
	.st664{fill:url(#SVGID_46_);}
	.st665{fill:url(#SVGID_47_);}
	.st666{fill:url(#SVGID_48_);}
	.st667{fill:url(#SVGID_49_);}
	.st668{fill:url(#SVGID_50_);}
</style>
<g id="圖層_1">
</g>
<g id="圖層_2">
	<g>
		<g>
			<polygon class="st58" points="121.55,150.24 30.5,194.82 121.55,239.46 212.6,194.82 			"/>
			<polygon class="st59" points="212.6,207.38 212.6,194.85 121.55,239.5 121.55,252.02 			"/>
			<polygon class="st46" points="212.6,207.38 212.6,201.11 121.55,245.76 121.55,252.02 			"/>
			<polygon class="st60" points="30.5,207.38 30.5,194.85 121.55,239.5 121.55,252.02 			"/>
			<polygon class="st48" points="30.5,207.38 30.5,201.11 121.55,245.76 121.55,252.02 			"/>
		</g>
		<g>
			<polygon class="st58" points="303.65,150.24 212.6,194.82 303.65,239.46 394.69,194.82 			"/>
			<polygon class="st59" points="394.69,207.38 394.69,194.85 303.65,239.5 303.65,252.02 			"/>
			<polygon class="st46" points="394.69,207.38 394.69,201.11 303.65,245.76 303.65,252.02 			"/>
			<polygon class="st60" points="212.6,207.38 212.6,194.85 303.65,239.5 303.65,252.02 			"/>
			<polygon class="st48" points="212.6,207.38 212.6,201.11 303.65,245.76 303.65,252.02 			"/>
		</g>
		<g>
			<polygon class="st58" points="212.6,194.85 121.55,239.43 212.6,284.07 303.65,239.43 			"/>
			<polygon class="st59" points="303.65,251.99 303.65,239.46 212.6,284.11 212.6,296.63 			"/>
			<polygon class="st46" points="303.65,251.99 303.65,245.72 212.6,290.37 212.6,296.63 			"/>
			<polygon class="st60" points="121.55,251.99 121.55,239.46 212.6,284.11 212.6,296.63 			"/>
			<polygon class="st48" points="121.55,251.99 121.55,245.72 212.6,290.37 212.6,296.63 			"/>
		</g>
		<g>
			<polygon class="st62" points="212.6,101.35 44.49,183.69 212.6,266.12 380.7,183.7 			"/>
			<polygon class="st63" points="380.7,188.54 380.7,183.7 212.6,266.12 212.6,270.95 			"/>
			<polygon class="st64" points="44.49,188.54 44.49,183.7 212.6,266.12 212.6,270.95 			"/>
			<path class="st65" d="M372.39,179.38l-60.68,29.75c0,0-55.12,28.53-99.11,28.53c-41.82,0-94.57-28.53-94.57-28.53l-62.71-30.75
				l157.28-77.03L372.39,179.38z"/>
			<path class="st66" d="M212.6,233.33c-40.26,0-91.99-27.73-92.51-28.01l-0.15-0.08l-54.76-26.85l147.43-72.21l149.92,73.21
				l-52.81,25.89C309.18,205.56,255.01,233.33,212.6,233.33z"/>
			<path class="st67" d="M212.6,101.35L52.81,179.35l29.33,14.41l103.84-51.85c0,0,14.86-6.44,26.63-6.44
				c11.76,0,26.63,6.44,26.63,6.44l103.84,51.85l29.33-14.41L212.6,101.35z"/>
			<path class="st68" d="M212.6,99.12L52.81,177.11l29.33,14.41l103.84-51.85c0,0,14.86-6.44,26.63-6.44
				c11.76,0,26.63,6.44,26.63,6.44l103.84,51.85l29.33-14.41L212.6,99.12z"/>
			<path class="st69" d="M212.6,97.28L52.81,175.27l29.33,14.41l103.84-51.85c0,0,14.86-6.44,26.63-6.44
				c11.76,0,26.63,6.44,26.63,6.44l103.84,51.85l29.33-14.41L212.6,97.28z"/>
			<path class="st70" d="M212.6,95.08L52.81,173.07l29.33,14.41l103.84-51.85c0,0,14.86-6.44,26.63-6.44
				c11.76,0,26.63,6.44,26.63,6.44l103.84,51.85l29.33-14.41L212.6,95.08z"/>
			<path class="st67" d="M212.6,93.23L52.81,171.22l29.33,14.41l103.84-51.85c0,0,14.86-6.44,26.63-6.44
				c11.76,0,26.63,6.44,26.63,6.44l103.84,51.85l29.33-14.41L212.6,93.23z"/>
			<path class="st68" d="M212.6,91L52.81,168.99l29.33,14.41l103.84-51.85c0,0,14.86-6.44,26.63-6.44c11.76,0,26.63,6.44,26.63,6.44
				l103.84,51.85l29.33-14.41L212.6,91z"/>
			<path class="st69" d="M212.6,89.16L52.81,167.15l29.33,14.41l103.84-51.85c0,0,14.86-6.44,26.63-6.44
				c11.76,0,26.63,6.44,26.63,6.44l103.84,51.85l29.33-14.41L212.6,89.16z"/>
			<path class="st70" d="M212.6,86.95L52.81,164.95l29.33,14.41l103.84-51.85c0,0,14.86-6.44,26.63-6.44
				c11.76,0,26.63,6.44,26.63,6.44l103.84,51.85l29.33-14.41L212.6,86.95z"/>
			<path class="st67" d="M212.6,85.13L52.81,163.12l29.33,14.41l103.84-51.85c0,0,14.86-6.44,26.63-6.44
				c11.76,0,26.63,6.44,26.63,6.44l103.84,51.85l29.33-14.41L212.6,85.13z"/>
			<path class="st68" d="M212.6,82.83L52.81,160.83l29.33,14.41l103.84-51.85c0,0,14.86-6.44,26.63-6.44
				c11.76,0,26.63,6.44,26.63,6.44l103.84,51.85l29.33-14.41L212.6,82.83z"/>
			<polygon class="st69" points="54.88,159.77 80.26,172.24 80.31,172.21 54.93,159.74 			"/>
			<polygon class="st69" points="344.86,172.22 344.94,172.26 370.32,159.79 370.24,159.75 			"/>
			<path class="st69" d="M212.6,82.88L52.81,160.87l2.12,1.04l25.38,12.47l104.97-52.54c0.62-0.27,15.33-6.58,27.32-6.58
				c11.98,0,26.69,6.31,27.32,6.58l104.95,52.56l25.38-12.47l2.15-1.06L212.6,82.88z"/>
			<path class="st70" d="M212.6,80.72L52.81,158.71l2.12,1.04l25.38,12.47l104.97-52.54c0.62-0.27,15.33-6.58,27.32-6.58
				c11.98,0,26.69,6.31,27.32,6.58l104.95,52.56l25.38-12.47l2.15-1.06L212.6,80.72z"/>
			<polygon class="st70" points="346.59,169.19 370.17,157.6 370.15,157.59 346.57,169.18 			"/>
			<polygon class="st70" points="55.03,157.62 78.58,169.2 78.62,169.18 55.07,157.61 			"/>
			<path class="st67" d="M212.35,80.57L52.56,158.57l2.12,1.04l0.14,0.07l23.55,11.57l105.97-53.31c0.63-0.27,15.64-6.72,28.01-6.72
				s27.37,6.45,28.01,6.72l105.97,53.31l23.58-11.58l0.09-0.04l2.15-1.06L212.35,80.57z"/>
			<path class="st68" d="M212.35,78.35L52.56,156.35l2.12,1.04l0.14,0.07l23.55,11.57l105.97-53.3c0.63-0.27,15.64-6.72,28.01-6.72
				s27.37,6.45,28.01,6.72l105.97,53.31l23.58-11.58l0.09-0.04l2.15-1.06L212.35,78.35z"/>
			<polygon class="st68" points="54.8,155.24 54.77,155.26 76.63,166 76.66,165.98 54.82,155.25 			"/>
			<polygon class="st68" points="348.05,165.97 348.1,166 369.96,155.26 369.92,155.23 369.91,155.24 			"/>
			<path class="st69" d="M212.35,78.35L52.56,156.34l2.12,1.04l0.12,0.06l0.02,0.01l21.84,10.73l106.91-54.01l0.09-0.04
				c0.65-0.28,15.98-6.87,28.7-6.87c12.72,0,28.05,6.59,28.7,6.87l0.05,0.02l106.96,54.03l21.85-10.74l0.01,0l0.08-0.04l2.15-1.06
				L212.35,78.35z"/>
			<path class="st70" d="M212.35,76.15L52.56,154.14l2.12,1.04l0.12,0.06l0.02,0.01l21.84,10.73l106.91-54.01l0.09-0.04
				c0.65-0.28,15.98-6.87,28.7-6.87c12.72,0,28.05,6.59,28.7,6.87l0.05,0.02l106.96,54.03l21.85-10.74l0.01,0l0.08-0.04l2.15-1.06
				L212.35,76.15z"/>
			<polygon class="st70" points="54.92,153.08 54.81,153.02 54.8,153.02 54.77,153.03 74.92,162.93 74.94,162.92 54.94,153.09 			
				"/>
			<polygon class="st70" points="370.11,153.04 370.04,153.07 370.03,153.08 350,162.92 350.03,162.93 370.17,153.04 370.14,153.02 
							"/>
			<path class="st67" d="M212.47,76.21L52.68,154.2l2.12,1.04l0.01,0l0.12,0.06l0.02,0.01l20,9.83l108.01-54.68l0.13-0.06
				c0.66-0.29,16.32-7.01,29.39-7.01s28.73,6.72,29.43,7.03l0.05,0.02L350,165.14l20.02-9.84l0.01,0l0.08-0.04l0.03-0.01l2.13-1.04
				L212.47,76.21z"/>
			<path class="st68" d="M212.47,73.99L52.68,151.98l2.12,1.04l0.01,0l0.12,0.06l0.02,0.01l20,9.83l108.01-54.68l0.13-0.06
				c0.66-0.29,16.32-7.01,29.39-7.01s28.73,6.72,29.43,7.03l0.05,0.02L350,162.92l20.02-9.84l0.01,0l0.08-0.04l0.03-0.01l2.13-1.04
				L212.47,73.99z"/>
			<polygon class="st68" points="351.42,159.73 369.72,150.73 369.72,150.73 351.41,159.73 			"/>
			<polygon class="st68" points="54.92,150.58 54.84,150.54 54.43,150.74 72.74,159.74 73.14,159.53 54.94,150.59 			"/>
			<path class="st69" d="M212.47,73.95L52.68,151.94l2.12,1.04l0.01,0l0.03,0.02l0.09,0.04l0.02,0.01l18.2,8.94l109.09-55.37
				l0.17-0.08c0.67-0.29,16.65-7.15,30.08-7.15c13.4,0,29.44,6.88,30.16,7.19l0.05,0.02l108.73,55.58l18.31-8.99l0.31-0.15l0.01,0
				l0.08-0.04l0.03-0.01l2.13-1.04L212.47,73.95z"/>
			<path class="st70" d="M212.47,71.74L52.68,149.73l2.12,1.04l0.01,0l0.03,0.02l0.09,0.04l0.02,0.01l18.2,8.94l109.09-55.37
				l0.17-0.08c0.67-0.29,16.65-7.15,30.08-7.15c13.4,0,29.44,6.88,30.16,7.19l0.05,0.02l108.73,55.58l18.31-8.99l0.31-0.15l0.01,0
				l0.08-0.04l0.03-0.01l2.13-1.04L212.47,71.74z"/>
			<polygon class="st70" points="55.7,149.45 70.22,156.59 70.46,156.47 55.94,149.33 			"/>
			<path class="st67" d="M212.47,71.77L52.68,149.77l2.12,1.04l0.01,0l0.03,0.02l0.09,0.04l0.02,0.01l1,0.49l14.52,7.13
				l110.59-56.37l0.31-0.14c0.69-0.3,17.15-7.37,31.11-7.37c13.93,0,30.5,7.1,31.25,7.43l0.07,0.03l110.56,56.49l14.91-7.32
				l0.47-0.23l0.31-0.15l0.01,0l0.08-0.04l0.03-0.01l2.13-1.04L212.47,71.77z"/>
			<path class="st68" d="M212.47,69.97L52.68,147.96L54.8,149l0.01,0l0.03,0.02l0.09,0.04l0.02,0.01l1,0.49l14.52,7.13l110.59-56.37
				l0.31-0.14c0.69-0.3,17.15-7.37,31.11-7.37c13.93,0,30.5,7.1,31.25,7.43l0.07,0.03l110.56,56.49l14.91-7.32l0.47-0.23l0.31-0.15
				l0.01,0l0.08-0.04l0.03-0.01l2.13-1.04L212.47,69.97z"/>
			<path class="st69" d="M212.47,69.97L52.68,147.96L54.8,149l0.01,0l0.03,0.02l0.09,0.04l0.02,0.01l1,0.49l0.62,0.3l9.8,4.82
				l113.12-57.45l0.5-0.23c0.72-0.31,17.79-7.66,32.49-7.66c14.37,0,30.8,6.92,32.62,7.71l0.19,0.08l112.99,57.7l9.96-4.89l1.02-0.5
				l0.47-0.23l0.31-0.15l0.01,0l0.08-0.04l0.03-0.01l2.13-1.04L212.47,69.97z"/>
			<path class="st70" d="M212.47,67.76L52.68,145.75l2.12,1.04l0.01,0l0.03,0.02l0.09,0.04l0.02,0.01l1,0.49l0.62,0.3l9.8,4.82
				l113.12-57.45l0.5-0.23c0.72-0.31,17.79-7.66,32.49-7.66c14.37,0,30.8,6.92,32.62,7.71l0.19,0.08l112.99,57.7l9.96-4.89l1.02-0.5
				l0.47-0.23l0.31-0.15l0.01,0l0.08-0.04l0.03-0.01l2.13-1.04L212.47,67.76z"/>
			<polygon class="st62" points="233.17,145.55 233.17,145.55 233.17,145.55 			"/>
			<path class="st62" d="M233.17,145.55L233.17,145.55c0,0-10.19-3.8-20.58-3.8c-9.06,0-16.85,2.47-20.4,3.8l-86.62,42.79
				l18.18,9.11l0.45,0.23c0.5,0.27,50.56,26.97,88.39,26.97c40.08,0,92.62-26.81,93.14-27.08l16.35-8.48L233.17,145.55z"/>
			<polygon class="st71" points="52.68,145.75 66.36,152.47 66.36,154.69 70.46,156.7 70.46,158.5 73.14,159.78 73.14,162 
				74.94,162.92 74.94,165.14 76.66,165.98 76.66,168.18 78.37,169.03 78.37,171.25 80.31,172.22 80.31,174.38 82.13,175.24 
				82.13,176.75 52.68,162.31 			"/>
			<polygon class="st71" points="52.68,162.31 52.68,179.29 52.81,179.35 52.81,164.67 55.15,163.52 			"/>
			<polygon class="st72" points="372.26,145.75 372.26,164.61 370.05,163.52 343.1,176.73 343.06,175.24 344.86,174.39 
				344.86,172.24 346.36,171.5 346.33,169.03 348.05,168.18 348.05,165.97 350,165.02 350,162.92 351.41,162.19 351.41,159.98 
				354.35,158.57 354.35,156.77 358.28,154.84 358.28,152.63 			"/>
			<path class="st73" d="M113.81,102.85l79.17-38.64c-4.87,1.54-8.34,3.03-8.63,3.16L113.81,102.85z"/>
			<path class="st73" d="M231.72,64.21l79,38.56l-70.37-35.4C240.06,67.24,236.6,65.75,231.72,64.21z"/>
			<path class="st74" d="M159.41,173.57c0,0,17.77,21.84,53.19,21.84s53.7-21.21,53.7-21.21l-53.7-26.02L159.41,173.57z"/>
			<polygon class="st75" points="52.56,129.8 52.56,132.03 78.37,144.71 78.37,142.48 			"/>
			<polygon class="st76" points="369.88,146.83 358.28,152.63 358.28,154.84 353.58,156.37 353.58,158.17 349.28,158.89 
				349.28,161.1 345.93,160.85 345.93,163.08 342.22,163.03 342.22,165.23 338.59,165.14 338.59,167.36 334.96,167.28 
				334.96,169.43 331.35,169.39 331.35,171.68 327.55,171.61 327.55,173.81 323.79,173.81 323.79,176.01 320.07,176 320.07,178.2 
				316.34,178.18 316.34,180.33 254.09,149.33 254.09,147.1 250.81,143.62 250.81,141.42 244.45,136.39 244.45,134.16 
				229.26,126.17 229.26,123.95 208.42,119.48 208.42,117.19 196.58,117.88 196.58,115.73 185.62,117.42 185.62,115.2 
				176.71,117.63 176.71,115.43 167.38,118.34 167.38,116.12 156.36,119.76 156.36,117.54 140.77,122.66 140.77,120.86 
				117.6,128.63 117.6,126.45 54.82,146.81 52.56,145.75 212.47,67.76 372.14,145.77 			"/>
			<g>
				<polygon class="st77" points="113.81,102.13 77.83,119.69 52.56,132.03 54.68,133.07 54.82,133.14 78.37,144.71 184.15,91.5 
					184.15,67.8 				"/>
				<path class="st78" d="M231.72,63.49c-5.51-1.75-12.81-3.56-19.37-3.56s-13.87,1.82-19.37,3.56l-8.83,4.31v23.7l0.2-0.1
					c0.63-0.27,15.64-6.72,28.01-6.72c12.14,0,26.83,6.22,27.95,6.7v-23.7L231.72,63.49z"/>
				<path class="st79" d="M346.87,119.69l-36.15-17.64L240.3,67.67v23.7c0.02,0.01,0.05,0.02,0.06,0.02l105.97,53.31l23.58-11.58
					l0.09-0.04l2.15-1.06L346.87,119.69z"/>
				<path class="st80" d="M346.87,117.46l-36.15-17.64l-79-38.56c-5.51-1.75-12.81-3.56-19.37-3.56s-13.87,1.82-19.37,3.56
					L113.81,99.9l-35.97,17.56L52.56,129.8l2.12,1.04l0.14,0.07l23.55,11.57l105.97-53.3c0.63-0.27,15.64-6.72,28.01-6.72
					s27.37,6.45,28.01,6.72l105.97,53.31l23.58-11.58l0.09-0.04l2.15-1.06L346.87,117.46z"/>
				<polygon class="st75" points="52.56,145.75 52.56,132.03 54.82,133.14 54.82,146.81 				"/>
				<polygon class="st75" points="54.82,146.81 56.87,145.75 56.87,134.14 54.82,133.14 				"/>
				<polygon class="st81" points="372.14,145.77 372.14,132.04 369.88,133.15 369.88,146.83 				"/>
				<polygon class="st75" points="369.88,146.83 367.83,145.77 367.83,134.15 369.88,133.15 				"/>
			</g>
			<polygon class="st75" points="52.56,129.8 78.37,142.48 78.37,144.71 52.56,132.03 			"/>
			<polygon class="st81" points="372.14,129.8 372.14,132.03 346.33,144.71 346.33,142.48 			"/>
			<g>
				<path class="st82" d="M80.77,137.45c0,0.84-2.4,0.84-2.4,0v-25.01h2.4V137.45z"/>
				<g>
					<g>
						<polygon class="st83" points="93.99,114.86 93.99,92.69 63.75,107.51 63.75,129.68 						"/>
						<g>
							
								<ellipse transform="matrix(0.5 -0.866 0.866 0.5 -60.5927 114.4424)" class="st84" cx="68.81" cy="109.7" rx="2.77" ry="2.12"/>
							
								<ellipse transform="matrix(0.5 -0.866 0.866 0.5 -60.4256 114.5086)" class="st85" cx="68.95" cy="109.58" rx="2.61" ry="1.89"/>
						</g>
						<g>
							
								<ellipse transform="matrix(0.5 -0.866 0.866 0.5 -55.7762 117.6752)" class="st84" cx="74.02" cy="107.14" rx="2.77" ry="2.12"/>
							
								<ellipse transform="matrix(0.5 -0.866 0.866 0.5 -55.6091 117.7414)" class="st85" cx="74.16" cy="107.03" rx="2.61" ry="1.89"/>
						</g>
						<g>
							
								<ellipse transform="matrix(0.5 -0.866 0.866 0.5 -50.9597 120.9079)" class="st84" cx="79.23" cy="104.59" rx="2.77" ry="2.12"/>
							
								<ellipse transform="matrix(0.5 -0.866 0.866 0.5 -50.7926 120.9742)" class="st85" cx="79.37" cy="104.47" rx="2.61" ry="1.89"/>
						</g>
						<g>
							
								<ellipse transform="matrix(0.5 -0.866 0.866 0.5 -46.1432 124.1407)" class="st84" cx="84.44" cy="102.03" rx="2.77" ry="2.12"/>
							
								<ellipse transform="matrix(0.5 -0.866 0.866 0.5 -45.9761 124.2069)" class="st85" cx="84.58" cy="101.92" rx="2.61" ry="1.89"/>
						</g>
						<g>
							
								<ellipse transform="matrix(0.5 -0.866 0.866 0.5 -41.3267 127.3735)" class="st84" cx="89.65" cy="99.48" rx="2.77" ry="2.12"/>
							
								<ellipse transform="matrix(0.5 -0.866 0.866 0.5 -41.1596 127.4397)" class="st85" cx="89.79" cy="99.37" rx="2.61" ry="1.89"/>
						</g>
						<g>
							
								<ellipse transform="matrix(0.5 -0.866 0.866 0.5 -66.3067 117.7414)" class="st84" cx="68.81" cy="116.29" rx="2.77" ry="2.12"/>
							
								<ellipse transform="matrix(0.5 -0.866 0.866 0.5 -66.1396 117.8076)" class="st85" cx="68.95" cy="116.18" rx="2.61" ry="1.89"/>
						</g>
						<g>
							
								<ellipse transform="matrix(0.5 -0.866 0.866 0.5 -61.4902 120.9742)" class="st84" cx="74.02" cy="113.74" rx="2.77" ry="2.12"/>
							
								<ellipse transform="matrix(0.5 -0.866 0.866 0.5 -61.3231 121.0404)" class="st85" cx="74.16" cy="113.63" rx="2.61" ry="1.89"/>
						</g>
						<g>
							
								<ellipse transform="matrix(0.5 -0.866 0.866 0.5 -56.6737 124.2069)" class="st84" cx="79.23" cy="111.18" rx="2.77" ry="2.12"/>
							
								<ellipse transform="matrix(0.5 -0.866 0.866 0.5 -56.5066 124.2732)" class="st85" cx="79.37" cy="111.07" rx="2.61" ry="1.89"/>
						</g>
						<g>
							
								<ellipse transform="matrix(0.5 -0.866 0.866 0.5 -51.8572 127.4397)" class="st84" cx="84.44" cy="108.63" rx="2.77" ry="2.12"/>
							
								<ellipse transform="matrix(0.5 -0.866 0.866 0.5 -51.6901 127.5059)" class="st85" cx="84.58" cy="108.52" rx="2.61" ry="1.89"/>
						</g>
						<g>
							
								<ellipse transform="matrix(0.5 -0.866 0.866 0.5 -47.0407 130.6725)" class="st84" cx="89.65" cy="106.07" rx="2.77" ry="2.12"/>
							
								<ellipse transform="matrix(0.5 -0.866 0.866 0.5 -46.8736 130.7387)" class="st85" cx="89.79" cy="105.96" rx="2.61" ry="1.89"/>
						</g>
						<g>
							
								<ellipse transform="matrix(0.5 -0.866 0.866 0.5 -72.0208 121.0404)" class="st84" cx="68.81" cy="122.89" rx="2.77" ry="2.12"/>
							
								<ellipse transform="matrix(0.5 -0.866 0.866 0.5 -71.8536 121.1066)" class="st85" cx="68.95" cy="122.78" rx="2.61" ry="1.89"/>
						</g>
						<g>
							
								<ellipse transform="matrix(0.5 -0.866 0.866 0.5 -67.2042 124.2732)" class="st84" cx="74.02" cy="120.34" rx="2.77" ry="2.12"/>
							
								<ellipse transform="matrix(0.5 -0.866 0.866 0.5 -67.0371 124.3394)" class="st85" cx="74.16" cy="120.23" rx="2.61" ry="1.89"/>
						</g>
						<g>
							
								<ellipse transform="matrix(0.5 -0.866 0.866 0.5 -62.3877 127.5059)" class="st84" cx="79.23" cy="117.78" rx="2.77" ry="2.12"/>
							
								<ellipse transform="matrix(0.5 -0.866 0.866 0.5 -62.2206 127.5722)" class="st85" cx="79.37" cy="117.67" rx="2.61" ry="1.89"/>
						</g>
						<g>
							
								<ellipse transform="matrix(0.5 -0.866 0.866 0.5 -57.5712 130.7387)" class="st84" cx="84.44" cy="115.23" rx="2.77" ry="2.12"/>
							
								<ellipse transform="matrix(0.5 -0.866 0.866 0.5 -57.4041 130.8049)" class="st85" cx="84.58" cy="115.12" rx="2.61" ry="1.89"/>
						</g>
						<g>
							
								<ellipse transform="matrix(0.5 -0.866 0.866 0.5 -52.7547 133.9715)" class="st84" cx="89.65" cy="112.67" rx="2.77" ry="2.12"/>
							
								<ellipse transform="matrix(0.5 -0.866 0.866 0.5 -52.5876 134.0377)" class="st85" cx="89.79" cy="112.56" rx="2.61" ry="1.89"/>
						</g>
					</g>
					<polygon class="st86" points="63.75,107.51 62.75,106.99 92.94,92.23 93.99,92.69 					"/>
					<polygon class="st82" points="62.75,106.99 62.75,128.82 63.75,129.68 63.75,107.51 					"/>
				</g>
			</g>
			<g>
				<path class="st82" d="M345.65,137.61c0,0.84,2.4,0.84,2.4,0V112.6h-2.4V137.61z"/>
				<g>
					<g>
						<polygon class="st82" points="332.43,115.02 332.43,92.85 362.68,107.67 362.68,129.84 						"/>
						<g>
							
								<ellipse transform="matrix(0.866 -0.5 0.5 0.866 -7.0185 193.5238)" class="st84" cx="357.61" cy="109.86" rx="2.12" ry="2.77"/>
							
								<ellipse transform="matrix(0.866 -0.5 0.5 0.866 -6.9816 193.4384)" class="st85" cx="357.47" cy="109.75" rx="1.89" ry="2.61"/>
						</g>
						<g>
							
								<ellipse transform="matrix(0.866 -0.5 0.5 0.866 -6.4388 190.5776)" class="st84" cx="352.4" cy="107.3" rx="2.12" ry="2.77"/>
							
								<ellipse transform="matrix(0.866 -0.5 0.5 0.866 -6.4019 190.4922)" class="st85" cx="352.26" cy="107.19" rx="1.89" ry="2.61"/>
						</g>
						<g>
							
								<ellipse transform="matrix(0.866 -0.5 0.5 0.866 -5.8591 187.6313)" class="st84" cx="347.2" cy="104.75" rx="2.12" ry="2.77"/>
							
								<ellipse transform="matrix(0.866 -0.5 0.5 0.866 -5.8222 187.5459)" class="st85" cx="347.05" cy="104.64" rx="1.89" ry="2.61"/>
						</g>
						<g>
							
								<ellipse transform="matrix(0.866 -0.5 0.5 0.866 -5.2794 184.6851)" class="st84" cx="341.99" cy="102.19" rx="2.12" ry="2.77"/>
							
								<ellipse transform="matrix(0.866 -0.5 0.5 0.866 -5.2425 184.5997)" class="st85" cx="341.85" cy="102.08" rx="1.89" ry="2.61"/>
						</g>
						<g>
							
								<ellipse transform="matrix(0.866 -0.5 0.5 0.866 -4.6998 181.7389)" class="st84" cx="336.78" cy="99.64" rx="2.12" ry="2.77"/>
							
								<ellipse transform="matrix(0.866 -0.5 0.5 0.866 -4.6628 181.6535)" class="st85" cx="336.64" cy="99.53" rx="1.89" ry="2.61"/>
						</g>
						<g>
							
								<ellipse transform="matrix(0.866 -0.5 0.5 0.866 -10.3175 194.4078)" class="st84" cx="357.61" cy="116.46" rx="2.12" ry="2.77"/>
							
								<ellipse transform="matrix(0.866 -0.5 0.5 0.866 -10.2806 194.3224)" class="st85" cx="357.47" cy="116.34" rx="1.89" ry="2.61"/>
						</g>
						<g>
							
								<ellipse transform="matrix(0.866 -0.5 0.5 0.866 -9.7378 191.4616)" class="st84" cx="352.4" cy="113.9" rx="2.12" ry="2.77"/>
							
								<ellipse transform="matrix(0.866 -0.5 0.5 0.866 -9.7009 191.3761)" class="st85" cx="352.26" cy="113.79" rx="1.89" ry="2.61"/>
						</g>
						<g>
							
								<ellipse transform="matrix(0.866 -0.5 0.5 0.866 -9.1581 188.5153)" class="st84" cx="347.2" cy="111.35" rx="2.12" ry="2.77"/>
							
								<ellipse transform="matrix(0.866 -0.5 0.5 0.866 -9.1212 188.4299)" class="st85" cx="347.05" cy="111.24" rx="1.89" ry="2.61"/>
						</g>
						<g>
							
								<ellipse transform="matrix(0.866 -0.5 0.5 0.866 -8.5784 185.5691)" class="st84" cx="341.99" cy="108.79" rx="2.12" ry="2.77"/>
							
								<ellipse transform="matrix(0.866 -0.5 0.5 0.866 -8.5415 185.4837)" class="st85" cx="341.85" cy="108.68" rx="1.89" ry="2.61"/>
						</g>
						<g>
							
								<ellipse transform="matrix(0.866 -0.5 0.5 0.866 -7.9987 182.6228)" class="st84" cx="336.78" cy="106.24" rx="2.12" ry="2.77"/>
							
								<ellipse transform="matrix(0.866 -0.5 0.5 0.866 -7.9618 182.5374)" class="st85" cx="336.64" cy="106.13" rx="1.89" ry="2.61"/>
						</g>
						<g>
							
								<ellipse transform="matrix(0.866 -0.5 0.5 0.866 -13.6165 195.2918)" class="st84" cx="357.61" cy="123.05" rx="2.12" ry="2.77"/>
							
								<ellipse transform="matrix(0.866 -0.5 0.5 0.866 -13.5795 195.2063)" class="st85" cx="357.47" cy="122.94" rx="1.89" ry="2.61"/>
						</g>
						<g>
							
								<ellipse transform="matrix(0.866 -0.5 0.5 0.866 -13.0368 192.3455)" class="st84" cx="352.4" cy="120.5" rx="2.12" ry="2.77"/>
							
								<ellipse transform="matrix(0.866 -0.5 0.5 0.866 -12.9999 192.2601)" class="st85" cx="352.26" cy="120.39" rx="1.89" ry="2.61"/>
						</g>
						<g>
							
								<ellipse transform="matrix(0.866 -0.5 0.5 0.866 -12.4571 189.3993)" class="st84" cx="347.2" cy="117.94" rx="2.12" ry="2.77"/>
							
								<ellipse transform="matrix(0.866 -0.5 0.5 0.866 -12.4202 189.3139)" class="st85" cx="347.05" cy="117.83" rx="1.89" ry="2.61"/>
						</g>
						<g>
							
								<ellipse transform="matrix(0.866 -0.5 0.5 0.866 -11.8774 186.453)" class="st84" cx="341.99" cy="115.39" rx="2.12" ry="2.77"/>
							
								<ellipse transform="matrix(0.866 -0.5 0.5 0.866 -11.8405 186.3676)" class="st85" cx="341.85" cy="115.28" rx="1.89" ry="2.61"/>
						</g>
						<g>
							
								<ellipse transform="matrix(0.866 -0.5 0.5 0.866 -11.2977 183.5068)" class="st84" cx="336.78" cy="112.84" rx="2.12" ry="2.77"/>
							
								<ellipse transform="matrix(0.866 -0.5 0.5 0.866 -11.2608 183.4214)" class="st85" cx="336.64" cy="112.72" rx="1.89" ry="2.61"/>
						</g>
					</g>
					<polygon class="st86" points="362.68,107.67 363.68,107.15 333.48,92.39 332.43,92.85 					"/>
					<polygon class="st83" points="363.68,107.15 363.68,128.98 362.68,129.84 362.68,107.67 					"/>
				</g>
			</g>
			<polyline class="st66" points="173.27,167.11 212.6,186.39 251.93,167.11 			"/>
			<polyline class="st66" points="312.96,196.12 212.6,148.18 109.31,198.19 			"/>
			<g>
				<polygon class="st87" points="52.81,179.35 52.81,164.68 141.33,208.17 141.33,222.84 				"/>
				<polygon class="st88" points="55.15,163.52 143.67,206.93 141.33,208.17 52.81,164.67 				"/>
				<polygon class="st89" points="141.33,208.17 141.33,208.17 141.33,208.17 141.33,208.17 141.33,208.17 177,219.51 177,234.18 
					177,234.18 177,234.18 177,234.18 177,234.18 141.33,222.84 				"/>
				<polygon class="st88" points="143.67,206.93 177.49,217.35 177,219.51 141.33,208.17 				"/>
				<polygon class="st90" points="177,219.51 177,219.51 177,219.51 177,219.51 177,219.51 212.6,224.38 212.59,239.05 
					212.6,239.05 212.59,239.05 212.59,239.05 212.59,239.05 177,234.18 				"/>
				<polygon class="st88" points="177.49,217.35 213.11,222.09 212.6,224.38 177,219.51 				"/>
				<polygon class="st91" points="372.39,179.35 372.39,164.68 283.87,208.17 283.87,222.84 				"/>
				<polygon class="st88" points="370.05,163.52 281.52,206.93 283.87,208.17 372.39,164.67 				"/>
				<polygon class="st92" points="283.87,208.17 283.87,208.17 283.87,208.17 283.87,208.17 283.87,208.17 248.2,219.51 
					248.2,234.18 248.2,234.18 248.2,234.18 248.2,234.18 248.2,234.18 283.87,222.84 				"/>
				<polygon class="st88" points="281.52,206.93 247.7,217.35 248.2,219.51 283.87,208.17 				"/>
				<polygon class="st93" points="248.2,219.51 248.2,219.51 248.2,219.51 248.2,219.51 248.19,219.51 212.6,224.38 212.6,239.05 
					212.6,239.05 212.6,239.05 212.6,239.05 212.6,239.05 248.2,234.18 				"/>
				<polygon class="st88" points="247.7,217.35 213.11,222.09 212.6,224.38 248.2,219.51 				"/>
			</g>
			<g>
				<polygon class="st82" points="112.52,193.08 112.52,175.62 136.08,187.17 136.08,204.63 				"/>
				<polygon class="st83" points="136.08,187.17 136.98,186.73 136.98,204.19 136.08,204.63 				"/>
				<polygon class="st86" points="113.42,175.18 112.52,175.62 136.08,187.17 136.98,186.73 				"/>
			</g>
			<g>
				<path class="st82" d="M123.74,218.55c0,0.74-2.05,0.74-2.05,0v-63.63h2.05V218.55z"/>
				<polygon class="st82" points="113.42,149.26 113.42,131.81 136.98,143.36 136.98,160.82 				"/>
				<polygon class="st83" points="136.98,143.36 137.88,142.92 137.88,160.38 136.98,160.82 				"/>
				<polygon class="st86" points="114.32,131.36 113.42,131.81 136.98,143.36 137.88,142.92 				"/>
				<polygon class="st86" points="113.42,148.18 109.31,150.11 132.87,161.66 136.98,159.74 				"/>
				<polygon class="st83" points="132.87,161.66 132.87,162.74 136.98,160.82 136.98,159.74 				"/>
				<polygon class="st82" points="109.31,150.11 109.31,151.19 132.87,162.74 132.87,161.66 				"/>
			</g>
			<g>
				<polygon class="st83" points="321.44,188.36 321.44,170.9 285.92,188.36 285.92,205.81 				"/>
				<polygon class="st83" points="291.32,203.97 291.32,202.97 290.34,203.47 290.34,204.47 				"/>
				<polygon class="st83" points="317.47,191.02 317.47,190.03 316.49,190.52 316.49,191.52 				"/>
				<polygon class="st82" points="285.92,188.36 285.02,187.91 285.02,205.37 285.92,205.81 				"/>
				<polygon class="st86" points="320.54,170.46 321.44,170.9 285.92,188.36 285.02,187.91 				"/>
			</g>
			<g>
				<path class="st82" d="M302.64,218.94c0,0.74,2.05,0.74,2.05,0v-63.63h-2.05V218.94z"/>
				<polygon class="st83" points="312.96,149.65 312.96,132.19 289.4,143.75 289.4,161.2 				"/>
				<polygon class="st82" points="289.4,143.75 288.5,143.3 288.5,160.76 289.4,161.2 				"/>
				<polygon class="st86" points="312.06,131.75 312.96,132.19 289.4,143.75 288.5,143.3 				"/>
				<polygon class="st86" points="312.96,148.57 317.07,150.49 293.51,162.05 289.4,160.12 				"/>
				<polygon class="st82" points="293.51,162.05 293.51,163.13 289.4,161.2 289.4,160.12 				"/>
				<polygon class="st83" points="317.07,150.49 317.07,151.58 293.51,163.13 293.51,162.05 				"/>
			</g>
			<polygon class="st91" points="212.47,184.29 208.19,186.39 212.47,188.49 216.76,186.39 			"/>
			<polygon class="st91" points="247.7,165.01 243.42,167.11 247.7,169.21 251.99,167.11 			"/>
			<polygon class="st91" points="177.49,165.01 173.21,167.11 177.49,169.21 181.78,167.11 			"/>
			<ellipse class="st94" cx="212.6" cy="166.17" rx="5.63" ry="3.34"/>
			<rect x="209.95" y="165.61" class="st91" width="5.29" height="1.13"/>
			<ellipse class="st95" cx="212.6" cy="148.8" rx="6.33" ry="3.48"/>
		</g>
	</g>
</g>
</svg>
