<?xml version="1.0" encoding="utf-8"?>
<!-- Generator: Adobe Illustrator 23.0.1, SVG Export Plug-In . SVG Version: 6.00 Build 0)  -->
<svg version="1.1" xmlns="http://www.w3.org/2000/svg" xmlns:xlink="http://www.w3.org/1999/xlink" x="0px" y="0px"
	 viewBox="0 0 240.94 170.08" style="enable-background:new 0 0 240.94 170.08;" xml:space="preserve">
<style type="text/css">
	.st0{fill:#F4C766;}
	.st1{fill:#955260;}
	.st2{fill:#77393D;}
	.st3{fill:#544A4F;}
	.st4{fill:#FBEBE8;}
	.st5{fill:#BD9DA0;}
	.st6{fill:#B18A8D;}
	.st7{fill:#3A4450;}
	.st8{fill:#8C6C6F;}
	.st9{fill:#A8ADB6;}
	.st10{fill:#BC6069;}
	.st11{fill:#A25963;}
	.st12{fill:#C7ADB0;}
	.st13{fill:#DED0C0;}
	.st14{fill:#A77E84;}
	.st15{fill:#624E52;}
	.st16{fill:#766569;}
	.st17{fill:#8C6A70;}
	.st18{fill:#AA888D;}
	.st19{fill:#745E62;}
	.st20{fill:#B79CA1;}
	.st21{fill:#5B4548;}
	.st22{fill:#74565A;}
	.st23{fill:#7A5B5F;}
	.st24{fill:#734953;}
	.st25{fill:#9F6A78;}
	.st26{fill:#704F5A;}
	.st27{fill:#875A64;}
	.st28{fill:#AA6974;}
	.st29{fill:#DABEC3;}
	.st30{fill:#E9E6E6;}
	.st31{fill:#AC5E6B;}
	.st32{fill:#6A3D44;}
	.st33{fill:#18ABA1;}
	.st34{clip-path:url(#SVGID_2_);}
	.st35{fill:#EACFAA;}
	.st36{fill:#E3C595;}
	.st37{fill:#FADEC4;}
	.st38{fill:#F0DCC0;}
	.st39{clip-path:url(#SVGID_2_);fill:#F0DCC0;}
	.st40{clip-path:url(#SVGID_2_);fill:#A18865;}
	.st41{fill:#CEA871;}
	.st42{fill:#ECD4B0;}
	.st43{clip-path:url(#SVGID_2_);fill:#85B5AC;}
	.st44{fill:#748F3E;}
	.st45{fill:#567132;}
	.st46{fill:#9A5B25;}
	.st47{fill:#40592B;}
	.st48{fill:#734521;}
	.st49{fill:#493919;}
	.st50{fill:#715927;}
	.st51{fill:#385D31;}
	.st52{fill:#9BB051;}
	.st53{fill:#2A4E28;}
	.st54{fill:#7FA340;}
	.st55{fill:#243D1E;}
	.st56{fill:#AFBA65;}
	.st57{fill:#668E3F;}
	.st58{fill:#ADB9C1;}
	.st59{fill:#8A959A;}
	.st60{fill:#616A6D;}
	.st61{fill:#75B05E;}
	.st62{fill:#BCCA45;}
	.st63{fill:#AAAF31;}
	.st64{fill:#909029;}
	.st65{fill:#DF5F45;}
	.st66{fill:none;stroke:#FFFFFF;stroke-miterlimit:10;}
	.st67{fill:#AF624C;}
	.st68{fill:#DA8A64;}
	.st69{fill:#D9A13F;}
	.st70{fill:#EDB94C;}
	.st71{fill:#8B4953;}
	.st72{fill:#CB7B58;}
	.st73{fill:none;}
	.st74{fill:#E9AC4E;}
	.st75{fill:#B29794;}
	.st76{opacity:0.5;fill:#8A6139;}
	.st77{fill:#D7D2BE;}
	.st78{fill:#CBBCB5;}
	.st79{fill:#B39A95;}
	.st80{fill:#F7F3E6;}
	.st81{fill:#F2EADC;}
	.st82{fill:#3B232B;}
	.st83{fill:#5D3C44;}
	.st84{fill:#D5D4C4;}
	.st85{fill:#F1F2DD;}
	.st86{fill:#62474D;}
	.st87{fill:#A49088;}
	.st88{fill:#E8F3E1;}
	.st89{fill:#AF9590;}
	.st90{fill:#D8C8BE;}
	.st91{fill:#F5EFDF;}
	.st92{fill:#F1EBDD;}
	.st93{fill:#F0E3DC;}
	.st94{fill:none;stroke:#F5EFDF;stroke-width:0.5;stroke-miterlimit:10;}
	.st95{fill:#E9AC4E;stroke:#FFFFFF;stroke-width:0.5;stroke-miterlimit:10;}
	.st96{fill:none;stroke:#F2EADC;stroke-miterlimit:10;}
	.st97{opacity:0.8;fill:#99D3C8;}
	.st98{fill:#FAEDD7;}
	.st99{fill:#E9D3A4;}
	.st100{fill:#887853;}
	.st101{opacity:0.6;fill:#99D3C8;}
	.st102{clip-path:url(#SVGID_2_);fill:#ADB9C1;}
	.st103{clip-path:url(#SVGID_2_);fill:#B1B85D;}
	.st104{fill:#C7AC7E;}
	.st105{fill:#F7DFB6;}
	.st106{fill:#DA8B6C;}
	.st107{fill:#EED7B6;}
	.st108{fill:#352D31;}
	.st109{fill:#E5CAA8;}
	.st110{fill:#211B27;}
	.st111{fill:#0E0205;}
	.st112{fill:#C8A57C;}
	.st113{fill:#181432;}
	.st114{fill:#192016;}
	.st115{fill:#2A222E;}
	.st116{fill:#131212;}
	.st117{fill:#383236;}
	.st118{fill:#443A38;}
	.st119{fill:#F6D9B7;}
	.st120{fill:#151313;}
	.st121{fill:#D98A73;}
	.st122{fill:#8E4329;}
	.st123{fill:#F5C620;}
	.st124{fill:#ED8916;}
	.st125{fill:#C97315;}
	.st126{fill:#891C21;}
	.st127{fill:#C8C4BE;}
	.st128{fill:#D9D3CE;}
	.st129{fill:#FFFFFF;}
	.st130{fill:#F0EFEF;}
	.st131{fill:#F1AB40;}
	.st132{fill:#DA8F2D;}
	.st133{fill:#856727;}
	.st134{clip-path:url(#SVGID_2_);fill:#8A959A;}
	.st135{clip-path:url(#SVGID_2_);fill:#9A5B25;}
	.st136{fill:#D2A671;}
	.st137{fill:#CA8F6B;}
	.st138{fill:#AB6F4C;}
	.st139{fill:#D9A086;}
	.st140{fill:#A18376;}
	.st141{clip-path:url(#SVGID_2_);fill:#929441;}
	.st142{clip-path:url(#SVGID_2_);fill:#CA8F6B;}
	.st143{clip-path:url(#SVGID_2_);fill:#FAD3A4;}
	.st144{clip-path:url(#SVGID_2_);fill:#D9A086;}
	.st145{clip-path:url(#SVGID_2_);fill:#D2A671;}
	.st146{clip-path:url(#SVGID_2_);fill:#AB6F4C;}
	.st147{clip-path:url(#SVGID_2_);fill:#616A6D;}
	.st148{clip-path:url(#SVGID_2_);fill:#734521;}
	.st149{fill:#014A63;}
	.st150{fill:#2683AD;}
	.st151{fill:#09698D;}
	.st152{fill:#0C6396;}
	.st153{fill:#0C6BB0;}
	.st154{fill:#DCE78D;}
	.st155{fill:#B1B85D;}
	.st156{fill:#70712D;}
	.st157{fill:#FAD3A4;}
	.st158{fill:#929441;}
	.st159{fill:#547D55;}
	.st160{fill:#689755;}
	.st161{fill:#999791;}
	.st162{fill:#5A5D5A;}
	.st163{fill:#727271;}
	.st164{fill:#EDBA61;}
	.st165{fill:#E3A43C;}
	.st166{fill:#E2921A;}
	.st167{fill:#A8B2DA;}
	.st168{fill:#DCDFF0;}
	.st169{fill:#3E73B9;}
	.st170{fill:#5281C2;}
	.st171{fill:#838FB2;}
	.st172{fill:#9DA8C4;}
	.st173{fill:#F8CA81;}
	.st174{fill:#540A10;}
	.st175{fill:#64231C;}
	.st176{fill:#B92E21;}
	.st177{fill:#861B20;}
	.st178{fill:#103672;}
	.st179{fill:#D8A417;}
	.st180{fill:#F5B719;}
	.st181{fill:#D8A415;}
	.st182{fill:#BB8818;}
	.st183{fill:#F1B86D;}
	.st184{fill:#D29A56;}
	.st185{fill:#219CD9;}
	.st186{fill:#F9DBC0;}
	.st187{fill:#E0B8A4;}
	.st188{fill:#BC8B76;}
	.st189{fill:#E9C8AD;}
	.st190{fill:#6D3D30;}
	.st191{fill:#B48F76;}
	.st192{fill:#76594A;}
	.st193{fill:#C8A68C;}
	.st194{fill:#A78269;}
	.st195{fill:#7E634E;}
	.st196{fill:#CFA88B;}
	.st197{fill:#493223;}
	.st198{fill:#997967;}
	.st199{fill:#E6C6AA;}
	.st200{fill:#C3A38B;}
	.st201{fill:#C3A18A;}
	.st202{fill:#6C5244;}
	.st203{fill:#74C0B3;}
	.st204{fill:#895140;}
	.st205{fill:#AB715C;}
	.st206{fill:#AE7E6C;}
	.st207{fill:#CAA392;}
	.st208{fill:#654237;}
	.st209{fill:#BE9C80;}
	.st210{fill:#7A534A;}
	.st211{fill:#884D3F;}
	.st212{fill:#85AA39;}
	.st213{fill:#6A8B32;}
	.st214{fill:#9BBA58;}
	.st215{fill:#5D7F34;}
	.st216{fill:#4C6830;}
	.st217{fill:#3C5C2D;}
	.st218{fill:#304E27;}
	.st219{fill:#557232;}
	.st220{fill:#49652F;}
	.st221{fill:#5F8434;}
	.st222{fill:#6C9F30;}
	.st223{fill:#BF9457;}
	.st224{fill:#8F6225;}
	.st225{fill:#AB7C30;}
	.st226{fill:#79583F;}
	.st227{fill:#28100B;}
	.st228{fill:#23100D;}
	.st229{opacity:0.6;fill:#219CD9;}
	.st230{fill:#CBE8F0;}
	.st231{fill:#87CFE9;}
	.st232{fill:#A7DAE9;}
	.st233{clip-path:url(#SVGID_4_);}
	.st234{clip-path:url(#SVGID_2_);fill:#70712D;}
	.st235{clip-path:url(#SVGID_2_);fill:none;}
	.st236{fill:#D4DB6E;}
	.st237{fill:#9F9F49;}
	.st238{fill:#BCBE5D;}
	.st239{fill:#D3C2A4;}
	.st240{fill:#C3BEAD;}
	.st241{fill:#E8D7C2;}
	.st242{fill:#878577;}
	.st243{fill:#DCD8CB;}
	.st244{fill:#F1EEE8;}
	.st245{fill:#1A3F61;}
	.st246{fill:#163955;}
	.st247{fill:#123048;}
	.st248{fill:#25567E;}
	.st249{fill:#D0C8B9;}
	.st250{fill:#FCEDDE;}
	.st251{fill:#FEF3EA;}
	.st252{fill:#082332;}
	.st253{fill:#F8EEE4;}
	.st254{fill:#C2AB93;}
	.st255{fill:#D2BFB3;}
	.st256{fill:#B17441;}
	.st257{fill:none;stroke:#73502D;stroke-width:0.2;stroke-miterlimit:10;}
	.st258{fill:none;stroke:#73502D;stroke-width:0.15;stroke-miterlimit:10;}
	.st259{fill:#FCECE1;}
	.st260{fill:#C2AF9A;}
	.st261{fill:#918781;}
	.st262{fill:#6D6E72;}
	.st263{fill:#FFFAEF;}
	.st264{fill:#E2DFD8;}
	.st265{fill:#53555B;}
	.st266{fill:#336D94;}
	.st267{fill:#F2F09E;}
	.st268{fill:#BEB954;}
	.st269{fill:#D4CE7A;}
	.st270{fill:#DCA570;}
	.st271{fill:#955C34;}
	.st272{fill:#BC8152;}
	.st273{fill:#72351C;}
	.st274{fill:#904B23;}
	.st275{fill:#8E694D;}
	.st276{fill:#85C35E;}
	.st277{fill:#709430;}
	.st278{fill:#5F432F;}
	.st279{fill:#B4CF4D;}
	.st280{fill:#CBDC50;}
	.st281{fill:#EFB99F;}
	.st282{fill:#BA4458;}
	.st283{fill:#4C515A;}
	.st284{fill:#075A7C;}
	.st285{fill:#3A97AE;}
	.st286{fill:#E8A78C;}
	.st287{fill:#F1BA9F;}
	.st288{fill:#9C1E2C;}
	.st289{fill:#452C25;}
	.st290{fill:#E45438;}
	.st291{fill:#C4361E;}
	.st292{fill:#E3F2F1;}
	.st293{fill:#D5ECEA;}
	.st294{fill:#BCE1DB;}
	.st295{fill:#F2F9FA;}
	.st296{fill:#62B0A0;}
	.st297{fill:#72C4B3;}
	.st298{fill:#B7DDDA;}
	.st299{fill:#E14947;}
	.st300{fill:#BDC64F;}
	.st301{fill:#EEDA98;}
	.st302{fill:#D09E23;}
	.st303{fill:#EDBB30;}
	.st304{fill:#46B9A8;}
	.st305{fill:#2AA390;}
	.st306{fill:#E8D0CC;}
	.st307{fill:#ED7016;}
	.st308{fill:#933030;}
	.st309{fill:#539835;}
	.st310{fill:#6C4D37;}
	.st311{fill:#E8AEB9;}
	.st312{fill:#D61D2B;}
	.st313{fill:#18708D;}
	.st314{fill:#67A2A1;}
	.st315{fill:#7FBFBC;}
	.st316{fill:#825D41;}
	.st317{fill:#9A6542;}
	.st318{fill:#60B1D5;}
	.st319{fill:#7CCBE7;}
	.st320{fill:#749936;}
	.st321{fill:#96BE53;}
	.st322{fill:#7FA742;}
	.st323{fill:#AAC96A;}
	.st324{fill:#B57F59;}
	.st325{fill:#AB744E;}
	.st326{fill:#DDA137;}
	.st327{fill:#E7B64E;}
	.st328{fill:#C38A63;}
	.st329{fill:#93C67D;}
	.st330{fill:#425A5F;}
	.st331{fill:#617D80;}
	.st332{fill:#73A961;}
	.st333{fill:#C12A1F;}
	.st334{fill:#D8452B;}
	.st335{fill:#4C675E;}
	.st336{fill:#89664B;}
	.st337{fill:#E15513;}
	.st338{fill:#88D0ED;}
	.st339{fill:#D2B6D7;}
	.st340{fill:#804999;}
	.st341{fill:#5A6A99;}
	.st342{fill:#4C5A89;}
	.st343{fill:#D8A641;}
	.st344{fill:#E8C127;}
	.st345{fill:#EFCA32;}
	.st346{fill-rule:evenodd;clip-rule:evenodd;fill:#2F93C7;}
	.st347{fill-rule:evenodd;clip-rule:evenodd;fill:#15323F;}
	.st348{fill-rule:evenodd;clip-rule:evenodd;fill:#092745;}
	.st349{fill-rule:evenodd;clip-rule:evenodd;fill:#0A335A;}
	.st350{fill-rule:evenodd;clip-rule:evenodd;fill:#E9BC7B;}
	.st351{fill-rule:evenodd;clip-rule:evenodd;fill:#227AA7;}
	.st352{fill-rule:evenodd;clip-rule:evenodd;fill:#1684B9;}
	.st353{fill-rule:evenodd;clip-rule:evenodd;fill:#FAD8A5;}
	.st354{fill-rule:evenodd;clip-rule:evenodd;fill:#321306;}
	.st355{fill-rule:evenodd;clip-rule:evenodd;fill:#1C95CF;}
	.st356{fill-rule:evenodd;clip-rule:evenodd;fill:#11868E;}
	.st357{fill-rule:evenodd;clip-rule:evenodd;fill:#28B4B3;}
	.st358{fill-rule:evenodd;clip-rule:evenodd;fill:#030912;}
	.st359{fill-rule:evenodd;clip-rule:evenodd;fill:#021A2F;}
	.st360{fill-rule:evenodd;clip-rule:evenodd;fill:#1D1D1F;}
	.st361{fill-rule:evenodd;clip-rule:evenodd;fill:#46BDCC;}
	.st362{fill-rule:evenodd;clip-rule:evenodd;fill:#C1A76A;}
	.st363{fill-rule:evenodd;clip-rule:evenodd;fill:#A08857;}
	.st364{fill-rule:evenodd;clip-rule:evenodd;fill:#D9BE7D;}
	.st365{fill-rule:evenodd;clip-rule:evenodd;fill:#A7905F;}
	.st366{fill-rule:evenodd;clip-rule:evenodd;fill:#CBB174;}
	.st367{fill-rule:evenodd;clip-rule:evenodd;fill:#823F34;}
	.st368{fill-rule:evenodd;clip-rule:evenodd;fill:#F5A22C;}
	.st369{fill-rule:evenodd;clip-rule:evenodd;fill:#F6B758;}
	.st370{fill-rule:evenodd;clip-rule:evenodd;fill:#7C4A36;}
	.st371{fill-rule:evenodd;clip-rule:evenodd;fill:#583424;}
	.st372{fill-rule:evenodd;clip-rule:evenodd;fill:#8F563A;}
	.st373{fill-rule:evenodd;clip-rule:evenodd;fill:#456530;}
	.st374{fill-rule:evenodd;clip-rule:evenodd;fill:#749D3D;}
	.st375{fill-rule:evenodd;clip-rule:evenodd;fill:#5F8834;}
	.st376{fill-rule:evenodd;clip-rule:evenodd;fill:#EB5A19;}
	.st377{fill-rule:evenodd;clip-rule:evenodd;fill:#ED6C1C;}
	.st378{fill-rule:evenodd;clip-rule:evenodd;fill:#34963C;}
	.st379{fill-rule:evenodd;clip-rule:evenodd;fill:#49B053;}
	.st380{fill-rule:evenodd;clip-rule:evenodd;fill:#3B3232;}
	.st381{fill-rule:evenodd;clip-rule:evenodd;fill:#A7C7E2;}
	.st382{fill-rule:evenodd;clip-rule:evenodd;fill:#C4DBEE;}
	.st383{fill-rule:evenodd;clip-rule:evenodd;fill:#1B3346;}
	.st384{fill-rule:evenodd;clip-rule:evenodd;fill:#365975;}
	.st385{fill-rule:evenodd;clip-rule:evenodd;fill:#224058;}
	.st386{fill-rule:evenodd;clip-rule:evenodd;fill:#416787;}
	.st387{fill-rule:evenodd;clip-rule:evenodd;fill:#040000;}
	.st388{fill-rule:evenodd;clip-rule:evenodd;fill:#D7EAF8;}
	.st389{fill-rule:evenodd;clip-rule:evenodd;fill:#111111;}
	.st390{fill-rule:evenodd;clip-rule:evenodd;fill:#2E2C2C;}
	.st391{fill-rule:evenodd;clip-rule:evenodd;fill:#3B3939;}
	.st392{fill:#72A1A4;}
	.st393{fill:#95BDC4;}
	.st394{fill:#C3E0E6;}
	.st395{opacity:0.53;fill:#403532;}
	.st396{fill:#E7EAF2;}
	.st397{fill:#A0AAB5;}
	.st398{fill:#B7BFC8;}
	.st399{fill:#434549;}
	.st400{fill:#AA7960;}
	.st401{fill:#CDD2DA;}
	.st402{fill:#205789;}
	.st403{fill:#BDC4CB;}
	.st404{fill:#C8CFD7;}
	.st405{fill:#AEBCCB;}
	.st406{fill:#99A2AD;}
	.st407{fill:#94A2C0;}
	.st408{fill:#B2BCD3;}
	.st409{fill:#CACFD6;}
	.st410{fill:#D3D7DF;}
	.st411{fill:#A5AFC5;}
	.st412{fill:#6A768B;}
	.st413{fill:#C78618;}
	.st414{fill:#82A92D;}
	.st415{fill:#627A31;}
	.st416{fill:#77962E;}
	.st417{fill:#BFC5C2;}
	.st418{fill:#DFDACF;}
	.st419{fill:#F8F6E8;}
	.st420{fill:#858393;}
	.st421{fill:#B9B4AB;}
	.st422{fill:#EBE8DD;}
	.st423{fill:#9C9CA9;}
	.st424{fill:#9E5C2C;}
	.st425{fill:#5F3819;}
	.st426{fill:#959E26;}
	.st427{fill:#955A25;}
	.st428{fill:#727A2E;}
	.st429{fill:#724622;}
	.st430{fill:#DF673F;}
	.st431{fill:#C65021;}
	.st432{fill:#C0411F;}
	.st433{fill:#F1C980;}
	.st434{fill:#F1C980;stroke:#F1C980;stroke-miterlimit:10;}
	.st435{fill:#C5572E;}
	.st436{fill:#73BEC4;}
	.st437{fill:#F8F5F5;}
	.st438{fill:#070001;}
	.st439{fill:#852B21;}
	.st440{fill:#ECD590;}
	.st441{fill:#E8BF6F;}
	.st442{fill:#F7E2B6;}
	.st443{fill:none;stroke:#E38C2B;stroke-miterlimit:10;}
	.st444{fill:none;stroke:#40220E;stroke-miterlimit:10;}
	.st445{fill:#F1C980;stroke:#F1C980;stroke-width:0.4;stroke-miterlimit:10;}
	.st446{fill:none;stroke:#40220E;stroke-width:0.4;stroke-miterlimit:10;}
	.st447{fill:#F1C980;stroke:#F1C980;stroke-width:0.75;stroke-miterlimit:10;}
	.st448{fill:#862821;}
	.st449{fill:#993823;}
	.st450{fill:#5D3819;}
	.st451{fill:#7AAA4A;}
	.st452{fill:#699234;}
	.st453{fill:#6FA23B;}
	.st454{fill:#ACB9C1;}
	.st455{fill:#5F696D;}
	.st456{fill:#744622;}
	.st457{fill:#A84429;}
	.st458{fill:#D6CBB6;}
	.st459{fill:#BA5742;}
	.st460{fill:#9B512C;}
	.st461{fill:#B15A3F;}
	.st462{fill:#984C35;}
	.st463{fill:#C68459;}
	.st464{fill:#A25246;}
	.st465{fill:#A15139;}
	.st466{fill:#AC574A;}
	.st467{fill:#A66842;}
	.st468{fill:#9E553C;}
	.st469{fill:none;stroke:#E4007F;stroke-miterlimit:10;}
	.st470{fill:#DA7A5F;}
	.st471{fill:#BCAFA4;}
	.st472{fill:#BF6347;}
	.st473{fill:#E9E6C4;}
	.st474{fill:#C35132;}
	.st475{fill:#A29BA5;}
	.st476{fill:#EBDBD2;}
	.st477{fill:#BEB2B8;}
	.st478{fill:#D58C54;}
	.st479{fill:#DAAA64;}
	.st480{fill:#E4D587;}
	.st481{fill:#B78E66;}
	.st482{fill:#D39152;}
	.st483{fill:#212936;}
	.st484{fill:#1C1E3A;}
	.st485{fill:#3A426D;}
	.st486{fill:#202C4B;}
	.st487{fill:#343C74;}
	.st488{fill:#1B2C57;}
	.st489{fill:#1A234B;}
	.st490{fill:#3E3F63;}
	.st491{fill:#30397F;}
	.st492{fill:#444A7F;}
	.st493{fill:#223565;}
	.st494{fill:#705828;}
	.st495{fill:#9BB151;}
	.st496{fill:#D6BEB1;}
	.st497{fill:#3D3E3D;}
	.st498{fill:#AF9A88;}
	.st499{fill:#8E8C8B;}
	.st500{fill:#3D3E3D;stroke:#898989;stroke-width:0.5;stroke-miterlimit:10;}
	.st501{fill:none;stroke:#3C3D3C;stroke-width:0.5;stroke-miterlimit:10;}
	.st502{fill:#F1E8E3;}
	.st503{fill:#AD4028;}
	.st504{fill:#8F3E2F;}
	.st505{fill:#89959A;}
	.st506{fill:#8BA92A;}
	.st507{fill:#4E6C31;}
	.st508{fill:#B24222;}
	.st509{fill:#E8D9CB;}
	.st510{fill:#BD9687;}
	.st511{fill:#E26B4F;}
	.st512{fill:#DE5836;}
	.st513{fill:#C95539;}
	.st514{fill:#237293;stroke:#A37B51;stroke-width:0.8;stroke-miterlimit:10;}
	.st515{fill:none;stroke:#A37B51;stroke-width:0.8;stroke-miterlimit:10;}
	.st516{fill:#998277;}
	.st517{fill:#256E92;}
	.st518{fill:#A37B51;stroke:#A37B51;stroke-width:0.8;stroke-miterlimit:10;}
	.st519{fill:#237293;}
	.st520{fill:#B68B7B;}
	.st521{fill:#73695D;}
	.st522{fill:#5B873B;}
	.st523{fill:#88AD3D;}
	.st524{fill:#6D9B30;}
	.st525{fill:#E6E6E8;}
	.st526{fill:#D2D3D5;}
	.st527{fill:#A8A9AD;}
	.st528{fill:#BDBEBF;}
	.st529{fill:#EFF1F0;}
	.st530{fill:#E56F69;}
	.st531{fill:#E67364;}
	.st532{fill:#983530;}
	.st533{fill:#9E2F33;}
	.st534{fill:#E4483F;}
	.st535{fill:#0A6293;}
	.st536{fill:#90D1EB;}
	.st537{fill:#41B1D8;}
	.st538{fill:#3DA3D0;}
	.st539{fill:#1D8ACC;}
	.st540{fill:#678497;}
	.st541{fill:#557186;}
	.st542{fill:#E9E9E7;}
	.st543{fill:#333333;}
	.st544{fill:#D3D4D6;}
	.st545{fill:#567387;}
	.st546{fill:#0B6491;}
	.st547{fill:#248CCD;}
	.st548{fill:#C6C7C9;}
	.st549{fill:#449EBB;}
	.st550{fill:#D1D2D4;}
	.st551{fill:#BF8652;}
	.st552{fill:#A87746;}
	.st553{fill:#91C66F;}
	.st554{fill:#79BB5B;}
	.st555{fill:#6DAE4E;}
	.st556{fill:#AEACAC;}
	.st557{fill:#AEACAC;stroke:#7F8080;stroke-width:0.75;stroke-miterlimit:10;}
	.st558{fill:#858283;stroke:#7F8080;stroke-width:0.75;stroke-miterlimit:10;}
	.st559{fill:#858283;}
	.st560{fill:#69686A;}
	.st561{fill:#CECAC3;}
	.st562{fill:#E4E3E3;}
	.st563{fill:none;stroke:#858283;stroke-width:0.75;stroke-miterlimit:10;}
	.st564{fill:#323B3D;}
	.st565{fill:#D5D2D1;}
	.st566{fill:#D3D1D2;}
	.st567{fill:#FEFEFE;}
	.st568{fill:#F6F1F8;}
	.st569{fill:#6B899F;}
	.st570{fill:#4F4341;stroke:#D6CEC3;stroke-width:0.5;stroke-miterlimit:10;}
	.st571{fill:#655C5A;}
	.st572{fill-rule:evenodd;clip-rule:evenodd;fill:#DB2626;}
	.st573{fill-rule:evenodd;clip-rule:evenodd;fill:#C51727;}
	.st574{fill-rule:evenodd;clip-rule:evenodd;fill:#69686A;}
	.st575{fill-rule:evenodd;clip-rule:evenodd;fill:#424141;}
	.st576{fill-rule:evenodd;clip-rule:evenodd;fill:#B31D26;}
	.st577{fill-rule:evenodd;clip-rule:evenodd;fill:#E4E4E5;}
	.st578{fill-rule:evenodd;clip-rule:evenodd;fill:#AE1E29;}
	.st579{fill-rule:evenodd;clip-rule:evenodd;fill:#D1D1D1;}
	.st580{fill-rule:evenodd;clip-rule:evenodd;fill:#E24B4D;}
	.st581{fill-rule:evenodd;clip-rule:evenodd;fill:#284367;}
	.st582{fill-rule:evenodd;clip-rule:evenodd;fill:#4E6281;}
	.st583{fill-rule:evenodd;clip-rule:evenodd;fill:#8F1D26;}
	.st584{fill-rule:evenodd;clip-rule:evenodd;fill:#111223;}
	.st585{fill-rule:evenodd;clip-rule:evenodd;fill:#5A5759;}
	.st586{fill-rule:evenodd;clip-rule:evenodd;fill:#C2C3C3;}
	.st587{fill-rule:evenodd;clip-rule:evenodd;fill:#929397;}
	.st588{fill:#A3A4A6;}
	.st589{fill:#F7F7F7;}
	.st590{fill:#DCDDDF;}
	.st591{fill:#29394C;}
	.st592{fill:#999A9D;}
	.st593{fill:#DBDADA;}
	.st594{fill:#C3C4C6;}
	.st595{fill:#E4E4E3;}
	.st596{fill:#E5E3E4;}
	.st597{fill:#025081;}
	.st598{fill:#02568B;}
	.st599{fill:#1266A4;}
	.st600{fill:#C0C0C2;}
	.st601{fill:#397095;}
	.st602{clip-path:url(#SVGID_2_);fill:#9B7949;}
	.st603{opacity:0.6;clip-path:url(#SVGID_2_);fill:#99D3C8;}
	.st604{clip-path:url(#SVGID_2_);fill:#EACFAA;}
	.st605{clip-path:url(#SVGID_2_);fill:#E3C595;}
	.st606{clip-path:url(#SVGID_2_);fill:#FADEC4;}
	.st607{fill:#DBCFBF;}
	.st608{fill:#FFF9F2;}
	.st609{fill:#4E4D4D;}
	.st610{fill:#3A3938;}
	.st611{fill:#424241;}
	.st612{fill:#E7DED5;}
	.st613{fill:#ECE6E1;}
	.st614{fill:#D5D0CB;}
	.st615{fill:#A18865;}
	.st616{fill:#85B5AC;}
	.st617{clip-path:url(#SVGID_6_);}
	.st618{fill:#9B7949;}
	.st619{fill:#3E3A39;}
	.st620{opacity:0.3;}
	.st621{fill:#D6D6D6;}
	.st622{fill:#ACABAB;}
	.st623{fill:#D6D6D6;stroke:#D6D6D6;stroke-width:4;stroke-miterlimit:10;}
	.st624{fill:#F1F1F1;}
	.st625{fill:none;stroke:#FFFFFF;stroke-linecap:round;stroke-miterlimit:10;}
	.st626{fill:#1B1C1B;}
	.st627{fill:none;stroke:#F1F1F1;stroke-width:2;stroke-miterlimit:10;}
	.st628{fill:#2E2E2E;}
	.st629{fill:none;stroke:#F1F1F1;stroke-width:2;stroke-linecap:round;stroke-linejoin:round;stroke-miterlimit:10;}
	.st630{fill:#161717;}
	.st631{fill:#040000;}
	.st632{fill:#492743;}
	.st633{opacity:0.05;fill:none;stroke:#FFFFFF;stroke-width:0.5;stroke-miterlimit:10;}
	.st634{fill:#30393C;}
	.st635{fill:#AAD6AB;}
	.st636{fill:url(#SVGID_7_);}
	.st637{fill:url(#SVGID_8_);}
	.st638{fill:url(#SVGID_9_);}
	.st639{fill:url(#SVGID_10_);}
	.st640{fill:url(#SVGID_11_);}
	.st641{fill:url(#SVGID_12_);}
	.st642{fill:url(#SVGID_13_);}
	.st643{fill:url(#SVGID_14_);}
	.st644{fill:url(#SVGID_15_);}
	.st645{fill:url(#SVGID_16_);}
	.st646{fill:#D8E3B8;}
	.st647{fill:#F4C324;}
	.st648{clip-path:url(#SVGID_30_);}
	.st649{fill:url(#SVGID_31_);}
	.st650{fill:url(#SVGID_32_);}
	.st651{fill:url(#SVGID_33_);}
	.st652{fill:url(#SVGID_34_);}
	.st653{fill:url(#SVGID_35_);}
	.st654{fill:url(#SVGID_36_);}
	.st655{fill:url(#SVGID_37_);}
	.st656{fill:url(#SVGID_38_);}
	.st657{fill:url(#SVGID_39_);}
	.st658{fill:url(#SVGID_40_);}
	.st659{fill:url(#SVGID_41_);}
	.st660{fill:url(#SVGID_42_);}
	.st661{fill:url(#SVGID_43_);}
	.st662{fill:url(#SVGID_44_);}
	.st663{fill:url(#SVGID_45_);}
	.st664{fill:url(#SVGID_46_);}
	.st665{fill:url(#SVGID_47_);}
	.st666{fill:url(#SVGID_48_);}
	.st667{fill:url(#SVGID_49_);}
	.st668{fill:url(#SVGID_50_);}
</style>
<g id="圖層_1">
</g>
<g id="圖層_2">
	<g>
		<polygon class="st62" points="120.47,56.79 29.47,103.65 91.69,134.29 182.69,89.66 		"/>
		<polygon class="st426" points="211.48,116.17 211.48,105.71 120.47,150.33 120.47,160.8 		"/>
		<polygon class="st427" points="211.48,116.17 211.48,109.91 120.47,154.54 120.47,160.8 		"/>
		<polygon class="st428" points="29.47,116.17 29.47,103.65 77.06,126.92 77.06,139.44 		"/>
		<polygon class="st428" points="51.17,126.85 51.17,114.33 108.84,142.85 108.84,155.37 		"/>
		<polygon class="st58" points="182.88,92.88 91.87,137.45 110.62,146.83 197.87,101 		"/>
		<polygon class="st426" points="182.69,92.96 182.69,89.76 91.69,134.38 91.69,137.58 		"/>
		<polygon class="st62" points="200.27,99.83 108.63,144.85 120.27,150.51 211.28,105.88 		"/>
		<polygon class="st428" points="108.84,155.36 108.84,145 120.47,150.43 120.47,160.8 		"/>
		<polygon class="st429" points="29.47,116.17 29.47,109.91 120.47,154.54 120.47,160.8 		"/>
		<g>
			<polygon class="st430" points="161.24,79.23 81.33,119.76 81.33,83.45 161.24,42.92 			"/>
			<polygon class="st431" points="81.33,119.76 40.79,99.15 40.79,62.83 81.33,83.45 			"/>
			<polygon class="st432" points="161.24,43.71 81.33,84.24 60.83,49.81 140.74,9.28 			"/>
			<polygon class="st433" points="161.24,43.76 81.33,84.29 81.33,83.45 161.24,42.92 			"/>
			<polygon class="st433" points="161.24,61.94 81.33,102.48 81.33,101.64 161.24,61.1 			"/>
			<polygon class="st433" points="81.33,102.48 40.79,81.86 40.79,81.02 81.33,101.64 			"/>
			<polygon class="st430" points="133.19,93.85 109.58,105.63 109.67,62.49 133.28,50.71 			"/>
			<polygon class="st433" points="133.51,50.71 133.41,93.83 132.57,93.83 132.66,50.71 			"/>
			<polygon class="st435" points="109.87,62.49 121.51,41.27 133.08,50.72 			"/>
			<polygon class="st433" points="133.51,50.72 132.68,50.92 120.68,41.47 121.51,41.27 			"/>
			<polygon class="st436" points="128.65,95.77 114.01,103.17 114.01,88.22 128.65,80.81 			"/>
			<rect x="121.03" y="84.49" class="st433" width="0.52" height="15.01"/>
			<rect x="113.75" y="88.16" class="st433" width="0.52" height="15.01"/>
			<polygon class="st433" points="128.86,81.32 113.75,88.85 113.75,87.73 128.86,80.19 			"/>
			<line class="st434" x1="128.65" y1="80.69" x2="128.65" y2="95.64"/>
			<g>
				<path class="st437" d="M123.68,50.69c0,1.59-1.1,3.45-2.45,4.15c-1.35,0.7-2.45-0.02-2.45-1.61c0-1.59,1.1-3.45,2.45-4.15
					C122.59,48.38,123.68,49.1,123.68,50.69z"/>
				<polygon class="st438" points="121.01,52.3 121.24,49.48 121.46,52.06 				"/>
				<polygon class="st438" points="121.18,51.73 122.69,51.21 121.18,52.26 				"/>
			</g>
			<polygon class="st439" points="40.79,63.02 60.83,49.75 81.33,83.64 			"/>
			<polygon class="st440" points="81.33,124.96 163.71,83.66 163.71,80.61 81.33,121.91 			"/>
			<polygon class="st440" points="38.77,100.5 81.33,121.91 81.33,119.74 40.79,99.12 			"/>
			<polygon class="st441" points="38.77,103.54 81.33,124.96 81.33,121.91 38.77,100.5 			"/>
			<polygon class="st442" points="81.33,121.91 163.71,80.61 161.24,79.23 81.33,119.74 			"/>
			<g>
				<line class="st445" x1="113.86" y1="72.37" x2="128.7" y2="65.02"/>
				<polygon class="st436" points="128.7,73.55 113.86,80.91 113.86,63.33 128.7,55.97 				"/>
				<line class="st445" x1="116.33" y1="62.06" x2="116.33" y2="70.77"/>
				<line class="st445" x1="113.86" y1="63.24" x2="113.86" y2="72.37"/>
				<line class="st445" x1="121.28" y1="59.67" x2="121.28" y2="68.37"/>
				<line class="st445" x1="118.81" y1="61.11" x2="118.81" y2="70.24"/>
				<line class="st445" x1="126.23" y1="57.5" x2="126.23" y2="66.21"/>
				<line class="st445" x1="128.7" y1="55.88" x2="128.7" y2="65.02"/>
				<line class="st445" x1="123.75" y1="58.52" x2="123.75" y2="67.66"/>
				<line class="st445" x1="113.86" y1="72.09" x2="128.7" y2="64.73"/>
				<line class="st445" x1="113.86" y1="69.95" x2="128.7" y2="62.59"/>
				<line class="st445" x1="113.86" y1="67.81" x2="128.7" y2="60.46"/>
				<line class="st445" x1="113.86" y1="65.67" x2="128.7" y2="58.32"/>
				<line class="st445" x1="113.77" y1="63.54" x2="128.7" y2="56.18"/>
				<line class="st445" x1="116.33" y1="70.9" x2="116.33" y2="79.61"/>
				<line class="st445" x1="118.8" y1="64.72" x2="118.8" y2="73.86"/>
				<line class="st445" x1="113.86" y1="72.08" x2="113.86" y2="81.22"/>
				<line class="st445" x1="121.28" y1="68.5" x2="121.28" y2="77.21"/>
				<line class="st445" x1="123.75" y1="64.72" x2="123.75" y2="73.86"/>
				<line class="st445" x1="118.81" y1="69.15" x2="118.81" y2="78.29"/>
				<line class="st445" x1="126.23" y1="66.34" x2="126.23" y2="75.05"/>
				<line class="st445" x1="128.7" y1="64.72" x2="128.7" y2="73.86"/>
				<line class="st445" x1="123.77" y1="67.01" x2="123.77" y2="76.14"/>
				<line class="st445" x1="113.77" y1="80.93" x2="128.7" y2="73.58"/>
				<line class="st445" x1="113.86" y1="78.79" x2="128.7" y2="71.43"/>
				<line class="st445" x1="113.86" y1="76.66" x2="128.7" y2="69.3"/>
				<line class="st445" x1="113.86" y1="74.51" x2="128.7" y2="67.16"/>
			</g>
			<g>
				<polygon class="st436" points="89.48,95.58 84.61,98.07 84.61,87.86 89.48,85.37 				"/>
				<line class="st447" x1="87.04" y1="86.76" x2="87.04" y2="96.91"/>
				<line class="st447" x1="89.48" y1="85.26" x2="89.48" y2="95.91"/>
				<line class="st447" x1="84.61" y1="87.75" x2="84.61" y2="98.4"/>
				<line class="st434" x1="84.61" y1="98.07" x2="89.48" y2="95.58"/>
				<line class="st434" x1="84.61" y1="98.07" x2="89.48" y2="95.58"/>
				<line class="st434" x1="84.61" y1="95.57" x2="89.48" y2="93.09"/>
				<line class="st434" x1="84.61" y1="93.08" x2="89.48" y2="90.6"/>
				<line class="st434" x1="84.61" y1="90.59" x2="89.48" y2="88.1"/>
				<line class="st434" x1="84.61" y1="88.09" x2="89.48" y2="85.61"/>
			</g>
			<g>
				<polygon class="st436" points="89.48,95.58 84.61,98.07 84.61,87.86 89.48,85.37 				"/>
				<line class="st445" x1="87.04" y1="86.76" x2="87.04" y2="96.91"/>
				<line class="st445" x1="89.48" y1="85.26" x2="89.48" y2="95.91"/>
				<line class="st445" x1="84.61" y1="87.75" x2="84.61" y2="98.4"/>
				<line class="st445" x1="84.61" y1="98.07" x2="89.48" y2="95.58"/>
				<line class="st445" x1="84.61" y1="98.07" x2="89.48" y2="95.58"/>
				<line class="st445" x1="84.61" y1="95.57" x2="89.48" y2="93.09"/>
				<line class="st445" x1="84.61" y1="93.08" x2="89.48" y2="90.6"/>
				<line class="st445" x1="84.61" y1="90.59" x2="89.48" y2="88.1"/>
				<line class="st445" x1="84.61" y1="88.09" x2="89.48" y2="85.61"/>
			</g>
			<g>
				<polygon class="st436" points="71.98,94.66 76.85,97.15 76.85,86.94 71.98,84.46 				"/>
				<line class="st445" x1="74.42" y1="85.84" x2="74.42" y2="95.99"/>
				<line class="st445" x1="71.98" y1="84.35" x2="71.98" y2="94.99"/>
				<line class="st445" x1="76.85" y1="86.83" x2="76.85" y2="97.48"/>
				<line class="st445" x1="76.85" y1="97.15" x2="71.98" y2="94.66"/>
				<line class="st445" x1="76.85" y1="97.15" x2="71.98" y2="94.66"/>
				<line class="st445" x1="76.85" y1="94.66" x2="71.98" y2="92.17"/>
				<line class="st445" x1="76.85" y1="92.16" x2="71.98" y2="89.68"/>
				<line class="st445" x1="76.85" y1="89.67" x2="71.98" y2="87.19"/>
				<line class="st445" x1="76.85" y1="87.18" x2="71.98" y2="84.69"/>
			</g>
			<g>
				<polygon class="st436" points="63.28,90.25 68.16,92.74 68.16,82.53 63.28,80.04 				"/>
				<line class="st445" x1="65.72" y1="81.43" x2="65.72" y2="91.58"/>
				<line class="st445" x1="63.28" y1="79.93" x2="63.28" y2="90.58"/>
				<line class="st445" x1="68.16" y1="82.42" x2="68.16" y2="93.06"/>
				<line class="st445" x1="68.16" y1="92.74" x2="63.28" y2="90.25"/>
				<line class="st445" x1="68.16" y1="92.74" x2="63.28" y2="90.25"/>
				<line class="st445" x1="68.16" y1="90.24" x2="63.28" y2="87.76"/>
				<line class="st445" x1="68.16" y1="87.75" x2="63.28" y2="85.27"/>
				<line class="st445" x1="68.16" y1="85.26" x2="63.28" y2="82.77"/>
				<line class="st445" x1="68.16" y1="82.76" x2="63.28" y2="80.28"/>
			</g>
			<g>
				<polygon class="st436" points="54.59,85.84 59.47,88.32 59.47,78.11 54.59,75.63 				"/>
				<line class="st445" x1="57.03" y1="77.02" x2="57.03" y2="87.17"/>
				<line class="st445" x1="54.59" y1="75.52" x2="54.59" y2="86.17"/>
				<line class="st445" x1="59.47" y1="78.01" x2="59.47" y2="88.65"/>
				<line class="st445" x1="59.47" y1="88.32" x2="54.59" y2="85.84"/>
				<line class="st445" x1="59.47" y1="88.32" x2="54.59" y2="85.84"/>
				<line class="st445" x1="59.47" y1="85.83" x2="54.59" y2="83.35"/>
				<line class="st445" x1="59.47" y1="83.34" x2="54.59" y2="80.86"/>
				<line class="st445" x1="59.47" y1="80.84" x2="54.59" y2="78.36"/>
				<line class="st445" x1="59.47" y1="78.35" x2="54.59" y2="75.87"/>
			</g>
			<g>
				<polygon class="st436" points="45.9,81.43 50.77,83.91 50.77,73.7 45.9,71.22 				"/>
				<line class="st445" x1="48.34" y1="72.61" x2="48.34" y2="82.76"/>
				<line class="st445" x1="45.9" y1="71.11" x2="45.9" y2="81.76"/>
				<line class="st445" x1="50.77" y1="73.59" x2="50.77" y2="84.24"/>
				<line class="st445" x1="50.77" y1="83.91" x2="45.9" y2="81.43"/>
				<line class="st445" x1="50.77" y1="83.91" x2="45.9" y2="81.43"/>
				<line class="st445" x1="50.77" y1="81.42" x2="45.9" y2="78.94"/>
				<line class="st445" x1="50.77" y1="78.93" x2="45.9" y2="76.44"/>
				<line class="st445" x1="50.77" y1="76.43" x2="45.9" y2="73.95"/>
				<line class="st445" x1="50.77" y1="73.94" x2="45.9" y2="71.46"/>
			</g>
			<g>
				<polygon class="st436" points="71.98,112.34 76.85,114.82 76.85,104.61 71.98,102.13 				"/>
				<line class="st445" x1="74.42" y1="103.52" x2="74.42" y2="113.67"/>
				<line class="st445" x1="71.98" y1="102.02" x2="71.98" y2="112.67"/>
				<line class="st445" x1="76.85" y1="104.5" x2="76.85" y2="115.15"/>
				<line class="st445" x1="76.85" y1="114.82" x2="71.98" y2="112.34"/>
				<line class="st445" x1="76.85" y1="114.82" x2="71.98" y2="112.34"/>
				<line class="st445" x1="76.85" y1="112.33" x2="71.98" y2="109.85"/>
				<line class="st445" x1="76.85" y1="109.84" x2="71.98" y2="107.35"/>
				<line class="st445" x1="76.85" y1="107.34" x2="71.98" y2="104.86"/>
				<line class="st445" x1="76.85" y1="104.85" x2="71.98" y2="102.36"/>
			</g>
			<g>
				<polygon class="st436" points="63.28,107.93 68.16,110.41 68.16,100.2 63.28,97.72 				"/>
				<line class="st445" x1="65.72" y1="99.11" x2="65.72" y2="109.26"/>
				<line class="st445" x1="63.28" y1="97.61" x2="63.28" y2="108.25"/>
				<line class="st445" x1="68.16" y1="100.09" x2="68.16" y2="110.74"/>
				<line class="st445" x1="68.16" y1="110.41" x2="63.28" y2="107.93"/>
				<line class="st445" x1="68.16" y1="110.41" x2="63.28" y2="107.93"/>
				<line class="st445" x1="68.16" y1="107.92" x2="63.28" y2="105.43"/>
				<line class="st445" x1="68.16" y1="105.42" x2="63.28" y2="102.94"/>
				<line class="st445" x1="68.16" y1="102.93" x2="63.28" y2="100.45"/>
				<line class="st445" x1="68.16" y1="100.44" x2="63.28" y2="97.95"/>
			</g>
			<g>
				<polygon class="st436" points="54.59,103.51 59.47,106 59.47,95.79 54.59,93.3 				"/>
				<line class="st445" x1="57.03" y1="94.69" x2="57.03" y2="104.84"/>
				<line class="st445" x1="54.59" y1="93.19" x2="54.59" y2="103.84"/>
				<line class="st445" x1="59.47" y1="95.68" x2="59.47" y2="106.33"/>
				<line class="st445" x1="59.47" y1="106" x2="54.59" y2="103.51"/>
				<line class="st445" x1="59.47" y1="106" x2="54.59" y2="103.51"/>
				<line class="st445" x1="59.47" y1="103.51" x2="54.59" y2="101.02"/>
				<line class="st445" x1="59.47" y1="101.01" x2="54.59" y2="98.53"/>
				<line class="st445" x1="59.47" y1="98.52" x2="54.59" y2="96.03"/>
				<line class="st445" x1="59.47" y1="96.02" x2="54.59" y2="93.54"/>
			</g>
			<g>
				<polygon class="st436" points="45.9,99.1 50.77,101.59 50.77,91.38 45.9,88.89 				"/>
				<line class="st445" x1="48.34" y1="90.28" x2="48.34" y2="100.43"/>
				<line class="st445" x1="45.9" y1="88.78" x2="45.9" y2="99.43"/>
				<line class="st445" x1="50.77" y1="91.27" x2="50.77" y2="101.91"/>
				<line class="st445" x1="50.77" y1="101.59" x2="45.9" y2="99.1"/>
				<line class="st445" x1="50.77" y1="101.59" x2="45.9" y2="99.1"/>
				<line class="st445" x1="50.77" y1="99.09" x2="45.9" y2="96.61"/>
				<line class="st445" x1="50.77" y1="96.6" x2="45.9" y2="94.11"/>
				<line class="st445" x1="50.77" y1="94.11" x2="45.9" y2="91.62"/>
				<line class="st445" x1="50.77" y1="91.61" x2="45.9" y2="89.13"/>
			</g>
			<g>
				<polygon class="st436" points="140.47,70.09 135.6,72.57 135.6,62.37 140.47,59.88 				"/>
				<line class="st445" x1="138.03" y1="61.27" x2="138.03" y2="71.42"/>
				<line class="st445" x1="140.47" y1="59.77" x2="140.47" y2="70.42"/>
				<line class="st445" x1="135.6" y1="62.26" x2="135.6" y2="72.9"/>
				<line class="st445" x1="135.6" y1="72.57" x2="140.47" y2="70.09"/>
				<line class="st445" x1="135.6" y1="72.57" x2="140.47" y2="70.09"/>
				<line class="st445" x1="135.6" y1="70.08" x2="140.47" y2="67.6"/>
				<line class="st445" x1="135.6" y1="67.59" x2="140.47" y2="65.11"/>
				<line class="st445" x1="135.6" y1="65.1" x2="140.47" y2="62.61"/>
				<line class="st445" x1="135.6" y1="62.6" x2="140.47" y2="60.12"/>
			</g>
			<g>
				<polygon class="st436" points="149.22,65.66 144.35,68.15 144.35,57.94 149.22,55.45 				"/>
				<line class="st445" x1="146.78" y1="56.84" x2="146.78" y2="66.99"/>
				<line class="st445" x1="149.22" y1="55.34" x2="149.22" y2="65.99"/>
				<line class="st445" x1="144.35" y1="57.83" x2="144.35" y2="68.48"/>
				<line class="st445" x1="144.35" y1="68.15" x2="149.22" y2="65.66"/>
				<line class="st445" x1="144.35" y1="68.15" x2="149.22" y2="65.66"/>
				<line class="st445" x1="144.35" y1="65.65" x2="149.22" y2="63.17"/>
				<line class="st445" x1="144.35" y1="63.16" x2="149.22" y2="60.68"/>
				<line class="st445" x1="144.35" y1="60.67" x2="149.22" y2="58.18"/>
				<line class="st445" x1="144.35" y1="58.18" x2="149.22" y2="55.69"/>
			</g>
			<g>
				<polygon class="st436" points="157.97,61.42 153.09,63.91 153.09,53.7 157.97,51.22 				"/>
				<line class="st445" x1="155.53" y1="52.61" x2="155.53" y2="62.75"/>
				<line class="st445" x1="157.97" y1="51.11" x2="157.97" y2="61.75"/>
				<line class="st445" x1="153.09" y1="53.59" x2="153.09" y2="64.24"/>
				<line class="st445" x1="153.09" y1="63.91" x2="157.97" y2="61.42"/>
				<line class="st445" x1="153.09" y1="63.91" x2="157.97" y2="61.42"/>
				<line class="st445" x1="153.09" y1="61.42" x2="157.97" y2="58.93"/>
				<line class="st445" x1="153.09" y1="58.92" x2="157.97" y2="56.44"/>
				<line class="st445" x1="153.09" y1="56.43" x2="157.97" y2="53.95"/>
				<line class="st445" x1="153.09" y1="53.94" x2="157.97" y2="51.45"/>
			</g>
			<g>
				<polygon class="st436" points="98.23,91.31 93.35,93.79 93.35,83.59 98.23,81.1 				"/>
				<line class="st445" x1="95.79" y1="82.49" x2="95.79" y2="92.64"/>
				<line class="st445" x1="98.23" y1="80.99" x2="98.23" y2="91.64"/>
				<line class="st445" x1="93.35" y1="83.48" x2="93.35" y2="94.13"/>
				<line class="st445" x1="93.35" y1="93.79" x2="98.23" y2="91.31"/>
				<line class="st445" x1="93.35" y1="93.79" x2="98.23" y2="91.31"/>
				<line class="st445" x1="93.35" y1="91.3" x2="98.23" y2="88.82"/>
				<line class="st445" x1="93.35" y1="88.81" x2="98.23" y2="86.33"/>
				<line class="st445" x1="93.35" y1="86.32" x2="98.23" y2="83.83"/>
				<line class="st445" x1="93.35" y1="83.82" x2="98.23" y2="81.34"/>
			</g>
			<g>
				<polygon class="st436" points="106.98,87.04 102.1,89.52 102.1,79.32 106.98,76.83 				"/>
				<line class="st445" x1="104.54" y1="78.22" x2="104.54" y2="88.37"/>
				<line class="st445" x1="106.98" y1="76.72" x2="106.98" y2="87.37"/>
				<line class="st445" x1="102.1" y1="79.21" x2="102.1" y2="89.85"/>
				<line class="st445" x1="102.1" y1="89.52" x2="106.98" y2="87.04"/>
				<line class="st445" x1="102.1" y1="89.52" x2="106.98" y2="87.04"/>
				<line class="st445" x1="102.1" y1="87.03" x2="106.98" y2="84.55"/>
				<line class="st445" x1="102.1" y1="84.54" x2="106.98" y2="82.06"/>
				<line class="st445" x1="102.1" y1="82.05" x2="106.98" y2="79.56"/>
				<line class="st445" x1="102.1" y1="79.55" x2="106.98" y2="77.07"/>
			</g>
			<g>
				<polygon class="st436" points="89.48,112.47 84.61,114.96 84.61,104.75 89.48,102.26 				"/>
				<line class="st445" x1="87.04" y1="103.65" x2="87.04" y2="113.8"/>
				<line class="st445" x1="89.48" y1="102.15" x2="89.48" y2="112.8"/>
				<line class="st445" x1="84.61" y1="104.64" x2="84.61" y2="115.29"/>
				<line class="st445" x1="84.61" y1="114.96" x2="89.48" y2="112.47"/>
				<line class="st445" x1="84.61" y1="114.96" x2="89.48" y2="112.47"/>
				<line class="st445" x1="84.61" y1="112.46" x2="89.48" y2="109.98"/>
				<line class="st445" x1="84.61" y1="109.97" x2="89.48" y2="107.49"/>
				<line class="st445" x1="84.61" y1="107.48" x2="89.48" y2="105"/>
				<line class="st445" x1="84.61" y1="104.99" x2="89.48" y2="102.5"/>
			</g>
			<g>
				<polygon class="st436" points="140.47,86.98 135.6,89.47 135.6,79.26 140.47,76.77 				"/>
				<line class="st445" x1="138.03" y1="78.16" x2="138.03" y2="88.31"/>
				<line class="st445" x1="140.47" y1="76.66" x2="140.47" y2="87.31"/>
				<line class="st445" x1="135.6" y1="79.15" x2="135.6" y2="89.8"/>
				<line class="st445" x1="135.6" y1="89.47" x2="140.47" y2="86.98"/>
				<line class="st445" x1="135.6" y1="89.47" x2="140.47" y2="86.98"/>
				<line class="st445" x1="135.6" y1="86.97" x2="140.47" y2="84.49"/>
				<line class="st445" x1="135.6" y1="84.48" x2="140.47" y2="82"/>
				<line class="st445" x1="135.6" y1="81.99" x2="140.47" y2="79.5"/>
				<line class="st445" x1="135.6" y1="79.49" x2="140.47" y2="77.01"/>
			</g>
			<g>
				<polygon class="st436" points="149.22,82.55 144.35,85.04 144.35,74.83 149.22,72.34 				"/>
				<line class="st445" x1="146.78" y1="73.73" x2="146.78" y2="83.88"/>
				<line class="st445" x1="149.22" y1="72.23" x2="149.22" y2="82.88"/>
				<line class="st445" x1="144.35" y1="74.72" x2="144.35" y2="85.37"/>
				<line class="st445" x1="144.35" y1="85.04" x2="149.22" y2="82.55"/>
				<line class="st445" x1="144.35" y1="85.04" x2="149.22" y2="82.55"/>
				<line class="st445" x1="144.35" y1="82.54" x2="149.22" y2="80.06"/>
				<line class="st445" x1="144.35" y1="80.05" x2="149.22" y2="77.57"/>
				<line class="st445" x1="144.35" y1="77.56" x2="149.22" y2="75.08"/>
				<line class="st445" x1="144.35" y1="75.07" x2="149.22" y2="72.58"/>
			</g>
			<g>
				<polygon class="st436" points="157.97,78.32 153.09,80.8 153.09,70.59 157.97,68.11 				"/>
				<line class="st445" x1="155.53" y1="69.5" x2="155.53" y2="79.65"/>
				<line class="st445" x1="157.97" y1="68" x2="157.97" y2="78.65"/>
				<line class="st445" x1="153.09" y1="70.48" x2="153.09" y2="81.13"/>
				<line class="st445" x1="153.09" y1="80.8" x2="157.97" y2="78.32"/>
				<line class="st445" x1="153.09" y1="80.8" x2="157.97" y2="78.32"/>
				<line class="st445" x1="153.09" y1="78.31" x2="157.97" y2="75.82"/>
				<line class="st445" x1="153.09" y1="75.81" x2="157.97" y2="73.33"/>
				<line class="st445" x1="153.09" y1="73.32" x2="157.97" y2="70.84"/>
				<line class="st445" x1="153.09" y1="70.83" x2="157.97" y2="68.34"/>
			</g>
			<g>
				<polygon class="st436" points="98.23,108.2 93.35,110.69 93.35,100.48 98.23,97.99 				"/>
				<line class="st445" x1="95.79" y1="99.38" x2="95.79" y2="109.53"/>
				<line class="st445" x1="98.23" y1="97.88" x2="98.23" y2="108.53"/>
				<line class="st445" x1="93.35" y1="100.37" x2="93.35" y2="111.02"/>
				<line class="st445" x1="93.35" y1="110.69" x2="98.23" y2="108.2"/>
				<line class="st445" x1="93.35" y1="110.69" x2="98.23" y2="108.2"/>
				<line class="st445" x1="93.35" y1="108.2" x2="98.23" y2="105.71"/>
				<line class="st445" x1="93.35" y1="105.7" x2="98.23" y2="103.22"/>
				<line class="st445" x1="93.35" y1="103.21" x2="98.23" y2="100.72"/>
				<line class="st445" x1="93.35" y1="100.71" x2="98.23" y2="98.23"/>
			</g>
			<g>
				<polygon class="st436" points="106.98,103.93 102.1,106.42 102.1,96.21 106.98,93.72 				"/>
				<line class="st445" x1="104.54" y1="95.11" x2="104.54" y2="105.26"/>
				<line class="st445" x1="106.98" y1="93.61" x2="106.98" y2="104.26"/>
				<line class="st445" x1="102.1" y1="96.1" x2="102.1" y2="106.75"/>
				<line class="st445" x1="102.1" y1="106.42" x2="106.98" y2="103.93"/>
				<line class="st445" x1="102.1" y1="106.42" x2="106.98" y2="103.93"/>
				<line class="st445" x1="102.1" y1="103.92" x2="106.98" y2="101.44"/>
				<line class="st445" x1="102.1" y1="101.43" x2="106.98" y2="98.95"/>
				<line class="st445" x1="102.1" y1="98.94" x2="106.98" y2="96.45"/>
				<line class="st445" x1="102.1" y1="96.45" x2="106.98" y2="93.96"/>
			</g>
			<polygon class="st448" points="102.34,58.93 109.78,69.82 109.67,62.49 			"/>
			<polygon class="st433" points="110.09,62.49 110,105.6 109.16,105.6 109.25,62.49 			"/>
			<polygon class="st449" points="109.48,62.49 102.34,58.93 114.37,37.93 121.5,41.49 			"/>
			<polygon class="st433" points="109.28,62.52 110.1,62.49 121.5,41.42 120.68,41.47 			"/>
			<polygon class="st433" points="81.33,84.29 40.79,63.68 40.79,62.83 81.33,83.45 			"/>
			<polygon class="st442" points="136.4,97.2 112.99,109.1 109.63,107.26 133.04,95.35 			"/>
			<polygon class="st442" points="139.32,99.2 112.42,112.91 107.22,110.27 134.12,96.57 			"/>
			<polygon class="st440" points="136.4,99.2 112.99,111 112.99,109.18 136.4,97.38 			"/>
			<polygon class="st440" points="139.32,101.01 112.45,114.71 112.45,112.89 139.32,99.2 			"/>
			<polygon class="st441" points="112.45,112.9 107.22,110.24 107.22,112.05 112.45,114.71 			"/>
			<polygon class="st441" points="112.99,109.09 109.63,107.3 109.63,109.12 112.99,110.91 			"/>
		</g>
		<polygon class="st58" points="139.32,101.01 112.45,114.71 122.03,119.37 148.75,106.45 		"/>
		<polygon class="st58" points="148.81,109.91 121.97,122.92 121.97,119.32 148.81,106.32 		"/>
		<polygon class="st428" points="139.32,101.66 139.32,98.6 148.81,103.91 148.81,106.98 		"/>
		<g>
			<polygon class="st450" points="203.32,105.6 203.82,89.76 204.32,105.6 			"/>
		</g>
		<path class="st451" d="M203.82,76.21c7.58,10.57,6.5,15.22,5.63,16.89c-0.87,1.67-5.63,5.7-10.4,0.33
			C194.28,88.07,203.82,76.21,203.82,76.21z"/>
		<path class="st452" d="M200,84c0.27,0.72-0.18,3.45,0.5,5.22c0.92,2.42,2.82,4.55,2.59,5.36c-0.36,1.28,0.18,1.95-2.61,0.23
			c-0.86-0.53-1.64-1.37-2.24-2.63c-0.93-1.95-0.44-4.56,0.56-7.08C200.54,80.66,200,84,200,84z"/>
		<path class="st453" d="M204.23,96.13c-0.13,0-0.27,0-0.41-0.01c-1.48-0.1-5.96-9.67-4.18-13.31c1.01-2.05,2.21-3.89,3.06-5.1
			C203.37,76.77,206.86,96.1,204.23,96.13z"/>
	</g>
</g>
</svg>
