<?xml version="1.0" encoding="utf-8"?>
<!-- Generator: Adobe Illustrator 22.1.0, SVG Export Plug-In . SVG Version: 6.00 Build 0)  -->
<svg version="1.1" id="圖層_1" xmlns="http://www.w3.org/2000/svg" xmlns:xlink="http://www.w3.org/1999/xlink" x="0px" y="0px"
	 viewBox="0 0 256 256" style="enable-background:new 0 0 256 256;" xml:space="preserve">
<style type="text/css">
	.st0{fill:#FFFFFF;}
	.st1{fill:#31393C;}
	.st2{fill:#333333;}
	.st3{fill:#FCCC65;}
	.st4{fill:#A6F9B8;}
	.st5{fill:url(#SVGID_1_);}
	.st6{fill:url(#SVGID_2_);}
	.st7{fill:url(#SVGID_3_);}
	.st8{fill:url(#SVGID_4_);}
	.st9{fill:url(#SVGID_5_);}
	.st10{fill:url(#SVGID_6_);}
	.st11{fill:url(#SVGID_7_);}
	.st12{fill:url(#SVGID_8_);}
	.st13{fill:url(#SVGID_9_);}
	.st14{fill:url(#SVGID_10_);}
	.st15{fill:none;}
</style>
<g>
	<path class="st0" d="M94.4,108.2c47.4-32.2,97.1-41.6,111-21c9,13.3,0.8,36-19,59H202c19.5-24.8,26.9-49.1,16.7-64
		c-16.4-24.1-72.1-14.9-124.5,20.6c-19.6,13.3-36,28.4-47.9,43.4h5.2C62.5,133.1,77.1,119.9,94.4,108.2z"/>
	<g>
		<path class="st1" d="M200.8,134.5V130h-1.7l-3-10.8l1.2-2.3h-1.5c0,0-2.8-18.3-2.8-35.3h1.1v-2.1h-0.6c0,0-0.2-3.2-1.2-3.2v-5.9
			H192h-0.2v5.9c-0.9,0-1.2,3.2-1.2,3.2h-0.6v2.1h1.1c0,17-2.8,35.3-2.8,35.3h-1.5l1.2,2.3l-3,10.8h-1.7v4.6l-6.7,11.6h5.3
			c1.6-9.7,10.2-9.7,10.2-9.7s8.6,0.1,10.2,9.7h5.3L200.8,134.5z M192,104.8c1.3,3.8,1.1,12.3,1.1,12.3H192h-1.2
			C190.7,117.1,190.7,108.6,192,104.8z M192,130.3h-3.1l1.7-9.7h1.4h1.4l1.7,9.7H192z"/>
		<polygon class="st1" points="135.3,114.2 136.2,106.3 134.5,106.3 136.2,98.9 134.5,98.9 136.2,90.4 134.5,90.4 136.2,82.9 
			134.5,82.9 136.2,74.3 134.5,74.3 136.2,66.9 134.3,66.9 136.2,58.3 134.5,58.3 136.2,50.9 132.6,49.8 130.3,46.3 130.3,41.3 
			131.9,39 129.2,35.9 130,31.7 129.2,31.7 129.2,21.1 128.2,21.1 127.2,21.1 127.2,31.7 126.4,31.7 127.2,35.9 124.6,39 
			126.1,41.3 126.1,46.3 123.8,49.8 120.3,50.9 121.9,58.3 120.3,58.3 122.1,66.9 120.2,66.9 121.9,74.3 120.2,74.3 121.9,82.9 
			120.2,82.9 121.9,90.4 120.2,90.4 121.9,98.9 120.2,98.9 121.9,106.3 120.2,106.3 121.1,114.2 117.1,146.1 128.2,146.1 
			139.4,146.1 		"/>
		<polygon class="st1" points="100.5,75.6 102.5,75.6 102.5,71.8 105.1,69 105.1,75.6 116.9,75.6 116.9,146.1 100.5,146.1 		"/>
		<polygon class="st1" points="94.7,113.5 94.7,86.1 90.8,83.1 90.6,62.9 89.8,62.9 89.4,83.1 82,83.1 82,84.8 79,84.8 79,146.1 
			99.8,146.1 99.8,113.5 		"/>
		<polygon class="st1" points="141.6,87 160.3,82.1 160.3,128.2 162.9,128.2 162.9,131.7 165.5,131.7 165.5,146.2 141.6,146.2 		"/>
		<rect x="132.6" y="120" class="st1" width="17" height="26.3"/>
		<polygon class="st1" points="46.7,110.1 47.7,110.1 42.7,104.5 37.6,110.1 38.7,110.1 39.3,114.8 39.9,114.8 38.7,128.1 
			42.7,128.1 46.7,128.1 45.4,114.8 46.1,114.8 		"/>
		<ellipse class="st1" cx="128.2" cy="146.1" rx="120.8" ry="1.3"/>
		<path class="st1" d="M70.7,114.7c-3.2,0-6.4-0.6-8.7-1.3l0-0.1c-0.1,0-0.1,0-0.2,0.1c-0.1,0-0.1,0-0.2-0.1l0,0.1
			c-2.3,0.7-5.5,1.3-8.7,1.3c-1.7,2.8-8.2,2.1-8.2,2.1l4.9,3.6v7.7h3.2v-4.3c0-0.5,0.4-0.9,0.9-0.9c0.5,0,0.9,0.4,0.9,0.9v4.3h2.4
			v-4.3c0-0.5,0.4-0.9,0.9-0.9c0.5,0,0.9,0.4,0.9,0.9v4.3h2.4v-4.3c0-0.5,0.4-0.9,0.9-0.9s0.9,0.4,0.9,0.9v4.3h2.4v-4.3
			c0-0.5,0.4-0.9,0.9-0.9s0.9,0.4,0.9,0.9v4.3H69v-4.3c0-0.5,0.4-0.9,0.9-0.9c0.5,0,0.9,0.4,0.9,0.9v4.3H74v-7.7l4.9-3.6
			C79,116.8,72.4,117.5,70.7,114.7z"/>
		<polygon class="st1" points="35.1,128.1 76.2,128.1 80.9,146.2 32.3,146.2 		"/>
		<rect x="24" y="140.9" class="st1" width="12.3" height="5.2"/>
		<rect x="25.2" y="138.2" class="st1" width="9.9" height="3.5"/>
		<rect x="29.1" y="125.8" class="st1" width="2.2" height="12.8"/>
		<rect x="160.7" y="111.3" class="st1" width="17.8" height="34.9"/>
		<path class="st1" d="M169.5,98.5"/>
		<path class="st1" d="M170.7,97v-3.2c0,0-0.3-0.7-0.9-0.8v-1.2h-0.2v1.2c-0.6,0.1-0.9,0.8-0.9,0.8v3.1c-1.8,0.4-6.2,2.7-6.2,14.5h7
			h7C176.5,100.4,172.7,97.6,170.7,97z"/>
		<rect x="178.6" y="140" class="st1" width="15.6" height="5"/>
		<rect x="194.1" y="138.6" class="st1" width="2.6" height="6.4"/>
		<rect x="196.7" y="142.3" class="st1" width="7" height="2.8"/>
		<rect x="67.3" y="97" class="st1" width="11.7" height="40.1"/>
		<g>
			<g>
				<circle class="st1" cx="207.5" cy="122.4" r="1.7"/>
			</g>
			<g>
				<polygon class="st1" points="206.8,122.4 197.4,146.6 198.4,146.6 207.5,122.4 				"/>
			</g>
			<g>
				<polygon class="st1" points="208.1,122.4 217.5,146.6 216.5,146.6 207.5,122.4 				"/>
			</g>
			<g>
				<path class="st1" d="M207.5,127.5c-2.8,0-5.1-2.3-5.1-5.1c0-2.8,2.3-5.1,5.1-5.1c2.8,0,5.1,2.3,5.1,5.1
					C212.6,125.2,210.3,127.5,207.5,127.5z M207.5,117.4c-2.7,0-5,2.2-5,5c0,2.7,2.2,5,5,5c2.7,0,5-2.2,5-5
					C212.4,119.6,210.2,117.4,207.5,117.4z"/>
			</g>
			<g>
				<path class="st1" d="M207.5,134.7c-6.8,0-12.4-5.5-12.4-12.4s5.5-12.4,12.4-12.4c6.8,0,12.4,5.5,12.4,12.4
					S214.3,134.7,207.5,134.7z M207.5,110.2c-6.7,0-12.2,5.5-12.2,12.2c0,6.7,5.5,12.2,12.2,12.2c6.7,0,12.2-5.5,12.2-12.2
					C219.7,115.7,214.2,110.2,207.5,110.2z"/>
			</g>
			<g>
				<path class="st1" d="M207.5,132.5c-5.6,0-10.2-4.6-10.2-10.2c0-5.6,4.6-10.2,10.2-10.2c5.6,0,10.2,4.6,10.2,10.2
					C217.6,128,213.1,132.5,207.5,132.5z M207.5,112.4c-5.5,0-10,4.5-10,10c0,5.5,4.5,10,10,10c5.5,0,10-4.5,10-10
					C217.5,116.9,213,112.4,207.5,112.4z"/>
			</g>
			<g>
				<path class="st1" d="M207.5,130.5c-4.5,0-8.2-3.7-8.2-8.2s3.7-8.2,8.2-8.2c4.5,0,8.2,3.7,8.2,8.2S212,130.5,207.5,130.5z
					 M207.5,114.4c-4.4,0-8,3.6-8,8c0,4.4,3.6,8,8,8c4.4,0,8-3.6,8-8C215.5,118,211.9,114.4,207.5,114.4z"/>
			</g>
			<g>
				<path class="st1" d="M207.5,138.4c-8.8,0-16-7.2-16-16s7.2-16,16-16c8.8,0,16,7.2,16,16S216.3,138.4,207.5,138.4z M207.5,106.5
					c-8.8,0-15.9,7.1-15.9,15.9c0,8.8,7.1,15.9,15.9,15.9c8.8,0,15.9-7.1,15.9-15.9C223.3,113.6,216.2,106.5,207.5,106.5z"/>
			</g>
			<g>
				<g>
					<rect x="207.4" y="105.6" class="st1" width="0.2" height="33.6"/>
				</g>
				<g>
					<circle class="st1" cx="207.5" cy="105.6" r="0.8"/>
				</g>
				<g>
					<circle class="st1" cx="207.5" cy="139.2" r="0.8"/>
				</g>
			</g>
			<g>
				<g>
					
						<rect x="207.4" y="105.6" transform="matrix(0.9848 -0.1736 0.1736 0.9848 -18.0982 37.8826)" class="st1" width="0.2" height="33.6"/>
				</g>
				<g>
					<circle class="st1" cx="204.5" cy="105.8" r="0.8"/>
				</g>
				<g>
					<circle class="st1" cx="210.4" cy="138.9" r="0.8"/>
				</g>
			</g>
			<g>
				<g>
					
						<rect x="207.4" y="105.6" transform="matrix(0.9397 -0.342 0.342 0.9397 -29.3438 78.3345)" class="st1" width="0.2" height="33.6"/>
				</g>
				<g>
					<circle class="st1" cx="201.7" cy="106.6" r="0.8"/>
				</g>
				<g>
					<circle class="st1" cx="213.2" cy="138.1" r="0.8"/>
				</g>
			</g>
			<g>
				<g>
					<rect x="207.4" y="105.6" transform="matrix(0.866 -0.5 0.5 0.866 -33.394 120.1245)" class="st1" width="0.2" height="33.6"/>
				</g>
				<g>
					<circle class="st1" cx="199.1" cy="107.8" r="0.8"/>
				</g>
				<g>
					<circle class="st1" cx="215.9" cy="136.9" r="0.8"/>
				</g>
			</g>
			<g>
				<g>
					
						<rect x="207.4" y="105.6" transform="matrix(0.766 -0.6428 0.6428 0.766 -30.1259 161.9824)" class="st1" width="0.2" height="33.6"/>
				</g>
				<g>
					<circle class="st1" cx="196.7" cy="109.5" r="0.8"/>
				</g>
				<g>
					<circle class="st1" cx="218.2" cy="135.2" r="0.8"/>
				</g>
			</g>
			<g>
				<g>
					<polygon class="st1" points="220.3,133.2 194.6,111.6 194.6,111.5 220.4,133.1 					"/>
				</g>
				<g>
					<circle class="st1" cx="194.6" cy="111.6" r="0.8"/>
				</g>
				<g>
					<circle class="st1" cx="220.3" cy="133.2" r="0.8"/>
				</g>
			</g>
			<g>
				<g>
					<rect x="207.4" y="105.6" transform="matrix(0.5 -0.866 0.866 0.5 -2.2515 240.8526)" class="st1" width="0.2" height="33.6"/>
				</g>
				<g>
					<circle class="st1" cx="192.9" cy="114" r="0.8"/>
				</g>
				<g>
					<circle class="st1" cx="222" cy="130.8" r="0.8"/>
				</g>
			</g>
			<g>
				<g>
					<polygon class="st1" points="223.2,128.2 191.7,116.7 191.7,116.6 223.3,128 					"/>
				</g>
				<g>
					<circle class="st1" cx="191.7" cy="116.6" r="0.8"/>
				</g>
				<g>
					<circle class="st1" cx="223.2" cy="128.1" r="0.8"/>
				</g>
			</g>
			<g>
				<g>
					<polygon class="st1" points="224,125.4 190.9,119.5 190.9,119.4 224,125.2 					"/>
				</g>
				<g>
					<circle class="st1" cx="190.9" cy="119.5" r="0.8"/>
				</g>
				<g>
					<circle class="st1" cx="224" cy="125.3" r="0.8"/>
				</g>
			</g>
			<g>
				<g>
					<rect x="190.7" y="122.3" class="st1" width="33.6" height="0.2"/>
				</g>
				<g>
					<circle class="st1" cx="190.7" cy="122.4" r="0.8"/>
				</g>
				<g>
					<circle class="st1" cx="224.2" cy="122.4" r="0.8"/>
				</g>
			</g>
			<g>
				<g>
					<polygon class="st1" points="190.9,125.4 190.9,125.2 224,119.4 224,119.5 					"/>
				</g>
				<g>
					<circle class="st1" cx="190.9" cy="125.3" r="0.8"/>
				</g>
				<g>
					<circle class="st1" cx="224" cy="119.5" r="0.8"/>
				</g>
			</g>
			<g>
				<g>
					<polygon class="st1" points="191.7,128.2 191.7,128 223.2,116.6 223.3,116.7 					"/>
				</g>
				<g>
					<circle class="st1" cx="191.7" cy="128.1" r="0.8"/>
				</g>
				<g>
					<circle class="st1" cx="223.2" cy="116.6" r="0.8"/>
				</g>
			</g>
			<g>
				<g>
					
						<rect x="190.7" y="122.3" transform="matrix(0.8658 -0.5003 0.5003 0.8658 -33.3949 120.2195)" class="st1" width="33.6" height="0.2"/>
				</g>
				<g>
					<circle class="st1" cx="192.9" cy="130.8" r="0.8"/>
				</g>
				<g>
					<circle class="st1" cx="222" cy="114" r="0.8"/>
				</g>
			</g>
			<g>
				<g>
					<polygon class="st1" points="194.6,133.2 194.6,133.1 220.3,111.5 220.4,111.6 					"/>
				</g>
				<g>
					<circle class="st1" cx="194.6" cy="133.2" r="0.8"/>
				</g>
				<g>
					<circle class="st1" cx="220.3" cy="111.6" r="0.8"/>
				</g>
			</g>
			<g>
				<g>
					
						<rect x="190.7" y="122.3" transform="matrix(0.6429 -0.766 0.766 0.6429 -19.6479 202.6113)" class="st1" width="33.6" height="0.2"/>
				</g>
				<g>
					<circle class="st1" cx="196.7" cy="135.2" r="0.8"/>
				</g>
				<g>
					<circle class="st1" cx="218.2" cy="109.5" r="0.8"/>
				</g>
			</g>
			<g>
				<g>
					
						<rect x="190.7" y="122.3" transform="matrix(0.4995 -0.8663 0.8663 0.4995 -2.1833 240.9733)" class="st1" width="33.6" height="0.2"/>
				</g>
				<g>
					<circle class="st1" cx="199.1" cy="136.9" r="0.8"/>
				</g>
				<g>
					<circle class="st1" cx="215.9" cy="107.8" r="0.8"/>
				</g>
			</g>
			<g>
				<g>
					
						<rect x="190.7" y="122.3" transform="matrix(0.3413 -0.94 0.94 0.3413 21.6286 275.6151)" class="st1" width="33.6" height="0.2"/>
				</g>
				<g>
					<circle class="st1" cx="201.7" cy="138.1" r="0.8"/>
				</g>
				<g>
					<circle class="st1" cx="213.2" cy="106.6" r="0.8"/>
				</g>
			</g>
			<g>
				<g>
					
						<rect x="190.7" y="122.3" transform="matrix(0.1739 -0.9848 0.9848 0.1739 50.8699 305.3922)" class="st1" width="33.6" height="0.2"/>
				</g>
				<g>
					<circle class="st1" cx="204.5" cy="138.9" r="0.8"/>
				</g>
				<g>
					<circle class="st1" cx="210.4" cy="105.8" r="0.8"/>
				</g>
			</g>
		</g>
		<rect x="203" y="128.9" class="st1" width="5.3" height="17.3"/>
		<rect x="203" y="138.1" class="st1" width="15.3" height="7.6"/>
		<polygon class="st1" points="212.6,132.5 220.3,134.6 220.3,146.2 212.6,146.2 		"/>
		<polygon class="st1" points="213.7,133.4 213.7,129.7 214.4,129.6 214.4,133.6 		"/>
		<rect x="216.4" y="142.5" class="st1" width="11.8" height="3.6"/>
	</g>
	<path class="st0" d="M186.4,146.1c-10.7,12.5-24.9,25.1-41.5,36.4c-47.4,32.2-97.1,41.6-111,21c-8.8-13-1.2-34.9,17.7-57.4h-5.2
		c-19.9,25-27.5,49.6-17.2,64.6c16.4,24.1,72.1,14.9,124.5-20.6c19.9-13.5,36.4-28.8,48.4-44H186.4z"/>
	<polygon class="st2" points="109.1,138.5 107.6,140.7 82.5,140.7 85.6,117.8 108.2,117.8 109.7,106.3 107.9,104.2 107.7,106.3 
		75.9,106.3 71,142.3 68.9,142.3 70.7,144.4 108.2,144.4 110.9,140.7 	"/>
	<polygon class="st2" points="132.7,110.1 135.4,106.3 117.4,106.3 116.9,110.1 119.4,110.1 115.2,140.7 112.7,140.7 112.2,144.4 
		114.6,144.4 125.9,144.4 128,144.4 130.7,140.7 126.5,140.7 130.7,110.1 	"/>
	<polygon class="st2" points="137.6,106.6 136.1,118.1 147.4,118.1 143.7,144.7 155,144.7 158.7,118.1 169.9,118.1 171.5,106.6 	"/>
	<polygon class="st2" points="208.7,106.6 203.7,106.6 190.4,119.6 185,106.6 173.7,106.6 180.6,123.2 177.6,144.7 188.9,144.7 
		191.8,123.2 191.8,123.1 	"/>
	<g>
		<polygon class="st3" points="74.1,104.2 107.9,104.2 106.4,115.6 83.8,115.6 80.7,138.5 109.1,138.5 106.4,142.3 68.9,142.3 		"/>
		<polygon class="st3" points="130.9,108 133.7,104.2 115.7,104.2 115.1,108 117.6,108 113.4,138.5 111,138.5 110.4,142.3 
			112.9,142.3 124.2,142.3 126.2,142.3 129,138.5 124.7,138.5 128.9,108 		"/>
		<polygon class="st3" points="135.9,104.2 134.3,115.6 145.6,115.6 142,142.3 153.3,142.3 156.9,115.6 168.2,115.6 169.7,104.2 		
			"/>
		<polygon class="st3" points="207,104.2 201.9,104.2 188.6,117.2 183.2,104.2 171.9,104.2 178.8,120.7 175.9,142.3 187.1,142.3 
			190.1,120.7 190,120.7 		"/>
	</g>
	<polygon class="st2" points="34.7,148.3 68.6,148.3 67,159.7 44.4,159.7 41.3,182.6 69.7,182.6 67,186.4 29.5,186.4 	"/>
	<polygon class="st2" points="98.4,148.7 95.8,167.7 85.5,167.7 88.1,148.6 76.8,148.6 71.6,186.7 82.9,186.7 85,171.5 95.3,171.5 
		93.2,186.8 98.8,186.8 104,148.7 	"/>
	<path class="st2" d="M108.1,148.7l-5.2,38.1h11.3l2.1-15.3h8.8l-2.1,15.3h5.6l5.2-38.1H108.1z M116.8,167.7l2.1-15.4h8.8l-2.1,15.4
		H116.8z"/>
	<polygon class="st2" points="195.6,159.7 197.1,148.2 169.3,148.3 164.6,182.7 164.6,182.7 164.5,183.2 164,186.5 164,186.5 
		164,186.6 191.9,186.5 192.4,182.8 175.8,182.8 177.4,171.2 194.1,171.2 194.6,167.4 178,167.4 179,159.8 	"/>
	<path class="st2" d="M228.8,148.6l-27.8,0.1l-5.3,38.2h11.3l2.1-15.4l5.7,0l3.6,15.4h5.2l-3.6-15.4l5.7,0l0.5-3.8l0,0 M209.6,167.7
		l1.1-7.6l10.9-0.1l-1,7.6L209.6,167.7z"/>
	<polygon class="st2" points="163.9,159.7 165.4,148.3 137.6,148.4 134.5,171.2 145.8,171.2 145.8,171.2 156.7,171.2 155.1,182.8 
		132.9,182.7 132.3,186.6 160.2,186.5 160.3,186.5 160.3,186.4 162.4,171.2 162.4,171.2 162.9,167.4 146.3,167.4 147.3,159.8 	"/>
	<g>
		<polygon class="st4" points="33.2,146.2 67,146.2 65.5,157.6 42.9,157.6 39.8,180.5 68.2,180.5 65.5,184.2 28,184.2 		"/>
		<polygon class="st4" points="96.8,146.2 94.2,165.3 84,165.3 86.6,146.2 75.3,146.2 70.1,184.2 81.4,184.2 83.4,169 93.7,169 
			91.6,184.3 97.3,184.3 102.5,146.2 		"/>
		<path class="st4" d="M106.3,146.2l-5.2,38.1h11.3l2.1-15.3h8.8l-2.1,15.3h5.6l5.2-38.1H106.3z M114.9,165.3l2.1-15.4h8.8
			l-2.1,15.4H114.9z"/>
		<polygon class="st4" points="193.8,157.6 195.3,146.1 167.5,146.2 162.7,180.6 162.7,180.6 162.7,181 162.2,184.4 162.2,184.4 
			162.2,184.5 190.1,184.4 190.6,180.7 174,180.6 175.6,169.1 192.2,169 192.8,165.3 176.1,165.3 177.2,157.6 		"/>
		<path class="st4" d="M226.9,146.2l-27.8,0.1l-5.3,38.2h11.3l2.1-15.4l5.7,0l3.6,15.4h5.2l-3.6-15.4l5.7,0l0.5-3.8l0,0
			 M207.8,165.3l1.1-7.6l10.9-0.1l-1,7.6L207.8,165.3z"/>
		<polygon class="st4" points="162.1,157.6 163.6,146.2 135.8,146.2 132.7,169.1 144,169.1 144,169.1 154.9,169 153.3,180.6 
			131,180.6 130.5,184.5 158.4,184.4 158.4,184.4 158.5,184.2 160.5,169 160.5,169 161.1,165.3 144.5,165.3 145.5,157.7 		"/>
	</g>
	<linearGradient id="SVGID_1_" gradientUnits="userSpaceOnUse" x1="88.7636" y1="108.4671" x2="88.7636" y2="143.0152">
		<stop  offset="0" style="stop-color:#F78527"/>
		<stop  offset="1" style="stop-color:#FCCC65"/>
	</linearGradient>
	<polygon class="st5" points="69.6,141.7 74.6,104.8 107.2,104.8 105.9,115 83.3,115 80,139.1 107.9,139.1 106.1,141.7 	"/>
	<linearGradient id="SVGID_2_" gradientUnits="userSpaceOnUse" x1="47.8467" y1="149.9907" x2="47.8467" y2="186.7856">
		<stop  offset="0" style="stop-color:#A6F9B8"/>
		<stop  offset="1" style="stop-color:#03B5AA"/>
	</linearGradient>
	<polygon class="st6" points="28.7,183.6 33.7,146.8 66.3,146.8 64.9,157 42.4,157 39.1,181.1 67,181.1 65.2,183.6 	"/>
	<linearGradient id="SVGID_3_" gradientUnits="userSpaceOnUse" x1="121.804" y1="108.4671" x2="121.804" y2="143.0152">
		<stop  offset="0" style="stop-color:#F78527"/>
		<stop  offset="1" style="stop-color:#FCCC65"/>
	</linearGradient>
	<polygon class="st7" points="111.1,141.7 111.5,139.1 113.9,139.1 118.3,107.4 115.8,107.4 116.2,104.8 132.5,104.8 130.6,107.4 
		128.4,107.4 124,139.1 127.8,139.1 125.9,141.7 	"/>
	<linearGradient id="SVGID_4_" gradientUnits="userSpaceOnUse" x1="152.012" y1="108.4671" x2="152.012" y2="143.0152">
		<stop  offset="0" style="stop-color:#F78527"/>
		<stop  offset="1" style="stop-color:#FCCC65"/>
	</linearGradient>
	<polygon class="st8" points="142.7,141.7 146.3,115 135,115 136.4,104.8 169,104.8 167.6,115 156.3,115 152.7,141.7 	"/>
	<linearGradient id="SVGID_5_" gradientUnits="userSpaceOnUse" x1="86.2786" y1="149.9907" x2="86.2786" y2="186.7856">
		<stop  offset="0" style="stop-color:#A6F9B8"/>
		<stop  offset="1" style="stop-color:#03B5AA"/>
	</linearGradient>
	<polygon class="st9" points="92.3,183.7 94.4,168.4 82.9,168.4 80.8,183.6 70.8,183.6 75.8,146.8 85.9,146.8 83.3,165.9 
		94.8,165.9 97.4,146.8 101.8,146.8 96.8,183.7 	"/>
	<linearGradient id="SVGID_6_" gradientUnits="userSpaceOnUse" x1="116.5011" y1="149.9907" x2="116.5011" y2="186.7856">
		<stop  offset="0" style="stop-color:#A6F9B8"/>
		<stop  offset="1" style="stop-color:#03B5AA"/>
	</linearGradient>
	<path class="st10" d="M121.8,183.7l2.1-15.3h-10l-2.1,15.3h-10.1l5-36.9h24.5l-5,36.9H121.8z M114.2,165.9h10l2.3-16.6h-10
		L114.2,165.9z"/>
	<linearGradient id="SVGID_7_" gradientUnits="userSpaceOnUse" x1="189.152" y1="108.4671" x2="189.152" y2="143.0152">
		<stop  offset="0" style="stop-color:#F78527"/>
		<stop  offset="1" style="stop-color:#FCCC65"/>
	</linearGradient>
	<polygon class="st11" points="176.6,141.7 179.4,120.7 172.9,104.8 182.8,104.8 188.4,118.2 202.2,104.8 205.4,104.8 189.3,120.5 
		189.4,120.8 186.6,141.7 	"/>
	<linearGradient id="SVGID_8_" gradientUnits="userSpaceOnUse" x1="178.7595" y1="149.9907" x2="178.7595" y2="186.7856">
		<stop  offset="0" style="stop-color:#A6F9B8"/>
		<stop  offset="1" style="stop-color:#03B5AA"/>
	</linearGradient>
	<polygon class="st12" points="162.9,183.8 162.9,183.8 168,146.8 194.6,146.7 193.2,156.9 176.7,157 175.4,165.9 192.1,165.9 
		191.7,168.4 175.1,168.5 173.3,181.2 189.9,181.3 189.5,183.8 162.9,183.8 	"/>
	<linearGradient id="SVGID_9_" gradientUnits="userSpaceOnUse" x1="210.3809" y1="149.9907" x2="210.3809" y2="186.7856">
		<stop  offset="0" style="stop-color:#A6F9B8"/>
		<stop  offset="1" style="stop-color:#03B5AA"/>
	</linearGradient>
	<path class="st13" d="M217,183.8l-3.6-15.4l-6.8,0l-2.1,15.4h-10l5.1-37l26.6-0.1l-0.5,3.9h0l-2.1,15.2h0l-0.3,2.5l-5.9,0l3.6,15.4
		H217z M208.3,157.1l-1.2,8.8l12.2,0l1.2-8.9L208.3,157.1z"/>
	<linearGradient id="SVGID_10_" gradientUnits="userSpaceOnUse" x1="147.0659" y1="149.9907" x2="147.0659" y2="186.7856">
		<stop  offset="0" style="stop-color:#A6F9B8"/>
		<stop  offset="1" style="stop-color:#03B5AA"/>
	</linearGradient>
	<polygon class="st14" points="131.6,181.2 153.8,181.3 155.6,168.4 143.4,168.5 143.4,168.5 133.4,168.5 136.3,146.8 162.9,146.8 
		161.5,157 145,157.1 143.8,165.9 160.4,165.9 160,168.5 159.9,169 157.9,183.8 131.2,183.8 	"/>
	<polygon class="st2" points="112.2,144.4 112.5,142.3 110.4,142.3 	"/>
	<polygon class="st2" points="129,138.5 130.7,140.7 127.4,140.7 	"/>
	<polygon class="st2" points="133.7,104.2 135.4,106.3 132.1,106.3 	"/>
	<polygon class="st2" points="116.9,110.1 115.1,108 117.2,108 	"/>
	<polygon class="st2" points="134.3,115.6 136.1,118.1 136.4,115.6 	"/>
	<polygon class="st2" points="142,142.3 143.7,144.7 144.1,142.3 	"/>
	<polygon class="st2" points="169.7,104.2 171.5,106.6 169.4,106.6 	"/>
	<polygon class="st2" points="183.2,104.2 185,106.6 184.2,106.6 	"/>
	<polygon class="st2" points="207,104.2 208.7,106.6 204.4,106.6 	"/>
	<polygon class="st2" points="175.9,142.3 177.6,144.7 178,142.3 	"/>
	<polygon class="st2" points="67,146.2 68.6,148.3 66.7,148.3 	"/>
	<polygon class="st2" points="68.2,180.5 69.7,182.6 66.6,182.6 	"/>
	<polygon class="st2" points="70.1,184.2 71.6,186.7 71.9,184.2 	"/>
	<polygon class="st2" points="93.5,184.3 91.6,184.3 93.2,186.8 	"/>
	<polygon class="st2" points="102.5,146.2 104,148.7 102.1,148.7 	"/>
	<polygon class="st2" points="86.6,146.2 86.2,148.6 88.1,148.6 	"/>
	<polygon class="st2" points="131.9,146.2 133.8,148.7 131.6,148.7 	"/>
	<polygon class="st2" points="101.1,184.3 102.9,186.8 103.2,184.3 	"/>
	<polygon class="st2" points="121.1,184.3 123.3,184.3 122.9,186.8 	"/>
	<polygon class="st2" points="130.5,184.5 132.6,184.5 132.3,186.6 	"/>
	<polygon class="st2" points="132.7,169.1 134.5,171.2 134.8,169.1 	"/>
	<polygon class="st2" points="161.1,165.3 162.9,167.4 160.8,167.4 	"/>
	<polygon class="st2" points="163.6,146.2 165.4,148.3 163.3,148.3 	"/>
	<polygon class="st2" points="195.3,146.1 197.1,148.2 195,148.3 	"/>
	<polygon class="st2" points="192.8,165.3 194.6,167.4 192.5,167.4 	"/>
	<polygon class="st2" points="162.2,184.5 164,186.6 164.3,184.5 	"/>
	<polygon class="st2" points="190.6,180.7 190.3,182.8 192.4,182.8 	"/>
	<polygon class="st2" points="193.8,184.5 195.7,186.9 196,184.5 	"/>
	<polygon class="st2" points="216.5,184.5 218.4,186.9 217.8,184.5 	"/>
	<polygon class="st2" points="226.9,146.2 228.8,148.6 226.6,148.6 	"/>
	<polygon class="st15" points="28,184.2 29.5,186.4 29.8,184.2 	"/>
</g>
</svg>
