<?xml version="1.0" encoding="utf-8"?>
<!-- Generator: Adobe Illustrator 22.1.0, SVG Export Plug-In . SVG Version: 6.00 Build 0)  -->
<svg version="1.1" id="圖層_1" xmlns="http://www.w3.org/2000/svg" xmlns:xlink="http://www.w3.org/1999/xlink" x="0px" y="0px"
	 viewBox="0 0 256 256" style="enable-background:new 0 0 256 256;" xml:space="preserve">
<style type="text/css">
	.st0{fill:#FCCC65;}
	.st1{fill:#31393C;}
	.st2{fill:#333333;}
	.st3{fill:#A6F9B8;}
	.st4{fill:url(#SVGID_1_);}
	.st5{fill:url(#SVGID_2_);}
	.st6{fill:url(#SVGID_3_);}
	.st7{fill:url(#SVGID_4_);}
	.st8{fill:url(#SVGID_5_);}
	.st9{fill:url(#SVGID_6_);}
	.st10{fill:url(#SVGID_7_);}
	.st11{fill:url(#SVGID_8_);}
	.st12{fill:url(#SVGID_9_);}
	.st13{fill:url(#SVGID_10_);}
	.st14{fill:none;}
</style>
<g>
	<path class="st0" d="M94.4,111.2c47.4-32.2,97.1-41.6,111-21c9,13.3,0.8,36-19,59H202c19.5-24.8,26.9-49.1,16.7-64
		c-16.4-24.1-72.1-14.9-124.5,20.6c-19.6,13.3-36,28.4-47.9,43.4h5.2C62.5,136.1,77.1,122.9,94.4,111.2z"/>
	<g>
		<path class="st1" d="M200.8,137.5V133h-1.7l-3-10.8l1.2-2.3h-1.5c0,0-2.8-18.3-2.8-35.3h1.1v-2.1h-0.6c0,0-0.2-3.2-1.2-3.2v-5.9
			H192h-0.2v5.9c-0.9,0-1.2,3.2-1.2,3.2h-0.6v2.1h1.1c0,17-2.8,35.3-2.8,35.3h-1.5l1.2,2.3l-3,10.8h-1.7v4.6l-6.7,11.6h5.3
			c1.6-9.7,10.2-9.7,10.2-9.7s8.6,0.1,10.2,9.7h5.3L200.8,137.5z M192,107.8c1.3,3.8,1.1,12.3,1.1,12.3H192h-1.2
			C190.7,120.1,190.7,111.6,192,107.8z M192,133.3h-3.1l1.7-9.7h1.4h1.4l1.7,9.7H192z"/>
		<polygon class="st1" points="135.3,117.2 136.2,109.3 134.5,109.3 136.2,101.9 134.5,101.9 136.2,93.4 134.5,93.4 136.2,85.9 
			134.5,85.9 136.2,77.3 134.5,77.3 136.2,69.9 134.3,69.9 136.2,61.3 134.5,61.3 136.2,53.9 132.6,52.8 130.3,49.3 130.3,44.3 
			131.9,42 129.2,38.9 130,34.7 129.2,34.7 129.2,24.1 128.2,24.1 127.2,24.1 127.2,34.7 126.4,34.7 127.2,38.9 124.6,42 
			126.1,44.3 126.1,49.3 123.8,52.8 120.3,53.9 121.9,61.3 120.3,61.3 122.1,69.9 120.2,69.9 121.9,77.3 120.2,77.3 121.9,85.9 
			120.2,85.9 121.9,93.4 120.2,93.4 121.9,101.9 120.2,101.9 121.9,109.3 120.2,109.3 121.1,117.2 117.1,149.1 128.2,149.1 
			139.4,149.1 		"/>
		<polygon class="st1" points="100.5,78.6 102.5,78.6 102.5,74.8 105.1,72 105.1,78.6 116.9,78.6 116.9,149.1 100.5,149.1 		"/>
		<polygon class="st1" points="94.7,116.5 94.7,89.1 90.8,86.1 90.6,65.9 89.8,65.9 89.4,86.1 82,86.1 82,87.8 79,87.8 79,149.1 
			99.8,149.1 99.8,116.5 		"/>
		<polygon class="st1" points="141.6,90 160.3,85.1 160.3,131.2 162.9,131.2 162.9,134.7 165.5,134.7 165.5,149.2 141.6,149.2 		"/>
		<rect x="132.6" y="123" class="st1" width="17" height="26.3"/>
		<polygon class="st1" points="46.7,113.1 47.7,113.1 42.7,107.5 37.6,113.1 38.7,113.1 39.3,117.8 39.9,117.8 38.7,131.1 
			42.7,131.1 46.7,131.1 45.4,117.8 46.1,117.8 		"/>
		<ellipse class="st1" cx="128.2" cy="149.1" rx="120.8" ry="1.3"/>
		<path class="st1" d="M70.7,117.7c-3.2,0-6.4-0.6-8.7-1.3l0-0.1c-0.1,0-0.1,0-0.2,0.1c-0.1,0-0.1,0-0.2-0.1l0,0.1
			c-2.3,0.7-5.5,1.3-8.7,1.3c-1.7,2.8-8.2,2.1-8.2,2.1l4.9,3.6v7.7h3.2v-4.3c0-0.5,0.4-0.9,0.9-0.9c0.5,0,0.9,0.4,0.9,0.9v4.3h2.4
			v-4.3c0-0.5,0.4-0.9,0.9-0.9c0.5,0,0.9,0.4,0.9,0.9v4.3h2.4v-4.3c0-0.5,0.4-0.9,0.9-0.9s0.9,0.4,0.9,0.9v4.3h2.4v-4.3
			c0-0.5,0.4-0.9,0.9-0.9s0.9,0.4,0.9,0.9v4.3H69v-4.3c0-0.5,0.4-0.9,0.9-0.9c0.5,0,0.9,0.4,0.9,0.9v4.3H74v-7.7l4.9-3.6
			C79,119.8,72.4,120.5,70.7,117.7z"/>
		<polygon class="st1" points="35.1,131.1 76.2,131.1 80.9,149.2 32.3,149.2 		"/>
		<rect x="24" y="143.9" class="st1" width="12.3" height="5.2"/>
		<rect x="25.2" y="141.2" class="st1" width="9.9" height="3.5"/>
		<rect x="29.1" y="128.8" class="st1" width="2.2" height="12.8"/>
		<rect x="160.7" y="114.3" class="st1" width="17.8" height="34.9"/>
		<path class="st1" d="M169.5,101.5"/>
		<path class="st1" d="M170.7,100v-3.2c0,0-0.3-0.7-0.9-0.8v-1.2h-0.2v1.2c-0.6,0.1-0.9,0.8-0.9,0.8v3.1c-1.8,0.4-6.2,2.7-6.2,14.5
			h7h7C176.5,103.4,172.7,100.6,170.7,100z"/>
		<rect x="178.6" y="143" class="st1" width="15.6" height="5"/>
		<rect x="194.1" y="141.6" class="st1" width="2.6" height="6.4"/>
		<rect x="196.7" y="145.3" class="st1" width="7" height="2.8"/>
		<rect x="67.3" y="100" class="st1" width="11.7" height="40.1"/>
		<g>
			<g>
				<circle class="st1" cx="207.5" cy="125.4" r="1.7"/>
			</g>
			<g>
				<polygon class="st1" points="206.8,125.4 197.4,149.6 198.4,149.6 207.5,125.4 				"/>
			</g>
			<g>
				<polygon class="st1" points="208.1,125.4 217.5,149.6 216.5,149.6 207.5,125.4 				"/>
			</g>
			<g>
				<path class="st1" d="M207.5,130.5c-2.8,0-5.1-2.3-5.1-5.1c0-2.8,2.3-5.1,5.1-5.1c2.8,0,5.1,2.3,5.1,5.1
					C212.6,128.2,210.3,130.5,207.5,130.5z M207.5,120.4c-2.7,0-5,2.2-5,5c0,2.7,2.2,5,5,5c2.7,0,5-2.2,5-5
					C212.4,122.6,210.2,120.4,207.5,120.4z"/>
			</g>
			<g>
				<path class="st1" d="M207.5,137.7c-6.8,0-12.4-5.5-12.4-12.4s5.5-12.4,12.4-12.4c6.8,0,12.4,5.5,12.4,12.4
					S214.3,137.7,207.5,137.7z M207.5,113.2c-6.7,0-12.2,5.5-12.2,12.2c0,6.7,5.5,12.2,12.2,12.2c6.7,0,12.2-5.5,12.2-12.2
					C219.7,118.7,214.2,113.2,207.5,113.2z"/>
			</g>
			<g>
				<path class="st1" d="M207.5,135.5c-5.6,0-10.2-4.6-10.2-10.2c0-5.6,4.6-10.2,10.2-10.2c5.6,0,10.2,4.6,10.2,10.2
					C217.6,131,213.1,135.5,207.5,135.5z M207.5,115.4c-5.5,0-10,4.5-10,10c0,5.5,4.5,10,10,10c5.5,0,10-4.5,10-10
					C217.5,119.9,213,115.4,207.5,115.4z"/>
			</g>
			<g>
				<path class="st1" d="M207.5,133.5c-4.5,0-8.2-3.7-8.2-8.2c0-4.5,3.7-8.2,8.2-8.2c4.5,0,8.2,3.7,8.2,8.2
					C215.6,129.9,212,133.5,207.5,133.5z M207.5,117.4c-4.4,0-8,3.6-8,8c0,4.4,3.6,8,8,8c4.4,0,8-3.6,8-8
					C215.5,121,211.9,117.4,207.5,117.4z"/>
			</g>
			<g>
				<path class="st1" d="M207.5,141.4c-8.8,0-16-7.2-16-16s7.2-16,16-16c8.8,0,16,7.2,16,16S216.3,141.4,207.5,141.4z M207.5,109.5
					c-8.8,0-15.9,7.1-15.9,15.9c0,8.8,7.1,15.9,15.9,15.9c8.8,0,15.9-7.1,15.9-15.9C223.3,116.6,216.2,109.5,207.5,109.5z"/>
			</g>
			<g>
				<g>
					<rect x="207.4" y="108.6" class="st1" width="0.2" height="33.6"/>
				</g>
				<g>
					<circle class="st1" cx="207.5" cy="108.6" r="0.8"/>
				</g>
				<g>
					<circle class="st1" cx="207.5" cy="142.2" r="0.8"/>
				</g>
			</g>
			<g>
				<g>
					
						<rect x="207.4" y="108.6" transform="matrix(0.9848 -0.1736 0.1736 0.9848 -18.6191 37.9282)" class="st1" width="0.2" height="33.6"/>
				</g>
				<g>
					<circle class="st1" cx="204.5" cy="108.8" r="0.8"/>
				</g>
				<g>
					<circle class="st1" cx="210.4" cy="141.9" r="0.8"/>
				</g>
			</g>
			<g>
				<g>
					
						<rect x="207.4" y="108.6" transform="matrix(0.9397 -0.342 0.342 0.9397 -30.3699 78.5155)" class="st1" width="0.2" height="33.6"/>
				</g>
				<g>
					<circle class="st1" cx="201.7" cy="109.6" r="0.8"/>
				</g>
				<g>
					<circle class="st1" cx="213.2" cy="141.1" r="0.8"/>
				</g>
			</g>
			<g>
				<g>
					<rect x="207.4" y="108.6" transform="matrix(0.866 -0.5 0.5 0.866 -34.894 120.5264)" class="st1" width="0.2" height="33.6"/>
				</g>
				<g>
					<circle class="st1" cx="199.1" cy="110.8" r="0.8"/>
				</g>
				<g>
					<circle class="st1" cx="215.9" cy="139.9" r="0.8"/>
				</g>
			</g>
			<g>
				<g>
					
						<rect x="207.4" y="108.6" transform="matrix(0.766 -0.6428 0.6428 0.766 -32.0543 162.6843)" class="st1" width="0.2" height="33.6"/>
				</g>
				<g>
					<circle class="st1" cx="196.7" cy="112.5" r="0.8"/>
				</g>
				<g>
					<circle class="st1" cx="218.2" cy="138.2" r="0.8"/>
				</g>
			</g>
			<g>
				<g>
					<polygon class="st1" points="220.3,136.2 194.6,114.6 194.6,114.5 220.4,136.1 					"/>
				</g>
				<g>
					<circle class="st1" cx="194.6" cy="114.6" r="0.8"/>
				</g>
				<g>
					<circle class="st1" cx="220.3" cy="136.2" r="0.8"/>
				</g>
			</g>
			<g>
				<g>
					<rect x="207.4" y="108.6" transform="matrix(0.5 -0.866 0.866 0.5 -4.8496 242.3526)" class="st1" width="0.2" height="33.6"/>
				</g>
				<g>
					<circle class="st1" cx="192.9" cy="117" r="0.8"/>
				</g>
				<g>
					<circle class="st1" cx="222" cy="133.8" r="0.8"/>
				</g>
			</g>
			<g>
				<g>
					<polygon class="st1" points="223.2,131.2 191.7,119.7 191.7,119.6 223.3,131 					"/>
				</g>
				<g>
					<circle class="st1" cx="191.7" cy="119.6" r="0.8"/>
				</g>
				<g>
					<circle class="st1" cx="223.2" cy="131.1" r="0.8"/>
				</g>
			</g>
			<g>
				<g>
					<polygon class="st1" points="224,128.4 190.9,122.5 190.9,122.4 224,128.2 					"/>
				</g>
				<g>
					<circle class="st1" cx="190.9" cy="122.5" r="0.8"/>
				</g>
				<g>
					<circle class="st1" cx="224" cy="128.3" r="0.8"/>
				</g>
			</g>
			<g>
				<g>
					<rect x="190.7" y="125.3" class="st1" width="33.6" height="0.2"/>
				</g>
				<g>
					<circle class="st1" cx="190.7" cy="125.4" r="0.8"/>
				</g>
				<g>
					<circle class="st1" cx="224.2" cy="125.4" r="0.8"/>
				</g>
			</g>
			<g>
				<g>
					<polygon class="st1" points="190.9,128.4 190.9,128.2 224,122.4 224,122.5 					"/>
				</g>
				<g>
					<circle class="st1" cx="190.9" cy="128.3" r="0.8"/>
				</g>
				<g>
					<circle class="st1" cx="224" cy="122.5" r="0.8"/>
				</g>
			</g>
			<g>
				<g>
					<polygon class="st1" points="191.7,131.2 191.7,131 223.2,119.6 223.3,119.7 					"/>
				</g>
				<g>
					<circle class="st1" cx="191.7" cy="131.1" r="0.8"/>
				</g>
				<g>
					<circle class="st1" cx="223.2" cy="119.6" r="0.8"/>
				</g>
			</g>
			<g>
				<g>
					
						<rect x="190.7" y="125.3" transform="matrix(0.8658 -0.5003 0.5003 0.8658 -34.8959 120.622)" class="st1" width="33.6" height="0.2"/>
				</g>
				<g>
					<circle class="st1" cx="192.9" cy="133.8" r="0.8"/>
				</g>
				<g>
					<circle class="st1" cx="222" cy="117" r="0.8"/>
				</g>
			</g>
			<g>
				<g>
					<polygon class="st1" points="194.6,136.2 194.6,136.1 220.3,114.5 220.4,114.6 					"/>
				</g>
				<g>
					<circle class="st1" cx="194.6" cy="136.2" r="0.8"/>
				</g>
				<g>
					<circle class="st1" cx="220.3" cy="114.6" r="0.8"/>
				</g>
			</g>
			<g>
				<g>
					
						<rect x="190.7" y="125.3" transform="matrix(0.6429 -0.766 0.766 0.6429 -21.9458 203.6827)" class="st1" width="33.6" height="0.2"/>
				</g>
				<g>
					<circle class="st1" cx="196.7" cy="138.2" r="0.8"/>
				</g>
				<g>
					<circle class="st1" cx="218.2" cy="112.5" r="0.8"/>
				</g>
			</g>
			<g>
				<g>
					
						<rect x="190.7" y="125.3" transform="matrix(0.4995 -0.8663 0.8663 0.4995 -4.7822 242.4748)" class="st1" width="33.6" height="0.2"/>
				</g>
				<g>
					<circle class="st1" cx="199.1" cy="139.9" r="0.8"/>
				</g>
				<g>
					<circle class="st1" cx="215.9" cy="110.8" r="0.8"/>
				</g>
			</g>
			<g>
				<g>
					
						<rect x="190.7" y="125.3" transform="matrix(0.3413 -0.94 0.94 0.3413 18.8087 277.5913)" class="st1" width="33.6" height="0.2"/>
				</g>
				<g>
					<circle class="st1" cx="201.7" cy="141.1" r="0.8"/>
				</g>
				<g>
					<circle class="st1" cx="213.2" cy="109.6" r="0.8"/>
				</g>
			</g>
			<g>
				<g>
					
						<rect x="190.7" y="125.3" transform="matrix(0.1739 -0.9848 0.9848 0.1739 47.9156 307.8705)" class="st1" width="33.6" height="0.2"/>
				</g>
				<g>
					<circle class="st1" cx="204.5" cy="141.9" r="0.8"/>
				</g>
				<g>
					<circle class="st1" cx="210.4" cy="108.8" r="0.8"/>
				</g>
			</g>
		</g>
		<rect x="203" y="131.9" class="st1" width="5.3" height="17.3"/>
		<rect x="203" y="141.1" class="st1" width="15.3" height="7.6"/>
		<polygon class="st1" points="212.6,135.5 220.3,137.6 220.3,149.2 212.6,149.2 		"/>
		<polygon class="st1" points="213.7,136.4 213.7,132.7 214.4,132.6 214.4,136.6 		"/>
		<rect x="216.4" y="145.5" class="st1" width="11.8" height="3.6"/>
	</g>
	<path class="st0" d="M186.4,149.1c-10.7,12.5-24.9,25.1-41.5,36.4c-47.4,32.2-97.1,41.6-111,21c-8.8-13-1.2-34.9,17.7-57.4h-5.2
		c-19.9,25-27.5,49.6-17.2,64.6c16.4,24.1,72.1,14.9,124.5-20.6c19.9-13.5,36.4-28.8,48.4-44H186.4z"/>
	<polygon class="st2" points="109.1,141.5 107.6,143.7 82.5,143.7 85.6,120.8 108.2,120.8 109.7,109.3 107.9,107.2 107.7,109.3 
		75.9,109.3 71,145.3 68.9,145.3 70.7,147.4 108.2,147.4 110.9,143.7 	"/>
	<polygon class="st2" points="132.7,113.1 135.4,109.3 117.4,109.3 116.9,113.1 119.4,113.1 115.2,143.7 112.7,143.7 112.2,147.4 
		114.6,147.4 125.9,147.4 128,147.4 130.7,143.7 126.5,143.7 130.7,113.1 	"/>
	<polygon class="st2" points="137.6,109.6 136.1,121.1 147.4,121.1 143.7,147.7 155,147.7 158.7,121.1 169.9,121.1 171.5,109.6 	"/>
	<polygon class="st2" points="208.7,109.6 203.7,109.6 190.4,122.6 185,109.6 173.7,109.6 180.6,126.2 177.6,147.7 188.9,147.7 
		191.8,126.2 191.8,126.1 	"/>
	<g>
		<polygon class="st0" points="74.1,107.2 107.9,107.2 106.4,118.6 83.8,118.6 80.7,141.5 109.1,141.5 106.4,145.3 68.9,145.3 		"/>
		<polygon class="st0" points="130.9,111 133.7,107.2 115.7,107.2 115.1,111 117.6,111 113.4,141.5 111,141.5 110.4,145.3 
			112.9,145.3 124.2,145.3 126.2,145.3 129,141.5 124.7,141.5 128.9,111 		"/>
		<polygon class="st0" points="135.9,107.2 134.3,118.6 145.6,118.6 142,145.3 153.3,145.3 156.9,118.6 168.2,118.6 169.7,107.2 		
			"/>
		<polygon class="st0" points="207,107.2 201.9,107.2 188.6,120.2 183.2,107.2 171.9,107.2 178.8,123.7 175.9,145.3 187.1,145.3 
			190.1,123.7 190,123.7 		"/>
	</g>
	<polygon class="st2" points="34.7,151.3 68.6,151.3 67,162.7 44.4,162.7 41.3,185.6 69.7,185.6 67,189.4 29.5,189.4 	"/>
	<polygon class="st2" points="98.4,151.7 95.8,170.7 85.5,170.7 88.1,151.6 76.8,151.6 71.6,189.7 82.9,189.7 85,174.5 95.3,174.5 
		93.2,189.8 98.8,189.8 104,151.7 	"/>
	<path class="st2" d="M108.1,151.7l-5.2,38.1h11.3l2.1-15.3h8.8l-2.1,15.3h5.6l5.2-38.1H108.1z M116.8,170.7l2.1-15.4h8.8l-2.1,15.4
		H116.8z"/>
	<polygon class="st2" points="195.6,162.7 197.1,151.2 169.3,151.3 164.6,185.7 164.6,185.7 164.5,186.2 164,189.5 164,189.5 
		164,189.6 191.9,189.5 192.4,185.8 175.8,185.8 177.4,174.2 194.1,174.2 194.6,170.4 178,170.4 179,162.8 	"/>
	<path class="st2" d="M228.8,151.6l-27.8,0.1l-5.3,38.2h11.3l2.1-15.4l5.7,0l3.6,15.4h5.2l-3.6-15.4l5.7,0l0.5-3.8l0,0 M209.6,170.7
		l1.1-7.6l10.9-0.1l-1,7.6L209.6,170.7z"/>
	<polygon class="st2" points="163.9,162.7 165.4,151.3 137.6,151.4 134.5,174.2 145.8,174.2 145.8,174.2 156.7,174.2 155.1,185.8 
		132.9,185.7 132.3,189.6 160.2,189.5 160.3,189.5 160.3,189.4 162.4,174.2 162.4,174.2 162.9,170.4 146.3,170.4 147.3,162.8 	"/>
	<g>
		<polygon class="st3" points="33.2,149.2 67,149.2 65.5,160.6 42.9,160.6 39.8,183.5 68.2,183.5 65.5,187.2 28,187.2 		"/>
		<polygon class="st3" points="96.8,149.2 94.2,168.3 84,168.3 86.6,149.2 75.3,149.2 70.1,187.2 81.4,187.2 83.4,172 93.7,172 
			91.6,187.3 97.3,187.3 102.5,149.2 		"/>
		<path class="st3" d="M106.3,149.2l-5.2,38.1h11.3l2.1-15.3h8.8l-2.1,15.3h5.6l5.2-38.1H106.3z M114.9,168.3l2.1-15.4h8.8
			l-2.1,15.4H114.9z"/>
		<polygon class="st3" points="193.8,160.6 195.3,149.1 167.5,149.2 162.7,183.6 162.7,183.6 162.7,184 162.2,187.4 162.2,187.4 
			162.2,187.5 190.1,187.4 190.6,183.7 174,183.6 175.6,172.1 192.2,172 192.8,168.3 176.1,168.3 177.2,160.6 		"/>
		<path class="st3" d="M226.9,149.2l-27.8,0.1l-5.3,38.2h11.3l2.1-15.4l5.7,0l3.6,15.4h5.2l-3.6-15.4l5.7,0l0.5-3.8l0,0
			 M207.8,168.3l1.1-7.6l10.9-0.1l-1,7.6L207.8,168.3z"/>
		<polygon class="st3" points="162.1,160.6 163.6,149.2 135.8,149.2 132.7,172.1 144,172.1 144,172.1 154.9,172 153.3,183.6 
			131,183.6 130.5,187.5 158.4,187.4 158.4,187.4 158.5,187.2 160.5,172 160.5,172 161.1,168.3 144.5,168.3 145.5,160.7 		"/>
	</g>
	<linearGradient id="SVGID_1_" gradientUnits="userSpaceOnUse" x1="88.7636" y1="111.4671" x2="88.7636" y2="146.0152">
		<stop  offset="0" style="stop-color:#F78527"/>
		<stop  offset="1" style="stop-color:#FCCC65"/>
	</linearGradient>
	<polygon class="st4" points="69.6,144.7 74.6,107.8 107.2,107.8 105.9,118 83.3,118 80,142.1 107.9,142.1 106.1,144.7 	"/>
	<linearGradient id="SVGID_2_" gradientUnits="userSpaceOnUse" x1="47.8467" y1="152.9907" x2="47.8467" y2="189.7856">
		<stop  offset="0" style="stop-color:#A6F9B8"/>
		<stop  offset="1" style="stop-color:#03B5AA"/>
	</linearGradient>
	<polygon class="st5" points="28.7,186.6 33.7,149.8 66.3,149.8 64.9,160 42.4,160 39.1,184.1 67,184.1 65.2,186.6 	"/>
	<linearGradient id="SVGID_3_" gradientUnits="userSpaceOnUse" x1="121.804" y1="111.4671" x2="121.804" y2="146.0152">
		<stop  offset="0" style="stop-color:#F78527"/>
		<stop  offset="1" style="stop-color:#FCCC65"/>
	</linearGradient>
	<polygon class="st6" points="111.1,144.7 111.5,142.1 113.9,142.1 118.3,110.4 115.8,110.4 116.2,107.8 132.5,107.8 130.6,110.4 
		128.4,110.4 124,142.1 127.8,142.1 125.9,144.7 	"/>
	<linearGradient id="SVGID_4_" gradientUnits="userSpaceOnUse" x1="152.012" y1="111.4671" x2="152.012" y2="146.0152">
		<stop  offset="0" style="stop-color:#F78527"/>
		<stop  offset="1" style="stop-color:#FCCC65"/>
	</linearGradient>
	<polygon class="st7" points="142.7,144.7 146.3,118 135,118 136.4,107.8 169,107.8 167.6,118 156.3,118 152.7,144.7 	"/>
	<linearGradient id="SVGID_5_" gradientUnits="userSpaceOnUse" x1="86.2786" y1="152.9907" x2="86.2786" y2="189.7856">
		<stop  offset="0" style="stop-color:#A6F9B8"/>
		<stop  offset="1" style="stop-color:#03B5AA"/>
	</linearGradient>
	<polygon class="st8" points="92.3,186.7 94.4,171.4 82.9,171.4 80.8,186.6 70.8,186.6 75.8,149.8 85.9,149.8 83.3,168.9 
		94.8,168.9 97.4,149.8 101.8,149.8 96.8,186.7 	"/>
	<linearGradient id="SVGID_6_" gradientUnits="userSpaceOnUse" x1="116.5011" y1="152.9907" x2="116.5011" y2="189.7856">
		<stop  offset="0" style="stop-color:#A6F9B8"/>
		<stop  offset="1" style="stop-color:#03B5AA"/>
	</linearGradient>
	<path class="st9" d="M121.8,186.7l2.1-15.3h-10l-2.1,15.3h-10.1l5-36.9h24.5l-5,36.9H121.8z M114.2,168.9h10l2.3-16.6h-10
		L114.2,168.9z"/>
	<linearGradient id="SVGID_7_" gradientUnits="userSpaceOnUse" x1="189.152" y1="111.4671" x2="189.152" y2="146.0152">
		<stop  offset="0" style="stop-color:#F78527"/>
		<stop  offset="1" style="stop-color:#FCCC65"/>
	</linearGradient>
	<polygon class="st10" points="176.6,144.7 179.4,123.7 172.9,107.8 182.8,107.8 188.4,121.2 202.2,107.8 205.4,107.8 189.3,123.5 
		189.4,123.8 186.6,144.7 	"/>
	<linearGradient id="SVGID_8_" gradientUnits="userSpaceOnUse" x1="178.7595" y1="152.9907" x2="178.7595" y2="189.7856">
		<stop  offset="0" style="stop-color:#A6F9B8"/>
		<stop  offset="1" style="stop-color:#03B5AA"/>
	</linearGradient>
	<polygon class="st11" points="162.9,186.8 162.9,186.8 168,149.8 194.6,149.7 193.2,159.9 176.7,160 175.4,168.9 192.1,168.9 
		191.7,171.4 175.1,171.5 173.3,184.2 189.9,184.3 189.5,186.8 162.9,186.8 	"/>
	<linearGradient id="SVGID_9_" gradientUnits="userSpaceOnUse" x1="210.3809" y1="152.9907" x2="210.3809" y2="189.7856">
		<stop  offset="0" style="stop-color:#A6F9B8"/>
		<stop  offset="1" style="stop-color:#03B5AA"/>
	</linearGradient>
	<path class="st12" d="M217,186.8l-3.6-15.4l-6.8,0l-2.1,15.4h-10l5.1-37l26.6-0.1l-0.5,3.9h0l-2.1,15.2h0l-0.3,2.5l-5.9,0l3.6,15.4
		H217z M208.3,160.1l-1.2,8.8l12.2,0l1.2-8.9L208.3,160.1z"/>
	<linearGradient id="SVGID_10_" gradientUnits="userSpaceOnUse" x1="147.0659" y1="152.9907" x2="147.0659" y2="189.7856">
		<stop  offset="0" style="stop-color:#A6F9B8"/>
		<stop  offset="1" style="stop-color:#03B5AA"/>
	</linearGradient>
	<polygon class="st13" points="131.6,184.2 153.8,184.3 155.6,171.4 143.4,171.5 143.4,171.5 133.4,171.5 136.3,149.8 162.9,149.8 
		161.5,160 145,160.1 143.8,168.9 160.4,168.9 160,171.5 159.9,172 157.9,186.8 131.2,186.8 	"/>
	<polygon class="st2" points="112.2,147.4 112.5,145.3 110.4,145.3 	"/>
	<polygon class="st2" points="129,141.5 130.7,143.7 127.4,143.7 	"/>
	<polygon class="st2" points="133.7,107.2 135.4,109.3 132.1,109.3 	"/>
	<polygon class="st2" points="116.9,113.1 115.1,111 117.2,111 	"/>
	<polygon class="st2" points="134.3,118.6 136.1,121.1 136.4,118.6 	"/>
	<polygon class="st2" points="142,145.3 143.7,147.7 144.1,145.3 	"/>
	<polygon class="st2" points="169.7,107.2 171.5,109.6 169.4,109.6 	"/>
	<polygon class="st2" points="183.2,107.2 185,109.6 184.2,109.6 	"/>
	<polygon class="st2" points="207,107.2 208.7,109.6 204.4,109.6 	"/>
	<polygon class="st2" points="175.9,145.3 177.6,147.7 178,145.3 	"/>
	<polygon class="st2" points="67,149.2 68.6,151.3 66.7,151.3 	"/>
	<polygon class="st2" points="68.2,183.5 69.7,185.6 66.6,185.6 	"/>
	<polygon class="st2" points="70.1,187.2 71.6,189.7 71.9,187.2 	"/>
	<polygon class="st2" points="93.5,187.3 91.6,187.3 93.2,189.8 	"/>
	<polygon class="st2" points="102.5,149.2 104,151.7 102.1,151.7 	"/>
	<polygon class="st2" points="86.6,149.2 86.2,151.6 88.1,151.6 	"/>
	<polygon class="st2" points="131.9,149.2 133.8,151.7 131.6,151.7 	"/>
	<polygon class="st2" points="101.1,187.3 102.9,189.8 103.2,187.3 	"/>
	<polygon class="st2" points="121.1,187.3 123.3,187.3 122.9,189.8 	"/>
	<polygon class="st2" points="130.5,187.5 132.6,187.5 132.3,189.6 	"/>
	<polygon class="st2" points="132.7,172.1 134.5,174.2 134.8,172.1 	"/>
	<polygon class="st2" points="161.1,168.3 162.9,170.4 160.8,170.4 	"/>
	<polygon class="st2" points="163.6,149.2 165.4,151.3 163.3,151.3 	"/>
	<polygon class="st2" points="195.3,149.1 197.1,151.2 195,151.3 	"/>
	<polygon class="st2" points="192.8,168.3 194.6,170.4 192.5,170.4 	"/>
	<polygon class="st2" points="162.2,187.5 164,189.6 164.3,187.5 	"/>
	<polygon class="st2" points="190.6,183.7 190.3,185.8 192.4,185.8 	"/>
	<polygon class="st2" points="193.8,187.5 195.7,189.9 196,187.5 	"/>
	<polygon class="st2" points="216.5,187.5 218.4,189.9 217.8,187.5 	"/>
	<polygon class="st2" points="226.9,149.2 228.8,151.6 226.6,151.6 	"/>
	<polygon class="st14" points="28,187.2 29.5,189.4 29.8,187.2 	"/>
</g>
</svg>
