<?xml version="1.0" encoding="utf-8"?>
<!-- Generator: Adobe Illustrator 23.0.1, SVG Export Plug-In . SVG Version: 6.00 Build 0)  -->
<svg version="1.1" xmlns="http://www.w3.org/2000/svg" xmlns:xlink="http://www.w3.org/1999/xlink" x="0px" y="0px"
	 viewBox="0 0 240.94 170.08" style="enable-background:new 0 0 240.94 170.08;" xml:space="preserve">
<style type="text/css">
	.st0{fill:#F4C766;}
	.st1{fill:#955260;}
	.st2{fill:#77393D;}
	.st3{fill:#544A4F;}
	.st4{fill:#FBEBE8;}
	.st5{fill:#BD9DA0;}
	.st6{fill:#B18A8D;}
	.st7{fill:#3A4450;}
	.st8{fill:#8C6C6F;}
	.st9{fill:#A8ADB6;}
	.st10{fill:#BC6069;}
	.st11{fill:#A25963;}
	.st12{fill:#C7ADB0;}
	.st13{fill:#DED0C0;}
	.st14{fill:#A77E84;}
	.st15{fill:#624E52;}
	.st16{fill:#766569;}
	.st17{fill:#8C6A70;}
	.st18{fill:#AA888D;}
	.st19{fill:#745E62;}
	.st20{fill:#B79CA1;}
	.st21{fill:#5B4548;}
	.st22{fill:#74565A;}
	.st23{fill:#7A5B5F;}
	.st24{fill:#734953;}
	.st25{fill:#9F6A78;}
	.st26{fill:#704F5A;}
	.st27{fill:#875A64;}
	.st28{fill:#AA6974;}
	.st29{fill:#DABEC3;}
	.st30{fill:#E9E6E6;}
	.st31{fill:#AC5E6B;}
	.st32{fill:#6A3D44;}
	.st33{fill:#18ABA1;}
	.st34{clip-path:url(#SVGID_2_);}
	.st35{fill:#EACFAA;}
	.st36{fill:#E3C595;}
	.st37{fill:#FADEC4;}
	.st38{fill:#F0DCC0;}
	.st39{clip-path:url(#SVGID_2_);fill:#F0DCC0;}
	.st40{clip-path:url(#SVGID_2_);fill:#A18865;}
	.st41{fill:#CEA871;}
	.st42{fill:#ECD4B0;}
	.st43{clip-path:url(#SVGID_2_);fill:#85B5AC;}
	.st44{fill:#748F3E;}
	.st45{fill:#567132;}
	.st46{fill:#9A5B25;}
	.st47{fill:#40592B;}
	.st48{fill:#734521;}
	.st49{fill:#493919;}
	.st50{fill:#715927;}
	.st51{fill:#385D31;}
	.st52{fill:#9BB051;}
	.st53{fill:#2A4E28;}
	.st54{fill:#7FA340;}
	.st55{fill:#243D1E;}
	.st56{fill:#AFBA65;}
	.st57{fill:#668E3F;}
	.st58{fill:#ADB9C1;}
	.st59{fill:#8A959A;}
	.st60{fill:#616A6D;}
	.st61{fill:#75B05E;}
	.st62{fill:#BCCA45;}
	.st63{fill:#AAAF31;}
	.st64{fill:#909029;}
	.st65{fill:#DF5F45;}
	.st66{fill:none;stroke:#FFFFFF;stroke-miterlimit:10;}
	.st67{fill:#AF624C;}
	.st68{fill:#DA8A64;}
	.st69{fill:#D9A13F;}
	.st70{fill:#EDB94C;}
	.st71{fill:#8B4953;}
	.st72{fill:#CB7B58;}
	.st73{fill:none;}
	.st74{fill:#E9AC4E;}
	.st75{fill:#B29794;}
	.st76{opacity:0.5;fill:#8A6139;}
	.st77{fill:#D7D2BE;}
	.st78{fill:#CBBCB5;}
	.st79{fill:#B39A95;}
	.st80{fill:#F7F3E6;}
	.st81{fill:#F2EADC;}
	.st82{fill:#3B232B;}
	.st83{fill:#5D3C44;}
	.st84{fill:#D5D4C4;}
	.st85{fill:#F1F2DD;}
	.st86{fill:#62474D;}
	.st87{fill:#A49088;}
	.st88{fill:#E8F3E1;}
	.st89{fill:#AF9590;}
	.st90{fill:#D8C8BE;}
	.st91{fill:#F5EFDF;}
	.st92{fill:#F1EBDD;}
	.st93{fill:#F0E3DC;}
	.st94{fill:none;stroke:#F5EFDF;stroke-width:0.5;stroke-miterlimit:10;}
	.st95{fill:#E9AC4E;stroke:#FFFFFF;stroke-width:0.5;stroke-miterlimit:10;}
	.st96{fill:none;stroke:#F2EADC;stroke-miterlimit:10;}
	.st97{opacity:0.8;fill:#99D3C8;}
	.st98{fill:#FAEDD7;}
	.st99{fill:#E9D3A4;}
	.st100{fill:#887853;}
	.st101{opacity:0.6;fill:#99D3C8;}
	.st102{clip-path:url(#SVGID_2_);fill:#ADB9C1;}
	.st103{clip-path:url(#SVGID_2_);fill:#B1B85D;}
	.st104{fill:#C7AC7E;}
	.st105{fill:#F7DFB6;}
	.st106{fill:#DA8B6C;}
	.st107{fill:#EED7B6;}
	.st108{fill:#352D31;}
	.st109{fill:#E5CAA8;}
	.st110{fill:#211B27;}
	.st111{fill:#0E0205;}
	.st112{fill:#C8A57C;}
	.st113{fill:#181432;}
	.st114{fill:#192016;}
	.st115{fill:#2A222E;}
	.st116{fill:#131212;}
	.st117{fill:#383236;}
	.st118{fill:#443A38;}
	.st119{fill:#F6D9B7;}
	.st120{fill:#151313;}
	.st121{fill:#D98A73;}
	.st122{fill:#8E4329;}
	.st123{fill:#F5C620;}
	.st124{fill:#ED8916;}
	.st125{fill:#C97315;}
	.st126{fill:#891C21;}
	.st127{fill:#C8C4BE;}
	.st128{fill:#D9D3CE;}
	.st129{fill:#FFFFFF;}
	.st130{fill:#F0EFEF;}
	.st131{fill:#F1AB40;}
	.st132{fill:#DA8F2D;}
	.st133{fill:#856727;}
	.st134{clip-path:url(#SVGID_2_);fill:#8A959A;}
	.st135{clip-path:url(#SVGID_2_);fill:#9A5B25;}
	.st136{fill:#D2A671;}
	.st137{fill:#CA8F6B;}
	.st138{fill:#AB6F4C;}
	.st139{fill:#D9A086;}
	.st140{fill:#A18376;}
	.st141{clip-path:url(#SVGID_2_);fill:#929441;}
	.st142{clip-path:url(#SVGID_2_);fill:#CA8F6B;}
	.st143{clip-path:url(#SVGID_2_);fill:#FAD3A4;}
	.st144{clip-path:url(#SVGID_2_);fill:#D9A086;}
	.st145{clip-path:url(#SVGID_2_);fill:#D2A671;}
	.st146{clip-path:url(#SVGID_2_);fill:#AB6F4C;}
	.st147{clip-path:url(#SVGID_2_);fill:#616A6D;}
	.st148{clip-path:url(#SVGID_2_);fill:#734521;}
	.st149{fill:#014A63;}
	.st150{fill:#2683AD;}
	.st151{fill:#09698D;}
	.st152{fill:#0C6396;}
	.st153{fill:#0C6BB0;}
	.st154{fill:#DCE78D;}
	.st155{fill:#B1B85D;}
	.st156{fill:#70712D;}
	.st157{fill:#FAD3A4;}
	.st158{fill:#929441;}
	.st159{fill:#547D55;}
	.st160{fill:#689755;}
	.st161{fill:#999791;}
	.st162{fill:#5A5D5A;}
	.st163{fill:#727271;}
	.st164{fill:#EDBA61;}
	.st165{fill:#E3A43C;}
	.st166{fill:#E2921A;}
	.st167{fill:#A8B2DA;}
	.st168{fill:#DCDFF0;}
	.st169{fill:#3E73B9;}
	.st170{fill:#5281C2;}
	.st171{fill:#838FB2;}
	.st172{fill:#9DA8C4;}
	.st173{fill:#F8CA81;}
	.st174{fill:#540A10;}
	.st175{fill:#64231C;}
	.st176{fill:#B92E21;}
	.st177{fill:#861B20;}
	.st178{fill:#103672;}
	.st179{fill:#D8A417;}
	.st180{fill:#F5B719;}
	.st181{fill:#D8A415;}
	.st182{fill:#BB8818;}
	.st183{fill:#F1B86D;}
	.st184{fill:#D29A56;}
	.st185{fill:#219CD9;}
	.st186{fill:#F9DBC0;}
	.st187{fill:#E0B8A4;}
	.st188{fill:#BC8B76;}
	.st189{fill:#E9C8AD;}
	.st190{fill:#6D3D30;}
	.st191{fill:#B48F76;}
	.st192{fill:#76594A;}
	.st193{fill:#C8A68C;}
	.st194{fill:#A78269;}
	.st195{fill:#7E634E;}
	.st196{fill:#CFA88B;}
	.st197{fill:#493223;}
	.st198{fill:#997967;}
	.st199{fill:#E6C6AA;}
	.st200{fill:#C3A38B;}
	.st201{fill:#C3A18A;}
	.st202{fill:#6C5244;}
	.st203{fill:#74C0B3;}
	.st204{fill:#895140;}
	.st205{fill:#AB715C;}
	.st206{fill:#AE7E6C;}
	.st207{fill:#CAA392;}
	.st208{fill:#654237;}
	.st209{fill:#BE9C80;}
	.st210{fill:#7A534A;}
	.st211{fill:#884D3F;}
	.st212{fill:#85AA39;}
	.st213{fill:#6A8B32;}
	.st214{fill:#9BBA58;}
	.st215{fill:#5D7F34;}
	.st216{fill:#4C6830;}
	.st217{fill:#3C5C2D;}
	.st218{fill:#304E27;}
	.st219{fill:#557232;}
	.st220{fill:#49652F;}
	.st221{fill:#5F8434;}
	.st222{fill:#6C9F30;}
	.st223{fill:#BF9457;}
	.st224{fill:#8F6225;}
	.st225{fill:#AB7C30;}
	.st226{fill:#79583F;}
	.st227{fill:#28100B;}
	.st228{fill:#23100D;}
	.st229{opacity:0.6;fill:#219CD9;}
	.st230{fill:#CBE8F0;}
	.st231{fill:#87CFE9;}
	.st232{fill:#A7DAE9;}
	.st233{clip-path:url(#SVGID_4_);}
	.st234{clip-path:url(#SVGID_2_);fill:#70712D;}
	.st235{clip-path:url(#SVGID_2_);fill:none;}
	.st236{fill:#D4DB6E;}
	.st237{fill:#9F9F49;}
	.st238{fill:#BCBE5D;}
	.st239{fill:#D3C2A4;}
	.st240{fill:#C3BEAD;}
	.st241{fill:#E8D7C2;}
	.st242{fill:#878577;}
	.st243{fill:#DCD8CB;}
	.st244{fill:#F1EEE8;}
	.st245{fill:#1A3F61;}
	.st246{fill:#163955;}
	.st247{fill:#123048;}
	.st248{fill:#25567E;}
	.st249{fill:#D0C8B9;}
	.st250{fill:#FCEDDE;}
	.st251{fill:#FEF3EA;}
	.st252{fill:#082332;}
	.st253{fill:#F8EEE4;}
	.st254{fill:#C2AB93;}
	.st255{fill:#D2BFB3;}
	.st256{fill:#B17441;}
	.st257{fill:none;stroke:#73502D;stroke-width:0.2;stroke-miterlimit:10;}
	.st258{fill:none;stroke:#73502D;stroke-width:0.15;stroke-miterlimit:10;}
	.st259{fill:#FCECE1;}
	.st260{fill:#C2AF9A;}
	.st261{fill:#918781;}
	.st262{fill:#6D6E72;}
	.st263{fill:#FFFAEF;}
	.st264{fill:#E2DFD8;}
	.st265{fill:#53555B;}
	.st266{fill:#336D94;}
	.st267{fill:#F2F09E;}
	.st268{fill:#BEB954;}
	.st269{fill:#D4CE7A;}
	.st270{fill:#DCA570;}
	.st271{fill:#955C34;}
	.st272{fill:#BC8152;}
	.st273{fill:#72351C;}
	.st274{fill:#904B23;}
	.st275{fill:#8E694D;}
	.st276{fill:#85C35E;}
	.st277{fill:#709430;}
	.st278{fill:#5F432F;}
	.st279{fill:#B4CF4D;}
	.st280{fill:#CBDC50;}
	.st281{fill:#EFB99F;}
	.st282{fill:#BA4458;}
	.st283{fill:#4C515A;}
	.st284{fill:#075A7C;}
	.st285{fill:#3A97AE;}
	.st286{fill:#E8A78C;}
	.st287{fill:#F1BA9F;}
	.st288{fill:#9C1E2C;}
	.st289{fill:#452C25;}
	.st290{fill:#E45438;}
	.st291{fill:#C4361E;}
	.st292{fill:#E3F2F1;}
	.st293{fill:#D5ECEA;}
	.st294{fill:#BCE1DB;}
	.st295{fill:#F2F9FA;}
	.st296{fill:#62B0A0;}
	.st297{fill:#72C4B3;}
	.st298{fill:#B7DDDA;}
	.st299{fill:#E14947;}
	.st300{fill:#BDC64F;}
	.st301{fill:#EEDA98;}
	.st302{fill:#D09E23;}
	.st303{fill:#EDBB30;}
	.st304{fill:#46B9A8;}
	.st305{fill:#2AA390;}
	.st306{fill:#E8D0CC;}
	.st307{fill:#ED7016;}
	.st308{fill:#933030;}
	.st309{fill:#539835;}
	.st310{fill:#6C4D37;}
	.st311{fill:#E8AEB9;}
	.st312{fill:#D61D2B;}
	.st313{fill:#18708D;}
	.st314{fill:#67A2A1;}
	.st315{fill:#7FBFBC;}
	.st316{fill:#825D41;}
	.st317{fill:#9A6542;}
	.st318{fill:#60B1D5;}
	.st319{fill:#7CCBE7;}
	.st320{fill:#749936;}
	.st321{fill:#96BE53;}
	.st322{fill:#7FA742;}
	.st323{fill:#AAC96A;}
	.st324{fill:#B57F59;}
	.st325{fill:#AB744E;}
	.st326{fill:#DDA137;}
	.st327{fill:#E7B64E;}
	.st328{fill:#C38A63;}
	.st329{fill:#93C67D;}
	.st330{fill:#425A5F;}
	.st331{fill:#617D80;}
	.st332{fill:#73A961;}
	.st333{fill:#C12A1F;}
	.st334{fill:#D8452B;}
	.st335{fill:#4C675E;}
	.st336{fill:#89664B;}
	.st337{fill:#E15513;}
	.st338{fill:#88D0ED;}
	.st339{fill:#D2B6D7;}
	.st340{fill:#804999;}
	.st341{fill:#5A6A99;}
	.st342{fill:#4C5A89;}
	.st343{fill:#D8A641;}
	.st344{fill:#E8C127;}
	.st345{fill:#EFCA32;}
	.st346{fill-rule:evenodd;clip-rule:evenodd;fill:#2F93C7;}
	.st347{fill-rule:evenodd;clip-rule:evenodd;fill:#15323F;}
	.st348{fill-rule:evenodd;clip-rule:evenodd;fill:#092745;}
	.st349{fill-rule:evenodd;clip-rule:evenodd;fill:#0A335A;}
	.st350{fill-rule:evenodd;clip-rule:evenodd;fill:#E9BC7B;}
	.st351{fill-rule:evenodd;clip-rule:evenodd;fill:#227AA7;}
	.st352{fill-rule:evenodd;clip-rule:evenodd;fill:#1684B9;}
	.st353{fill-rule:evenodd;clip-rule:evenodd;fill:#FAD8A5;}
	.st354{fill-rule:evenodd;clip-rule:evenodd;fill:#321306;}
	.st355{fill-rule:evenodd;clip-rule:evenodd;fill:#1C95CF;}
	.st356{fill-rule:evenodd;clip-rule:evenodd;fill:#11868E;}
	.st357{fill-rule:evenodd;clip-rule:evenodd;fill:#28B4B3;}
	.st358{fill-rule:evenodd;clip-rule:evenodd;fill:#030912;}
	.st359{fill-rule:evenodd;clip-rule:evenodd;fill:#021A2F;}
	.st360{fill-rule:evenodd;clip-rule:evenodd;fill:#1D1D1F;}
	.st361{fill-rule:evenodd;clip-rule:evenodd;fill:#46BDCC;}
	.st362{fill-rule:evenodd;clip-rule:evenodd;fill:#C1A76A;}
	.st363{fill-rule:evenodd;clip-rule:evenodd;fill:#A08857;}
	.st364{fill-rule:evenodd;clip-rule:evenodd;fill:#D9BE7D;}
	.st365{fill-rule:evenodd;clip-rule:evenodd;fill:#A7905F;}
	.st366{fill-rule:evenodd;clip-rule:evenodd;fill:#CBB174;}
	.st367{fill-rule:evenodd;clip-rule:evenodd;fill:#823F34;}
	.st368{fill-rule:evenodd;clip-rule:evenodd;fill:#F5A22C;}
	.st369{fill-rule:evenodd;clip-rule:evenodd;fill:#F6B758;}
	.st370{fill-rule:evenodd;clip-rule:evenodd;fill:#7C4A36;}
	.st371{fill-rule:evenodd;clip-rule:evenodd;fill:#583424;}
	.st372{fill-rule:evenodd;clip-rule:evenodd;fill:#8F563A;}
	.st373{fill-rule:evenodd;clip-rule:evenodd;fill:#456530;}
	.st374{fill-rule:evenodd;clip-rule:evenodd;fill:#749D3D;}
	.st375{fill-rule:evenodd;clip-rule:evenodd;fill:#5F8834;}
	.st376{fill-rule:evenodd;clip-rule:evenodd;fill:#EB5A19;}
	.st377{fill-rule:evenodd;clip-rule:evenodd;fill:#ED6C1C;}
	.st378{fill-rule:evenodd;clip-rule:evenodd;fill:#34963C;}
	.st379{fill-rule:evenodd;clip-rule:evenodd;fill:#49B053;}
	.st380{fill-rule:evenodd;clip-rule:evenodd;fill:#3B3232;}
	.st381{fill-rule:evenodd;clip-rule:evenodd;fill:#A7C7E2;}
	.st382{fill-rule:evenodd;clip-rule:evenodd;fill:#C4DBEE;}
	.st383{fill-rule:evenodd;clip-rule:evenodd;fill:#1B3346;}
	.st384{fill-rule:evenodd;clip-rule:evenodd;fill:#365975;}
	.st385{fill-rule:evenodd;clip-rule:evenodd;fill:#224058;}
	.st386{fill-rule:evenodd;clip-rule:evenodd;fill:#416787;}
	.st387{fill-rule:evenodd;clip-rule:evenodd;fill:#040000;}
	.st388{fill-rule:evenodd;clip-rule:evenodd;fill:#D7EAF8;}
	.st389{fill-rule:evenodd;clip-rule:evenodd;fill:#111111;}
	.st390{fill-rule:evenodd;clip-rule:evenodd;fill:#2E2C2C;}
	.st391{fill-rule:evenodd;clip-rule:evenodd;fill:#3B3939;}
	.st392{fill:#72A1A4;}
	.st393{fill:#95BDC4;}
	.st394{fill:#C3E0E6;}
	.st395{opacity:0.53;fill:#403532;}
	.st396{fill:#E7EAF2;}
	.st397{fill:#A0AAB5;}
	.st398{fill:#B7BFC8;}
	.st399{fill:#434549;}
	.st400{fill:#AA7960;}
	.st401{fill:#CDD2DA;}
	.st402{fill:#205789;}
	.st403{fill:#BDC4CB;}
	.st404{fill:#C8CFD7;}
	.st405{fill:#AEBCCB;}
	.st406{fill:#99A2AD;}
	.st407{fill:#94A2C0;}
	.st408{fill:#B2BCD3;}
	.st409{fill:#CACFD6;}
	.st410{fill:#D3D7DF;}
	.st411{fill:#A5AFC5;}
	.st412{fill:#6A768B;}
	.st413{fill:#C78618;}
	.st414{fill:#82A92D;}
	.st415{fill:#627A31;}
	.st416{fill:#77962E;}
	.st417{fill:#BFC5C2;}
	.st418{fill:#DFDACF;}
	.st419{fill:#F8F6E8;}
	.st420{fill:#858393;}
	.st421{fill:#B9B4AB;}
	.st422{fill:#EBE8DD;}
	.st423{fill:#9C9CA9;}
	.st424{fill:#9E5C2C;}
	.st425{fill:#5F3819;}
	.st426{fill:#959E26;}
	.st427{fill:#955A25;}
	.st428{fill:#727A2E;}
	.st429{fill:#724622;}
	.st430{fill:#DF673F;}
	.st431{fill:#C65021;}
	.st432{fill:#C0411F;}
	.st433{fill:#F1C980;}
	.st434{fill:#F1C980;stroke:#F1C980;stroke-miterlimit:10;}
	.st435{fill:#C5572E;}
	.st436{fill:#73BEC4;}
	.st437{fill:#F8F5F5;}
	.st438{fill:#070001;}
	.st439{fill:#852B21;}
	.st440{fill:#ECD590;}
	.st441{fill:#E8BF6F;}
	.st442{fill:#F7E2B6;}
	.st443{fill:none;stroke:#E38C2B;stroke-miterlimit:10;}
	.st444{fill:none;stroke:#40220E;stroke-miterlimit:10;}
	.st445{fill:#F1C980;stroke:#F1C980;stroke-width:0.4;stroke-miterlimit:10;}
	.st446{fill:none;stroke:#40220E;stroke-width:0.4;stroke-miterlimit:10;}
	.st447{fill:#F1C980;stroke:#F1C980;stroke-width:0.75;stroke-miterlimit:10;}
	.st448{fill:#862821;}
	.st449{fill:#993823;}
	.st450{fill:#5D3819;}
	.st451{fill:#7AAA4A;}
	.st452{fill:#699234;}
	.st453{fill:#6FA23B;}
	.st454{fill:#ACB9C1;}
	.st455{fill:#5F696D;}
	.st456{fill:#744622;}
	.st457{fill:#A84429;}
	.st458{fill:#D6CBB6;}
	.st459{fill:#BA5742;}
	.st460{fill:#9B512C;}
	.st461{fill:#B15A3F;}
	.st462{fill:#984C35;}
	.st463{fill:#C68459;}
	.st464{fill:#A25246;}
	.st465{fill:#A15139;}
	.st466{fill:#AC574A;}
	.st467{fill:#A66842;}
	.st468{fill:#9E553C;}
	.st469{fill:none;stroke:#E4007F;stroke-miterlimit:10;}
	.st470{fill:#DA7A5F;}
	.st471{fill:#BCAFA4;}
	.st472{fill:#BF6347;}
	.st473{fill:#E9E6C4;}
	.st474{fill:#C35132;}
	.st475{fill:#A29BA5;}
	.st476{fill:#EBDBD2;}
	.st477{fill:#BEB2B8;}
	.st478{fill:#D58C54;}
	.st479{fill:#DAAA64;}
	.st480{fill:#E4D587;}
	.st481{fill:#B78E66;}
	.st482{fill:#D39152;}
	.st483{fill:#212936;}
	.st484{fill:#1C1E3A;}
	.st485{fill:#3A426D;}
	.st486{fill:#202C4B;}
	.st487{fill:#343C74;}
	.st488{fill:#1B2C57;}
	.st489{fill:#1A234B;}
	.st490{fill:#3E3F63;}
	.st491{fill:#30397F;}
	.st492{fill:#444A7F;}
	.st493{fill:#223565;}
	.st494{fill:#705828;}
	.st495{fill:#9BB151;}
	.st496{fill:#D6BEB1;}
	.st497{fill:#3D3E3D;}
	.st498{fill:#AF9A88;}
	.st499{fill:#8E8C8B;}
	.st500{fill:#3D3E3D;stroke:#898989;stroke-width:0.5;stroke-miterlimit:10;}
	.st501{fill:none;stroke:#3C3D3C;stroke-width:0.5;stroke-miterlimit:10;}
	.st502{fill:#F1E8E3;}
	.st503{fill:#AD4028;}
	.st504{fill:#8F3E2F;}
	.st505{fill:#89959A;}
	.st506{fill:#8BA92A;}
	.st507{fill:#4E6C31;}
	.st508{fill:#B24222;}
	.st509{fill:#E8D9CB;}
	.st510{fill:#BD9687;}
	.st511{fill:#E26B4F;}
	.st512{fill:#DE5836;}
	.st513{fill:#C95539;}
	.st514{fill:#237293;stroke:#A37B51;stroke-width:0.8;stroke-miterlimit:10;}
	.st515{fill:none;stroke:#A37B51;stroke-width:0.8;stroke-miterlimit:10;}
	.st516{fill:#998277;}
	.st517{fill:#256E92;}
	.st518{fill:#A37B51;stroke:#A37B51;stroke-width:0.8;stroke-miterlimit:10;}
	.st519{fill:#237293;}
	.st520{fill:#B68B7B;}
	.st521{fill:#73695D;}
	.st522{fill:#5B873B;}
	.st523{fill:#88AD3D;}
	.st524{fill:#6D9B30;}
	.st525{fill:#E6E6E8;}
	.st526{fill:#D2D3D5;}
	.st527{fill:#A8A9AD;}
	.st528{fill:#BDBEBF;}
	.st529{fill:#EFF1F0;}
	.st530{fill:#E56F69;}
	.st531{fill:#E67364;}
	.st532{fill:#983530;}
	.st533{fill:#9E2F33;}
	.st534{fill:#E4483F;}
	.st535{fill:#0A6293;}
	.st536{fill:#90D1EB;}
	.st537{fill:#41B1D8;}
	.st538{fill:#3DA3D0;}
	.st539{fill:#1D8ACC;}
	.st540{fill:#678497;}
	.st541{fill:#557186;}
	.st542{fill:#E9E9E7;}
	.st543{fill:#333333;}
	.st544{fill:#D3D4D6;}
	.st545{fill:#567387;}
	.st546{fill:#0B6491;}
	.st547{fill:#248CCD;}
	.st548{fill:#C6C7C9;}
	.st549{fill:#449EBB;}
	.st550{fill:#D1D2D4;}
	.st551{fill:#BF8652;}
	.st552{fill:#A87746;}
	.st553{fill:#91C66F;}
	.st554{fill:#79BB5B;}
	.st555{fill:#6DAE4E;}
	.st556{fill:#AEACAC;}
	.st557{fill:#AEACAC;stroke:#7F8080;stroke-width:0.75;stroke-miterlimit:10;}
	.st558{fill:#858283;stroke:#7F8080;stroke-width:0.75;stroke-miterlimit:10;}
	.st559{fill:#858283;}
	.st560{fill:#69686A;}
	.st561{fill:#CECAC3;}
	.st562{fill:#E4E3E3;}
	.st563{fill:none;stroke:#858283;stroke-width:0.75;stroke-miterlimit:10;}
	.st564{fill:#323B3D;}
	.st565{fill:#D5D2D1;}
	.st566{fill:#D3D1D2;}
	.st567{fill:#FEFEFE;}
	.st568{fill:#F6F1F8;}
	.st569{fill:#6B899F;}
	.st570{fill:#4F4341;stroke:#D6CEC3;stroke-width:0.5;stroke-miterlimit:10;}
	.st571{fill:#655C5A;}
	.st572{fill-rule:evenodd;clip-rule:evenodd;fill:#DB2626;}
	.st573{fill-rule:evenodd;clip-rule:evenodd;fill:#C51727;}
	.st574{fill-rule:evenodd;clip-rule:evenodd;fill:#69686A;}
	.st575{fill-rule:evenodd;clip-rule:evenodd;fill:#424141;}
	.st576{fill-rule:evenodd;clip-rule:evenodd;fill:#B31D26;}
	.st577{fill-rule:evenodd;clip-rule:evenodd;fill:#E4E4E5;}
	.st578{fill-rule:evenodd;clip-rule:evenodd;fill:#AE1E29;}
	.st579{fill-rule:evenodd;clip-rule:evenodd;fill:#D1D1D1;}
	.st580{fill-rule:evenodd;clip-rule:evenodd;fill:#E24B4D;}
	.st581{fill-rule:evenodd;clip-rule:evenodd;fill:#284367;}
	.st582{fill-rule:evenodd;clip-rule:evenodd;fill:#4E6281;}
	.st583{fill-rule:evenodd;clip-rule:evenodd;fill:#8F1D26;}
	.st584{fill-rule:evenodd;clip-rule:evenodd;fill:#111223;}
	.st585{fill-rule:evenodd;clip-rule:evenodd;fill:#5A5759;}
	.st586{fill-rule:evenodd;clip-rule:evenodd;fill:#C2C3C3;}
	.st587{fill-rule:evenodd;clip-rule:evenodd;fill:#929397;}
	.st588{fill:#A3A4A6;}
	.st589{fill:#F7F7F7;}
	.st590{fill:#DCDDDF;}
	.st591{fill:#29394C;}
	.st592{fill:#999A9D;}
	.st593{fill:#DBDADA;}
	.st594{fill:#C3C4C6;}
	.st595{fill:#E4E4E3;}
	.st596{fill:#E5E3E4;}
	.st597{fill:#025081;}
	.st598{fill:#02568B;}
	.st599{fill:#1266A4;}
	.st600{fill:#C0C0C2;}
	.st601{fill:#397095;}
	.st602{clip-path:url(#SVGID_2_);fill:#9B7949;}
	.st603{opacity:0.6;clip-path:url(#SVGID_2_);fill:#99D3C8;}
	.st604{clip-path:url(#SVGID_2_);fill:#EACFAA;}
	.st605{clip-path:url(#SVGID_2_);fill:#E3C595;}
	.st606{clip-path:url(#SVGID_2_);fill:#FADEC4;}
	.st607{fill:#DBCFBF;}
	.st608{fill:#FFF9F2;}
	.st609{fill:#4E4D4D;}
	.st610{fill:#3A3938;}
	.st611{fill:#424241;}
	.st612{fill:#E7DED5;}
	.st613{fill:#ECE6E1;}
	.st614{fill:#D5D0CB;}
	.st615{fill:#A18865;}
	.st616{fill:#85B5AC;}
	.st617{clip-path:url(#SVGID_6_);}
	.st618{fill:#9B7949;}
	.st619{fill:#3E3A39;}
	.st620{opacity:0.3;}
	.st621{fill:#D6D6D6;}
	.st622{fill:#ACABAB;}
	.st623{fill:#D6D6D6;stroke:#D6D6D6;stroke-width:4;stroke-miterlimit:10;}
	.st624{fill:#F1F1F1;}
	.st625{fill:none;stroke:#FFFFFF;stroke-linecap:round;stroke-miterlimit:10;}
	.st626{fill:#1B1C1B;}
	.st627{fill:none;stroke:#F1F1F1;stroke-width:2;stroke-miterlimit:10;}
	.st628{fill:#2E2E2E;}
	.st629{fill:none;stroke:#F1F1F1;stroke-width:2;stroke-linecap:round;stroke-linejoin:round;stroke-miterlimit:10;}
	.st630{fill:#161717;}
	.st631{fill:#040000;}
	.st632{fill:#492743;}
	.st633{opacity:0.05;fill:none;stroke:#FFFFFF;stroke-width:0.5;stroke-miterlimit:10;}
	.st634{fill:#30393C;}
	.st635{fill:#AAD6AB;}
	.st636{fill:url(#SVGID_7_);}
	.st637{fill:url(#SVGID_8_);}
	.st638{fill:url(#SVGID_9_);}
	.st639{fill:url(#SVGID_10_);}
	.st640{fill:url(#SVGID_11_);}
	.st641{fill:url(#SVGID_12_);}
	.st642{fill:url(#SVGID_13_);}
	.st643{fill:url(#SVGID_14_);}
	.st644{fill:url(#SVGID_15_);}
	.st645{fill:url(#SVGID_16_);}
	.st646{fill:#D8E3B8;}
	.st647{fill:#F4C324;}
	.st648{clip-path:url(#SVGID_30_);}
	.st649{fill:url(#SVGID_31_);}
	.st650{fill:url(#SVGID_32_);}
	.st651{fill:url(#SVGID_33_);}
	.st652{fill:url(#SVGID_34_);}
	.st653{fill:url(#SVGID_35_);}
	.st654{fill:url(#SVGID_36_);}
	.st655{fill:url(#SVGID_37_);}
	.st656{fill:url(#SVGID_38_);}
	.st657{fill:url(#SVGID_39_);}
	.st658{fill:url(#SVGID_40_);}
	.st659{fill:url(#SVGID_41_);}
	.st660{fill:url(#SVGID_42_);}
	.st661{fill:url(#SVGID_43_);}
	.st662{fill:url(#SVGID_44_);}
	.st663{fill:url(#SVGID_45_);}
	.st664{fill:url(#SVGID_46_);}
	.st665{fill:url(#SVGID_47_);}
	.st666{fill:url(#SVGID_48_);}
	.st667{fill:url(#SVGID_49_);}
	.st668{fill:url(#SVGID_50_);}
</style>
<g id="圖層_1">
</g>
<g id="圖層_2">
	<g>
		<polygon class="st454" points="120.47,55.21 29.47,99.76 120.47,144.39 211.48,99.76 		"/>
		<polygon class="st505" points="211.48,112.3 211.48,99.77 120.47,144.4 120.47,156.92 		"/>
		<polygon class="st46" points="211.48,112.3 211.48,106.03 120.47,150.66 120.47,156.92 		"/>
		<polygon class="st455" points="29.47,112.3 29.47,99.77 120.47,144.4 120.47,156.92 		"/>
		<polygon class="st48" points="29.47,112.3 29.47,106.03 120.47,150.66 120.47,156.92 		"/>
		<g>
			<polygon class="st522" points="94.24,131.67 29.48,99.82 29.48,97.28 94.24,129.13 			"/>
			<polygon class="st522" points="121.62,127.92 67.22,101.25 67.22,98.71 121.62,125.38 			"/>
			<polygon class="st523" points="94.24,131.71 111.84,123.16 111.84,120.62 94.24,129.16 			"/>
			<polygon class="st523" points="121.62,127.92 177.25,100.74 177.25,98.2 121.62,125.38 			"/>
			<polygon class="st523" points="129.59,114.39 185.23,87.21 185.23,84.67 129.59,111.85 			"/>
			<g>
				<polygon class="st524" points="185.23,84.76 94.28,129.13 29.48,97.46 120.42,53.08 				"/>
				<polygon class="st524" points="177.25,98.27 121.6,125.42 96.4,113.05 152.05,85.9 				"/>
			</g>
		</g>
		<g>
			<polygon class="st525" points="148.64,83.33 86.4,113.82 86.4,61.89 148.64,31.39 			"/>
			<polygon class="st526" points="52.12,97.03 86.4,113.82 86.4,61.89 52.12,45.09 			"/>
			<polygon class="st527" points="52.12,47.37 86.4,64.16 86.4,61.89 52.12,45.09 			"/>
			<polygon class="st528" points="148.64,33.67 86.4,64.16 86.4,61.89 148.64,31.39 			"/>
			<polygon class="st528" points="86.4,62.06 52.11,45.26 114.36,14.77 148.64,31.56 			"/>
			<polygon class="st526" points="114.29,18.08 141.46,31.39 137.55,33.29 110.39,19.98 			"/>
			<polygon class="st525" points="114.39,18.08 59.64,44.75 59.64,48.77 114.39,22.1 			"/>
			<polygon class="st529" points="144.75,29.49 82.51,59.95 86.41,61.85 148.66,31.39 			"/>
			<polygon class="st529" points="56.02,43.22 90.31,59.99 86.4,61.89 52.12,45.12 			"/>
			<polygon class="st529" points="114.29,14.59 147.64,30.92 143.73,32.82 110.39,16.49 			"/>
			<polygon class="st529" points="114.39,14.59 52.66,44.77 56.57,46.67 118.3,16.49 			"/>
			<polygon class="st526" points="81.47,38.54 100.38,47.81 100.38,32.1 81.47,22.84 			"/>
			<polygon class="st525" points="119.29,38.54 100.38,47.81 100.38,32.1 119.29,22.84 			"/>
			<g>
				<polygon class="st528" points="100.29,32.48 81.04,23.15 100.15,13.81 119.39,23.14 				"/>
				<polygon class="st526" points="100.09,16.44 114.2,23.38 111.25,24.81 97.15,17.87 				"/>
				<polygon class="st525" points="100.17,16.44 87.81,22.33 87.81,25.36 100.17,19.47 				"/>
				<g>
					<polygon class="st528" points="120.17,24.86 100.38,34.54 100.38,32.49 120.17,22.81 					"/>
					<polygon class="st527" points="80.59,24.86 100.39,34.54 100.39,32.49 80.59,22.81 					"/>
					<polygon class="st529" points="116.26,20.91 96.48,30.58 100.39,32.48 120.17,22.81 					"/>
					<polygon class="st529" points="84.5,20.91 104.28,30.58 100.38,32.48 80.59,22.81 					"/>
					<polygon class="st529" points="116.26,24.73 96.48,15.06 100.39,13.16 120.17,22.83 					"/>
					<polygon class="st529" points="84.5,24.73 104.28,15.06 100.38,13.16 80.59,22.83 					"/>
				</g>
			</g>
			<g>
				<polygon class="st530" points="116.24,56 112.58,57.77 113.81,58.39 117.48,56.62 				"/>
				<polygon class="st530" points="118.88,50.96 116.23,52.24 117.51,53.02 120.22,51.58 				"/>
				<polygon class="st531" points="122.68,52.87 119.01,54.64 120.25,55.26 123.92,53.49 				"/>
				<polygon class="st532" points="116.23,52.24 117.51,52.87 117.51,56.63 116.23,56.01 				"/>
				<polygon class="st533" points="116.23,58.61 117.51,59.23 117.51,63 116.23,62.37 				"/>
				<polygon class="st534" points="117.51,63 117.51,59.3 113.81,61.1 113.81,58.39 117.51,56.59 117.51,52.89 120.22,51.58 
					120.22,55.28 123.92,53.45 123.92,56.16 120.22,58 120.22,61.69 				"/>
				<polygon class="st532" points="112.58,57.76 113.82,58.39 113.82,61.08 112.58,60.45 				"/>
			</g>
			<g>
				<polygon class="st535" points="92.25,58.52 90.41,57.66 90.41,48.7 92.25,49.55 				"/>
				<polygon class="st535" points="96,56.68 94.16,55.83 94.16,46.86 96,47.72 				"/>
				<polygon class="st535" points="98.98,55.21 97.14,54.35 97.14,45.39 98.98,46.25 				"/>
				<polygon class="st535" points="102.74,52.98 100.9,52.16 100.9,43.57 102.74,44.39 				"/>
				<polygon class="st535" points="105.7,48.48 103.86,47.63 103.86,42.1 105.7,42.95 				"/>
				<polygon class="st535" points="105.7,51.92 103.86,51.06 103.86,48.97 105.7,49.83 				"/>
				<polygon class="st535" points="112.45,48.6 110.6,47.74 110.6,38.77 112.45,39.63 				"/>
				<polygon class="st535" points="130.86,39.56 129.01,38.7 129.01,29.73 130.86,30.59 				"/>
				<polygon class="st535" points="134.58,37.74 132.74,36.88 132.74,27.91 134.58,28.77 				"/>
				<polygon class="st535" points="137.57,36.25 135.72,35.39 135.72,26.43 137.57,27.29 				"/>
				<polygon class="st535" points="125.99,41.95 124.15,41.09 124.15,34.05 125.99,34.91 				"/>
				<polygon class="st535" points="124.12,35.99 122.27,35.13 122.27,33.05 124.12,33.91 				"/>
				<polygon class="st535" points="119.17,38.41 117.33,37.56 117.32,35.46 119.17,36.32 				"/>
				<polygon class="st535" points="119.17,45.29 117.33,44.43 117.33,42.32 119.17,43.18 				"/>
				<polygon class="st535" points="116.19,43.3 114.35,42.93 114.35,39.05 116.19,39.42 				"/>
				<polygon class="st536" points="92.25,49.56 90.41,48.7 91.89,47.97 93.73,48.83 				"/>
				<polygon class="st536" points="96,47.72 94.16,46.85 95.64,46.13 97.48,46.99 				"/>
				<polygon class="st537" points="100.42,52.42 100.45,50.66 100.9,50.45 102.74,51.31 				"/>
				<polygon class="st538" points="93.7,52.28 93.74,50.51 94.19,50.3 96.03,51.16 				"/>
				<polygon class="st538" points="105.78,49.85 103.94,48.99 107.61,47.11 109.45,47.97 				"/>
				<polygon class="st538" points="107.26,45.7 105.42,44.83 109.09,42.95 110.93,43.81 				"/>
				<polygon class="st538" points="112.52,43.47 112.54,41.65 114.35,40.72 116.19,41.59 				"/>
				<polygon class="st535" points="105.7,48.48 103.86,47.63 103.86,42.1 105.7,42.95 				"/>
				<polygon class="st535" points="109.45,47.97 107.61,47.11 107.61,45.81 109.45,46.67 				"/>
				<polygon class="st536" points="98.98,46.24 97.14,45.37 102.36,42.8 104.2,43.67 				"/>
				<polygon class="st536" points="105.7,42.95 103.86,42.09 109.09,39.52 110.93,40.38 				"/>
				<polygon class="st536" points="112.44,39.63 110.6,38.77 115.83,36.2 117.67,37.06 				"/>
				<polygon class="st536" points="124.11,33.91 122.27,33.04 127.5,30.47 129.34,31.34 				"/>
				<polygon class="st538" points="130.86,34.54 130.86,32.78 132.74,31.87 134.58,32.73 				"/>
				<polygon class="st536" points="130.85,30.61 129.01,29.74 134.24,27.17 136.08,28.04 				"/>
				<polygon class="st536" points="137.56,27.29 135.72,26.42 137.19,25.7 139.03,26.56 				"/>
				<polygon class="st538" points="139.04,33.44 137.57,32.38 140.95,30.72 142.79,31.59 				"/>
				<polygon class="st538" points="119.2,43.21 117.36,42.35 120.77,40.63 122.62,41.5 				"/>
				<polygon class="st536" points="119.2,36.36 117.32,35.46 120.74,33.75 122.62,34.64 				"/>
				<polygon class="st535" points="120.16,42.71 118.31,41.85 118.31,37.05 120.16,37.91 				"/>
				<g>
					<polygon class="st539" points="96,47.72 96,51.15 93.73,52.27 93.73,48.83 92.25,49.56 92.25,58.52 93.73,57.8 93.73,54.36 
						96,53.24 96,56.68 97.48,55.95 97.48,46.99 					"/>
					<path class="st539" d="M135.49,28.32l-0.9,0.44l-2.27,1.12l-0.74,0.36l-0.74,0.36v8.96l1.48-0.72v-2.92l2.27-1.12v2.92
						l1.48-0.72v-8.96L135.49,28.32z M134.59,32.72l-2.27,1.12v-1.87l2.27-1.12V32.72z"/>
					<path class="st539" d="M117.09,37.36l-0.9,0.44l-2.27,1.12l-0.74,0.36l-0.74,0.36v8.96l1.48-0.72v-3.12l2.27-1.12l0.9-0.44
						l0.58-0.28v-5.84L117.09,37.36z M116.19,41.55l-2.27,1.12V41l2.27-1.12V41.55z"/>
					<path class="st539" d="M104.2,43.68l-0.58,0.28l-0.9,0.44l-2.27,1.12l-0.74,0.36l-0.74,0.36v8.96l0.74-0.36v0.01l3.91-1.92
						v-0.01l0.58-0.28V43.68z M102.73,46.5v4.8l-2.27,1.12v-4.8L102.73,46.5z"/>
					<polygon class="st539" points="110.93,42.46 110.93,40.37 107.18,42.22 105.7,42.94 105.7,45.03 105.7,46.38 105.7,48.47 
						107.18,47.74 109.45,46.63 109.45,47.99 105.7,49.84 105.7,51.92 110.93,49.35 110.93,49.34 110.93,47.27 110.93,45.9 
						110.93,43.82 109.45,44.54 107.18,45.66 107.18,44.3 					"/>
					<polygon class="st539" points="139.04,33.44 139.04,26.56 137.57,27.29 137.57,34.16 137.57,36.25 139.04,35.52 142.79,33.68 
						142.79,31.59 					"/>
					<polygon class="st539" points="129.34,31.34 127.47,32.26 125.99,32.98 124.12,33.91 124.12,35.99 125.99,35.07 125.99,41.95 
						127.47,41.22 127.47,34.35 129.34,33.42 					"/>
					<polygon class="st539" points="122.62,36.73 122.62,34.64 121.63,35.13 120.16,35.85 119.17,36.33 119.17,38.42 120.16,37.94 
						120.16,42.72 119.17,43.2 119.17,45.29 122.62,43.6 122.62,41.51 121.63,41.99 121.63,37.21 					"/>
				</g>
				<line class="st73" x1="142.79" y1="31.59" x2="139.04" y2="33.44"/>
			</g>
			<polygon class="st540" points="57.66,95.3 65.07,98.93 65.07,85.26 57.66,81.63 			"/>
			<polygon class="st541" points="57.66,95.3 65.07,98.93 65.07,97.93 57.66,94.3 			"/>
			<polygon class="st542" points="56.71,95.81 65.07,99.94 65.07,98.94 56.71,94.81 			"/>
			<polygon class="st541" points="57.66,95.3 58.6,95.73 58.6,82.05 57.66,81.63 			"/>
			<polygon class="st543" points="57.66,95.3 57.88,95.52 57.88,81.84 57.66,81.63 			"/>
			<polygon class="st543" points="57.66,95.3 65.07,98.93 65.07,98.66 57.66,95.03 			"/>
			<polygon class="st543" points="57.66,88.5 65.07,92.13 65.07,91.85 57.66,88.23 			"/>
			<polygon class="st542" points="56.71,94.89 57.66,95.31 57.66,81.64 56.71,81.21 			"/>
			<polygon class="st540" points="57.66,81.71 65.07,85.34 65.07,71.66 57.66,68.03 			"/>
			<polygon class="st541" points="57.66,81.71 58.6,82.13 58.6,68.46 57.66,68.03 			"/>
			<polygon class="st543" points="57.66,81.71 57.88,81.92 57.88,68.25 57.66,68.03 			"/>
			<polygon class="st543" points="57.66,81.71 65.07,85.34 65.07,85.06 57.66,81.43 			"/>
			<polygon class="st543" points="57.66,74.91 65.07,78.54 65.07,78.26 57.66,74.63 			"/>
			<polygon class="st542" points="56.71,81.29 57.66,81.71 57.66,68.04 56.71,67.62 			"/>
			<polygon class="st540" points="57.66,68.11 65.07,71.74 65.07,58.07 57.66,54.44 			"/>
			<polygon class="st541" points="57.66,68.11 58.6,68.54 58.6,54.86 57.66,54.44 			"/>
			<polygon class="st543" points="57.66,68.11 57.88,68.32 57.88,54.65 57.66,54.44 			"/>
			<polygon class="st543" points="57.66,68.11 65.07,71.74 65.07,71.46 57.66,67.83 			"/>
			<polygon class="st543" points="57.66,61.31 65.07,64.94 65.07,64.66 57.66,61.04 			"/>
			<polygon class="st542" points="56.71,67.69 57.66,68.12 57.66,54.45 56.71,54.02 			"/>
			<g>
				<polygon class="st540" points="71.97,102.31 79.38,105.95 79.38,92.27 71.97,88.64 				"/>
				<polygon class="st541" points="71.97,102.31 79.38,105.95 79.38,104.94 71.97,101.31 				"/>
				<polygon class="st542" points="71.03,102.82 79.38,106.95 79.38,105.95 71.03,101.82 				"/>
				<polygon class="st541" points="71.97,102.31 72.92,102.74 72.92,89.07 71.97,88.64 				"/>
				<polygon class="st543" points="71.97,102.31 72.19,102.53 72.19,88.85 71.97,88.64 				"/>
				<polygon class="st543" points="71.97,102.31 79.38,105.95 79.38,105.67 71.97,102.04 				"/>
				<polygon class="st543" points="71.97,95.52 79.38,99.14 79.38,98.87 71.97,95.24 				"/>
				<polygon class="st542" points="71.03,101.9 71.97,102.32 71.97,88.65 71.03,88.23 				"/>
				<polygon class="st540" points="71.97,88.72 79.38,92.35 79.38,78.68 71.97,75.05 				"/>
				<polygon class="st541" points="71.97,88.72 72.92,89.14 72.92,75.47 71.97,75.05 				"/>
				<polygon class="st543" points="71.97,88.72 72.19,88.93 72.19,75.26 71.97,75.05 				"/>
				<polygon class="st543" points="71.97,88.72 79.38,92.35 79.38,92.07 71.97,88.44 				"/>
				<polygon class="st543" points="71.97,81.92 79.38,85.55 79.38,85.27 71.97,81.64 				"/>
				<polygon class="st542" points="71.03,88.3 71.97,88.73 71.97,75.05 71.03,74.63 				"/>
				<polygon class="st540" points="71.97,75.13 79.38,78.76 79.38,65.08 71.97,61.45 				"/>
				<polygon class="st541" points="71.97,75.13 72.92,75.55 72.92,61.88 71.97,61.45 				"/>
				<polygon class="st543" points="71.97,75.13 72.19,75.34 72.19,61.66 71.97,61.45 				"/>
				<polygon class="st543" points="71.97,75.13 79.38,78.76 79.38,78.48 71.97,74.85 				"/>
				<polygon class="st543" points="71.97,68.32 79.38,71.95 79.38,71.68 71.97,68.05 				"/>
				<polygon class="st542" points="71.03,74.71 71.97,75.13 71.97,61.46 71.03,61.04 				"/>
			</g>
			<g>
				<polygon class="st540" points="98.59,100.57 91.73,103.93 91.73,91.26 98.59,87.9 				"/>
				<polygon class="st541" points="98.59,100.57 91.73,103.93 91.73,103 98.59,99.64 				"/>
				<polygon class="st544" points="99.47,101.04 91.73,104.87 91.73,103.94 99.47,100.11 				"/>
				<polygon class="st541" points="98.59,100.57 97.72,100.96 97.72,88.29 98.59,87.9 				"/>
				<polygon class="st543" points="98.59,100.57 98.39,100.77 98.39,88.1 98.59,87.9 				"/>
				<polygon class="st543" points="98.59,100.57 91.73,103.93 91.73,103.67 98.59,100.31 				"/>
				<polygon class="st543" points="98.59,94.27 91.73,97.63 91.73,97.37 98.59,94.01 				"/>
				<polygon class="st544" points="99.47,100.18 98.59,100.57 98.59,87.91 99.47,87.51 				"/>
				<polygon class="st540" points="98.59,87.97 91.73,91.34 91.73,78.67 98.59,75.31 				"/>
				<polygon class="st541" points="98.59,87.97 97.72,88.37 97.72,75.7 98.59,75.31 				"/>
				<polygon class="st543" points="98.59,87.97 98.39,88.17 98.39,75.5 98.59,75.31 				"/>
				<polygon class="st543" points="98.59,87.97 91.73,91.34 91.73,91.08 98.59,87.72 				"/>
				<polygon class="st543" points="98.59,81.67 91.73,85.04 91.73,84.78 98.59,81.42 				"/>
				<polygon class="st544" points="99.47,87.59 98.59,87.98 98.59,75.31 99.47,74.92 				"/>
				<polygon class="st540" points="98.59,75.38 91.73,78.74 91.73,66.08 98.59,62.71 				"/>
				<polygon class="st541" points="98.59,75.38 97.72,75.77 97.72,63.1 98.59,62.71 				"/>
				<polygon class="st543" points="98.59,75.38 98.39,75.57 98.39,62.91 98.59,62.71 				"/>
				<polygon class="st543" points="98.59,75.38 91.73,78.74 91.73,78.48 98.59,75.12 				"/>
				<polygon class="st543" points="98.59,69.08 91.73,72.44 91.73,72.18 98.59,68.82 				"/>
				<polygon class="st544" points="99.47,74.99 98.59,75.38 98.59,62.72 99.47,62.33 				"/>
			</g>
			<g>
				<polygon class="st540" points="109.29,76.45 102.42,79.81 102.42,67.14 109.29,63.78 				"/>
				<polygon class="st541" points="109.29,76.45 102.42,79.81 102.42,78.88 109.29,75.52 				"/>
				<polygon class="st544" points="110.16,76.91 102.42,80.74 102.42,79.81 110.16,75.99 				"/>
				<polygon class="st541" points="109.29,76.45 108.41,76.84 108.41,64.17 109.29,63.78 				"/>
				<polygon class="st543" points="109.29,76.45 109.08,76.64 109.08,63.97 109.29,63.78 				"/>
				<polygon class="st543" points="109.29,76.45 102.42,79.81 102.42,79.55 109.29,76.19 				"/>
				<polygon class="st543" points="109.29,70.14 102.42,73.51 102.42,73.25 109.29,69.89 				"/>
				<polygon class="st544" points="110.16,76.06 109.29,76.45 109.29,63.78 110.16,63.39 				"/>
				<polygon class="st540" points="109.29,63.85 102.42,67.21 102.42,60.65 109.29,57.29 				"/>
				<polygon class="st541" points="109.29,63.85 108.41,64.24 108.41,57.68 109.29,57.29 				"/>
				<polygon class="st543" points="109.29,63.85 109.08,64.05 109.08,57.48 109.29,57.29 				"/>
				<polygon class="st543" points="109.29,63.85 102.42,67.21 102.42,66.95 109.29,63.59 				"/>
				<polygon class="st544" points="110.16,63.46 109.29,63.85 109.29,57.29 110.16,56.9 				"/>
			</g>
			<g>
				<polygon class="st540" points="132.85,64.93 125.99,68.29 125.99,55.63 132.85,52.26 				"/>
				<polygon class="st541" points="132.85,64.93 125.99,68.29 125.99,67.36 132.85,64 				"/>
				<polygon class="st544" points="133.73,65.4 125.99,69.23 125.99,68.3 133.73,64.47 				"/>
				<polygon class="st541" points="132.85,64.93 131.98,65.32 131.98,52.66 132.85,52.26 				"/>
				<polygon class="st543" points="132.85,64.93 132.65,65.13 132.65,52.46 132.85,52.26 				"/>
				<polygon class="st543" points="132.85,64.93 125.99,68.29 125.99,68.03 132.85,64.67 				"/>
				<polygon class="st543" points="132.85,58.63 125.99,61.99 125.99,61.73 132.85,58.37 				"/>
				<polygon class="st544" points="133.73,64.54 132.85,64.94 132.85,52.27 133.73,51.88 				"/>
				<polygon class="st540" points="132.85,52.34 125.99,55.7 125.99,49.14 132.85,45.77 				"/>
				<polygon class="st541" points="132.85,52.34 131.98,52.73 131.98,46.17 132.85,45.77 				"/>
				<polygon class="st543" points="132.85,52.34 132.65,52.53 132.65,45.97 132.85,45.77 				"/>
				<polygon class="st543" points="132.85,52.34 125.99,55.7 125.99,55.44 132.85,52.08 				"/>
				<polygon class="st544" points="133.73,51.95 132.85,52.34 132.85,45.78 133.73,45.39 				"/>
			</g>
			<g>
				<polygon class="st540" points="86.93,40.51 92.35,43.17 92.35,33.16 86.93,30.51 				"/>
				<polygon class="st541" points="86.93,40.51 92.35,43.17 92.35,42.43 86.93,39.78 				"/>
				<polygon class="st528" points="86.24,40.88 92.35,43.9 92.35,43.17 86.24,40.15 				"/>
				<polygon class="st541" points="86.93,40.51 87.62,40.82 87.62,30.82 86.93,30.51 				"/>
				<polygon class="st543" points="86.93,40.51 87.09,40.67 87.09,30.66 86.93,30.51 				"/>
				<polygon class="st543" points="86.93,40.51 92.35,43.17 92.35,42.96 86.93,40.31 				"/>
				<polygon class="st543" points="86.93,33.63 92.35,36.29 92.35,36.08 86.93,33.43 				"/>
				<polygon class="st544" points="86.24,40.88 86.93,40.52 86.93,30.51 86.24,30.2 				"/>
			</g>
			<g>
				<polygon class="st540" points="143.59,78.46 136.72,81.82 136.72,69.15 143.59,65.79 				"/>
				<polygon class="st541" points="143.59,78.46 136.72,81.82 136.72,80.89 143.59,77.53 				"/>
				<polygon class="st544" points="144.46,78.92 136.72,82.75 136.72,81.82 144.46,77.99 				"/>
				<polygon class="st541" points="143.59,78.46 142.71,78.85 142.71,66.18 143.59,65.79 				"/>
				<polygon class="st543" points="143.59,78.46 143.38,78.65 143.38,65.98 143.59,65.79 				"/>
				<polygon class="st543" points="143.59,78.46 136.72,81.82 136.72,81.56 143.59,78.2 				"/>
				<polygon class="st543" points="143.59,72.16 136.72,75.52 136.72,75.26 143.59,71.9 				"/>
				<polygon class="st544" points="144.46,78.07 143.59,78.46 143.59,65.79 144.46,65.4 				"/>
				<polygon class="st540" points="143.59,65.86 136.72,69.22 136.72,56.56 143.59,53.19 				"/>
				<polygon class="st541" points="143.59,65.86 142.71,66.25 142.71,53.59 143.59,53.19 				"/>
				<polygon class="st543" points="143.59,65.86 143.38,66.05 143.38,53.39 143.59,53.19 				"/>
				<polygon class="st543" points="143.59,65.86 136.72,69.22 136.72,68.96 143.59,65.6 				"/>
				<polygon class="st543" points="143.59,59.56 136.72,62.92 136.72,62.66 143.59,59.3 				"/>
				<polygon class="st544" points="144.46,65.47 143.59,65.86 143.59,53.2 144.46,52.81 				"/>
				<polygon class="st540" points="143.59,53.26 136.72,56.63 136.72,43.96 143.59,40.6 				"/>
				<polygon class="st541" points="143.59,53.26 142.71,53.66 142.71,40.99 143.59,40.6 				"/>
				<polygon class="st543" points="143.59,53.26 143.38,53.46 143.38,40.79 143.59,40.6 				"/>
				<polygon class="st543" points="143.59,53.26 136.72,56.63 136.72,56.37 143.59,53.01 				"/>
				<polygon class="st543" points="143.59,46.96 136.72,50.33 136.72,50.07 143.59,46.71 				"/>
				<polygon class="st544" points="144.46,52.88 143.59,53.27 143.59,40.6 144.46,40.21 				"/>
			</g>
			<polygon class="st525" points="150.01,98.39 119.25,113.46 119.25,94.17 150.01,79.1 			"/>
			<polygon class="st540" points="141.91,101.47 127.38,108.59 127.38,94.5 141.91,87.38 			"/>
			<polygon class="st526" points="119.31,113.45 103.14,105.44 103.14,86.6 119.31,94.15 			"/>
			<g>
				<polygon class="st540" points="108.55,102.9 114.52,105.82 114.52,94.81 108.55,91.88 				"/>
				<polygon class="st541" points="108.55,102.9 114.52,105.82 114.52,105.01 108.55,102.09 				"/>
				<polygon class="st542" points="107.79,103.3 114.52,106.63 114.52,105.82 107.79,102.5 				"/>
				<polygon class="st541" points="108.55,102.9 109.31,103.24 109.31,92.22 108.55,91.88 				"/>
				<polygon class="st543" points="108.55,102.9 108.73,103.07 108.73,92.05 108.55,91.88 				"/>
				<polygon class="st543" points="108.55,102.9 114.52,105.82 114.52,105.6 108.55,102.67 				"/>
				<polygon class="st543" points="108.55,97.42 114.52,100.34 114.52,100.12 108.55,97.19 				"/>
				<polygon class="st542" points="107.79,102.56 108.55,102.9 108.55,91.89 107.79,91.55 				"/>
			</g>
			<polygon class="st545" points="141.9,101.46 128.02,94.18 141.13,87.72 141.9,87.38 			"/>
			<polyline class="st543" points="127.36,108.59 127.36,108.33 141.91,101.17 141.91,101.43 			"/>
			<polyline class="st543" points="134.66,90.91 134.66,104.79 134.47,104.97 134.47,91.03 			"/>
			<polygon class="st543" points="141.91,98.93 127.36,106.09 127.36,105.83 141.91,98.67 			"/>
			<polygon class="st543" points="141.91,90.44 127.36,97.6 127.36,97.34 141.91,90.17 			"/>
			<polygon class="st526" points="142.66,101.87 141.9,101.46 141.9,87.38 142.66,87.04 			"/>
			<polygon class="st528" points="118.69,94.15 103.14,86.54 134.5,71.22 150.04,78.83 			"/>
			<polygon class="st546" points="103.14,86.98 119.23,94.88 119.23,93.1 103.14,85.21 			"/>
			<line class="st529" x1="117.66" y1="91.78" x2="119.23" y2="92.54"/>
			<polygon class="st529" points="105.29,84.17 120.79,91.8 119.22,92.56 103.72,84.93 			"/>
			<polygon class="st529" points="133.78,70.24 149.28,77.86 147.71,78.62 132.21,71 			"/>
			<polygon class="st547" points="150.01,79.71 119.23,94.85 119.23,93.07 150.01,77.93 			"/>
			<polygon class="st548" points="132.23,71.04 147.78,78.72 146.24,79.48 132.21,72.54 			"/>
			<polyline class="st529" points="119.23,92.54 148.99,77.97 147.42,77.21 117.66,91.78 			"/>
			<polygon class="st549" points="149.45,77.66 118.69,92.83 119.25,93.1 150.01,77.93 			"/>
			<polygon class="st549" points="103.7,84.93 119.81,92.83 119.25,93.11 103.14,85.21 			"/>
			<polygon class="st549" points="133.91,70 150.01,77.9 149.45,78.17 133.35,70.28 			"/>
			<path class="st540" d="M138.94,108.65c0,2.67,0,4.84,0,4.84C138.95,113.49,138.95,111.32,138.94,108.65
				c0.01-2.67,0.01-4.84,0-4.84C138.95,103.82,138.94,105.98,138.94,108.65z"/>
			<polygon class="st129" points="136.38,113.7 127.36,108.59 141.94,101.47 150.96,106.58 			"/>
			<polygon class="st129" points="136.38,113.02 127.36,108.59 127.38,109.46 136.4,113.88 			"/>
			<polygon class="st129" points="136.38,113.7 150.96,106.58 150.95,106.77 136.4,113.88 			"/>
			<path class="st550" d="M136.42,105.42l0.95,0.47l-1.99,0.99l-0.95-0.47L136.42,105.42z M139.19,108.76l-0.95-0.47l1.99-0.99
				l0.95,0.47L139.19,108.76z M137.92,108.13l-0.95-0.47l1.99-0.99l0.95,0.47L137.92,108.13z M136.65,107.51l-0.95-0.47l1.99-0.99
				l0.95,0.47L136.65,107.51z M132.32,107.46l1.99-0.99l0.95,0.47l-1.99,0.99L132.32,107.46z M133.59,108.09l1.99-0.99l0.95,0.47
				l-1.99,0.99L133.59,108.09z M134.86,108.72l1.99-0.99l0.95,0.47l-1.99,0.99L134.86,108.72z M136.13,109.34l1.99-0.99l0.95,0.47
				l-1.99,0.99L136.13,109.34z M143.3,106.72l-1.99,0.99l-0.95-0.47l1.99-0.99L143.3,106.72z M142.03,106.09l-1.99,0.99l-0.95-0.47
				l1.99-0.99L142.03,106.09z M140.75,105.47l-1.99,0.99l-0.95-0.47l1.99-0.99L140.75,105.47z M139.48,104.84l-1.99,0.99l-0.95-0.47
				l1.99-0.99L139.48,104.84z"/>
			<line class="st73" x1="91.73" y1="66.08" x2="149.5" y2="37.77"/>
			<line class="st73" x1="118.87" y1="97.91" x2="164.93" y2="120.59"/>
		</g>
		<g>
			<rect x="109.43" y="130.92" class="st551" width="2.35" height="5.82"/>
			<rect x="109.43" y="130.92" class="st552" width="2.35" height="2.05"/>
			<g>
				<g>
					<path class="st553" d="M104.25,118.69v0.36c0,0,5.13-8.86,9.72-5.31l0.29-0.11C114.26,113.63,110.01,105.94,104.25,118.69z"/>
					<path class="st554" d="M110.53,110.89c-4.28,0-7.25,7-7.25,12.83c0,5.83,2.97,7.68,7.25,7.68c4.28,0,7.39-1.99,7.39-7.82
						C117.92,117.75,114.81,110.89,110.53,110.89z M113.97,113.74c-4.59-3.55-9.72,5.31-9.72,5.31v-0.36
						c5.76-12.75,10.01-5.06,10.01-5.06L113.97,113.74z"/>
				</g>
				<path class="st555" d="M117.28,127.17c0,0-5.96,5.1-12.63,1.5c0,0,7.39,5.88,12.63-1.36"/>
			</g>
		</g>
		<g>
			<rect x="184.05" y="96.17" class="st551" width="2.35" height="5.82"/>
			<rect x="184.05" y="96.17" class="st552" width="2.35" height="2.05"/>
			<g>
				<g>
					<path class="st553" d="M178.88,83.94v0.36c0,0,5.13-8.86,9.72-5.31l0.29-0.11C188.89,78.88,184.64,71.19,178.88,83.94z"/>
					<path class="st554" d="M185.16,76.14c-4.28,0-7.25,7-7.25,12.82c0,5.83,2.97,7.68,7.25,7.68c4.28,0,7.39-2,7.39-7.82
						C192.55,83,189.44,76.14,185.16,76.14z M188.6,78.99c-4.59-3.55-9.72,5.31-9.72,5.31v-0.36c5.76-12.75,10.01-5.06,10.01-5.06
						L188.6,78.99z"/>
				</g>
				<path class="st555" d="M191.9,92.42c0,0-5.96,5.1-12.63,1.5c0,0,7.39,5.88,12.63-1.36"/>
			</g>
		</g>
	</g>
</g>
</svg>
