<?xml version="1.0" encoding="utf-8"?>
<!-- Generator: Adobe Illustrator 23.0.1, SVG Export Plug-In . SVG Version: 6.00 Build 0)  -->
<svg version="1.1" xmlns="http://www.w3.org/2000/svg" xmlns:xlink="http://www.w3.org/1999/xlink" x="0px" y="0px"
	 viewBox="0 0 311.81 354.33" style="enable-background:new 0 0 311.81 354.33;" xml:space="preserve">
<style type="text/css">
	.st0{fill:#F4C766;}
	.st1{fill:#955260;}
	.st2{fill:#77393D;}
	.st3{fill:#544A4F;}
	.st4{fill:#FBEBE8;}
	.st5{fill:#BD9DA0;}
	.st6{fill:#B18A8D;}
	.st7{fill:#3A4450;}
	.st8{fill:#8C6C6F;}
	.st9{fill:#A8ADB6;}
	.st10{fill:#BC6069;}
	.st11{fill:#A25963;}
	.st12{fill:#C7ADB0;}
	.st13{fill:#DED0C0;}
	.st14{fill:#A77E84;}
	.st15{fill:#624E52;}
	.st16{fill:#766569;}
	.st17{fill:#8C6A70;}
	.st18{fill:#AA888D;}
	.st19{fill:#745E62;}
	.st20{fill:#B79CA1;}
	.st21{fill:#5B4548;}
	.st22{fill:#74565A;}
	.st23{fill:#7A5B5F;}
	.st24{fill:#734953;}
	.st25{fill:#9F6A78;}
	.st26{fill:#704F5A;}
	.st27{fill:#875A64;}
	.st28{fill:#AA6974;}
	.st29{fill:#DABEC3;}
	.st30{fill:#E9E6E6;}
	.st31{fill:#AC5E6B;}
	.st32{fill:#6A3D44;}
	.st33{fill:#18ABA1;}
	.st34{clip-path:url(#SVGID_2_);}
	.st35{fill:#EACFAA;}
	.st36{fill:#E3C595;}
	.st37{fill:#FADEC4;}
	.st38{fill:#F0DCC0;}
	.st39{clip-path:url(#SVGID_2_);fill:#F0DCC0;}
	.st40{clip-path:url(#SVGID_2_);fill:#A18865;}
	.st41{fill:#CEA871;}
	.st42{fill:#ECD4B0;}
	.st43{clip-path:url(#SVGID_2_);fill:#85B5AC;}
	.st44{fill:#748F3E;}
	.st45{fill:#567132;}
	.st46{fill:#9A5B25;}
	.st47{fill:#40592B;}
	.st48{fill:#734521;}
	.st49{fill:#493919;}
	.st50{fill:#715927;}
	.st51{fill:#385D31;}
	.st52{fill:#9BB051;}
	.st53{fill:#2A4E28;}
	.st54{fill:#7FA340;}
	.st55{fill:#243D1E;}
	.st56{fill:#AFBA65;}
	.st57{fill:#668E3F;}
	.st58{fill:#ADB9C1;}
	.st59{fill:#8A959A;}
	.st60{fill:#616A6D;}
	.st61{fill:#75B05E;}
	.st62{fill:#BCCA45;}
	.st63{fill:#AAAF31;}
	.st64{fill:#909029;}
	.st65{fill:#DF5F45;}
	.st66{fill:none;stroke:#FFFFFF;stroke-miterlimit:10;}
	.st67{fill:#AF624C;}
	.st68{fill:#DA8A64;}
	.st69{fill:#D9A13F;}
	.st70{fill:#EDB94C;}
	.st71{fill:#8B4953;}
	.st72{fill:#CB7B58;}
	.st73{fill:none;}
	.st74{fill:#E9AC4E;}
	.st75{fill:#B29794;}
	.st76{opacity:0.5;fill:#8A6139;}
	.st77{fill:#D7D2BE;}
	.st78{fill:#CBBCB5;}
	.st79{fill:#B39A95;}
	.st80{fill:#F7F3E6;}
	.st81{fill:#F2EADC;}
	.st82{fill:#3B232B;}
	.st83{fill:#5D3C44;}
	.st84{fill:#D5D4C4;}
	.st85{fill:#F1F2DD;}
	.st86{fill:#62474D;}
	.st87{fill:#A49088;}
	.st88{fill:#E8F3E1;}
	.st89{fill:#AF9590;}
	.st90{fill:#D8C8BE;}
	.st91{fill:#F5EFDF;}
	.st92{fill:#F1EBDD;}
	.st93{fill:#F0E3DC;}
	.st94{fill:none;stroke:#F5EFDF;stroke-width:0.5;stroke-miterlimit:10;}
	.st95{fill:#E9AC4E;stroke:#FFFFFF;stroke-width:0.5;stroke-miterlimit:10;}
	.st96{fill:none;stroke:#F2EADC;stroke-miterlimit:10;}
	.st97{opacity:0.8;fill:#99D3C8;}
	.st98{fill:#FAEDD7;}
	.st99{fill:#E9D3A4;}
	.st100{fill:#887853;}
	.st101{opacity:0.6;fill:#99D3C8;}
	.st102{clip-path:url(#SVGID_2_);fill:#ADB9C1;}
	.st103{clip-path:url(#SVGID_2_);fill:#B1B85D;}
	.st104{fill:#C7AC7E;}
	.st105{fill:#F7DFB6;}
	.st106{fill:#DA8B6C;}
	.st107{fill:#EED7B6;}
	.st108{fill:#352D31;}
	.st109{fill:#E5CAA8;}
	.st110{fill:#211B27;}
	.st111{fill:#0E0205;}
	.st112{fill:#C8A57C;}
	.st113{fill:#181432;}
	.st114{fill:#192016;}
	.st115{fill:#2A222E;}
	.st116{fill:#131212;}
	.st117{fill:#383236;}
	.st118{fill:#443A38;}
	.st119{fill:#F6D9B7;}
	.st120{fill:#151313;}
	.st121{fill:#D98A73;}
	.st122{fill:#8E4329;}
	.st123{fill:#F5C620;}
	.st124{fill:#ED8916;}
	.st125{fill:#C97315;}
	.st126{fill:#891C21;}
	.st127{fill:#C8C4BE;}
	.st128{fill:#D9D3CE;}
	.st129{fill:#FFFFFF;}
	.st130{fill:#F0EFEF;}
	.st131{fill:#F1AB40;}
	.st132{fill:#DA8F2D;}
	.st133{fill:#856727;}
	.st134{clip-path:url(#SVGID_2_);fill:#8A959A;}
	.st135{clip-path:url(#SVGID_2_);fill:#9A5B25;}
	.st136{fill:#D2A671;}
	.st137{fill:#CA8F6B;}
	.st138{fill:#AB6F4C;}
	.st139{fill:#D9A086;}
	.st140{fill:#A18376;}
	.st141{clip-path:url(#SVGID_2_);fill:#929441;}
	.st142{clip-path:url(#SVGID_2_);fill:#CA8F6B;}
	.st143{clip-path:url(#SVGID_2_);fill:#FAD3A4;}
	.st144{clip-path:url(#SVGID_2_);fill:#D9A086;}
	.st145{clip-path:url(#SVGID_2_);fill:#D2A671;}
	.st146{clip-path:url(#SVGID_2_);fill:#AB6F4C;}
	.st147{clip-path:url(#SVGID_2_);fill:#616A6D;}
	.st148{clip-path:url(#SVGID_2_);fill:#734521;}
	.st149{fill:#014A63;}
	.st150{fill:#2683AD;}
	.st151{fill:#09698D;}
	.st152{fill:#0C6396;}
	.st153{fill:#0C6BB0;}
	.st154{fill:#DCE78D;}
	.st155{fill:#B1B85D;}
	.st156{fill:#70712D;}
	.st157{fill:#FAD3A4;}
	.st158{fill:#929441;}
	.st159{fill:#547D55;}
	.st160{fill:#689755;}
	.st161{fill:#999791;}
	.st162{fill:#5A5D5A;}
	.st163{fill:#727271;}
	.st164{fill:#EDBA61;}
	.st165{fill:#E3A43C;}
	.st166{fill:#E2921A;}
	.st167{fill:#A8B2DA;}
	.st168{fill:#DCDFF0;}
	.st169{fill:#3E73B9;}
	.st170{fill:#5281C2;}
	.st171{fill:#838FB2;}
	.st172{fill:#9DA8C4;}
	.st173{fill:#F8CA81;}
	.st174{fill:#540A10;}
	.st175{fill:#64231C;}
	.st176{fill:#B92E21;}
	.st177{fill:#861B20;}
	.st178{fill:#103672;}
	.st179{fill:#D8A417;}
	.st180{fill:#F5B719;}
	.st181{fill:#D8A415;}
	.st182{fill:#BB8818;}
	.st183{fill:#F1B86D;}
	.st184{fill:#D29A56;}
	.st185{fill:#219CD9;}
	.st186{fill:#F9DBC0;}
	.st187{fill:#E0B8A4;}
	.st188{fill:#BC8B76;}
	.st189{fill:#E9C8AD;}
	.st190{fill:#6D3D30;}
	.st191{fill:#B48F76;}
	.st192{fill:#76594A;}
	.st193{fill:#C8A68C;}
	.st194{fill:#A78269;}
	.st195{fill:#7E634E;}
	.st196{fill:#CFA88B;}
	.st197{fill:#493223;}
	.st198{fill:#997967;}
	.st199{fill:#E6C6AA;}
	.st200{fill:#C3A38B;}
	.st201{fill:#C3A18A;}
	.st202{fill:#6C5244;}
	.st203{fill:#74C0B3;}
	.st204{fill:#895140;}
	.st205{fill:#AB715C;}
	.st206{fill:#AE7E6C;}
	.st207{fill:#CAA392;}
	.st208{fill:#654237;}
	.st209{fill:#BE9C80;}
	.st210{fill:#7A534A;}
	.st211{fill:#884D3F;}
	.st212{fill:#85AA39;}
	.st213{fill:#6A8B32;}
	.st214{fill:#9BBA58;}
	.st215{fill:#5D7F34;}
	.st216{fill:#4C6830;}
	.st217{fill:#3C5C2D;}
	.st218{fill:#304E27;}
	.st219{fill:#557232;}
	.st220{fill:#49652F;}
	.st221{fill:#5F8434;}
	.st222{fill:#6C9F30;}
	.st223{fill:#BF9457;}
	.st224{fill:#8F6225;}
	.st225{fill:#AB7C30;}
	.st226{fill:#79583F;}
	.st227{fill:#28100B;}
	.st228{fill:#23100D;}
	.st229{opacity:0.6;fill:#219CD9;}
	.st230{fill:#CBE8F0;}
	.st231{fill:#87CFE9;}
	.st232{fill:#A7DAE9;}
	.st233{clip-path:url(#SVGID_4_);}
	.st234{clip-path:url(#SVGID_2_);fill:#70712D;}
	.st235{clip-path:url(#SVGID_2_);fill:none;}
	.st236{fill:#D4DB6E;}
	.st237{fill:#9F9F49;}
	.st238{fill:#BCBE5D;}
	.st239{fill:#D3C2A4;}
	.st240{fill:#C3BEAD;}
	.st241{fill:#E8D7C2;}
	.st242{fill:#878577;}
	.st243{fill:#DCD8CB;}
	.st244{fill:#F1EEE8;}
	.st245{fill:#1A3F61;}
	.st246{fill:#163955;}
	.st247{fill:#123048;}
	.st248{fill:#25567E;}
	.st249{fill:#D0C8B9;}
	.st250{fill:#FCEDDE;}
	.st251{fill:#FEF3EA;}
	.st252{fill:#082332;}
	.st253{fill:#F8EEE4;}
	.st254{fill:#C2AB93;}
	.st255{fill:#D2BFB3;}
	.st256{fill:#B17441;}
	.st257{fill:none;stroke:#73502D;stroke-width:0.2;stroke-miterlimit:10;}
	.st258{fill:none;stroke:#73502D;stroke-width:0.15;stroke-miterlimit:10;}
	.st259{fill:#FCECE1;}
	.st260{fill:#C2AF9A;}
	.st261{fill:#918781;}
	.st262{fill:#6D6E72;}
	.st263{fill:#FFFAEF;}
	.st264{fill:#E2DFD8;}
	.st265{fill:#53555B;}
	.st266{fill:#336D94;}
	.st267{fill:#F2F09E;}
	.st268{fill:#BEB954;}
	.st269{fill:#D4CE7A;}
	.st270{fill:#DCA570;}
	.st271{fill:#955C34;}
	.st272{fill:#BC8152;}
	.st273{fill:#72351C;}
	.st274{fill:#904B23;}
	.st275{fill:#8E694D;}
	.st276{fill:#85C35E;}
	.st277{fill:#709430;}
	.st278{fill:#5F432F;}
	.st279{fill:#B4CF4D;}
	.st280{fill:#CBDC50;}
	.st281{fill:#EFB99F;}
	.st282{fill:#BA4458;}
	.st283{fill:#4C515A;}
	.st284{fill:#075A7C;}
	.st285{fill:#3A97AE;}
	.st286{fill:#E8A78C;}
	.st287{fill:#F1BA9F;}
	.st288{fill:#9C1E2C;}
	.st289{fill:#452C25;}
	.st290{fill:#E45438;}
	.st291{fill:#C4361E;}
	.st292{fill:#E3F2F1;}
	.st293{fill:#D5ECEA;}
	.st294{fill:#BCE1DB;}
	.st295{fill:#F2F9FA;}
	.st296{fill:#62B0A0;}
	.st297{fill:#72C4B3;}
	.st298{fill:#B7DDDA;}
	.st299{fill:#E14947;}
	.st300{fill:#BDC64F;}
	.st301{fill:#EEDA98;}
	.st302{fill:#D09E23;}
	.st303{fill:#EDBB30;}
	.st304{fill:#46B9A8;}
	.st305{fill:#2AA390;}
	.st306{fill:#E8D0CC;}
	.st307{fill:#ED7016;}
	.st308{fill:#933030;}
	.st309{fill:#539835;}
	.st310{fill:#6C4D37;}
	.st311{fill:#E8AEB9;}
	.st312{fill:#D61D2B;}
	.st313{fill:#18708D;}
	.st314{fill:#67A2A1;}
	.st315{fill:#7FBFBC;}
	.st316{fill:#825D41;}
	.st317{fill:#9A6542;}
	.st318{fill:#60B1D5;}
	.st319{fill:#7CCBE7;}
	.st320{fill:#749936;}
	.st321{fill:#96BE53;}
	.st322{fill:#7FA742;}
	.st323{fill:#AAC96A;}
	.st324{fill:#B57F59;}
	.st325{fill:#AB744E;}
	.st326{fill:#DDA137;}
	.st327{fill:#E7B64E;}
	.st328{fill:#C38A63;}
	.st329{fill:#93C67D;}
	.st330{fill:#425A5F;}
	.st331{fill:#617D80;}
	.st332{fill:#73A961;}
	.st333{fill:#C12A1F;}
	.st334{fill:#D8452B;}
	.st335{fill:#4C675E;}
	.st336{fill:#89664B;}
	.st337{fill:#E15513;}
	.st338{fill:#88D0ED;}
	.st339{fill:#D2B6D7;}
	.st340{fill:#804999;}
	.st341{fill:#5A6A99;}
	.st342{fill:#4C5A89;}
	.st343{fill:#D8A641;}
	.st344{fill:#E8C127;}
	.st345{fill:#EFCA32;}
	.st346{fill-rule:evenodd;clip-rule:evenodd;fill:#2F93C7;}
	.st347{fill-rule:evenodd;clip-rule:evenodd;fill:#15323F;}
	.st348{fill-rule:evenodd;clip-rule:evenodd;fill:#092745;}
	.st349{fill-rule:evenodd;clip-rule:evenodd;fill:#0A335A;}
	.st350{fill-rule:evenodd;clip-rule:evenodd;fill:#E9BC7B;}
	.st351{fill-rule:evenodd;clip-rule:evenodd;fill:#227AA7;}
	.st352{fill-rule:evenodd;clip-rule:evenodd;fill:#1684B9;}
	.st353{fill-rule:evenodd;clip-rule:evenodd;fill:#FAD8A5;}
	.st354{fill-rule:evenodd;clip-rule:evenodd;fill:#321306;}
	.st355{fill-rule:evenodd;clip-rule:evenodd;fill:#1C95CF;}
	.st356{fill-rule:evenodd;clip-rule:evenodd;fill:#11868E;}
	.st357{fill-rule:evenodd;clip-rule:evenodd;fill:#28B4B3;}
	.st358{fill-rule:evenodd;clip-rule:evenodd;fill:#030912;}
	.st359{fill-rule:evenodd;clip-rule:evenodd;fill:#021A2F;}
	.st360{fill-rule:evenodd;clip-rule:evenodd;fill:#1D1D1F;}
	.st361{fill-rule:evenodd;clip-rule:evenodd;fill:#46BDCC;}
	.st362{fill-rule:evenodd;clip-rule:evenodd;fill:#C1A76A;}
	.st363{fill-rule:evenodd;clip-rule:evenodd;fill:#A08857;}
	.st364{fill-rule:evenodd;clip-rule:evenodd;fill:#D9BE7D;}
	.st365{fill-rule:evenodd;clip-rule:evenodd;fill:#A7905F;}
	.st366{fill-rule:evenodd;clip-rule:evenodd;fill:#CBB174;}
	.st367{fill-rule:evenodd;clip-rule:evenodd;fill:#823F34;}
	.st368{fill-rule:evenodd;clip-rule:evenodd;fill:#F5A22C;}
	.st369{fill-rule:evenodd;clip-rule:evenodd;fill:#F6B758;}
	.st370{fill-rule:evenodd;clip-rule:evenodd;fill:#7C4A36;}
	.st371{fill-rule:evenodd;clip-rule:evenodd;fill:#583424;}
	.st372{fill-rule:evenodd;clip-rule:evenodd;fill:#8F563A;}
	.st373{fill-rule:evenodd;clip-rule:evenodd;fill:#456530;}
	.st374{fill-rule:evenodd;clip-rule:evenodd;fill:#749D3D;}
	.st375{fill-rule:evenodd;clip-rule:evenodd;fill:#5F8834;}
	.st376{fill-rule:evenodd;clip-rule:evenodd;fill:#EB5A19;}
	.st377{fill-rule:evenodd;clip-rule:evenodd;fill:#ED6C1C;}
	.st378{fill-rule:evenodd;clip-rule:evenodd;fill:#34963C;}
	.st379{fill-rule:evenodd;clip-rule:evenodd;fill:#49B053;}
	.st380{fill-rule:evenodd;clip-rule:evenodd;fill:#3B3232;}
	.st381{fill-rule:evenodd;clip-rule:evenodd;fill:#A7C7E2;}
	.st382{fill-rule:evenodd;clip-rule:evenodd;fill:#C4DBEE;}
	.st383{fill-rule:evenodd;clip-rule:evenodd;fill:#1B3346;}
	.st384{fill-rule:evenodd;clip-rule:evenodd;fill:#365975;}
	.st385{fill-rule:evenodd;clip-rule:evenodd;fill:#224058;}
	.st386{fill-rule:evenodd;clip-rule:evenodd;fill:#416787;}
	.st387{fill-rule:evenodd;clip-rule:evenodd;fill:#040000;}
	.st388{fill-rule:evenodd;clip-rule:evenodd;fill:#D7EAF8;}
	.st389{fill-rule:evenodd;clip-rule:evenodd;fill:#111111;}
	.st390{fill-rule:evenodd;clip-rule:evenodd;fill:#2E2C2C;}
	.st391{fill-rule:evenodd;clip-rule:evenodd;fill:#3B3939;}
	.st392{fill:#72A1A4;}
	.st393{fill:#95BDC4;}
	.st394{fill:#C3E0E6;}
	.st395{opacity:0.53;fill:#403532;}
	.st396{fill:#E7EAF2;}
	.st397{fill:#A0AAB5;}
	.st398{fill:#B7BFC8;}
	.st399{fill:#434549;}
	.st400{fill:#AA7960;}
	.st401{fill:#CDD2DA;}
	.st402{fill:#205789;}
	.st403{fill:#BDC4CB;}
	.st404{fill:#C8CFD7;}
	.st405{fill:#AEBCCB;}
	.st406{fill:#99A2AD;}
	.st407{fill:#94A2C0;}
	.st408{fill:#B2BCD3;}
	.st409{fill:#CACFD6;}
	.st410{fill:#D3D7DF;}
	.st411{fill:#A5AFC5;}
	.st412{fill:#6A768B;}
	.st413{fill:#C78618;}
	.st414{fill:#82A92D;}
	.st415{fill:#627A31;}
	.st416{fill:#77962E;}
	.st417{fill:#BFC5C2;}
	.st418{fill:#DFDACF;}
	.st419{fill:#F8F6E8;}
	.st420{fill:#858393;}
	.st421{fill:#B9B4AB;}
	.st422{fill:#EBE8DD;}
	.st423{fill:#9C9CA9;}
	.st424{fill:#9E5C2C;}
	.st425{fill:#5F3819;}
	.st426{fill:#959E26;}
	.st427{fill:#955A25;}
	.st428{fill:#727A2E;}
	.st429{fill:#724622;}
	.st430{fill:#DF673F;}
	.st431{fill:#C65021;}
	.st432{fill:#C0411F;}
	.st433{fill:#F1C980;}
	.st434{fill:#F1C980;stroke:#F1C980;stroke-miterlimit:10;}
	.st435{fill:#C5572E;}
	.st436{fill:#73BEC4;}
	.st437{fill:#F8F5F5;}
	.st438{fill:#070001;}
	.st439{fill:#852B21;}
	.st440{fill:#ECD590;}
	.st441{fill:#E8BF6F;}
	.st442{fill:#F7E2B6;}
	.st443{fill:none;stroke:#E38C2B;stroke-miterlimit:10;}
	.st444{fill:none;stroke:#40220E;stroke-miterlimit:10;}
	.st445{fill:#F1C980;stroke:#F1C980;stroke-width:0.4;stroke-miterlimit:10;}
	.st446{fill:none;stroke:#40220E;stroke-width:0.4;stroke-miterlimit:10;}
	.st447{fill:#F1C980;stroke:#F1C980;stroke-width:0.75;stroke-miterlimit:10;}
	.st448{fill:#862821;}
	.st449{fill:#993823;}
	.st450{fill:#5D3819;}
	.st451{fill:#7AAA4A;}
	.st452{fill:#699234;}
	.st453{fill:#6FA23B;}
	.st454{fill:#ACB9C1;}
	.st455{fill:#5F696D;}
	.st456{fill:#744622;}
	.st457{fill:#A84429;}
	.st458{fill:#D6CBB6;}
	.st459{fill:#BA5742;}
	.st460{fill:#9B512C;}
	.st461{fill:#B15A3F;}
	.st462{fill:#984C35;}
	.st463{fill:#C68459;}
	.st464{fill:#A25246;}
	.st465{fill:#A15139;}
	.st466{fill:#AC574A;}
	.st467{fill:#A66842;}
	.st468{fill:#9E553C;}
	.st469{fill:none;stroke:#E4007F;stroke-miterlimit:10;}
	.st470{fill:#DA7A5F;}
	.st471{fill:#BCAFA4;}
	.st472{fill:#BF6347;}
	.st473{fill:#E9E6C4;}
	.st474{fill:#C35132;}
	.st475{fill:#A29BA5;}
	.st476{fill:#EBDBD2;}
	.st477{fill:#BEB2B8;}
	.st478{fill:#D58C54;}
	.st479{fill:#DAAA64;}
	.st480{fill:#E4D587;}
	.st481{fill:#B78E66;}
	.st482{fill:#D39152;}
	.st483{fill:#212936;}
	.st484{fill:#1C1E3A;}
	.st485{fill:#3A426D;}
	.st486{fill:#202C4B;}
	.st487{fill:#343C74;}
	.st488{fill:#1B2C57;}
	.st489{fill:#1A234B;}
	.st490{fill:#3E3F63;}
	.st491{fill:#30397F;}
	.st492{fill:#444A7F;}
	.st493{fill:#223565;}
	.st494{fill:#705828;}
	.st495{fill:#9BB151;}
	.st496{fill:#D6BEB1;}
	.st497{fill:#3D3E3D;}
	.st498{fill:#AF9A88;}
	.st499{fill:#8E8C8B;}
	.st500{fill:#3D3E3D;stroke:#898989;stroke-width:0.5;stroke-miterlimit:10;}
	.st501{fill:none;stroke:#3C3D3C;stroke-width:0.5;stroke-miterlimit:10;}
	.st502{fill:#F1E8E3;}
	.st503{fill:#AD4028;}
	.st504{fill:#8F3E2F;}
	.st505{fill:#89959A;}
	.st506{fill:#8BA92A;}
	.st507{fill:#4E6C31;}
	.st508{fill:#B24222;}
	.st509{fill:#E8D9CB;}
	.st510{fill:#BD9687;}
	.st511{fill:#E26B4F;}
	.st512{fill:#DE5836;}
	.st513{fill:#C95539;}
	.st514{fill:#237293;stroke:#A37B51;stroke-width:0.8;stroke-miterlimit:10;}
	.st515{fill:none;stroke:#A37B51;stroke-width:0.8;stroke-miterlimit:10;}
	.st516{fill:#998277;}
	.st517{fill:#256E92;}
	.st518{fill:#A37B51;stroke:#A37B51;stroke-width:0.8;stroke-miterlimit:10;}
	.st519{fill:#237293;}
	.st520{fill:#B68B7B;}
	.st521{fill:#73695D;}
	.st522{fill:#5B873B;}
	.st523{fill:#88AD3D;}
	.st524{fill:#6D9B30;}
	.st525{fill:#E6E6E8;}
	.st526{fill:#D2D3D5;}
	.st527{fill:#A8A9AD;}
	.st528{fill:#BDBEBF;}
	.st529{fill:#EFF1F0;}
	.st530{fill:#E56F69;}
	.st531{fill:#E67364;}
	.st532{fill:#983530;}
	.st533{fill:#9E2F33;}
	.st534{fill:#E4483F;}
	.st535{fill:#0A6293;}
	.st536{fill:#90D1EB;}
	.st537{fill:#41B1D8;}
	.st538{fill:#3DA3D0;}
	.st539{fill:#1D8ACC;}
	.st540{fill:#678497;}
	.st541{fill:#557186;}
	.st542{fill:#E9E9E7;}
	.st543{fill:#333333;}
	.st544{fill:#D3D4D6;}
	.st545{fill:#567387;}
	.st546{fill:#0B6491;}
	.st547{fill:#248CCD;}
	.st548{fill:#C6C7C9;}
	.st549{fill:#449EBB;}
	.st550{fill:#D1D2D4;}
	.st551{fill:#BF8652;}
	.st552{fill:#A87746;}
	.st553{fill:#91C66F;}
	.st554{fill:#79BB5B;}
	.st555{fill:#6DAE4E;}
	.st556{fill:#AEACAC;}
	.st557{fill:#AEACAC;stroke:#7F8080;stroke-width:0.75;stroke-miterlimit:10;}
	.st558{fill:#858283;stroke:#7F8080;stroke-width:0.75;stroke-miterlimit:10;}
	.st559{fill:#858283;}
	.st560{fill:#69686A;}
	.st561{fill:#CECAC3;}
	.st562{fill:#E4E3E3;}
	.st563{fill:none;stroke:#858283;stroke-width:0.75;stroke-miterlimit:10;}
	.st564{fill:#323B3D;}
	.st565{fill:#D5D2D1;}
	.st566{fill:#D3D1D2;}
	.st567{fill:#FEFEFE;}
	.st568{fill:#F6F1F8;}
	.st569{fill:#6B899F;}
	.st570{fill:#4F4341;stroke:#D6CEC3;stroke-width:0.5;stroke-miterlimit:10;}
	.st571{fill:#655C5A;}
	.st572{fill-rule:evenodd;clip-rule:evenodd;fill:#DB2626;}
	.st573{fill-rule:evenodd;clip-rule:evenodd;fill:#C51727;}
	.st574{fill-rule:evenodd;clip-rule:evenodd;fill:#69686A;}
	.st575{fill-rule:evenodd;clip-rule:evenodd;fill:#424141;}
	.st576{fill-rule:evenodd;clip-rule:evenodd;fill:#B31D26;}
	.st577{fill-rule:evenodd;clip-rule:evenodd;fill:#E4E4E5;}
	.st578{fill-rule:evenodd;clip-rule:evenodd;fill:#AE1E29;}
	.st579{fill-rule:evenodd;clip-rule:evenodd;fill:#D1D1D1;}
	.st580{fill-rule:evenodd;clip-rule:evenodd;fill:#E24B4D;}
	.st581{fill-rule:evenodd;clip-rule:evenodd;fill:#284367;}
	.st582{fill-rule:evenodd;clip-rule:evenodd;fill:#4E6281;}
	.st583{fill-rule:evenodd;clip-rule:evenodd;fill:#8F1D26;}
	.st584{fill-rule:evenodd;clip-rule:evenodd;fill:#111223;}
	.st585{fill-rule:evenodd;clip-rule:evenodd;fill:#5A5759;}
	.st586{fill-rule:evenodd;clip-rule:evenodd;fill:#C2C3C3;}
	.st587{fill-rule:evenodd;clip-rule:evenodd;fill:#929397;}
	.st588{fill:#A3A4A6;}
	.st589{fill:#F7F7F7;}
	.st590{fill:#DCDDDF;}
	.st591{fill:#29394C;}
	.st592{fill:#999A9D;}
	.st593{fill:#DBDADA;}
	.st594{fill:#C3C4C6;}
	.st595{fill:#E4E4E3;}
	.st596{fill:#E5E3E4;}
	.st597{fill:#025081;}
	.st598{fill:#02568B;}
	.st599{fill:#1266A4;}
	.st600{fill:#C0C0C2;}
	.st601{fill:#397095;}
	.st602{clip-path:url(#SVGID_2_);fill:#9B7949;}
	.st603{opacity:0.6;clip-path:url(#SVGID_2_);fill:#99D3C8;}
	.st604{clip-path:url(#SVGID_2_);fill:#EACFAA;}
	.st605{clip-path:url(#SVGID_2_);fill:#E3C595;}
	.st606{clip-path:url(#SVGID_2_);fill:#FADEC4;}
	.st607{fill:#DBCFBF;}
	.st608{fill:#FFF9F2;}
	.st609{fill:#4E4D4D;}
	.st610{fill:#3A3938;}
	.st611{fill:#424241;}
	.st612{fill:#E7DED5;}
	.st613{fill:#ECE6E1;}
	.st614{fill:#D5D0CB;}
	.st615{fill:#A18865;}
	.st616{fill:#85B5AC;}
	.st617{clip-path:url(#SVGID_6_);}
	.st618{fill:#9B7949;}
	.st619{fill:#3E3A39;}
	.st620{opacity:0.3;}
	.st621{fill:#D6D6D6;}
	.st622{fill:#ACABAB;}
	.st623{fill:#D6D6D6;stroke:#D6D6D6;stroke-width:4;stroke-miterlimit:10;}
	.st624{fill:#F1F1F1;}
	.st625{fill:none;stroke:#FFFFFF;stroke-linecap:round;stroke-miterlimit:10;}
	.st626{fill:#1B1C1B;}
	.st627{fill:none;stroke:#F1F1F1;stroke-width:2;stroke-miterlimit:10;}
	.st628{fill:#2E2E2E;}
	.st629{fill:none;stroke:#F1F1F1;stroke-width:2;stroke-linecap:round;stroke-linejoin:round;stroke-miterlimit:10;}
	.st630{fill:#161717;}
	.st631{fill:#040000;}
	.st632{fill:#492743;}
	.st633{opacity:0.05;fill:none;stroke:#FFFFFF;stroke-width:0.5;stroke-miterlimit:10;}
	.st634{fill:#30393C;}
	.st635{fill:#AAD6AB;}
	.st636{fill:url(#SVGID_7_);}
	.st637{fill:url(#SVGID_8_);}
	.st638{fill:url(#SVGID_9_);}
	.st639{fill:url(#SVGID_10_);}
	.st640{fill:url(#SVGID_11_);}
	.st641{fill:url(#SVGID_12_);}
	.st642{fill:url(#SVGID_13_);}
	.st643{fill:url(#SVGID_14_);}
	.st644{fill:url(#SVGID_15_);}
	.st645{fill:url(#SVGID_16_);}
	.st646{fill:#D8E3B8;}
	.st647{fill:#F4C324;}
	.st648{clip-path:url(#SVGID_30_);}
	.st649{fill:url(#SVGID_31_);}
	.st650{fill:url(#SVGID_32_);}
	.st651{fill:url(#SVGID_33_);}
	.st652{fill:url(#SVGID_34_);}
	.st653{fill:url(#SVGID_35_);}
	.st654{fill:url(#SVGID_36_);}
	.st655{fill:url(#SVGID_37_);}
	.st656{fill:url(#SVGID_38_);}
	.st657{fill:url(#SVGID_39_);}
	.st658{fill:url(#SVGID_40_);}
	.st659{fill:url(#SVGID_41_);}
	.st660{fill:url(#SVGID_42_);}
	.st661{fill:url(#SVGID_43_);}
	.st662{fill:url(#SVGID_44_);}
	.st663{fill:url(#SVGID_45_);}
	.st664{fill:url(#SVGID_46_);}
	.st665{fill:url(#SVGID_47_);}
	.st666{fill:url(#SVGID_48_);}
	.st667{fill:url(#SVGID_49_);}
	.st668{fill:url(#SVGID_50_);}
</style>
<g id="圖層_1">
</g>
<g id="圖層_2">
	<g>
		<g>
			<polygon class="st58" points="201.43,186.43 110.38,231 201.43,275.65 292.48,231 			"/>
			<polygon class="st59" points="292.48,243.56 292.48,231.04 201.43,275.68 201.43,288.21 			"/>
			<polygon class="st46" points="292.48,243.56 292.48,237.3 201.43,281.95 201.43,288.21 			"/>
			<polygon class="st60" points="110.38,243.56 110.38,231.04 201.43,275.68 201.43,288.21 			"/>
			<polygon class="st48" points="110.38,243.56 110.38,237.3 201.43,281.95 201.43,288.21 			"/>
		</g>
		<g>
			<polygon class="st58" points="110.38,231.06 19.33,275.64 110.38,320.28 201.43,275.64 			"/>
			<polygon class="st59" points="201.43,288.2 201.43,275.67 110.38,320.32 110.38,332.84 			"/>
			<polygon class="st46" points="201.43,288.2 201.43,281.94 110.38,326.58 110.38,332.84 			"/>
			<polygon class="st60" points="19.33,288.2 19.33,275.67 110.38,320.32 110.38,332.84 			"/>
			<polygon class="st48" points="19.33,288.2 19.33,281.94 110.38,326.58 110.38,332.84 			"/>
		</g>
		<g>
			<g>
				<polygon class="st392" points="31.15,272.9 31.15,275.67 110.38,314.52 110.38,311.74 				"/>
				<polygon class="st393" points="110.38,314.52 110.38,311.74 280.66,228.26 280.66,231.04 				"/>
				<polygon class="st394" points="31.15,272.9 201.43,189.44 280.66,228.26 110.38,311.74 				"/>
			</g>
			<g>
				<polygon class="st395" points="44.61,270.04 142.67,221.71 212.28,255.82 114.22,304.17 				"/>
				<polygon class="st396" points="143.69,183.19 183.69,163.56 211.26,177.07 171.27,196.71 				"/>
				<polygon class="st397" points="114.22,268.29 114.22,265.85 211.74,218.06 211.74,220.5 				"/>
				<polygon class="st398" points="44.61,231.72 44.61,270.04 94.68,294.59 94.68,256.27 				"/>
				<polygon class="st397" points="44.61,231.72 44.61,238.17 114.22,272.3 114.22,265.85 				"/>
				<polygon class="st399" points="44.99,231.89 44.99,236.49 46.32,237.14 46.32,232.54 				"/>
				<polygon class="st399" points="47.81,233.28 47.81,237.88 49.15,238.53 49.15,233.93 				"/>
				<polygon class="st399" points="50.28,234.5 50.28,239.12 51.63,239.78 51.63,235.15 				"/>
				<polygon class="st399" points="53.12,235.89 53.12,240.51 54.46,241.17 54.46,236.54 				"/>
				<polygon class="st399" points="55.96,237.28 55.96,241.91 57.3,242.56 57.3,237.93 				"/>
				<polygon class="st399" points="58.8,238.67 58.8,243.3 60.14,243.95 60.14,239.32 				"/>
				<polygon class="st399" points="61.64,240.06 61.64,244.69 62.98,245.34 62.98,240.71 				"/>
				<polygon class="st399" points="64.48,241.45 64.48,246.08 65.82,246.73 65.82,242.11 				"/>
				<polygon class="st399" points="67.31,242.84 67.31,247.47 68.65,248.12 68.65,243.5 				"/>
				<polygon class="st399" points="70.15,244.23 70.15,248.86 71.49,249.51 71.49,244.89 				"/>
				<polygon class="st399" points="72.99,245.62 72.99,250.25 74.33,250.9 74.33,246.28 				"/>
				<polygon class="st399" points="75.83,247.01 75.83,251.64 77.17,252.3 77.17,247.67 				"/>
				<polygon class="st399" points="78.67,248.4 78.67,253.03 80.01,253.69 80.01,249.06 				"/>
				<polygon class="st399" points="81.5,249.8 81.5,254.42 82.84,255.08 82.84,250.45 				"/>
				<polygon class="st399" points="84.34,251.19 84.34,255.81 85.68,256.47 85.68,251.84 				"/>
				<polygon class="st399" points="87.18,252.58 87.18,257.2 88.52,257.86 88.52,253.23 				"/>
				<polygon class="st399" points="90.02,253.97 90.02,258.59 91.36,259.25 91.36,254.62 				"/>
				<polygon class="st399" points="92.86,255.36 92.86,259.99 94.2,260.64 94.2,256.01 				"/>
				<polygon class="st399" points="95.69,256.75 95.69,261.38 97.04,262.03 97.04,257.4 				"/>
				<polygon class="st399" points="98.53,258.14 98.53,262.77 99.87,263.42 99.87,258.79 				"/>
				<polygon class="st399" points="101.37,259.53 101.37,264.16 102.71,264.81 102.71,260.19 				"/>
				<polygon class="st399" points="104.21,260.92 104.21,265.55 105.55,266.2 105.55,261.58 				"/>
				<polygon class="st399" points="107.05,262.31 107.05,266.94 108.39,267.59 108.39,262.97 				"/>
				<polygon class="st399" points="109.89,263.7 109.89,268.33 111.23,268.98 111.23,264.36 				"/>
				<polygon class="st399" points="112.72,265.09 112.72,269.72 114.06,270.38 114.06,265.75 				"/>
				<polygon class="st398" points="114.22,290.04 114.22,272.3 94.68,262.72 94.68,280.12 				"/>
				<ellipse class="st400" cx="114.22" cy="264.67" rx="2.07" ry="1.11"/>
				<polygon class="st401" points="114.14,267.95 113.98,290.45 209.15,244.18 209.31,221.71 				"/>
				<polygon class="st401" points="116.57,223.6 116.57,259.12 211.34,212.66 211.34,177.16 				"/>
				<polygon class="st402" points="114.22,276.19 114.22,271.29 211.74,223.5 211.74,228.4 				"/>
				<polygon class="st402" points="114.22,289.76 114.22,287.6 211.74,239.81 211.74,241.98 				"/>
				<g>
					<path class="st403" d="M114.22,301.34c-1.14,0-2.07,0.5-2.07,1.11c0,0.61,0.93,1.11,2.07,1.11s2.07-0.5,2.07-1.11
						C116.29,301.83,115.37,301.34,114.22,301.34z"/>
					<g>
						<rect x="112.15" y="264.67" class="st403" width="4.14" height="37.78"/>
						<g>
							<path class="st403" d="M138.05,289.71c-1.14,0-2.07,0.5-2.07,1.11c0,0.61,0.93,1.11,2.07,1.11c1.14,0,2.07-0.5,2.07-1.11
								C140.13,290.2,139.2,289.71,138.05,289.71z"/>
							<rect x="135.98" y="253.04" class="st403" width="4.14" height="37.78"/>
						</g>
						<g>
							<path class="st403" d="M161.88,278.08c-1.14,0-2.07,0.5-2.07,1.11c0,0.61,0.93,1.11,2.07,1.11c1.14,0,2.07-0.5,2.07-1.11
								C163.96,278.58,163.03,278.08,161.88,278.08z"/>
							<rect x="159.81" y="241.41" class="st403" width="4.14" height="37.78"/>
						</g>
						<g>
							<path class="st403" d="M185.71,266.45c-1.14,0-2.07,0.5-2.07,1.11c0,0.61,0.93,1.11,2.07,1.11c1.14,0,2.07-0.5,2.07-1.11
								C187.79,266.95,186.86,266.45,185.71,266.45z"/>
							<rect x="183.64" y="229.78" class="st403" width="4.14" height="37.78"/>
						</g>
						<g>
							<path class="st403" d="M209.55,254.82c-1.14,0-2.07,0.5-2.07,1.11c0,0.61,0.93,1.11,2.07,1.11c1.14,0,2.07-0.5,2.07-1.11
								C211.62,255.32,210.69,254.82,209.55,254.82z"/>
							<rect x="207.47" y="218.15" class="st403" width="4.14" height="37.78"/>
						</g>
					</g>
				</g>
				<polygon class="st396" points="44.61,231.72 142.13,183.96 211.74,218.06 114.22,265.85 				"/>
				<polygon class="st404" points="51.54,231.72 142.12,187.35 142.12,190.43 54.73,233.28 				"/>
				<polygon class="st405" points="204.36,217.85 142.12,187.35 142.12,190.43 142.57,190.63 201.68,219.6 204.81,218.05 				"/>
				<polygon class="st406" points="94.68,294.59 109.3,287.54 94.68,280.12 				"/>
				<path class="st73" d="M190.57,171.04c0.06-0.22,0.11-0.43,0.15-0.65C190.68,170.61,190.63,170.83,190.57,171.04z"/>
				<path class="st73" d="M190.8,170.01c0.04-0.23,0.07-0.47,0.1-0.7C190.87,169.55,190.84,169.78,190.8,170.01z"/>
				<path class="st73" d="M190.24,172.09c0.08-0.22,0.16-0.45,0.22-0.67C190.4,171.64,190.32,171.87,190.24,172.09z"/>
				<path class="st73" d="M187.96,176.18c0.13-0.17,0.26-0.34,0.38-0.51C188.22,175.84,188.09,176.01,187.96,176.18z"/>
				<path class="st73" d="M188.62,175.26c0.13-0.19,0.24-0.38,0.36-0.57C188.87,174.89,188.75,175.08,188.62,175.26z"/>
				<path class="st73" d="M187.22,177.09c0.14-0.17,0.29-0.33,0.42-0.5C187.51,176.76,187.37,176.92,187.22,177.09z"/>
				<path class="st73" d="M190.99,167.95c0,0.35-0.02,0.69-0.05,1.04C190.97,168.64,190.99,168.29,190.99,167.95z"/>
				<path class="st73" d="M189.71,173.38c0.15-0.32,0.29-0.64,0.42-0.96C190,172.74,189.86,173.06,189.71,173.38z"/>
				<path class="st73" d="M189.2,174.33c0.15-0.26,0.29-0.52,0.42-0.79C189.49,173.81,189.35,174.07,189.2,174.33z"/>
				<path class="st407" d="M186.88,177.48c0.12-0.13,0.23-0.26,0.35-0.4C187.11,177.22,187,177.35,186.88,177.48z"/>
				<path class="st407" d="M187.64,176.59c0.11-0.14,0.21-0.27,0.32-0.41C187.86,176.32,187.75,176.45,187.64,176.59z"/>
				<path class="st407" d="M190.12,172.42c0.04-0.11,0.08-0.22,0.12-0.33C190.2,172.2,190.17,172.31,190.12,172.42z"/>
				<path class="st407" d="M190.9,169.31c0.01-0.11,0.03-0.22,0.04-0.33C190.93,169.1,190.91,169.2,190.9,169.31z"/>
				<path class="st407" d="M190.73,170.39c0.03-0.13,0.05-0.25,0.07-0.38C190.78,170.14,190.75,170.27,190.73,170.39z"/>
				<path class="st407" d="M188.34,175.67c0.1-0.13,0.19-0.27,0.28-0.4C188.53,175.4,188.44,175.53,188.34,175.67z"/>
				<path class="st407" d="M189.62,173.54c0.03-0.05,0.06-0.11,0.09-0.16C189.68,173.43,189.65,173.49,189.62,173.54z"/>
				<path class="st407" d="M188.98,174.7c0.07-0.12,0.15-0.24,0.22-0.37C189.13,174.45,189.06,174.57,188.98,174.7z"/>
				<path class="st407" d="M190.47,171.42c0.04-0.12,0.07-0.25,0.1-0.38C190.54,171.17,190.5,171.29,190.47,171.42z"/>
			</g>
			<g>
				<path class="st408" d="M161.38,183.72c-3.2-0.48-6.57-0.74-10.05-0.74c-3.48,0-6.85,0.26-10.05,0.74
					c3.2,0.48,6.57,0.74,10.05,0.74C154.82,184.46,158.18,184.2,161.38,183.72z"/>
				<path class="st73" d="M169.68,181.87c0.01,0,0.02-0.01,0.04-0.01C169.7,181.86,169.69,181.87,169.68,181.87z"/>
				<path class="st73" d="M120.27,175.52c-0.13-0.1-0.25-0.21-0.38-0.32C120.02,175.31,120.14,175.41,120.27,175.52z"/>
				<path class="st73" d="M121.18,176.22c-0.12-0.09-0.25-0.18-0.37-0.28C120.93,176.03,121.05,176.12,121.18,176.22z"/>
				<path class="st73" d="M181.48,176.22c0.13-0.09,0.25-0.19,0.37-0.28C181.73,176.03,181.61,176.13,181.48,176.22z"/>
				<path class="st73" d="M118.41,173.83c-0.17-0.18-0.35-0.35-0.51-0.53C118.06,173.48,118.23,173.66,118.41,173.83z"/>
				<path class="st73" d="M168.37,182.25c0.01,0,0.01,0,0.02,0C168.38,182.25,168.38,182.25,168.37,182.25z"/>
				<path class="st73" d="M119.41,174.79c-0.14-0.12-0.27-0.25-0.4-0.37C119.14,174.54,119.27,174.66,119.41,174.79z"/>
				<path class="st73" d="M117.58,172.94c-0.13-0.15-0.26-0.3-0.38-0.45C117.32,172.64,117.45,172.79,117.58,172.94z"/>
				<path class="st73" d="M122.09,176.86c-0.11-0.07-0.21-0.14-0.32-0.21C121.88,176.72,121.99,176.79,122.09,176.86z"/>
				<path class="st73" d="M175.62,179.63c0.07-0.03,0.14-0.06,0.21-0.1C175.76,179.57,175.69,179.6,175.62,179.63z"/>
				<path class="st73" d="M176.75,179.09c0.08-0.04,0.16-0.08,0.23-0.12C176.91,179.01,176.83,179.05,176.75,179.09z"/>
				<path class="st73" d="M132.98,181.87c-0.01,0-0.02-0.01-0.03-0.01C132.96,181.86,132.97,181.87,132.98,181.87z"/>
				<path class="st73" d="M127.04,179.63c-0.07-0.03-0.14-0.06-0.21-0.1C126.9,179.57,126.97,179.6,127.04,179.63z"/>
				<path class="st73" d="M180.57,176.86c0.11-0.07,0.21-0.14,0.32-0.21C180.78,176.72,180.67,176.79,180.57,176.86z"/>
				<path class="st73" d="M134.29,182.25c0,0-0.01,0-0.01,0C134.28,182.25,134.28,182.25,134.29,182.25z"/>
				<path class="st73" d="M174.6,180.09C174.6,180.09,174.61,180.09,174.6,180.09C174.61,180.09,174.6,180.09,174.6,180.09z"/>
				<path class="st73" d="M124.78,178.5c-0.04-0.02-0.07-0.04-0.11-0.06C124.71,178.46,124.75,178.48,124.78,178.5z"/>
				<path class="st73" d="M125.91,179.09c-0.08-0.04-0.16-0.08-0.23-0.12C125.75,179.01,125.83,179.05,125.91,179.09z"/>
				<path class="st73" d="M146.11,184.26c0.09,0.01,0.18,0.01,0.28,0.02C146.29,184.27,146.2,184.27,146.11,184.26z"/>
				<path class="st73" d="M114.16,164.62c0,0.32,0.02,0.63,0.04,0.94C114.17,165.25,114.16,164.94,114.16,164.62z"/>
				<path class="st73" d="M183.25,174.79c0.14-0.12,0.27-0.25,0.4-0.37C183.52,174.54,183.39,174.66,183.25,174.79z"/>
				<path class="st73" d="M114.33,166.5c-0.04-0.21-0.07-0.42-0.09-0.64C114.26,166.08,114.29,166.29,114.33,166.5z"/>
				<path class="st73" d="M177.88,178.5c0.04-0.02,0.07-0.04,0.11-0.06C177.95,178.46,177.91,178.48,177.88,178.5z"/>
				<path class="st73" d="M148.41,184.39c0.18,0.01,0.37,0.02,0.55,0.02C148.78,184.41,148.6,184.4,148.41,184.39z"/>
				<path class="st73" d="M116.91,172.11c-0.12-0.16-0.23-0.31-0.35-0.47C116.68,171.8,116.79,171.96,116.91,172.11z"/>
				<path class="st73" d="M184.25,173.83c0.17-0.18,0.35-0.35,0.51-0.53C184.6,173.48,184.43,173.66,184.25,173.83z"/>
				<path class="st73" d="M115.78,170.43c-0.14-0.24-0.26-0.48-0.38-0.72C115.52,169.95,115.64,170.19,115.78,170.43z"/>
				<path class="st73" d="M156.28,184.28c0.09-0.01,0.18-0.01,0.28-0.02C156.46,184.27,156.37,184.27,156.28,184.28z"/>
				<path class="st73" d="M153.69,184.42c0.18-0.01,0.37-0.01,0.55-0.02C154.06,184.4,153.88,184.41,153.69,184.42z"/>
				<path class="st73" d="M116.31,171.28c-0.11-0.17-0.22-0.34-0.33-0.52C116.09,170.94,116.2,171.11,116.31,171.28z"/>
				<path class="st73" d="M182.39,175.52c0.13-0.1,0.26-0.21,0.38-0.32C182.64,175.31,182.52,175.41,182.39,175.52z"/>
				<path class="st73" d="M115.32,169.56c-0.14-0.29-0.26-0.58-0.38-0.87C115.06,168.98,115.18,169.27,115.32,169.56z"/>
				<path class="st73" d="M114.84,168.39c-0.07-0.2-0.14-0.41-0.2-0.61C114.69,167.99,114.76,168.19,114.84,168.39z"/>
				<path class="st73" d="M114.54,167.44c-0.05-0.2-0.1-0.39-0.14-0.59C114.44,167.05,114.48,167.24,114.54,167.44z"/>
				<path class="st407" d="M146.39,184.28c0.67,0.05,1.35,0.09,2.03,0.11C147.73,184.36,147.06,184.33,146.39,184.28z"/>
				<path class="st407" d="M182.77,175.2c0.16-0.14,0.33-0.27,0.48-0.41C183.1,174.93,182.93,175.06,182.77,175.2z"/>
				<path class="st407" d="M174.61,180.09c0.34-0.15,0.68-0.3,1.01-0.45C175.29,179.79,174.95,179.94,174.61,180.09z"/>
				<path class="st407" d="M148.97,184.42c0.78,0.03,1.57,0.04,2.36,0.04C150.54,184.46,149.75,184.44,148.97,184.42z"/>
				<path class="st407" d="M177.98,178.44c0.91-0.5,1.77-1.03,2.58-1.58C179.76,177.41,178.9,177.94,177.98,178.44z"/>
				<path class="st407" d="M176.99,178.97c0.3-0.15,0.6-0.31,0.89-0.47C177.59,178.66,177.29,178.82,176.99,178.97z"/>
				<path class="st407" d="M161.38,183.72c-1.57,0.24-3.18,0.42-4.83,0.54c4.21-0.32,8.19-1.01,11.82-2.01
					C166.16,182.86,163.82,183.35,161.38,183.72z"/>
				<path class="st407" d="M168.39,182.25c0.44-0.12,0.87-0.24,1.29-0.37C169.26,182,168.82,182.13,168.39,182.25z"/>
				<path class="st407" d="M151.33,184.46c0.79,0,1.58-0.02,2.36-0.04C152.91,184.44,152.13,184.46,151.33,184.46z"/>
				<path class="st407" d="M169.72,181.86c1.72-0.52,3.35-1.12,4.89-1.78C173.07,180.74,171.44,181.34,169.72,181.86z"/>
				<path class="st407" d="M180.89,176.65c0.2-0.14,0.4-0.29,0.6-0.43C181.29,176.36,181.09,176.51,180.89,176.65z"/>
				<path class="st407" d="M154.25,184.39c0.68-0.03,1.36-0.07,2.03-0.11C155.61,184.33,154.93,184.36,154.25,184.39z"/>
				<path class="st407" d="M181.85,175.94c0.18-0.14,0.36-0.28,0.54-0.42C182.21,175.66,182.04,175.8,181.85,175.94z"/>
				<path class="st407" d="M175.83,179.53c0.31-0.15,0.62-0.29,0.92-0.45C176.45,179.24,176.14,179.39,175.83,179.53z"/>
				<path class="st407" d="M117.9,173.3c-0.11-0.12-0.21-0.24-0.31-0.36C117.69,173.06,117.79,173.18,117.9,173.3z"/>
				<path class="st407" d="M117.2,172.49c-0.1-0.12-0.2-0.25-0.29-0.37C117,172.24,117.1,172.36,117.2,172.49z"/>
				<path class="st407" d="M116.56,171.65c-0.09-0.12-0.17-0.24-0.25-0.37C116.39,171.4,116.48,171.52,116.56,171.65z"/>
				<path class="st407" d="M121.78,176.65c-0.2-0.14-0.4-0.29-0.6-0.43C121.37,176.36,121.57,176.51,121.78,176.65z"/>
				<path class="st407" d="M115.98,170.76c-0.07-0.11-0.14-0.22-0.2-0.33C115.84,170.54,115.91,170.65,115.98,170.76z"/>
				<path class="st407" d="M119.89,175.2c-0.16-0.14-0.33-0.27-0.48-0.41C119.57,174.93,119.73,175.06,119.89,175.2z"/>
				<path class="st407" d="M120.81,175.94c-0.18-0.14-0.36-0.28-0.54-0.42C120.45,175.66,120.63,175.8,120.81,175.94z"/>
				<path class="st407" d="M114.94,168.69c-0.04-0.1-0.07-0.2-0.11-0.3C114.87,168.49,114.9,168.59,114.94,168.69z"/>
				<path class="st407" d="M114.4,166.85c-0.02-0.11-0.05-0.23-0.07-0.34C114.35,166.62,114.37,166.73,114.4,166.85z"/>
				<path class="st407" d="M114.24,165.87c-0.01-0.1-0.03-0.2-0.04-0.3C114.21,165.67,114.23,165.77,114.24,165.87z"/>
				<path class="st407" d="M118.41,173.83c0.19,0.2,0.39,0.39,0.6,0.58C118.8,174.22,118.6,174.03,118.41,173.83z"/>
				<path class="st407" d="M115.4,169.71c-0.02-0.05-0.05-0.1-0.08-0.15C115.34,169.61,115.37,169.66,115.4,169.71z"/>
				<path class="st407" d="M114.63,167.78c-0.03-0.11-0.06-0.23-0.09-0.34C114.57,167.55,114.6,167.67,114.63,167.78z"/>
				<path class="st407" d="M124.68,178.44c-0.91-0.5-1.77-1.03-2.58-1.58C122.9,177.41,123.76,177.94,124.68,178.44z"/>
				<path class="st407" d="M125.68,178.97c-0.3-0.15-0.6-0.31-0.89-0.47C125.08,178.66,125.37,178.82,125.68,178.97z"/>
				<path class="st407" d="M184.25,173.83c-0.19,0.2-0.39,0.39-0.6,0.58C183.86,174.22,184.06,174.03,184.25,173.83z"/>
				<path class="st407" d="M132.95,181.86c-2.11-0.64-4.08-1.39-5.91-2.23C128.86,180.47,130.84,181.22,132.95,181.86z"/>
				<path class="st407" d="M126.83,179.53c-0.31-0.15-0.62-0.29-0.92-0.45C126.21,179.24,126.52,179.39,126.83,179.53z"/>
				<path class="st407" d="M134.27,182.25c-0.44-0.12-0.87-0.25-1.29-0.37C133.41,182,133.84,182.13,134.27,182.25z"/>
				<path class="st407" d="M140.19,183.55L140.19,183.55c-2.05-0.35-4.02-0.78-5.9-1.3C136.17,182.77,138.14,183.21,140.19,183.55z"
					/>
				<path class="st407" d="M146.11,184.26c-1.65-0.13-3.26-0.31-4.83-0.54c-0.37-0.05-0.73-0.12-1.09-0.18v0.01
					C142.1,183.87,144.08,184.11,146.11,184.26z"/>
				<path class="st405" d="M134.29,182.25c0,0-0.01,0-0.01,0c-0.44-0.12-0.87-0.25-1.29-0.37c-0.01,0-0.02-0.01-0.03-0.01
					c-2.11-0.64-4.08-1.39-5.91-2.23c-0.07-0.03-0.14-0.06-0.21-0.1c-0.31-0.15-0.62-0.29-0.92-0.45c-0.08-0.04-0.16-0.08-0.23-0.12
					c-0.3-0.15-0.6-0.31-0.89-0.47c-0.04-0.02-0.07-0.04-0.11-0.06c-0.91-0.5-1.77-1.03-2.58-1.58c-0.11-0.07-0.21-0.14-0.32-0.21
					c-0.2-0.14-0.4-0.29-0.6-0.43c-0.12-0.09-0.25-0.18-0.37-0.28c-0.18-0.14-0.36-0.28-0.54-0.42c-0.13-0.1-0.25-0.21-0.38-0.32
					c-0.16-0.14-0.33-0.27-0.48-0.41c-0.14-0.12-0.27-0.25-0.4-0.37c-0.21-0.19-0.41-0.39-0.6-0.58c-0.17-0.18-0.35-0.35-0.51-0.53
					c-0.11-0.12-0.21-0.24-0.31-0.36c-0.13-0.15-0.26-0.3-0.38-0.45c-0.1-0.12-0.2-0.25-0.29-0.37c-0.12-0.16-0.23-0.31-0.35-0.47
					c-0.09-0.12-0.17-0.24-0.25-0.37c-0.11-0.17-0.22-0.34-0.33-0.52c-0.07-0.11-0.14-0.22-0.2-0.33c-0.14-0.24-0.26-0.48-0.38-0.72
					c-0.02-0.05-0.05-0.1-0.08-0.15c-0.14-0.29-0.26-0.58-0.38-0.87c-0.04-0.1-0.07-0.2-0.11-0.3c-0.07-0.2-0.14-0.41-0.2-0.61
					c-0.03-0.11-0.06-0.23-0.09-0.34c-0.05-0.2-0.1-0.39-0.14-0.59c-0.02-0.11-0.05-0.23-0.07-0.34c-0.04-0.21-0.07-0.42-0.09-0.64
					c-0.01-0.1-0.03-0.2-0.04-0.3c-0.03-0.31-0.04-0.63-0.04-0.94v38.2c0,8.88,10.94,16.4,26.03,18.93v-38.2
					C138.14,183.21,136.17,182.77,134.29,182.25z"/>
				<path class="st409" d="M188.42,165.87c-0.02,0.21-0.05,0.43-0.09,0.64c-0.02,0.12-0.04,0.23-0.07,0.34
					c-0.04,0.2-0.09,0.4-0.14,0.59c-0.03,0.11-0.06,0.23-0.09,0.34c-0.06,0.21-0.13,0.41-0.2,0.61c-0.04,0.1-0.07,0.2-0.11,0.3
					c-0.11,0.29-0.24,0.59-0.38,0.87c-0.02,0.05-0.05,0.1-0.08,0.15c-0.12,0.24-0.25,0.48-0.38,0.72c-0.06,0.11-0.13,0.22-0.2,0.33
					c-0.11,0.17-0.21,0.35-0.33,0.52c-0.08,0.12-0.17,0.25-0.25,0.37c-0.11,0.16-0.23,0.31-0.35,0.47c-0.1,0.12-0.19,0.25-0.29,0.37
					c-0.12,0.15-0.25,0.3-0.38,0.45c-0.1,0.12-0.21,0.24-0.31,0.36c-0.16,0.18-0.34,0.35-0.51,0.53c-0.19,0.2-0.39,0.39-0.6,0.58
					c-0.13,0.12-0.26,0.25-0.4,0.37c-0.16,0.14-0.32,0.28-0.48,0.41c-0.13,0.11-0.25,0.21-0.38,0.32c-0.17,0.14-0.35,0.28-0.54,0.42
					c-0.12,0.09-0.25,0.19-0.37,0.28c-0.2,0.15-0.39,0.29-0.6,0.43c-0.1,0.07-0.21,0.14-0.32,0.21c-0.81,0.55-1.67,1.08-2.58,1.58
					c-0.04,0.02-0.07,0.04-0.11,0.06c-0.29,0.16-0.59,0.31-0.89,0.47c-0.08,0.04-0.16,0.08-0.23,0.12c-0.3,0.15-0.61,0.3-0.92,0.45
					c-0.07,0.03-0.14,0.07-0.21,0.1c-0.33,0.15-0.67,0.31-1.01,0.45c0,0,0,0,0,0c-1.53,0.66-3.17,1.25-4.89,1.78
					c-0.01,0-0.02,0.01-0.04,0.01c-0.43,0.13-0.86,0.25-1.29,0.37c-0.01,0-0.01,0-0.02,0c-3.63,1-7.61,1.69-11.82,2.01
					c-0.09,0.01-0.18,0.01-0.28,0.02c-0.67,0.05-1.35,0.09-2.03,0.11c-0.18,0.01-0.37,0.02-0.55,0.02
					c-0.78,0.03-1.57,0.04-2.36,0.04s-1.58-0.02-2.36-0.04c-0.18-0.01-0.37-0.01-0.55-0.02c-0.68-0.03-1.36-0.07-2.03-0.11
					c-0.09-0.01-0.18-0.01-0.28-0.02c-2.03-0.15-4.01-0.39-5.92-0.71v38.2c3.52,0.59,7.26,0.91,11.14,0.91
					c20.53,0,37.17-8.88,37.17-19.84v-38.2c0,0.32-0.02,0.63-0.04,0.94C188.45,165.67,188.44,165.77,188.42,165.87z"/>
				<path class="st410" d="M169.7,220.17c0,0,21.51,5.02,19.15-8.54L169.7,220.17z"/>
				<g>
					<path class="st411" d="M114.24,165.87c0.02,0.21,0.05,0.43,0.09,0.64c0.02,0.12,0.04,0.23,0.07,0.34
						c0.04,0.2,0.09,0.4,0.14,0.59c0.03,0.11,0.06,0.23,0.09,0.34c0.06,0.21,0.13,0.41,0.2,0.61c0.04,0.1,0.07,0.2,0.11,0.3
						c0.11,0.29,0.24,0.59,0.38,0.87c0.02,0.05,0.05,0.1,0.08,0.15c0.12,0.24,0.25,0.48,0.38,0.72c0.06,0.11,0.13,0.22,0.2,0.33
						c0.11,0.17,0.21,0.35,0.33,0.52c0.08,0.12,0.17,0.25,0.25,0.37c0.11,0.16,0.23,0.31,0.35,0.47c0.1,0.12,0.19,0.25,0.29,0.37
						c0.12,0.15,0.25,0.3,0.38,0.45c0.1,0.12,0.21,0.24,0.31,0.36c0.16,0.18,0.34,0.35,0.51,0.53c0.19,0.2,0.39,0.39,0.6,0.58
						c0.13,0.12,0.26,0.25,0.4,0.37c0.16,0.14,0.32,0.28,0.48,0.41c0.13,0.11,0.25,0.21,0.38,0.32c0.18,0.14,0.36,0.28,0.54,0.42
						c0.12,0.09,0.24,0.18,0.37,0.28c0.2,0.15,0.39,0.29,0.6,0.43c0.1,0.07,0.21,0.14,0.32,0.21c0.81,0.55,1.67,1.08,2.58,1.58
						c0.04,0.02,0.07,0.04,0.11,0.06c0.29,0.16,0.59,0.31,0.89,0.47c0.08,0.04,0.15,0.08,0.23,0.12c0.3,0.15,0.61,0.3,0.92,0.45
						c0.07,0.03,0.14,0.06,0.21,0.1c1.82,0.84,3.8,1.59,5.91,2.23c0.01,0,0.02,0.01,0.03,0.01c0.43,0.13,0.86,0.25,1.29,0.37
						c0,0,0.01,0,0.01,0c1.88,0.52,3.85,0.95,5.9,1.29V40.87h-26.03v123.75c0,0.32,0.02,0.63,0.04,0.94
						C114.21,165.67,114.23,165.77,114.24,165.87z"/>
					<path class="st396" d="M140.19,40.87v142.67c0.36,0.06,0.73,0.12,1.09,0.18c1.57,0.24,3.18,0.42,4.83,0.54
						c0.09,0.01,0.18,0.01,0.28,0.02c0.67,0.05,1.35,0.08,2.03,0.11c0.18,0.01,0.37,0.02,0.55,0.02c0.78,0.03,1.57,0.04,2.36,0.04
						s1.58-0.02,2.36-0.04c0.18-0.01,0.37-0.01,0.55-0.02c0.68-0.03,1.36-0.07,2.03-0.11c0.09-0.01,0.18-0.01,0.28-0.02
						c1.65-0.13,3.26-0.31,4.83-0.54c2.44-0.37,4.78-0.86,6.99-1.47c0.01,0,0.01,0,0.02,0c0.44-0.12,0.87-0.25,1.29-0.37
						c0.01,0,0.02-0.01,0.04-0.01c1.72-0.52,3.35-1.12,4.89-1.78c0,0,0,0,0,0c0.34-0.15,0.68-0.3,1.01-0.45
						c0.07-0.03,0.14-0.06,0.21-0.1c0.31-0.15,0.62-0.29,0.92-0.45c0.08-0.04,0.16-0.08,0.23-0.12c0.3-0.15,0.6-0.31,0.89-0.47
						c0.04-0.02,0.07-0.04,0.11-0.06c0.91-0.5,1.77-1.03,2.58-1.58c0.11-0.07,0.21-0.14,0.32-0.21c0.2-0.14,0.4-0.29,0.6-0.43
						c0.12-0.09,0.25-0.19,0.37-0.28c0.18-0.14,0.36-0.28,0.54-0.42c0.13-0.1,0.26-0.21,0.38-0.32c0.16-0.14,0.33-0.27,0.48-0.41
						c0.14-0.12,0.27-0.25,0.4-0.37c0.21-0.19,0.41-0.39,0.6-0.58c0.17-0.18,0.35-0.35,0.51-0.53c0.11-0.12,0.21-0.24,0.31-0.36
						c0.13-0.15,0.26-0.3,0.38-0.45c0.1-0.12,0.2-0.25,0.29-0.37c0.12-0.16,0.23-0.31,0.35-0.47c0.09-0.12,0.17-0.24,0.25-0.37
						c0.11-0.17,0.22-0.34,0.33-0.52c0.07-0.11,0.14-0.22,0.2-0.33c0.14-0.24,0.26-0.48,0.38-0.72c0.02-0.05,0.05-0.1,0.08-0.15
						c0.14-0.29,0.26-0.58,0.38-0.87c0.04-0.1,0.07-0.2,0.11-0.3c0.07-0.2,0.14-0.41,0.2-0.61c0.03-0.11,0.06-0.23,0.09-0.34
						c0.05-0.2,0.1-0.39,0.14-0.59c0.02-0.11,0.05-0.23,0.07-0.34c0.04-0.21,0.07-0.42,0.09-0.64c0.01-0.1,0.03-0.2,0.04-0.3
						c0.03-0.31,0.04-0.63,0.04-0.94V40.87H140.19z"/>
					<g>
						<g>
							<path class="st402" d="M115.23,205.04v3.17c0,0,0.63,2.3,6.38,5.86v-3.25C121.61,210.82,117.06,208.43,115.23,205.04z"/>
							<path class="st402" d="M124.38,212.23v3.21c0,0,3.33,1.6,8.14,2.79v-3.19C132.52,215.03,128,213.9,124.38,212.23z"/>
							<path class="st402" d="M135.92,215.83v3.18c0,0,4.46,0.91,8.53,1.16v-3.2C144.45,216.97,140.41,216.67,135.92,215.83z"/>
							<path class="st402" d="M147.94,217.17v3.22c0,0,4.44,0.18,8.66-0.1v-3.2C156.6,217.08,152.05,217.42,147.94,217.17z"/>
							<path class="st402" d="M160.94,216.66v3.25c0,0,4.82-0.53,9.04-1.62v-3.21C169.98,215.07,165.28,216.23,160.94,216.66z"/>
							<path class="st402" d="M173.73,213.98v3.26c0,0,4.58-1.46,8.33-3.86v-3.17C182.06,210.21,179.47,212.08,173.73,213.98z"/>
							<path class="st402" d="M184.85,208.06v3.27c0,0,3.66-2.98,3.66-6.96v-3.21C188.5,201.16,188.73,204.9,184.85,208.06z"/>
						</g>
						<g>
							<path class="st402" d="M115.23,198.61v3.17c0,0,0.63,2.3,6.38,5.86v-3.25C121.61,204.39,117.06,201.99,115.23,198.61z"/>
							<path class="st402" d="M124.38,205.8v3.21c0,0,3.33,1.6,8.14,2.79v-3.19C132.52,208.6,128,207.47,124.38,205.8z"/>
							<path class="st402" d="M135.92,209.4v3.18c0,0,4.46,0.91,8.53,1.16v-3.2C144.45,210.53,140.41,210.23,135.92,209.4z"/>
							<path class="st402" d="M147.94,210.73v3.22c0,0,4.44,0.18,8.66-0.1v-3.2C156.6,210.65,152.05,210.99,147.94,210.73z"/>
							<path class="st402" d="M160.94,210.22v3.25c0,0,4.82-0.53,9.04-1.62v-3.21C169.98,208.64,165.28,209.8,160.94,210.22z"/>
							<path class="st402" d="M173.73,207.55v3.26c0,0,4.58-1.46,8.33-3.86v-3.17C182.06,203.78,179.47,205.65,173.73,207.55z"/>
							<path class="st402" d="M184.85,201.62v3.27c0,0,3.66-2.98,3.66-6.96v-3.21C188.5,194.73,188.73,198.46,184.85,201.62z"/>
						</g>
						<g>
							<path class="st402" d="M115.23,192.18v3.17c0,0,0.63,2.3,6.38,5.86v-3.25C121.61,197.95,117.06,195.56,115.23,192.18z"/>
							<path class="st402" d="M124.38,199.36v3.21c0,0,3.33,1.6,8.14,2.79v-3.19C132.52,202.17,128,201.04,124.38,199.36z"/>
							<path class="st402" d="M135.92,202.96v3.18c0,0,4.46,0.91,8.53,1.16v-3.2C144.45,204.1,140.41,203.8,135.92,202.96z"/>
							<path class="st402" d="M147.94,204.3v3.22c0,0,4.44,0.18,8.66-0.1v-3.2C156.6,204.22,152.05,204.55,147.94,204.3z"/>
							<path class="st402" d="M160.94,203.79v3.25c0,0,4.82-0.53,9.04-1.62v-3.21C169.98,202.21,165.28,203.37,160.94,203.79z"/>
							<path class="st402" d="M173.73,201.12v3.26c0,0,4.58-1.46,8.33-3.86v-3.17C182.06,197.35,179.47,199.22,173.73,201.12z"/>
							<path class="st402" d="M184.85,195.19v3.27c0,0,3.66-2.98,3.66-6.96v-3.21C188.5,188.29,188.73,192.03,184.85,195.19z"/>
						</g>
						<g>
							<path class="st402" d="M115.23,185.74v3.17c0,0,0.63,2.3,6.38,5.86v-3.25C121.61,191.52,117.06,189.13,115.23,185.74z"/>
							<path class="st402" d="M124.38,192.93v3.21c0,0,3.33,1.6,8.14,2.79v-3.19C132.52,195.74,128,194.6,124.38,192.93z"/>
							<path class="st402" d="M135.92,196.53v3.18c0,0,4.46,0.91,8.53,1.16v-3.2C144.45,197.67,140.41,197.37,135.92,196.53z"/>
							<path class="st402" d="M147.94,197.87v3.22c0,0,4.44,0.18,8.66-0.1v-3.2C156.6,197.78,152.05,198.12,147.94,197.87z"/>
							<path class="st402" d="M160.94,197.36v3.25c0,0,4.82-0.53,9.04-1.62v-3.21C169.98,195.78,165.28,196.93,160.94,197.36z"/>
							<path class="st402" d="M173.73,194.68v3.26c0,0,4.58-1.46,8.33-3.86v-3.17C182.06,190.91,179.47,192.79,173.73,194.68z"/>
							<path class="st402" d="M184.85,188.76v3.27c0,0,3.66-2.98,3.66-6.96v-3.21C188.5,181.86,188.73,185.6,184.85,188.76z"/>
						</g>
						<g>
							<path class="st402" d="M115.23,179.31v3.17c0,0,0.63,2.3,6.38,5.86v-3.25C121.61,185.09,117.06,182.7,115.23,179.31z"/>
							<path class="st402" d="M124.38,186.5v3.21c0,0,3.33,1.6,8.14,2.79v-3.19C132.52,189.3,128,188.17,124.38,186.5z"/>
							<path class="st402" d="M135.92,190.1v3.18c0,0,4.46,0.91,8.53,1.16v-3.2C144.45,191.24,140.41,190.94,135.92,190.1z"/>
							<path class="st402" d="M147.94,191.44v3.22c0,0,4.44,0.18,8.66-0.1v-3.2C156.6,191.35,152.05,191.69,147.94,191.44z"/>
							<path class="st402" d="M160.94,190.93v3.25c0,0,4.82-0.53,9.04-1.62v-3.21C169.98,189.34,165.28,190.5,160.94,190.93z"/>
							<path class="st402" d="M173.73,188.25v3.26c0,0,4.58-1.46,8.33-3.86v-3.17C182.06,184.48,179.47,186.35,173.73,188.25z"/>
							<path class="st402" d="M184.85,182.33v3.27c0,0,3.66-2.98,3.66-6.96v-3.21C188.5,175.43,188.73,179.17,184.85,182.33z"/>
						</g>
						<g>
							<path class="st402" d="M115.23,172.88v3.17c0,0,0.63,2.3,6.38,5.86v-3.25C121.61,178.66,117.06,176.26,115.23,172.88z"/>
							<path class="st402" d="M124.38,180.07v3.21c0,0,3.33,1.6,8.14,2.79v-3.19C132.52,182.87,128,181.74,124.38,180.07z"/>
							<path class="st402" d="M135.92,183.67v3.18c0,0,4.46,0.91,8.53,1.16v-3.2C144.45,184.8,140.41,184.5,135.92,183.67z"/>
							<path class="st402" d="M147.94,185v3.22c0,0,4.44,0.18,8.66-0.1v-3.2C156.6,184.92,152.05,185.26,147.94,185z"/>
							<path class="st402" d="M160.94,184.49v3.25c0,0,4.82-0.53,9.04-1.62v-3.21C169.98,182.91,165.28,184.07,160.94,184.49z"/>
							<path class="st402" d="M173.73,181.82v3.26c0,0,4.58-1.46,8.33-3.86v-3.17C182.06,178.05,179.47,179.92,173.73,181.82z"/>
							<path class="st402" d="M184.85,175.89v3.27c0,0,3.66-2.98,3.66-6.96V169C188.5,169,188.73,172.73,184.85,175.89z"/>
						</g>
						<g>
							<path class="st402" d="M115.23,166.45v3.17c0,0,0.63,2.3,6.38,5.86v-3.25C121.61,172.22,117.06,169.83,115.23,166.45z"/>
							<path class="st402" d="M124.38,173.63v3.21c0,0,3.33,1.6,8.14,2.79v-3.19C132.52,176.44,128,175.31,124.38,173.63z"/>
							<path class="st402" d="M135.92,177.23v3.18c0,0,4.46,0.91,8.53,1.16v-3.2C144.45,178.37,140.41,178.07,135.92,177.23z"/>
							<path class="st402" d="M147.94,178.57v3.22c0,0,4.44,0.18,8.66-0.1v-3.2C156.6,178.49,152.05,178.82,147.94,178.57z"/>
							<path class="st402" d="M160.94,178.06v3.25c0,0,4.82-0.53,9.04-1.62v-3.21C169.98,176.48,165.28,177.63,160.94,178.06z"/>
							<path class="st402" d="M173.73,175.39v3.26c0,0,4.58-1.46,8.33-3.86v-3.17C182.06,171.61,179.47,173.49,173.73,175.39z"/>
							<path class="st402" d="M184.85,169.46v3.27c0,0,3.66-2.98,3.66-6.96v-3.21C188.5,162.56,188.73,166.3,184.85,169.46z"/>
						</g>
						<g>
							<path class="st402" d="M115.23,160.01v3.17c0,0,0.63,2.3,6.38,5.86v-3.25C121.61,165.79,117.06,163.4,115.23,160.01z"/>
							<path class="st402" d="M124.38,167.2v3.21c0,0,3.33,1.6,8.14,2.79V170C132.52,170,128,168.87,124.38,167.2z"/>
							<path class="st402" d="M135.92,170.8v3.18c0,0,4.46,0.91,8.53,1.16v-3.2C144.45,171.94,140.41,171.64,135.92,170.8z"/>
							<path class="st402" d="M147.94,172.14v3.22c0,0,4.44,0.18,8.66-0.1v-3.2C156.6,172.05,152.05,172.39,147.94,172.14z"/>
							<path class="st402" d="M160.94,171.63v3.25c0,0,4.82-0.53,9.04-1.62v-3.21C169.98,170.04,165.28,171.2,160.94,171.63z"/>
							<path class="st402" d="M173.73,168.95v3.26c0,0,4.58-1.46,8.33-3.86v-3.17C182.06,165.18,179.47,167.06,173.73,168.95z"/>
							<path class="st402" d="M184.85,163.03v3.27c0,0,3.66-2.98,3.66-6.96v-3.21C188.5,156.13,188.73,159.87,184.85,163.03z"/>
						</g>
						<g>
							<path class="st402" d="M115.23,153.58v3.17c0,0,0.63,2.3,6.38,5.86v-3.25C121.61,159.36,117.06,156.96,115.23,153.58z"/>
							<path class="st402" d="M124.38,160.77v3.21c0,0,3.33,1.6,8.14,2.79v-3.19C132.52,163.57,128,162.44,124.38,160.77z"/>
							<path class="st402" d="M135.92,164.37v3.18c0,0,4.46,0.91,8.53,1.16v-3.2C144.45,165.5,140.41,165.2,135.92,164.37z"/>
							<path class="st402" d="M147.94,165.7v3.22c0,0,4.44,0.18,8.66-0.1v-3.2C156.6,165.62,152.05,165.96,147.94,165.7z"/>
							<path class="st402" d="M160.94,165.19v3.25c0,0,4.82-0.53,9.04-1.62v-3.21C169.98,163.61,165.28,164.77,160.94,165.19z"/>
							<path class="st402" d="M173.73,162.52v3.26c0,0,4.58-1.46,8.33-3.86v-3.17C182.06,158.75,179.47,160.62,173.73,162.52z"/>
							<path class="st402" d="M184.85,156.59v3.27c0,0,3.66-2.98,3.66-6.96v-3.21C188.5,149.7,188.73,153.43,184.85,156.59z"/>
						</g>
						<g>
							<path class="st402" d="M115.23,147.15v3.17c0,0,0.63,2.3,6.38,5.86v-3.25C121.61,152.92,117.06,150.53,115.23,147.15z"/>
							<path class="st402" d="M124.38,154.33v3.21c0,0,3.33,1.6,8.14,2.79v-3.19C132.52,157.14,128,156.01,124.38,154.33z"/>
							<path class="st402" d="M135.92,157.93v3.18c0,0,4.46,0.91,8.53,1.16v-3.2C144.45,159.07,140.41,158.77,135.92,157.93z"/>
							<path class="st402" d="M147.94,159.27v3.22c0,0,4.44,0.18,8.66-0.1v-3.2C156.6,159.19,152.05,159.52,147.94,159.27z"/>
							<path class="st402" d="M160.94,158.76v3.25c0,0,4.82-0.53,9.04-1.62v-3.21C169.98,157.18,165.28,158.34,160.94,158.76z"/>
							<path class="st402" d="M173.73,156.09v3.26c0,0,4.58-1.46,8.33-3.86v-3.17C182.06,152.32,179.47,154.19,173.73,156.09z"/>
							<path class="st402" d="M184.85,150.16v3.27c0,0,3.66-2.98,3.66-6.96v-3.21C188.5,143.26,188.73,147,184.85,150.16z"/>
						</g>
						<g>
							<path class="st402" d="M115.23,140.71v3.17c0,0,0.63,2.3,6.38,5.86v-3.25C121.61,146.49,117.06,144.1,115.23,140.71z"/>
							<path class="st402" d="M124.38,147.9v3.21c0,0,3.33,1.6,8.14,2.79v-3.19C132.52,150.71,128,149.57,124.38,147.9z"/>
							<path class="st402" d="M135.92,151.5v3.18c0,0,4.46,0.91,8.53,1.16v-3.2C144.45,152.64,140.41,152.34,135.92,151.5z"/>
							<path class="st402" d="M147.94,152.84v3.22c0,0,4.44,0.18,8.66-0.1v-3.2C156.6,152.75,152.05,153.09,147.94,152.84z"/>
							<path class="st402" d="M160.94,152.33v3.25c0,0,4.82-0.53,9.04-1.62v-3.21C169.98,150.75,165.28,151.9,160.94,152.33z"/>
							<path class="st402" d="M173.73,149.65v3.26c0,0,4.58-1.46,8.33-3.86v-3.17C182.06,145.88,179.47,147.76,173.73,149.65z"/>
							<path class="st402" d="M184.85,143.73V147c0,0,3.66-2.98,3.66-6.96v-3.21C188.5,136.83,188.73,140.57,184.85,143.73z"/>
						</g>
						<g>
							<path class="st402" d="M115.23,134.28v3.17c0,0,0.63,2.3,6.38,5.86v-3.25C121.61,140.06,117.06,137.67,115.23,134.28z"/>
							<path class="st402" d="M124.38,141.47v3.21c0,0,3.33,1.6,8.14,2.79v-3.19C132.52,144.27,128,143.14,124.38,141.47z"/>
							<path class="st402" d="M135.92,145.07v3.18c0,0,4.46,0.91,8.53,1.16v-3.2C144.45,146.21,140.41,145.91,135.92,145.07z"/>
							<path class="st402" d="M147.94,146.41v3.22c0,0,4.44,0.18,8.66-0.1v-3.2C156.6,146.32,152.05,146.66,147.94,146.41z"/>
							<path class="st402" d="M160.94,145.9v3.25c0,0,4.82-0.53,9.04-1.62v-3.21C169.98,144.31,165.28,145.47,160.94,145.9z"/>
							<path class="st402" d="M173.73,143.22v3.26c0,0,4.58-1.46,8.33-3.86v-3.17C182.06,139.45,179.47,141.32,173.73,143.22z"/>
							<path class="st402" d="M184.85,137.3v3.27c0,0,3.66-2.98,3.66-6.96v-3.21C188.5,130.4,188.73,134.14,184.85,137.3z"/>
						</g>
						<g>
							<path class="st402" d="M115.23,127.85v3.17c0,0,0.63,2.3,6.38,5.86v-3.25C121.61,133.63,117.06,131.23,115.23,127.85z"/>
							<path class="st402" d="M124.38,135.04v3.21c0,0,3.33,1.6,8.14,2.79v-3.19C132.52,137.84,128,136.71,124.38,135.04z"/>
							<path class="st402" d="M135.92,138.64v3.18c0,0,4.46,0.91,8.53,1.16v-3.2C144.45,139.77,140.41,139.47,135.92,138.64z"/>
							<path class="st402" d="M147.94,139.97v3.22c0,0,4.44,0.18,8.66-0.1v-3.2C156.6,139.89,152.05,140.23,147.94,139.97z"/>
							<path class="st402" d="M160.94,139.46v3.25c0,0,4.82-0.53,9.04-1.62v-3.21C169.98,137.88,165.28,139.04,160.94,139.46z"/>
							<path class="st402" d="M173.73,136.79v3.26c0,0,4.58-1.46,8.33-3.86v-3.17C182.06,133.02,179.47,134.89,173.73,136.79z"/>
							<path class="st402" d="M184.85,130.86v3.27c0,0,3.66-2.98,3.66-6.96v-3.21C188.5,123.97,188.73,127.7,184.85,130.86z"/>
						</g>
						<g>
							<path class="st402" d="M115.23,121.42v3.17c0,0,0.63,2.3,6.38,5.86v-3.25C121.61,127.19,117.06,124.8,115.23,121.42z"/>
							<path class="st402" d="M124.38,128.6v3.21c0,0,3.33,1.6,8.14,2.79v-3.19C132.52,131.41,128,130.28,124.38,128.6z"/>
							<path class="st402" d="M135.92,132.2v3.18c0,0,4.46,0.91,8.53,1.16v-3.2C144.45,133.34,140.41,133.04,135.92,132.2z"/>
							<path class="st402" d="M147.94,133.54v3.22c0,0,4.44,0.18,8.66-0.1v-3.2C156.6,133.46,152.05,133.79,147.94,133.54z"/>
							<path class="st402" d="M160.94,133.03v3.25c0,0,4.82-0.53,9.04-1.62v-3.21C169.98,131.45,165.28,132.6,160.94,133.03z"/>
							<path class="st402" d="M173.73,130.36v3.26c0,0,4.58-1.46,8.33-3.86v-3.17C182.06,126.58,179.47,128.46,173.73,130.36z"/>
							<path class="st402" d="M184.85,124.43v3.27c0,0,3.66-2.98,3.66-6.96v-3.21C188.5,117.53,188.73,121.27,184.85,124.43z"/>
						</g>
						<g>
							<path class="st402" d="M115.23,114.98v3.17c0,0,0.63,2.3,6.38,5.86v-3.25C121.61,120.76,117.06,118.37,115.23,114.98z"/>
							<path class="st402" d="M124.38,122.17v3.21c0,0,3.33,1.6,8.14,2.79v-3.19C132.52,124.97,128,123.84,124.38,122.17z"/>
							<path class="st402" d="M135.92,125.77v3.18c0,0,4.46,0.91,8.53,1.16v-3.2C144.45,126.91,140.41,126.61,135.92,125.77z"/>
							<path class="st402" d="M147.94,127.11v3.22c0,0,4.44,0.18,8.66-0.1v-3.2C156.6,127.02,152.05,127.36,147.94,127.11z"/>
							<path class="st402" d="M160.94,126.6v3.25c0,0,4.82-0.53,9.04-1.62v-3.21C169.98,125.01,165.28,126.17,160.94,126.6z"/>
							<path class="st402" d="M173.73,123.92v3.26c0,0,4.58-1.46,8.33-3.86v-3.17C182.06,120.15,179.47,122.03,173.73,123.92z"/>
							<path class="st402" d="M184.85,118v3.27c0,0,3.66-2.98,3.66-6.96v-3.21C188.5,111.1,188.73,114.84,184.85,118z"/>
						</g>
						<g>
							<path class="st402" d="M115.23,108.55v3.17c0,0,0.63,2.3,6.38,5.86v-3.25C121.61,114.33,117.06,111.93,115.23,108.55z"/>
							<path class="st402" d="M124.38,115.74v3.21c0,0,3.33,1.6,8.14,2.79v-3.19C132.52,118.54,128,117.41,124.38,115.74z"/>
							<path class="st402" d="M135.92,119.34v3.18c0,0,4.46,0.91,8.53,1.16v-3.2C144.45,120.48,140.41,120.18,135.92,119.34z"/>
							<path class="st402" d="M147.94,120.67v3.22c0,0,4.44,0.18,8.66-0.1v-3.2C156.6,120.59,152.05,120.93,147.94,120.67z"/>
							<path class="st402" d="M160.94,120.16v3.25c0,0,4.82-0.53,9.04-1.62v-3.21C169.98,118.58,165.28,119.74,160.94,120.16z"/>
							<path class="st402" d="M173.73,117.49v3.26c0,0,4.58-1.46,8.33-3.86v-3.17C182.06,113.72,179.47,115.59,173.73,117.49z"/>
							<path class="st402" d="M184.85,111.56v3.27c0,0,3.66-2.98,3.66-6.96v-3.21C188.5,104.67,188.73,108.41,184.85,111.56z"/>
						</g>
						<g>
							<path class="st402" d="M115.23,102.12v3.17c0,0,0.63,2.3,6.38,5.86v-3.25C121.61,107.89,117.06,105.5,115.23,102.12z"/>
							<path class="st402" d="M124.38,109.3v3.21c0,0,3.33,1.6,8.14,2.79v-3.19C132.52,112.11,128,110.98,124.38,109.3z"/>
							<path class="st402" d="M135.92,112.9v3.18c0,0,4.46,0.91,8.53,1.16v-3.2C144.45,114.04,140.41,113.74,135.92,112.9z"/>
							<path class="st402" d="M147.94,114.24v3.22c0,0,4.44,0.18,8.66-0.1v-3.2C156.6,114.16,152.05,114.5,147.94,114.24z"/>
							<path class="st402" d="M160.94,113.73v3.25c0,0,4.82-0.53,9.04-1.62v-3.21C169.98,112.15,165.28,113.31,160.94,113.73z"/>
							<path class="st402" d="M173.73,111.06v3.26c0,0,4.58-1.46,8.33-3.86v-3.17C182.06,107.29,179.47,109.16,173.73,111.06z"/>
							<path class="st402" d="M184.85,105.13v3.27c0,0,3.66-2.98,3.66-6.96v-3.21C188.5,98.23,188.73,101.97,184.85,105.13z"/>
						</g>
						<g>
							<path class="st402" d="M115.23,95.68v3.17c0,0,0.63,2.3,6.38,5.86v-3.25C121.61,101.46,117.06,99.07,115.23,95.68z"/>
							<path class="st402" d="M124.38,102.87v3.21c0,0,3.33,1.6,8.14,2.79v-3.19C132.52,105.68,128,104.54,124.38,102.87z"/>
							<path class="st402" d="M135.92,106.47v3.18c0,0,4.46,0.91,8.53,1.16v-3.2C144.45,107.61,140.41,107.31,135.92,106.47z"/>
							<path class="st402" d="M147.94,107.81v3.22c0,0,4.44,0.18,8.66-0.1v-3.2C156.6,107.72,152.05,108.06,147.94,107.81z"/>
							<path class="st402" d="M160.94,107.3v3.25c0,0,4.82-0.53,9.04-1.62v-3.21C169.98,105.72,165.28,106.87,160.94,107.3z"/>
							<path class="st402" d="M173.73,104.62v3.26c0,0,4.58-1.46,8.33-3.86v-3.17C182.06,100.85,179.47,102.73,173.73,104.62z"/>
							<path class="st402" d="M184.85,98.7v3.27c0,0,3.66-2.98,3.66-6.96V91.8C188.5,91.8,188.73,95.54,184.85,98.7z"/>
						</g>
						<g>
							<path class="st402" d="M115.23,89.25v3.17c0,0,0.63,2.3,6.38,5.86v-3.25C121.61,95.03,117.06,92.64,115.23,89.25z"/>
							<path class="st402" d="M124.38,96.44v3.21c0,0,3.33,1.6,8.14,2.79v-3.19C132.52,99.24,128,98.11,124.38,96.44z"/>
							<path class="st402" d="M135.92,100.04v3.18c0,0,4.46,0.91,8.53,1.16v-3.2C144.45,101.18,140.41,100.88,135.92,100.04z"/>
							<path class="st402" d="M147.94,101.38v3.22c0,0,4.44,0.18,8.66-0.1v-3.2C156.6,101.29,152.05,101.63,147.94,101.38z"/>
							<path class="st402" d="M160.94,100.87v3.25c0,0,4.82-0.53,9.04-1.62v-3.21C169.98,99.28,165.28,100.44,160.94,100.87z"/>
							<path class="st402" d="M173.73,98.19v3.26c0,0,4.58-1.46,8.33-3.86v-3.17C182.06,94.42,179.47,96.29,173.73,98.19z"/>
							<path class="st402" d="M184.85,92.27v3.27c0,0,3.66-2.98,3.66-6.96v-3.21C188.5,85.37,188.73,89.11,184.85,92.27z"/>
						</g>
						<g>
							<path class="st402" d="M115.23,82.82v3.17c0,0,0.63,2.3,6.38,5.86V88.6C121.61,88.6,117.06,86.2,115.23,82.82z"/>
							<path class="st402" d="M124.38,90.01v3.21c0,0,3.33,1.6,8.14,2.79v-3.19C132.52,92.81,128,91.68,124.38,90.01z"/>
							<path class="st402" d="M135.92,93.61v3.18c0,0,4.46,0.91,8.53,1.16v-3.2C144.45,94.74,140.41,94.44,135.92,93.61z"/>
							<path class="st402" d="M147.94,94.94v3.22c0,0,4.44,0.18,8.66-0.1v-3.2C156.6,94.86,152.05,95.2,147.94,94.94z"/>
							<path class="st402" d="M160.94,94.43v3.25c0,0,4.82-0.53,9.04-1.62v-3.21C169.98,92.85,165.28,94.01,160.94,94.43z"/>
							<path class="st402" d="M173.73,91.76v3.26c0,0,4.58-1.46,8.33-3.86v-3.17C182.06,87.99,179.47,89.86,173.73,91.76z"/>
							<path class="st402" d="M184.85,85.83v3.27c0,0,3.66-2.98,3.66-6.96v-3.21C188.5,78.94,188.73,82.67,184.85,85.83z"/>
						</g>
						<g>
							<path class="st402" d="M115.23,76.39v3.17c0,0,0.63,2.3,6.38,5.86v-3.25C121.61,82.16,117.06,79.77,115.23,76.39z"/>
							<path class="st402" d="M124.38,83.57v3.21c0,0,3.33,1.6,8.14,2.79v-3.19C132.52,86.38,128,85.25,124.38,83.57z"/>
							<path class="st402" d="M135.92,87.17v3.18c0,0,4.46,0.91,8.53,1.16v-3.2C144.45,88.31,140.41,88.01,135.92,87.17z"/>
							<path class="st402" d="M147.94,88.51v3.22c0,0,4.44,0.18,8.66-0.1v-3.2C156.6,88.43,152.05,88.76,147.94,88.51z"/>
							<path class="st402" d="M160.94,88v3.25c0,0,4.82-0.53,9.04-1.62v-3.21C169.98,86.42,165.28,87.57,160.94,88z"/>
							<path class="st402" d="M173.73,85.33v3.26c0,0,4.58-1.46,8.33-3.86v-3.17C182.06,81.56,179.47,83.43,173.73,85.33z"/>
							<path class="st402" d="M184.85,79.4v3.27c0,0,3.66-2.98,3.66-6.96V72.5C188.5,72.5,188.73,76.24,184.85,79.4z"/>
						</g>
						<g>
							<path class="st402" d="M115.23,69.95v3.17c0,0,0.63,2.3,6.38,5.86v-3.25C121.61,75.73,117.06,73.34,115.23,69.95z"/>
							<path class="st402" d="M124.38,77.14v3.21c0,0,3.33,1.6,8.14,2.79v-3.19C132.52,79.94,128,78.81,124.38,77.14z"/>
							<path class="st402" d="M135.92,80.74v3.18c0,0,4.46,0.91,8.53,1.16v-3.2C144.45,81.88,140.41,81.58,135.92,80.74z"/>
							<path class="st402" d="M147.94,82.08v3.22c0,0,4.44,0.18,8.66-0.1v-3.2C156.6,81.99,152.05,82.33,147.94,82.08z"/>
							<path class="st402" d="M160.94,81.57v3.25c0,0,4.82-0.53,9.04-1.62v-3.21C169.98,79.99,165.28,81.14,160.94,81.57z"/>
							<path class="st402" d="M173.73,78.89v3.26c0,0,4.58-1.46,8.33-3.86v-3.17C182.06,75.12,179.47,77,173.73,78.89z"/>
							<path class="st402" d="M184.85,72.97v3.27c0,0,3.66-2.98,3.66-6.96v-3.21C188.5,66.07,188.73,69.81,184.85,72.97z"/>
						</g>
						<g>
							<path class="st402" d="M115.23,63.52v3.17c0,0,0.63,2.3,6.38,5.86V69.3C121.61,69.3,117.06,66.91,115.23,63.52z"/>
							<path class="st402" d="M124.38,70.71v3.21c0,0,3.33,1.6,8.14,2.79v-3.19C132.52,73.51,128,72.38,124.38,70.71z"/>
							<path class="st402" d="M135.92,74.31v3.18c0,0,4.46,0.91,8.53,1.16v-3.2C144.45,75.45,140.41,75.15,135.92,74.31z"/>
							<path class="st402" d="M147.94,75.64v3.22c0,0,4.44,0.18,8.66-0.1v-3.2C156.6,75.56,152.05,75.9,147.94,75.64z"/>
							<path class="st402" d="M160.94,75.13v3.25c0,0,4.82-0.53,9.04-1.62v-3.21C169.98,73.55,165.28,74.71,160.94,75.13z"/>
							<path class="st402" d="M173.73,72.46v3.26c0,0,4.58-1.46,8.33-3.86v-3.17C182.06,68.69,179.47,70.56,173.73,72.46z"/>
							<path class="st402" d="M184.85,66.53v3.27c0,0,3.66-2.98,3.66-6.96v-3.21C188.5,59.64,188.73,63.38,184.85,66.53z"/>
						</g>
						<g>
							<path class="st402" d="M115.23,57.09v3.17c0,0,0.63,2.3,6.38,5.86v-3.25C121.61,62.86,117.06,60.47,115.23,57.09z"/>
							<path class="st402" d="M124.38,64.27v3.21c0,0,3.33,1.6,8.14,2.79v-3.19C132.52,67.08,128,65.95,124.38,64.27z"/>
							<path class="st402" d="M135.92,67.87v3.18c0,0,4.46,0.91,8.53,1.16v-3.2C144.45,69.01,140.41,68.71,135.92,67.87z"/>
							<path class="st402" d="M147.94,69.21v3.22c0,0,4.44,0.18,8.66-0.1v-3.2C156.6,69.13,152.05,69.47,147.94,69.21z"/>
							<path class="st402" d="M160.94,68.7v3.25c0,0,4.82-0.53,9.04-1.62v-3.21C169.98,67.12,165.28,68.28,160.94,68.7z"/>
							<path class="st402" d="M173.73,66.03v3.26c0,0,4.58-1.46,8.33-3.86v-3.17C182.06,62.26,179.47,64.13,173.73,66.03z"/>
							<path class="st402" d="M184.85,60.1v3.27c0,0,3.66-2.98,3.66-6.96v-3.21C188.5,53.21,188.73,56.94,184.85,60.1z"/>
						</g>
						<g>
							<path class="st402" d="M115.23,50.66v3.17c0,0,0.63,2.3,6.38,5.86v-3.25C121.61,56.43,117.06,54.04,115.23,50.66z"/>
							<path class="st402" d="M124.38,57.84v3.21c0,0,3.33,1.6,8.14,2.79v-3.19C132.52,60.65,128,59.52,124.38,57.84z"/>
							<path class="st402" d="M135.92,61.44v3.18c0,0,4.46,0.91,8.53,1.16v-3.2C144.45,62.58,140.41,62.28,135.92,61.44z"/>
							<path class="st402" d="M147.94,62.78v3.22c0,0,4.44,0.18,8.66-0.1v-3.2C156.6,62.69,152.05,63.03,147.94,62.78z"/>
							<path class="st402" d="M160.94,62.27v3.25c0,0,4.82-0.53,9.04-1.62v-3.21C169.98,60.69,165.28,61.84,160.94,62.27z"/>
							<path class="st402" d="M173.73,59.59v3.26c0,0,4.58-1.46,8.33-3.86v-3.17C182.06,55.82,179.47,57.7,173.73,59.59z"/>
							<path class="st402" d="M184.85,53.67v3.27c0,0,3.66-2.98,3.66-6.96v-3.21C188.5,46.77,188.73,50.51,184.85,53.67z"/>
						</g>
					</g>
					<ellipse class="st408" cx="151.33" cy="40.87" rx="37.17" ry="16.08"/>
					<path class="st412" d="M151.33,54.18c-20.27,0-34.4-7.01-34.4-13.31s14.13-13.31,34.4-13.31c20.27,0,34.4,7.01,34.4,13.31
						S171.6,54.18,151.33,54.18z"/>
					<polygon class="st410" points="186.6,21.49 188.85,32.35 188.85,211.63 183.19,215.83 183.19,38.59 					"/>
					<path class="st404" d="M169.7,29.75v190.42c4.49,1.05,8.98,1.19,13.49,0.31V23.12L169.7,29.75z"/>
					<path class="st396" d="M169.7,29.75l16.9-8.27c0,0,5.68,14.26-1.02,16.74C178.89,40.7,169.7,29.75,169.7,29.75z"/>
					<path class="st413" d="M172.43,39.58c0,0,1.76,2.92,4.02,4.13v-3.45c0,0-1.56,0.57-4.02-4.47c-2.46,2.4-4.02,0.15-4.02,0.15
						v3.45v0.28v0.39v0.39l6.06,3.25v0.77c-1.23-0.07-2.04,0.4-2.04,0.4s-1.76-2.92-4.02-4.13v3.45c0,0,1.56-0.57,4.02,4.47
						c2.46-2.4,4.02-0.15,4.02-0.15v-3.45v-0.28v-0.39V44l-6.06-3.25v-0.77C171.62,40.05,172.43,39.58,172.43,39.58z"/>
				</g>
			</g>
		</g>
	</g>
</g>
</svg>
