<?xml version="1.0" encoding="utf-8"?>
<!-- Generator: Adobe Illustrator 23.0.1, SVG Export Plug-In . SVG Version: 6.00 Build 0)  -->
<svg version="1.1" xmlns="http://www.w3.org/2000/svg" xmlns:xlink="http://www.w3.org/1999/xlink" x="0px" y="0px"
	 viewBox="0 0 240.94 170.08" style="enable-background:new 0 0 240.94 170.08;" xml:space="preserve">
<style type="text/css">
	.st0{fill:#F4C766;}
	.st1{fill:#955260;}
	.st2{fill:#77393D;}
	.st3{fill:#544A4F;}
	.st4{fill:#FBEBE8;}
	.st5{fill:#BD9DA0;}
	.st6{fill:#B18A8D;}
	.st7{fill:#3A4450;}
	.st8{fill:#8C6C6F;}
	.st9{fill:#A8ADB6;}
	.st10{fill:#BC6069;}
	.st11{fill:#A25963;}
	.st12{fill:#C7ADB0;}
	.st13{fill:#DED0C0;}
	.st14{fill:#A77E84;}
	.st15{fill:#624E52;}
	.st16{fill:#766569;}
	.st17{fill:#8C6A70;}
	.st18{fill:#AA888D;}
	.st19{fill:#745E62;}
	.st20{fill:#B79CA1;}
	.st21{fill:#5B4548;}
	.st22{fill:#74565A;}
	.st23{fill:#7A5B5F;}
	.st24{fill:#734953;}
	.st25{fill:#9F6A78;}
	.st26{fill:#704F5A;}
	.st27{fill:#875A64;}
	.st28{fill:#AA6974;}
	.st29{fill:#DABEC3;}
	.st30{fill:#E9E6E6;}
	.st31{fill:#AC5E6B;}
	.st32{fill:#6A3D44;}
	.st33{fill:#18ABA1;}
	.st34{clip-path:url(#SVGID_2_);}
	.st35{fill:#EACFAA;}
	.st36{fill:#E3C595;}
	.st37{fill:#FADEC4;}
	.st38{fill:#F0DCC0;}
	.st39{clip-path:url(#SVGID_2_);fill:#F0DCC0;}
	.st40{clip-path:url(#SVGID_2_);fill:#A18865;}
	.st41{fill:#CEA871;}
	.st42{fill:#ECD4B0;}
	.st43{clip-path:url(#SVGID_2_);fill:#85B5AC;}
	.st44{fill:#748F3E;}
	.st45{fill:#567132;}
	.st46{fill:#9A5B25;}
	.st47{fill:#40592B;}
	.st48{fill:#734521;}
	.st49{fill:#493919;}
	.st50{fill:#715927;}
	.st51{fill:#385D31;}
	.st52{fill:#9BB051;}
	.st53{fill:#2A4E28;}
	.st54{fill:#7FA340;}
	.st55{fill:#243D1E;}
	.st56{fill:#AFBA65;}
	.st57{fill:#668E3F;}
	.st58{fill:#ADB9C1;}
	.st59{fill:#8A959A;}
	.st60{fill:#616A6D;}
	.st61{fill:#75B05E;}
	.st62{fill:#BCCA45;}
	.st63{fill:#AAAF31;}
	.st64{fill:#909029;}
	.st65{fill:#DF5F45;}
	.st66{fill:none;stroke:#FFFFFF;stroke-miterlimit:10;}
	.st67{fill:#AF624C;}
	.st68{fill:#DA8A64;}
	.st69{fill:#D9A13F;}
	.st70{fill:#EDB94C;}
	.st71{fill:#8B4953;}
	.st72{fill:#CB7B58;}
	.st73{fill:none;}
	.st74{fill:#E9AC4E;}
	.st75{fill:#B29794;}
	.st76{opacity:0.5;fill:#8A6139;}
	.st77{fill:#D7D2BE;}
	.st78{fill:#CBBCB5;}
	.st79{fill:#B39A95;}
	.st80{fill:#F7F3E6;}
	.st81{fill:#F2EADC;}
	.st82{fill:#3B232B;}
	.st83{fill:#5D3C44;}
	.st84{fill:#D5D4C4;}
	.st85{fill:#F1F2DD;}
	.st86{fill:#62474D;}
	.st87{fill:#A49088;}
	.st88{fill:#E8F3E1;}
	.st89{fill:#AF9590;}
	.st90{fill:#D8C8BE;}
	.st91{fill:#F5EFDF;}
	.st92{fill:#F1EBDD;}
	.st93{fill:#F0E3DC;}
	.st94{fill:none;stroke:#F5EFDF;stroke-width:0.5;stroke-miterlimit:10;}
	.st95{fill:#E9AC4E;stroke:#FFFFFF;stroke-width:0.5;stroke-miterlimit:10;}
	.st96{fill:none;stroke:#F2EADC;stroke-miterlimit:10;}
	.st97{opacity:0.8;fill:#99D3C8;}
	.st98{fill:#FAEDD7;}
	.st99{fill:#E9D3A4;}
	.st100{fill:#887853;}
	.st101{opacity:0.6;fill:#99D3C8;}
	.st102{clip-path:url(#SVGID_2_);fill:#ADB9C1;}
	.st103{clip-path:url(#SVGID_2_);fill:#B1B85D;}
	.st104{fill:#C7AC7E;}
	.st105{fill:#F7DFB6;}
	.st106{fill:#DA8B6C;}
	.st107{fill:#EED7B6;}
	.st108{fill:#352D31;}
	.st109{fill:#E5CAA8;}
	.st110{fill:#211B27;}
	.st111{fill:#0E0205;}
	.st112{fill:#C8A57C;}
	.st113{fill:#181432;}
	.st114{fill:#192016;}
	.st115{fill:#2A222E;}
	.st116{fill:#131212;}
	.st117{fill:#383236;}
	.st118{fill:#443A38;}
	.st119{fill:#F6D9B7;}
	.st120{fill:#151313;}
	.st121{fill:#D98A73;}
	.st122{fill:#8E4329;}
	.st123{fill:#F5C620;}
	.st124{fill:#ED8916;}
	.st125{fill:#C97315;}
	.st126{fill:#891C21;}
	.st127{fill:#C8C4BE;}
	.st128{fill:#D9D3CE;}
	.st129{fill:#FFFFFF;}
	.st130{fill:#F0EFEF;}
	.st131{fill:#F1AB40;}
	.st132{fill:#DA8F2D;}
	.st133{fill:#856727;}
	.st134{clip-path:url(#SVGID_2_);fill:#8A959A;}
	.st135{clip-path:url(#SVGID_2_);fill:#9A5B25;}
	.st136{fill:#D2A671;}
	.st137{fill:#CA8F6B;}
	.st138{fill:#AB6F4C;}
	.st139{fill:#D9A086;}
	.st140{fill:#A18376;}
	.st141{clip-path:url(#SVGID_2_);fill:#929441;}
	.st142{clip-path:url(#SVGID_2_);fill:#CA8F6B;}
	.st143{clip-path:url(#SVGID_2_);fill:#FAD3A4;}
	.st144{clip-path:url(#SVGID_2_);fill:#D9A086;}
	.st145{clip-path:url(#SVGID_2_);fill:#D2A671;}
	.st146{clip-path:url(#SVGID_2_);fill:#AB6F4C;}
	.st147{clip-path:url(#SVGID_2_);fill:#616A6D;}
	.st148{clip-path:url(#SVGID_2_);fill:#734521;}
	.st149{fill:#014A63;}
	.st150{fill:#2683AD;}
	.st151{fill:#09698D;}
	.st152{fill:#0C6396;}
	.st153{fill:#0C6BB0;}
	.st154{fill:#DCE78D;}
	.st155{fill:#B1B85D;}
	.st156{fill:#70712D;}
	.st157{fill:#FAD3A4;}
	.st158{fill:#929441;}
	.st159{fill:#547D55;}
	.st160{fill:#689755;}
	.st161{fill:#999791;}
	.st162{fill:#5A5D5A;}
	.st163{fill:#727271;}
	.st164{fill:#EDBA61;}
	.st165{fill:#E3A43C;}
	.st166{fill:#E2921A;}
	.st167{fill:#A8B2DA;}
	.st168{fill:#DCDFF0;}
	.st169{fill:#3E73B9;}
	.st170{fill:#5281C2;}
	.st171{fill:#838FB2;}
	.st172{fill:#9DA8C4;}
	.st173{fill:#F8CA81;}
	.st174{fill:#540A10;}
	.st175{fill:#64231C;}
	.st176{fill:#B92E21;}
	.st177{fill:#861B20;}
	.st178{fill:#103672;}
	.st179{fill:#D8A417;}
	.st180{fill:#F5B719;}
	.st181{fill:#D8A415;}
	.st182{fill:#BB8818;}
	.st183{fill:#F1B86D;}
	.st184{fill:#D29A56;}
	.st185{fill:#219CD9;}
	.st186{fill:#F9DBC0;}
	.st187{fill:#E0B8A4;}
	.st188{fill:#BC8B76;}
	.st189{fill:#E9C8AD;}
	.st190{fill:#6D3D30;}
	.st191{fill:#B48F76;}
	.st192{fill:#76594A;}
	.st193{fill:#C8A68C;}
	.st194{fill:#A78269;}
	.st195{fill:#7E634E;}
	.st196{fill:#CFA88B;}
	.st197{fill:#493223;}
	.st198{fill:#997967;}
	.st199{fill:#E6C6AA;}
	.st200{fill:#C3A38B;}
	.st201{fill:#C3A18A;}
	.st202{fill:#6C5244;}
	.st203{fill:#74C0B3;}
	.st204{fill:#895140;}
	.st205{fill:#AB715C;}
	.st206{fill:#AE7E6C;}
	.st207{fill:#CAA392;}
	.st208{fill:#654237;}
	.st209{fill:#BE9C80;}
	.st210{fill:#7A534A;}
	.st211{fill:#884D3F;}
	.st212{fill:#85AA39;}
	.st213{fill:#6A8B32;}
	.st214{fill:#9BBA58;}
	.st215{fill:#5D7F34;}
	.st216{fill:#4C6830;}
	.st217{fill:#3C5C2D;}
	.st218{fill:#304E27;}
	.st219{fill:#557232;}
	.st220{fill:#49652F;}
	.st221{fill:#5F8434;}
	.st222{fill:#6C9F30;}
	.st223{fill:#BF9457;}
	.st224{fill:#8F6225;}
	.st225{fill:#AB7C30;}
	.st226{fill:#79583F;}
	.st227{fill:#28100B;}
	.st228{fill:#23100D;}
	.st229{opacity:0.6;fill:#219CD9;}
	.st230{fill:#CBE8F0;}
	.st231{fill:#87CFE9;}
	.st232{fill:#A7DAE9;}
	.st233{clip-path:url(#SVGID_4_);}
	.st234{clip-path:url(#SVGID_2_);fill:#70712D;}
	.st235{clip-path:url(#SVGID_2_);fill:none;}
	.st236{fill:#D4DB6E;}
	.st237{fill:#9F9F49;}
	.st238{fill:#BCBE5D;}
	.st239{fill:#D3C2A4;}
	.st240{fill:#C3BEAD;}
	.st241{fill:#E8D7C2;}
	.st242{fill:#878577;}
	.st243{fill:#DCD8CB;}
	.st244{fill:#F1EEE8;}
	.st245{fill:#1A3F61;}
	.st246{fill:#163955;}
	.st247{fill:#123048;}
	.st248{fill:#25567E;}
	.st249{fill:#D0C8B9;}
	.st250{fill:#FCEDDE;}
	.st251{fill:#FEF3EA;}
	.st252{fill:#082332;}
	.st253{fill:#F8EEE4;}
	.st254{fill:#C2AB93;}
	.st255{fill:#D2BFB3;}
	.st256{fill:#B17441;}
	.st257{fill:none;stroke:#73502D;stroke-width:0.2;stroke-miterlimit:10;}
	.st258{fill:none;stroke:#73502D;stroke-width:0.15;stroke-miterlimit:10;}
	.st259{fill:#FCECE1;}
	.st260{fill:#C2AF9A;}
	.st261{fill:#918781;}
	.st262{fill:#6D6E72;}
	.st263{fill:#FFFAEF;}
	.st264{fill:#E2DFD8;}
	.st265{fill:#53555B;}
	.st266{fill:#336D94;}
	.st267{fill:#F2F09E;}
	.st268{fill:#BEB954;}
	.st269{fill:#D4CE7A;}
	.st270{fill:#DCA570;}
	.st271{fill:#955C34;}
	.st272{fill:#BC8152;}
	.st273{fill:#72351C;}
	.st274{fill:#904B23;}
	.st275{fill:#8E694D;}
	.st276{fill:#85C35E;}
	.st277{fill:#709430;}
	.st278{fill:#5F432F;}
	.st279{fill:#B4CF4D;}
	.st280{fill:#CBDC50;}
	.st281{fill:#EFB99F;}
	.st282{fill:#BA4458;}
	.st283{fill:#4C515A;}
	.st284{fill:#075A7C;}
	.st285{fill:#3A97AE;}
	.st286{fill:#E8A78C;}
	.st287{fill:#F1BA9F;}
	.st288{fill:#9C1E2C;}
	.st289{fill:#452C25;}
	.st290{fill:#E45438;}
	.st291{fill:#C4361E;}
	.st292{fill:#E3F2F1;}
	.st293{fill:#D5ECEA;}
	.st294{fill:#BCE1DB;}
	.st295{fill:#F2F9FA;}
	.st296{fill:#62B0A0;}
	.st297{fill:#72C4B3;}
	.st298{fill:#B7DDDA;}
	.st299{fill:#E14947;}
	.st300{fill:#BDC64F;}
	.st301{fill:#EEDA98;}
	.st302{fill:#D09E23;}
	.st303{fill:#EDBB30;}
	.st304{fill:#46B9A8;}
	.st305{fill:#2AA390;}
	.st306{fill:#E8D0CC;}
	.st307{fill:#ED7016;}
	.st308{fill:#933030;}
	.st309{fill:#539835;}
	.st310{fill:#6C4D37;}
	.st311{fill:#E8AEB9;}
	.st312{fill:#D61D2B;}
	.st313{fill:#18708D;}
	.st314{fill:#67A2A1;}
	.st315{fill:#7FBFBC;}
	.st316{fill:#825D41;}
	.st317{fill:#9A6542;}
	.st318{fill:#60B1D5;}
	.st319{fill:#7CCBE7;}
	.st320{fill:#749936;}
	.st321{fill:#96BE53;}
	.st322{fill:#7FA742;}
	.st323{fill:#AAC96A;}
	.st324{fill:#B57F59;}
	.st325{fill:#AB744E;}
	.st326{fill:#DDA137;}
	.st327{fill:#E7B64E;}
	.st328{fill:#C38A63;}
	.st329{fill:#93C67D;}
	.st330{fill:#425A5F;}
	.st331{fill:#617D80;}
	.st332{fill:#73A961;}
	.st333{fill:#C12A1F;}
	.st334{fill:#D8452B;}
	.st335{fill:#4C675E;}
	.st336{fill:#89664B;}
	.st337{fill:#E15513;}
	.st338{fill:#88D0ED;}
	.st339{fill:#D2B6D7;}
	.st340{fill:#804999;}
	.st341{fill:#5A6A99;}
	.st342{fill:#4C5A89;}
	.st343{fill:#D8A641;}
	.st344{fill:#E8C127;}
	.st345{fill:#EFCA32;}
	.st346{fill-rule:evenodd;clip-rule:evenodd;fill:#2F93C7;}
	.st347{fill-rule:evenodd;clip-rule:evenodd;fill:#15323F;}
	.st348{fill-rule:evenodd;clip-rule:evenodd;fill:#092745;}
	.st349{fill-rule:evenodd;clip-rule:evenodd;fill:#0A335A;}
	.st350{fill-rule:evenodd;clip-rule:evenodd;fill:#E9BC7B;}
	.st351{fill-rule:evenodd;clip-rule:evenodd;fill:#227AA7;}
	.st352{fill-rule:evenodd;clip-rule:evenodd;fill:#1684B9;}
	.st353{fill-rule:evenodd;clip-rule:evenodd;fill:#FAD8A5;}
	.st354{fill-rule:evenodd;clip-rule:evenodd;fill:#321306;}
	.st355{fill-rule:evenodd;clip-rule:evenodd;fill:#1C95CF;}
	.st356{fill-rule:evenodd;clip-rule:evenodd;fill:#11868E;}
	.st357{fill-rule:evenodd;clip-rule:evenodd;fill:#28B4B3;}
	.st358{fill-rule:evenodd;clip-rule:evenodd;fill:#030912;}
	.st359{fill-rule:evenodd;clip-rule:evenodd;fill:#021A2F;}
	.st360{fill-rule:evenodd;clip-rule:evenodd;fill:#1D1D1F;}
	.st361{fill-rule:evenodd;clip-rule:evenodd;fill:#46BDCC;}
	.st362{fill-rule:evenodd;clip-rule:evenodd;fill:#C1A76A;}
	.st363{fill-rule:evenodd;clip-rule:evenodd;fill:#A08857;}
	.st364{fill-rule:evenodd;clip-rule:evenodd;fill:#D9BE7D;}
	.st365{fill-rule:evenodd;clip-rule:evenodd;fill:#A7905F;}
	.st366{fill-rule:evenodd;clip-rule:evenodd;fill:#CBB174;}
	.st367{fill-rule:evenodd;clip-rule:evenodd;fill:#823F34;}
	.st368{fill-rule:evenodd;clip-rule:evenodd;fill:#F5A22C;}
	.st369{fill-rule:evenodd;clip-rule:evenodd;fill:#F6B758;}
	.st370{fill-rule:evenodd;clip-rule:evenodd;fill:#7C4A36;}
	.st371{fill-rule:evenodd;clip-rule:evenodd;fill:#583424;}
	.st372{fill-rule:evenodd;clip-rule:evenodd;fill:#8F563A;}
	.st373{fill-rule:evenodd;clip-rule:evenodd;fill:#456530;}
	.st374{fill-rule:evenodd;clip-rule:evenodd;fill:#749D3D;}
	.st375{fill-rule:evenodd;clip-rule:evenodd;fill:#5F8834;}
	.st376{fill-rule:evenodd;clip-rule:evenodd;fill:#EB5A19;}
	.st377{fill-rule:evenodd;clip-rule:evenodd;fill:#ED6C1C;}
	.st378{fill-rule:evenodd;clip-rule:evenodd;fill:#34963C;}
	.st379{fill-rule:evenodd;clip-rule:evenodd;fill:#49B053;}
	.st380{fill-rule:evenodd;clip-rule:evenodd;fill:#3B3232;}
	.st381{fill-rule:evenodd;clip-rule:evenodd;fill:#A7C7E2;}
	.st382{fill-rule:evenodd;clip-rule:evenodd;fill:#C4DBEE;}
	.st383{fill-rule:evenodd;clip-rule:evenodd;fill:#1B3346;}
	.st384{fill-rule:evenodd;clip-rule:evenodd;fill:#365975;}
	.st385{fill-rule:evenodd;clip-rule:evenodd;fill:#224058;}
	.st386{fill-rule:evenodd;clip-rule:evenodd;fill:#416787;}
	.st387{fill-rule:evenodd;clip-rule:evenodd;fill:#040000;}
	.st388{fill-rule:evenodd;clip-rule:evenodd;fill:#D7EAF8;}
	.st389{fill-rule:evenodd;clip-rule:evenodd;fill:#111111;}
	.st390{fill-rule:evenodd;clip-rule:evenodd;fill:#2E2C2C;}
	.st391{fill-rule:evenodd;clip-rule:evenodd;fill:#3B3939;}
	.st392{fill:#72A1A4;}
	.st393{fill:#95BDC4;}
	.st394{fill:#C3E0E6;}
	.st395{opacity:0.53;fill:#403532;}
	.st396{fill:#E7EAF2;}
	.st397{fill:#A0AAB5;}
	.st398{fill:#B7BFC8;}
	.st399{fill:#434549;}
	.st400{fill:#AA7960;}
	.st401{fill:#CDD2DA;}
	.st402{fill:#205789;}
	.st403{fill:#BDC4CB;}
	.st404{fill:#C8CFD7;}
	.st405{fill:#AEBCCB;}
	.st406{fill:#99A2AD;}
	.st407{fill:#94A2C0;}
	.st408{fill:#B2BCD3;}
	.st409{fill:#CACFD6;}
	.st410{fill:#D3D7DF;}
	.st411{fill:#A5AFC5;}
	.st412{fill:#6A768B;}
	.st413{fill:#C78618;}
	.st414{fill:#82A92D;}
	.st415{fill:#627A31;}
	.st416{fill:#77962E;}
	.st417{fill:#BFC5C2;}
	.st418{fill:#DFDACF;}
	.st419{fill:#F8F6E8;}
	.st420{fill:#858393;}
	.st421{fill:#B9B4AB;}
	.st422{fill:#EBE8DD;}
	.st423{fill:#9C9CA9;}
	.st424{fill:#9E5C2C;}
	.st425{fill:#5F3819;}
	.st426{fill:#959E26;}
	.st427{fill:#955A25;}
	.st428{fill:#727A2E;}
	.st429{fill:#724622;}
	.st430{fill:#DF673F;}
	.st431{fill:#C65021;}
	.st432{fill:#C0411F;}
	.st433{fill:#F1C980;}
	.st434{fill:#F1C980;stroke:#F1C980;stroke-miterlimit:10;}
	.st435{fill:#C5572E;}
	.st436{fill:#73BEC4;}
	.st437{fill:#F8F5F5;}
	.st438{fill:#070001;}
	.st439{fill:#852B21;}
	.st440{fill:#ECD590;}
	.st441{fill:#E8BF6F;}
	.st442{fill:#F7E2B6;}
	.st443{fill:none;stroke:#E38C2B;stroke-miterlimit:10;}
	.st444{fill:none;stroke:#40220E;stroke-miterlimit:10;}
	.st445{fill:#F1C980;stroke:#F1C980;stroke-width:0.4;stroke-miterlimit:10;}
	.st446{fill:none;stroke:#40220E;stroke-width:0.4;stroke-miterlimit:10;}
	.st447{fill:#F1C980;stroke:#F1C980;stroke-width:0.75;stroke-miterlimit:10;}
	.st448{fill:#862821;}
	.st449{fill:#993823;}
	.st450{fill:#5D3819;}
	.st451{fill:#7AAA4A;}
	.st452{fill:#699234;}
	.st453{fill:#6FA23B;}
	.st454{fill:#ACB9C1;}
	.st455{fill:#5F696D;}
	.st456{fill:#744622;}
	.st457{fill:#A84429;}
	.st458{fill:#D6CBB6;}
	.st459{fill:#BA5742;}
	.st460{fill:#9B512C;}
	.st461{fill:#B15A3F;}
	.st462{fill:#984C35;}
	.st463{fill:#C68459;}
	.st464{fill:#A25246;}
	.st465{fill:#A15139;}
	.st466{fill:#AC574A;}
	.st467{fill:#A66842;}
	.st468{fill:#9E553C;}
	.st469{fill:none;stroke:#E4007F;stroke-miterlimit:10;}
	.st470{fill:#DA7A5F;}
	.st471{fill:#BCAFA4;}
	.st472{fill:#BF6347;}
	.st473{fill:#E9E6C4;}
	.st474{fill:#C35132;}
	.st475{fill:#A29BA5;}
	.st476{fill:#EBDBD2;}
	.st477{fill:#BEB2B8;}
	.st478{fill:#D58C54;}
	.st479{fill:#DAAA64;}
	.st480{fill:#E4D587;}
	.st481{fill:#B78E66;}
	.st482{fill:#D39152;}
	.st483{fill:#212936;}
	.st484{fill:#1C1E3A;}
	.st485{fill:#3A426D;}
	.st486{fill:#202C4B;}
	.st487{fill:#343C74;}
	.st488{fill:#1B2C57;}
	.st489{fill:#1A234B;}
	.st490{fill:#3E3F63;}
	.st491{fill:#30397F;}
	.st492{fill:#444A7F;}
	.st493{fill:#223565;}
	.st494{fill:#705828;}
	.st495{fill:#9BB151;}
	.st496{fill:#D6BEB1;}
	.st497{fill:#3D3E3D;}
	.st498{fill:#AF9A88;}
	.st499{fill:#8E8C8B;}
	.st500{fill:#3D3E3D;stroke:#898989;stroke-width:0.5;stroke-miterlimit:10;}
	.st501{fill:none;stroke:#3C3D3C;stroke-width:0.5;stroke-miterlimit:10;}
	.st502{fill:#F1E8E3;}
	.st503{fill:#AD4028;}
	.st504{fill:#8F3E2F;}
	.st505{fill:#89959A;}
	.st506{fill:#8BA92A;}
	.st507{fill:#4E6C31;}
	.st508{fill:#B24222;}
	.st509{fill:#E8D9CB;}
	.st510{fill:#BD9687;}
	.st511{fill:#E26B4F;}
	.st512{fill:#DE5836;}
	.st513{fill:#C95539;}
	.st514{fill:#237293;stroke:#A37B51;stroke-width:0.8;stroke-miterlimit:10;}
	.st515{fill:none;stroke:#A37B51;stroke-width:0.8;stroke-miterlimit:10;}
	.st516{fill:#998277;}
	.st517{fill:#256E92;}
	.st518{fill:#A37B51;stroke:#A37B51;stroke-width:0.8;stroke-miterlimit:10;}
	.st519{fill:#237293;}
	.st520{fill:#B68B7B;}
	.st521{fill:#73695D;}
	.st522{fill:#5B873B;}
	.st523{fill:#88AD3D;}
	.st524{fill:#6D9B30;}
	.st525{fill:#E6E6E8;}
	.st526{fill:#D2D3D5;}
	.st527{fill:#A8A9AD;}
	.st528{fill:#BDBEBF;}
	.st529{fill:#EFF1F0;}
	.st530{fill:#E56F69;}
	.st531{fill:#E67364;}
	.st532{fill:#983530;}
	.st533{fill:#9E2F33;}
	.st534{fill:#E4483F;}
	.st535{fill:#0A6293;}
	.st536{fill:#90D1EB;}
	.st537{fill:#41B1D8;}
	.st538{fill:#3DA3D0;}
	.st539{fill:#1D8ACC;}
	.st540{fill:#678497;}
	.st541{fill:#557186;}
	.st542{fill:#E9E9E7;}
	.st543{fill:#333333;}
	.st544{fill:#D3D4D6;}
	.st545{fill:#567387;}
	.st546{fill:#0B6491;}
	.st547{fill:#248CCD;}
	.st548{fill:#C6C7C9;}
	.st549{fill:#449EBB;}
	.st550{fill:#D1D2D4;}
	.st551{fill:#BF8652;}
	.st552{fill:#A87746;}
	.st553{fill:#91C66F;}
	.st554{fill:#79BB5B;}
	.st555{fill:#6DAE4E;}
	.st556{fill:#AEACAC;}
	.st557{fill:#AEACAC;stroke:#7F8080;stroke-width:0.75;stroke-miterlimit:10;}
	.st558{fill:#858283;stroke:#7F8080;stroke-width:0.75;stroke-miterlimit:10;}
	.st559{fill:#858283;}
	.st560{fill:#69686A;}
	.st561{fill:#CECAC3;}
	.st562{fill:#E4E3E3;}
	.st563{fill:none;stroke:#858283;stroke-width:0.75;stroke-miterlimit:10;}
	.st564{fill:#323B3D;}
	.st565{fill:#D5D2D1;}
	.st566{fill:#D3D1D2;}
	.st567{fill:#FEFEFE;}
	.st568{fill:#F6F1F8;}
	.st569{fill:#6B899F;}
	.st570{fill:#4F4341;stroke:#D6CEC3;stroke-width:0.5;stroke-miterlimit:10;}
	.st571{fill:#655C5A;}
	.st572{fill-rule:evenodd;clip-rule:evenodd;fill:#DB2626;}
	.st573{fill-rule:evenodd;clip-rule:evenodd;fill:#C51727;}
	.st574{fill-rule:evenodd;clip-rule:evenodd;fill:#69686A;}
	.st575{fill-rule:evenodd;clip-rule:evenodd;fill:#424141;}
	.st576{fill-rule:evenodd;clip-rule:evenodd;fill:#B31D26;}
	.st577{fill-rule:evenodd;clip-rule:evenodd;fill:#E4E4E5;}
	.st578{fill-rule:evenodd;clip-rule:evenodd;fill:#AE1E29;}
	.st579{fill-rule:evenodd;clip-rule:evenodd;fill:#D1D1D1;}
	.st580{fill-rule:evenodd;clip-rule:evenodd;fill:#E24B4D;}
	.st581{fill-rule:evenodd;clip-rule:evenodd;fill:#284367;}
	.st582{fill-rule:evenodd;clip-rule:evenodd;fill:#4E6281;}
	.st583{fill-rule:evenodd;clip-rule:evenodd;fill:#8F1D26;}
	.st584{fill-rule:evenodd;clip-rule:evenodd;fill:#111223;}
	.st585{fill-rule:evenodd;clip-rule:evenodd;fill:#5A5759;}
	.st586{fill-rule:evenodd;clip-rule:evenodd;fill:#C2C3C3;}
	.st587{fill-rule:evenodd;clip-rule:evenodd;fill:#929397;}
	.st588{fill:#A3A4A6;}
	.st589{fill:#F7F7F7;}
	.st590{fill:#DCDDDF;}
	.st591{fill:#29394C;}
	.st592{fill:#999A9D;}
	.st593{fill:#DBDADA;}
	.st594{fill:#C3C4C6;}
	.st595{fill:#E4E4E3;}
	.st596{fill:#E5E3E4;}
	.st597{fill:#025081;}
	.st598{fill:#02568B;}
	.st599{fill:#1266A4;}
	.st600{fill:#C0C0C2;}
	.st601{fill:#397095;}
	.st602{clip-path:url(#SVGID_2_);fill:#9B7949;}
	.st603{opacity:0.6;clip-path:url(#SVGID_2_);fill:#99D3C8;}
	.st604{clip-path:url(#SVGID_2_);fill:#EACFAA;}
	.st605{clip-path:url(#SVGID_2_);fill:#E3C595;}
	.st606{clip-path:url(#SVGID_2_);fill:#FADEC4;}
	.st607{fill:#DBCFBF;}
	.st608{fill:#FFF9F2;}
	.st609{fill:#4E4D4D;}
	.st610{fill:#3A3938;}
	.st611{fill:#424241;}
	.st612{fill:#E7DED5;}
	.st613{fill:#ECE6E1;}
	.st614{fill:#D5D0CB;}
	.st615{fill:#A18865;}
	.st616{fill:#85B5AC;}
	.st617{clip-path:url(#SVGID_6_);}
	.st618{fill:#9B7949;}
	.st619{fill:#3E3A39;}
	.st620{opacity:0.3;}
	.st621{fill:#D6D6D6;}
	.st622{fill:#ACABAB;}
	.st623{fill:#D6D6D6;stroke:#D6D6D6;stroke-width:4;stroke-miterlimit:10;}
	.st624{fill:#F1F1F1;}
	.st625{fill:none;stroke:#FFFFFF;stroke-linecap:round;stroke-miterlimit:10;}
	.st626{fill:#1B1C1B;}
	.st627{fill:none;stroke:#F1F1F1;stroke-width:2;stroke-miterlimit:10;}
	.st628{fill:#2E2E2E;}
	.st629{fill:none;stroke:#F1F1F1;stroke-width:2;stroke-linecap:round;stroke-linejoin:round;stroke-miterlimit:10;}
	.st630{fill:#161717;}
	.st631{fill:#040000;}
	.st632{fill:#492743;}
	.st633{opacity:0.05;fill:none;stroke:#FFFFFF;stroke-width:0.5;stroke-miterlimit:10;}
	.st634{fill:#30393C;}
	.st635{fill:#AAD6AB;}
	.st636{fill:url(#SVGID_7_);}
	.st637{fill:url(#SVGID_8_);}
	.st638{fill:url(#SVGID_9_);}
	.st639{fill:url(#SVGID_10_);}
	.st640{fill:url(#SVGID_11_);}
	.st641{fill:url(#SVGID_12_);}
	.st642{fill:url(#SVGID_13_);}
	.st643{fill:url(#SVGID_14_);}
	.st644{fill:url(#SVGID_15_);}
	.st645{fill:url(#SVGID_16_);}
	.st646{fill:#D8E3B8;}
	.st647{fill:#F4C324;}
	.st648{clip-path:url(#SVGID_30_);}
	.st649{fill:url(#SVGID_31_);}
	.st650{fill:url(#SVGID_32_);}
	.st651{fill:url(#SVGID_33_);}
	.st652{fill:url(#SVGID_34_);}
	.st653{fill:url(#SVGID_35_);}
	.st654{fill:url(#SVGID_36_);}
	.st655{fill:url(#SVGID_37_);}
	.st656{fill:url(#SVGID_38_);}
	.st657{fill:url(#SVGID_39_);}
	.st658{fill:url(#SVGID_40_);}
	.st659{fill:url(#SVGID_41_);}
	.st660{fill:url(#SVGID_42_);}
	.st661{fill:url(#SVGID_43_);}
	.st662{fill:url(#SVGID_44_);}
	.st663{fill:url(#SVGID_45_);}
	.st664{fill:url(#SVGID_46_);}
	.st665{fill:url(#SVGID_47_);}
	.st666{fill:url(#SVGID_48_);}
	.st667{fill:url(#SVGID_49_);}
	.st668{fill:url(#SVGID_50_);}
</style>
<g id="圖層_1">
</g>
<g id="圖層_2">
	<g>
		<polygon class="st454" points="120.47,55.44 29.47,99.99 120.47,144.61 211.48,99.99 		"/>
		<g>
			<polygon class="st522" points="120.47,138.1 43.88,99.99 43.88,97.45 120.47,135.56 			"/>
			<polygon class="st523" points="120.47,138.07 196.86,100.95 196.86,98.41 120.47,135.53 			"/>
			<g>
				<polygon class="st524" points="196.86,98.49 120.52,135.56 43.88,97.63 120.22,60.56 				"/>
			</g>
		</g>
		<polygon class="st505" points="211.48,112.55 211.48,100.03 120.47,144.65 120.47,157.17 		"/>
		<polygon class="st46" points="211.48,112.55 211.48,106.29 120.47,150.91 120.47,157.17 		"/>
		<polygon class="st455" points="29.47,112.55 29.47,100.03 120.47,144.65 120.47,157.17 		"/>
		<polygon class="st48" points="29.47,112.55 29.47,106.29 120.47,150.91 120.47,157.17 		"/>
		<g>
			<g>
				<g>
					<polygon class="st588" points="65.28,96.32 115.49,120.86 115.49,109.89 65.28,85.34 					"/>
					<polygon class="st550" points="165.71,89.11 115.49,113.66 115.49,109.89 165.71,85.34 					"/>
					<polygon class="st589" points="170.73,91.75 120.51,116.3 115.49,113.77 165.71,89.22 					"/>
					<polygon class="st550" points="170.73,95.5 120.51,120.05 120.51,116.28 170.73,91.73 					"/>
					<polygon class="st550" points="175.77,101.95 125.56,126.5 125.53,122.75 175.75,98.21 					"/>
					<polygon class="st589" points="175.75,98.13 125.53,122.68 120.51,120.15 170.73,95.6 					"/>
					<polygon class="st588" points="65.28,96.97 120.56,123.82 120.56,116.06 65.28,89.22 					"/>
					<polygon class="st588" points="65.2,96.92 125.51,126.5 125.51,122.67 65.2,93.08 					"/>
					<g>
						<polygon class="st589" points="165.71,85.34 115.49,109.89 115.49,60.8 						"/>
						<polygon class="st590" points="115.49,60.8 115.49,109.89 64.78,85.34 						"/>
					</g>
				</g>
				<polygon class="st550" points="115.52,69.85 145.6,55.12 145.6,85.43 137.29,89.5 137.29,73.87 123.82,80.46 123.82,96.09 
					115.52,100.16 				"/>
				<polygon class="st591" points="136.07,73.2 136.07,88.88 125.08,94.26 125.08,78.59 				"/>
				<polygon class="st588" points="115.52,100.16 85.44,85.43 85.44,55.12 115.52,69.85 				"/>
				<polygon class="st592" points="137.29,89.54 136.05,88.89 136.05,73.2 137.29,73.86 				"/>
				<g>
					<polygon class="st593" points="110.96,103.94 115.51,106.17 120.06,103.92 115.51,101.69 					"/>
					<polygon class="st588" points="110.97,105.72 115.52,107.96 115.52,106.16 110.97,103.93 					"/>
					<polygon class="st550" points="120.07,105.72 115.52,107.96 115.52,106.16 120.07,103.93 					"/>
					<g>
						<rect x="114.46" y="73.48" class="st594" width="2.1" height="31.24"/>
						<polygon class="st588" points="113.25,72.69 114.46,73.48 114.46,104.72 113.25,103.93 						"/>
						<polygon class="st595" points="117.8,72.69 116.58,73.48 116.58,104.72 117.8,103.93 						"/>
					</g>
				</g>
				<g>
					<polygon class="st593" points="100.92,99.02 105.47,101.25 110.02,99 105.47,96.77 					"/>
					<polygon class="st588" points="100.93,100.8 105.48,103.03 105.48,101.24 100.93,99.01 					"/>
					<polygon class="st550" points="110.03,100.8 105.48,103.03 105.48,101.24 110.03,99.01 					"/>
					<g>
						<rect x="104.42" y="68.56" class="st594" width="2.1" height="31.24"/>
						<polygon class="st588" points="103.2,67.77 104.42,68.56 104.42,99.8 103.2,99.01 						"/>
						<polygon class="st595" points="107.75,67.77 106.54,68.56 106.54,99.8 107.75,99.01 						"/>
					</g>
				</g>
				<g>
					<polygon class="st593" points="90.88,94.1 95.43,96.33 99.98,94.07 95.43,91.84 					"/>
					<polygon class="st588" points="90.89,95.88 95.44,98.11 95.44,96.32 90.89,94.09 					"/>
					<polygon class="st550" points="99.99,95.88 95.44,98.11 95.44,96.32 99.99,94.09 					"/>
					<g>
						<rect x="94.38" y="63.64" class="st594" width="2.09" height="31.24"/>
						<polygon class="st588" points="93.16,62.85 94.38,63.64 94.38,94.88 93.16,94.09 						"/>
						<polygon class="st595" points="97.71,62.85 96.5,63.64 96.5,94.88 97.71,94.09 						"/>
					</g>
				</g>
				<g>
					<polygon class="st593" points="80.83,89.18 85.38,91.41 89.93,89.15 85.38,86.92 					"/>
					<polygon class="st588" points="80.84,90.96 85.39,93.19 85.39,91.4 80.84,89.17 					"/>
					<polygon class="st550" points="89.94,90.96 85.39,93.19 85.39,91.4 89.94,89.17 					"/>
					<g>
						<rect x="84.33" y="58.72" class="st594" width="2.1" height="31.24"/>
						<polygon class="st588" points="83.12,57.93 84.33,58.72 84.33,89.96 83.12,89.17 						"/>
						<polygon class="st595" points="87.67,57.93 86.45,58.72 86.45,89.96 87.67,89.17 						"/>
					</g>
				</g>
				<g>
					<polygon class="st593" points="70.79,84.26 75.34,86.49 79.89,84.23 75.34,82 					"/>
					<polygon class="st588" points="70.8,86.04 75.35,88.27 75.35,86.48 70.8,84.24 					"/>
					<polygon class="st550" points="79.9,86.04 75.35,88.27 75.35,86.48 79.9,84.24 					"/>
					<g>
						<rect x="74.29" y="53.8" class="st594" width="2.1" height="31.24"/>
						<polygon class="st588" points="73.08,53.01 74.29,53.8 74.29,85.04 73.08,84.24 						"/>
						<polygon class="st595" points="77.63,53.01 76.41,53.8 76.41,85.04 77.63,84.24 						"/>
					</g>
				</g>
				<g>
					<polygon class="st593" points="120.95,98.96 125.5,101.19 130.05,98.94 125.5,96.71 					"/>
					<polygon class="st588" points="120.96,100.75 125.51,102.98 125.51,101.18 120.96,98.95 					"/>
					<polygon class="st550" points="130.06,100.75 125.51,102.98 125.51,101.18 130.06,98.95 					"/>
					<g>
						<rect x="124.45" y="68.5" class="st594" width="2.1" height="31.24"/>
						<polygon class="st588" points="123.24,67.71 124.45,68.5 124.45,99.74 123.24,98.95 						"/>
						<polygon class="st595" points="127.79,67.71 126.57,68.5 126.57,99.74 127.79,98.95 						"/>
					</g>
				</g>
				<g>
					<polygon class="st593" points="141.09,89.18 145.64,91.41 150.19,89.15 145.64,86.92 					"/>
					<polygon class="st588" points="141.1,90.96 145.65,93.19 145.65,91.4 141.1,89.17 					"/>
					<polygon class="st550" points="150.2,90.96 145.65,93.19 145.65,91.4 150.2,89.17 					"/>
					<g>
						<rect x="144.59" y="58.72" class="st594" width="2.1" height="31.24"/>
						<polygon class="st588" points="143.37,57.93 144.59,58.72 144.59,89.96 143.37,89.17 						"/>
						<polygon class="st595" points="147.93,57.93 146.71,58.72 146.71,89.96 147.93,89.17 						"/>
					</g>
				</g>
				<g>
					<polygon class="st593" points="151.13,84.26 155.68,86.49 160.23,84.23 155.68,82 					"/>
					<polygon class="st588" points="151.14,86.04 155.69,88.27 155.69,86.48 151.14,84.24 					"/>
					<polygon class="st550" points="160.24,86.04 155.69,88.27 155.69,86.48 160.24,84.24 					"/>
					<g>
						<rect x="154.63" y="53.8" class="st594" width="2.1" height="31.24"/>
						<polygon class="st588" points="153.42,53.01 154.63,53.8 154.63,85.04 153.42,84.24 						"/>
						<polygon class="st595" points="157.97,53.01 156.75,53.8 156.75,85.04 157.97,84.24 						"/>
					</g>
				</g>
				<g>
					<polygon class="st596" points="165.71,54.62 115.49,79.16 115.49,71.07 165.71,46.52 					"/>
					<polygon class="st597" points="65.28,54.62 115.49,79.16 115.49,71.07 65.28,46.52 					"/>
					<polygon class="st598" points="65.28,46.83 115.49,71.38 140.6,37.46 90.38,12.91 					"/>
					<polygon class="st599" points="90.41,12.91 140.62,37.46 165.72,46.52 115.5,21.97 					"/>
					<polygon class="st596" points="165.71,46.52 140.6,37.46 115.51,71.07 					"/>
					<g>
						<polygon class="st589" points="160.27,47.97 140.6,40.88 120.95,67.21 						"/>
						<polygon class="st550" points="157.98,47.15 140.6,40.88 123.24,64.14 						"/>
						<g>
							<path class="st589" d="M137.29,51.46c0,2.19,1.65,3.18,3.7,2.2c2.04-0.98,3.7-3.55,3.7-5.75c0-2.19-1.66-3.18-3.7-2.2
								C138.95,46.69,137.29,49.27,137.29,51.46z"/>
							<path class="st600" d="M137.29,50.99c0,2.02,1.53,2.93,3.41,2.03c1.88-0.9,3.41-3.27,3.41-5.3c0-2.02-1.53-2.94-3.41-2.03
								C138.82,46.59,137.29,48.96,137.29,50.99z"/>
						</g>
					</g>
					<g>
						<polygon class="st598" points="151.12,60.76 130.08,71.05 130.08,64.71 151.12,54.42 						"/>
						<polygon class="st599" points="151.12,54.41 130.08,64.69 129.42,64.33 150.47,54.04 						"/>
						<polygon class="st601" points="129.42,70.68 130.08,71.05 130.08,64.71 129.42,64.34 						"/>
					</g>
				</g>
			</g>
			<g>
				<path class="st596" d="M134.43,63.24l1.2-0.61c0.71-0.36,1.28-0.37,1.28,0.58c0,0.44-0.17,1.01-0.45,1.3v0.03
					c0.35-0.04,0.61,0.2,0.61,0.86c0,1.01-0.6,1.77-1.35,2.15l-1.3,0.66V63.24z M135.61,64.62c0.35-0.18,0.51-0.48,0.51-0.82
					c0-0.35-0.16-0.42-0.51-0.24l-0.34,0.17v1.06L135.61,64.62z M135.68,66.67c0.4-0.2,0.6-0.51,0.6-0.94c0-0.41-0.2-0.47-0.6-0.26
					l-0.41,0.21v1.2L135.68,66.67z"/>
				<path class="st596" d="M139.74,64.38l-1.02,0.51l-0.2,1.24l-0.84,0.43l1.07-5.5l0.99-0.5l1.07,4.42l-0.87,0.44L139.74,64.38z
					 M139.59,63.54l-0.07-0.38c-0.09-0.45-0.18-1-0.27-1.46l-0.02,0.01c-0.08,0.56-0.18,1.19-0.26,1.73l-0.07,0.46L139.59,63.54z"/>
				<path class="st596" d="M141.64,59.61l0.84-0.43l0.86,1.94l0.34,0.93l0.02-0.01c-0.05-0.5-0.11-1.18-0.11-1.78v-1.64l0.79-0.4
					v4.96l-0.84,0.43l-0.85-1.96l-0.34-0.92l-0.02,0.01c0.04,0.54,0.11,1.18,0.11,1.78v1.65l-0.79,0.4V59.61z"/>
				<path class="st596" d="M145.65,57.58l0.83-0.42v1.96l0.01-0.01l0.98-2.45l0.91-0.46l-1.04,2.51l1.24,2.35l-0.91,0.46l-0.81-1.63
					l-0.38,0.92v1.3l-0.83,0.42V57.58z"/>
			</g>
		</g>
		<g>
			<g>
				<g>
					<path class="st49" d="M57.24,85.39l-0.41,14.29c0,0.38,0.43,0.57,0.85,0.57V85.39H57.24z"/>
					<path class="st50" d="M58.16,85.39h-0.47v14.86c0.42,0,0.85-0.19,0.85-0.57L58.16,85.39z"/>
				</g>
				<polygon class="st51" points="56.9,59.64 57.01,78.91 49.37,82.48 				"/>
				<polygon class="st52" points="57.01,78.91 65.39,84.26 63.2,72.93 				"/>
				<polygon class="st53" points="49.37,82.48 57.44,86.77 57.01,78.91 				"/>
				<polygon class="st55" points="57.44,86.77 57.69,89.43 49.37,82.48 				"/>
				<polygon class="st56" points="56.9,59.64 57.01,78.91 63.2,72.93 				"/>
				<polygon class="st57" points="57.69,89.43 65.39,84.26 57.45,86.66 				"/>
				<polygon class="st54" points="57.44,86.77 65.39,84.26 57.01,78.91 				"/>
			</g>
		</g>
	</g>
</g>
</svg>
